<?xml version="1.0" encoding="utf-8" standalone="no"?>
<!DOCTYPE svg PUBLIC "-//W3C//DTD SVG 1.1//EN"
  "http://www.w3.org/Graphics/SVG/1.1/DTD/svg11.dtd">
<svg xmlns:xlink="http://www.w3.org/1999/xlink" width="395.328125pt" height="281.634375pt" viewBox="0 0 395.328125 281.634375" xmlns="http://www.w3.org/2000/svg" version="1.1">
 <metadata>
  <rdf:RDF xmlns:dc="http://purl.org/dc/elements/1.1/" xmlns:cc="http://creativecommons.org/ns#" xmlns:rdf="http://www.w3.org/1999/02/22-rdf-syntax-ns#">
   <cc:Work>
    <dc:type rdf:resource="http://purl.org/dc/dcmitype/StillImage"/>
    <dc:date>2025-06-30T19:57:48.860207</dc:date>
    <dc:format>image/svg+xml</dc:format>
    <dc:creator>
     <cc:Agent>
      <dc:title>Matplotlib v3.10.3, https://matplotlib.org/</dc:title>
     </cc:Agent>
    </dc:creator>
   </cc:Work>
  </rdf:RDF>
 </metadata>
 <defs>
  <style type="text/css">*{stroke-linejoin: round; stroke-linecap: butt}</style>
 </defs>
 <g id="figure_1">
  <g id="patch_1">
   <path d="M 0 281.634375 
L 395.328125 281.634375 
L 395.328125 0 
L 0 0 
z
" style="fill: #ffffff"/>
  </g>
  <g id="axes_1">
   <g id="patch_2">
    <path d="M 53.328125 244.078125 
L 388.128125 244.078125 
L 388.128125 22.318125 
L 53.328125 22.318125 
z
" style="fill: #ffffff"/>
   </g>
   <g id="patch_3">
    <path d="M 68.546307 244.078125 
L 77.498178 244.078125 
L 77.498178 32.878125 
L 68.546307 32.878125 
z
" clip-path="url(#p4166d53eae)" style="fill: #1f77b4; fill-opacity: 0.5; stroke: #000000; stroke-width: 0.895187; stroke-linejoin: miter"/>
   </g>
   <g id="patch_4">
    <path d="M 77.498178 244.078125 
L 86.45005 244.078125 
L 86.45005 162.302995 
L 77.498178 162.302995 
z
" clip-path="url(#p4166d53eae)" style="fill: #1f77b4; fill-opacity: 0.5; stroke: #000000; stroke-width: 0.895187; stroke-linejoin: miter"/>
   </g>
   <g id="patch_5">
    <path d="M 86.45005 244.078125 
L 95.401922 244.078125 
L 95.401922 173.782965 
L 86.45005 173.782965 
z
" clip-path="url(#p4166d53eae)" style="fill: #1f77b4; fill-opacity: 0.5; stroke: #000000; stroke-width: 0.895187; stroke-linejoin: miter"/>
   </g>
   <g id="patch_6">
    <path d="M 95.401922 244.078125 
L 104.353793 244.078125 
L 104.353793 186.049234 
L 95.401922 186.049234 
z
" clip-path="url(#p4166d53eae)" style="fill: #1f77b4; fill-opacity: 0.5; stroke: #000000; stroke-width: 0.895187; stroke-linejoin: miter"/>
   </g>
   <g id="patch_7">
    <path d="M 104.353793 244.078125 
L 113.305665 244.078125 
L 113.305665 198.630024 
L 104.353793 198.630024 
z
" clip-path="url(#p4166d53eae)" style="fill: #1f77b4; fill-opacity: 0.5; stroke: #000000; stroke-width: 0.895187; stroke-linejoin: miter"/>
   </g>
   <g id="patch_8">
    <path d="M 113.305665 244.078125 
L 122.257537 244.078125 
L 122.257537 203.19056 
L 113.305665 203.19056 
z
" clip-path="url(#p4166d53eae)" style="fill: #1f77b4; fill-opacity: 0.5; stroke: #000000; stroke-width: 0.895187; stroke-linejoin: miter"/>
   </g>
   <g id="patch_9">
    <path d="M 122.257537 244.078125 
L 131.209408 244.078125 
L 131.209408 210.267254 
L 122.257537 210.267254 
z
" clip-path="url(#p4166d53eae)" style="fill: #1f77b4; fill-opacity: 0.5; stroke: #000000; stroke-width: 0.895187; stroke-linejoin: miter"/>
   </g>
   <g id="patch_10">
    <path d="M 131.209408 244.078125 
L 140.16128 244.078125 
L 140.16128 215.14231 
L 131.209408 215.14231 
z
" clip-path="url(#p4166d53eae)" style="fill: #1f77b4; fill-opacity: 0.5; stroke: #000000; stroke-width: 0.895187; stroke-linejoin: miter"/>
   </g>
   <g id="patch_11">
    <path d="M 140.16128 244.078125 
L 149.113152 244.078125 
L 149.113152 218.759287 
L 140.16128 218.759287 
z
" clip-path="url(#p4166d53eae)" style="fill: #1f77b4; fill-opacity: 0.5; stroke: #000000; stroke-width: 0.895187; stroke-linejoin: miter"/>
   </g>
   <g id="patch_12">
    <path d="M 149.113152 244.078125 
L 158.065023 244.078125 
L 158.065023 220.803665 
L 149.113152 220.803665 
z
" clip-path="url(#p4166d53eae)" style="fill: #1f77b4; fill-opacity: 0.5; stroke: #000000; stroke-width: 0.895187; stroke-linejoin: miter"/>
   </g>
   <g id="patch_13">
    <path d="M 158.065023 244.078125 
L 167.016895 244.078125 
L 167.016895 227.880359 
L 158.065023 227.880359 
z
" clip-path="url(#p4166d53eae)" style="fill: #1f77b4; fill-opacity: 0.5; stroke: #000000; stroke-width: 0.895187; stroke-linejoin: miter"/>
   </g>
   <g id="patch_14">
    <path d="M 167.016895 244.078125 
L 175.968767 244.078125 
L 175.968767 224.420642 
L 167.016895 224.420642 
z
" clip-path="url(#p4166d53eae)" style="fill: #1f77b4; fill-opacity: 0.5; stroke: #000000; stroke-width: 0.895187; stroke-linejoin: miter"/>
   </g>
   <g id="patch_15">
    <path d="M 175.968767 244.078125 
L 184.920638 244.078125 
L 184.920638 230.081997 
L 175.968767 230.081997 
z
" clip-path="url(#p4166d53eae)" style="fill: #1f77b4; fill-opacity: 0.5; stroke: #000000; stroke-width: 0.895187; stroke-linejoin: miter"/>
   </g>
   <g id="patch_16">
    <path d="M 184.920638 244.078125 
L 193.87251 244.078125 
L 193.87251 231.969115 
L 184.920638 231.969115 
z
" clip-path="url(#p4166d53eae)" style="fill: #1f77b4; fill-opacity: 0.5; stroke: #000000; stroke-width: 0.895187; stroke-linejoin: miter"/>
   </g>
   <g id="patch_17">
    <path d="M 193.87251 244.078125 
L 202.824382 244.078125 
L 202.824382 232.126375 
L 193.87251 232.126375 
z
" clip-path="url(#p4166d53eae)" style="fill: #1f77b4; fill-opacity: 0.5; stroke: #000000; stroke-width: 0.895187; stroke-linejoin: miter"/>
   </g>
   <g id="patch_18">
    <path d="M 202.824382 244.078125 
L 211.776253 244.078125 
L 211.776253 230.553777 
L 202.824382 230.553777 
z
" clip-path="url(#p4166d53eae)" style="fill: #1f77b4; fill-opacity: 0.5; stroke: #000000; stroke-width: 0.895187; stroke-linejoin: miter"/>
   </g>
   <g id="patch_19">
    <path d="M 211.776253 244.078125 
L 220.728125 244.078125 
L 220.728125 235.428832 
L 211.776253 235.428832 
z
" clip-path="url(#p4166d53eae)" style="fill: #1f77b4; fill-opacity: 0.5; stroke: #000000; stroke-width: 0.895187; stroke-linejoin: miter"/>
   </g>
   <g id="patch_20">
    <path d="M 220.728125 244.078125 
L 229.679997 244.078125 
L 229.679997 236.686911 
L 220.728125 236.686911 
z
" clip-path="url(#p4166d53eae)" style="fill: #1f77b4; fill-opacity: 0.5; stroke: #000000; stroke-width: 0.895187; stroke-linejoin: miter"/>
   </g>
   <g id="patch_21">
    <path d="M 229.679997 244.078125 
L 238.631868 244.078125 
L 238.631868 235.900612 
L 229.679997 235.900612 
z
" clip-path="url(#p4166d53eae)" style="fill: #1f77b4; fill-opacity: 0.5; stroke: #000000; stroke-width: 0.895187; stroke-linejoin: miter"/>
   </g>
   <g id="patch_22">
    <path d="M 238.631868 244.078125 
L 247.58374 244.078125 
L 247.58374 235.586092 
L 238.631868 235.586092 
z
" clip-path="url(#p4166d53eae)" style="fill: #1f77b4; fill-opacity: 0.5; stroke: #000000; stroke-width: 0.895187; stroke-linejoin: miter"/>
   </g>
   <g id="patch_23">
    <path d="M 247.58374 244.078125 
L 256.535612 244.078125 
L 256.535612 236.215132 
L 247.58374 236.215132 
z
" clip-path="url(#p4166d53eae)" style="fill: #1f77b4; fill-opacity: 0.5; stroke: #000000; stroke-width: 0.895187; stroke-linejoin: miter"/>
   </g>
   <g id="patch_24">
    <path d="M 256.535612 244.078125 
L 265.487483 244.078125 
L 265.487483 235.271573 
L 256.535612 235.271573 
z
" clip-path="url(#p4166d53eae)" style="fill: #1f77b4; fill-opacity: 0.5; stroke: #000000; stroke-width: 0.895187; stroke-linejoin: miter"/>
   </g>
   <g id="patch_25">
    <path d="M 265.487483 244.078125 
L 274.439355 244.078125 
L 274.439355 236.686911 
L 265.487483 236.686911 
z
" clip-path="url(#p4166d53eae)" style="fill: #1f77b4; fill-opacity: 0.5; stroke: #000000; stroke-width: 0.895187; stroke-linejoin: miter"/>
   </g>
   <g id="patch_26">
    <path d="M 274.439355 244.078125 
L 283.391227 244.078125 
L 283.391227 236.215132 
L 274.439355 236.215132 
z
" clip-path="url(#p4166d53eae)" style="fill: #1f77b4; fill-opacity: 0.5; stroke: #000000; stroke-width: 0.895187; stroke-linejoin: miter"/>
   </g>
   <g id="patch_27">
    <path d="M 283.391227 244.078125 
L 292.343098 244.078125 
L 292.343098 238.25951 
L 283.391227 238.25951 
z
" clip-path="url(#p4166d53eae)" style="fill: #1f77b4; fill-opacity: 0.5; stroke: #000000; stroke-width: 0.895187; stroke-linejoin: miter"/>
   </g>
   <g id="patch_28">
    <path d="M 292.343098 244.078125 
L 301.29497 244.078125 
L 301.29497 236.529651 
L 292.343098 236.529651 
z
" clip-path="url(#p4166d53eae)" style="fill: #1f77b4; fill-opacity: 0.5; stroke: #000000; stroke-width: 0.895187; stroke-linejoin: miter"/>
   </g>
   <g id="patch_29">
    <path d="M 301.29497 244.078125 
L 310.246842 244.078125 
L 310.246842 239.674849 
L 301.29497 239.674849 
z
" clip-path="url(#p4166d53eae)" style="fill: #1f77b4; fill-opacity: 0.5; stroke: #000000; stroke-width: 0.895187; stroke-linejoin: miter"/>
   </g>
   <g id="patch_30">
    <path d="M 310.246842 244.078125 
L 319.198713 244.078125 
L 319.198713 238.888549 
L 310.246842 238.888549 
z
" clip-path="url(#p4166d53eae)" style="fill: #1f77b4; fill-opacity: 0.5; stroke: #000000; stroke-width: 0.895187; stroke-linejoin: miter"/>
   </g>
   <g id="patch_31">
    <path d="M 319.198713 244.078125 
L 328.150585 244.078125 
L 328.150585 240.303888 
L 319.198713 240.303888 
z
" clip-path="url(#p4166d53eae)" style="fill: #1f77b4; fill-opacity: 0.5; stroke: #000000; stroke-width: 0.895187; stroke-linejoin: miter"/>
   </g>
   <g id="patch_32">
    <path d="M 328.150585 244.078125 
L 337.102457 244.078125 
L 337.102457 239.517589 
L 328.150585 239.517589 
z
" clip-path="url(#p4166d53eae)" style="fill: #1f77b4; fill-opacity: 0.5; stroke: #000000; stroke-width: 0.895187; stroke-linejoin: miter"/>
   </g>
   <g id="patch_33">
    <path d="M 337.102457 244.078125 
L 346.054328 244.078125 
L 346.054328 239.517589 
L 337.102457 239.517589 
z
" clip-path="url(#p4166d53eae)" style="fill: #1f77b4; fill-opacity: 0.5; stroke: #000000; stroke-width: 0.895187; stroke-linejoin: miter"/>
   </g>
   <g id="patch_34">
    <path d="M 346.054328 244.078125 
L 355.0062 244.078125 
L 355.0062 240.775668 
L 346.054328 240.775668 
z
" clip-path="url(#p4166d53eae)" style="fill: #1f77b4; fill-opacity: 0.5; stroke: #000000; stroke-width: 0.895187; stroke-linejoin: miter"/>
   </g>
   <g id="patch_35">
    <path d="M 355.0062 244.078125 
L 363.958072 244.078125 
L 363.958072 240.618408 
L 355.0062 240.618408 
z
" clip-path="url(#p4166d53eae)" style="fill: #1f77b4; fill-opacity: 0.5; stroke: #000000; stroke-width: 0.895187; stroke-linejoin: miter"/>
   </g>
   <g id="patch_36">
    <path d="M 363.958072 244.078125 
L 372.909943 244.078125 
L 372.909943 240.618408 
L 363.958072 240.618408 
z
" clip-path="url(#p4166d53eae)" style="fill: #1f77b4; fill-opacity: 0.5; stroke: #000000; stroke-width: 0.895187; stroke-linejoin: miter"/>
   </g>
   <g id="matplotlib.axis_1">
    <g id="xtick_1">
     <g id="line2d_1">
      <defs>
       <path id="mc216730086" d="M 0 0 
L 0 3.5 
" style="stroke: #000000; stroke-width: 0.8"/>
      </defs>
      <g>
       <use xlink:href="#mc216730086" x="68.546307" y="244.078125" style="stroke: #000000; stroke-width: 0.8"/>
      </g>
     </g>
     <g id="text_1">
      <!-- 0.00 -->
      <g transform="translate(57.413494 258.676562) scale(0.1 -0.1)">
       <defs>
        <path id="DejaVuSans-30" d="M 2034 4250 
Q 1547 4250 1301 3770 
Q 1056 3291 1056 2328 
Q 1056 1369 1301 889 
Q 1547 409 2034 409 
Q 2525 409 2770 889 
Q 3016 1369 3016 2328 
Q 3016 3291 2770 3770 
Q 2525 4250 2034 4250 
z
M 2034 4750 
Q 2819 4750 3233 4129 
Q 3647 3509 3647 2328 
Q 3647 1150 3233 529 
Q 2819 -91 2034 -91 
Q 1250 -91 836 529 
Q 422 1150 422 2328 
Q 422 3509 836 4129 
Q 1250 4750 2034 4750 
z
" transform="scale(0.015625)"/>
        <path id="DejaVuSans-2e" d="M 684 794 
L 1344 794 
L 1344 0 
L 684 0 
L 684 794 
z
" transform="scale(0.015625)"/>
       </defs>
       <use xlink:href="#DejaVuSans-30"/>
       <use xlink:href="#DejaVuSans-2e" transform="translate(63.623047 0)"/>
       <use xlink:href="#DejaVuSans-30" transform="translate(95.410156 0)"/>
       <use xlink:href="#DejaVuSans-30" transform="translate(159.033203 0)"/>
      </g>
     </g>
    </g>
    <g id="xtick_2">
     <g id="line2d_2">
      <g>
       <use xlink:href="#mc216730086" x="137.028125" y="244.078125" style="stroke: #000000; stroke-width: 0.8"/>
      </g>
     </g>
     <g id="text_2">
      <!-- 0.01 -->
      <g transform="translate(125.895313 258.676562) scale(0.1 -0.1)">
       <defs>
        <path id="DejaVuSans-31" d="M 794 531 
L 1825 531 
L 1825 4091 
L 703 3866 
L 703 4441 
L 1819 4666 
L 2450 4666 
L 2450 531 
L 3481 531 
L 3481 0 
L 794 0 
L 794 531 
z
" transform="scale(0.015625)"/>
       </defs>
       <use xlink:href="#DejaVuSans-30"/>
       <use xlink:href="#DejaVuSans-2e" transform="translate(63.623047 0)"/>
       <use xlink:href="#DejaVuSans-30" transform="translate(95.410156 0)"/>
       <use xlink:href="#DejaVuSans-31" transform="translate(159.033203 0)"/>
      </g>
     </g>
    </g>
    <g id="xtick_3">
     <g id="line2d_3">
      <g>
       <use xlink:href="#mc216730086" x="205.509943" y="244.078125" style="stroke: #000000; stroke-width: 0.8"/>
      </g>
     </g>
     <g id="text_3">
      <!-- 0.02 -->
      <g transform="translate(194.377131 258.676562) scale(0.1 -0.1)">
       <defs>
        <path id="DejaVuSans-32" d="M 1228 531 
L 3431 531 
L 3431 0 
L 469 0 
L 469 531 
Q 828 903 1448 1529 
Q 2069 2156 2228 2338 
Q 2531 2678 2651 2914 
Q 2772 3150 2772 3378 
Q 2772 3750 2511 3984 
Q 2250 4219 1831 4219 
Q 1534 4219 1204 4116 
Q 875 4013 500 3803 
L 500 4441 
Q 881 4594 1212 4672 
Q 1544 4750 1819 4750 
Q 2544 4750 2975 4387 
Q 3406 4025 3406 3419 
Q 3406 3131 3298 2873 
Q 3191 2616 2906 2266 
Q 2828 2175 2409 1742 
Q 1991 1309 1228 531 
z
" transform="scale(0.015625)"/>
       </defs>
       <use xlink:href="#DejaVuSans-30"/>
       <use xlink:href="#DejaVuSans-2e" transform="translate(63.623047 0)"/>
       <use xlink:href="#DejaVuSans-30" transform="translate(95.410156 0)"/>
       <use xlink:href="#DejaVuSans-32" transform="translate(159.033203 0)"/>
      </g>
     </g>
    </g>
    <g id="xtick_4">
     <g id="line2d_4">
      <g>
       <use xlink:href="#mc216730086" x="273.991761" y="244.078125" style="stroke: #000000; stroke-width: 0.8"/>
      </g>
     </g>
     <g id="text_4">
      <!-- 0.03 -->
      <g transform="translate(262.858949 258.676562) scale(0.1 -0.1)">
       <defs>
        <path id="DejaVuSans-33" d="M 2597 2516 
Q 3050 2419 3304 2112 
Q 3559 1806 3559 1356 
Q 3559 666 3084 287 
Q 2609 -91 1734 -91 
Q 1441 -91 1130 -33 
Q 819 25 488 141 
L 488 750 
Q 750 597 1062 519 
Q 1375 441 1716 441 
Q 2309 441 2620 675 
Q 2931 909 2931 1356 
Q 2931 1769 2642 2001 
Q 2353 2234 1838 2234 
L 1294 2234 
L 1294 2753 
L 1863 2753 
Q 2328 2753 2575 2939 
Q 2822 3125 2822 3475 
Q 2822 3834 2567 4026 
Q 2313 4219 1838 4219 
Q 1578 4219 1281 4162 
Q 984 4106 628 3988 
L 628 4550 
Q 988 4650 1302 4700 
Q 1616 4750 1894 4750 
Q 2613 4750 3031 4423 
Q 3450 4097 3450 3541 
Q 3450 3153 3228 2886 
Q 3006 2619 2597 2516 
z
" transform="scale(0.015625)"/>
       </defs>
       <use xlink:href="#DejaVuSans-30"/>
       <use xlink:href="#DejaVuSans-2e" transform="translate(63.623047 0)"/>
       <use xlink:href="#DejaVuSans-30" transform="translate(95.410156 0)"/>
       <use xlink:href="#DejaVuSans-33" transform="translate(159.033203 0)"/>
      </g>
     </g>
    </g>
    <g id="xtick_5">
     <g id="line2d_5">
      <g>
       <use xlink:href="#mc216730086" x="342.47358" y="244.078125" style="stroke: #000000; stroke-width: 0.8"/>
      </g>
     </g>
     <g id="text_5">
      <!-- 0.04 -->
      <g transform="translate(331.340767 258.676562) scale(0.1 -0.1)">
       <defs>
        <path id="DejaVuSans-34" d="M 2419 4116 
L 825 1625 
L 2419 1625 
L 2419 4116 
z
M 2253 4666 
L 3047 4666 
L 3047 1625 
L 3713 1625 
L 3713 1100 
L 3047 1100 
L 3047 0 
L 2419 0 
L 2419 1100 
L 313 1100 
L 313 1709 
L 2253 4666 
z
" transform="scale(0.015625)"/>
       </defs>
       <use xlink:href="#DejaVuSans-30"/>
       <use xlink:href="#DejaVuSans-2e" transform="translate(63.623047 0)"/>
       <use xlink:href="#DejaVuSans-30" transform="translate(95.410156 0)"/>
       <use xlink:href="#DejaVuSans-34" transform="translate(159.033203 0)"/>
      </g>
     </g>
    </g>
    <g id="text_6">
     <!-- ld -->
     <g transform="translate(216.164844 272.354687) scale(0.1 -0.1)">
      <defs>
       <path id="DejaVuSans-6c" d="M 603 4863 
L 1178 4863 
L 1178 0 
L 603 0 
L 603 4863 
z
" transform="scale(0.015625)"/>
       <path id="DejaVuSans-64" d="M 2906 2969 
L 2906 4863 
L 3481 4863 
L 3481 0 
L 2906 0 
L 2906 525 
Q 2725 213 2448 61 
Q 2172 -91 1784 -91 
Q 1150 -91 751 415 
Q 353 922 353 1747 
Q 353 2572 751 3078 
Q 1150 3584 1784 3584 
Q 2172 3584 2448 3432 
Q 2725 3281 2906 2969 
z
M 947 1747 
Q 947 1113 1208 752 
Q 1469 391 1925 391 
Q 2381 391 2643 752 
Q 2906 1113 2906 1747 
Q 2906 2381 2643 2742 
Q 2381 3103 1925 3103 
Q 1469 3103 1208 2742 
Q 947 2381 947 1747 
z
" transform="scale(0.015625)"/>
      </defs>
      <use xlink:href="#DejaVuSans-6c"/>
      <use xlink:href="#DejaVuSans-64" transform="translate(27.783203 0)"/>
     </g>
    </g>
   </g>
   <g id="matplotlib.axis_2">
    <g id="ytick_1">
     <g id="line2d_6">
      <defs>
       <path id="m181dd53575" d="M 0 0 
L -3.5 0 
" style="stroke: #000000; stroke-width: 0.8"/>
      </defs>
      <g>
       <use xlink:href="#m181dd53575" x="53.328125" y="244.078125" style="stroke: #000000; stroke-width: 0.8"/>
      </g>
     </g>
     <g id="text_7">
      <!-- 0 -->
      <g transform="translate(39.965625 247.877344) scale(0.1 -0.1)">
       <use xlink:href="#DejaVuSans-30"/>
      </g>
     </g>
    </g>
    <g id="ytick_2">
     <g id="line2d_7">
      <g>
       <use xlink:href="#m181dd53575" x="53.328125" y="212.626152" style="stroke: #000000; stroke-width: 0.8"/>
      </g>
     </g>
     <g id="text_8">
      <!-- 200 -->
      <g transform="translate(27.240625 216.425371) scale(0.1 -0.1)">
       <use xlink:href="#DejaVuSans-32"/>
       <use xlink:href="#DejaVuSans-30" transform="translate(63.623047 0)"/>
       <use xlink:href="#DejaVuSans-30" transform="translate(127.246094 0)"/>
      </g>
     </g>
    </g>
    <g id="ytick_3">
     <g id="line2d_8">
      <g>
       <use xlink:href="#m181dd53575" x="53.328125" y="181.174179" style="stroke: #000000; stroke-width: 0.8"/>
      </g>
     </g>
     <g id="text_9">
      <!-- 400 -->
      <g transform="translate(27.240625 184.973397) scale(0.1 -0.1)">
       <use xlink:href="#DejaVuSans-34"/>
       <use xlink:href="#DejaVuSans-30" transform="translate(63.623047 0)"/>
       <use xlink:href="#DejaVuSans-30" transform="translate(127.246094 0)"/>
      </g>
     </g>
    </g>
    <g id="ytick_4">
     <g id="line2d_9">
      <g>
       <use xlink:href="#m181dd53575" x="53.328125" y="149.722205" style="stroke: #000000; stroke-width: 0.8"/>
      </g>
     </g>
     <g id="text_10">
      <!-- 600 -->
      <g transform="translate(27.240625 153.521424) scale(0.1 -0.1)">
       <defs>
        <path id="DejaVuSans-36" d="M 2113 2584 
Q 1688 2584 1439 2293 
Q 1191 2003 1191 1497 
Q 1191 994 1439 701 
Q 1688 409 2113 409 
Q 2538 409 2786 701 
Q 3034 994 3034 1497 
Q 3034 2003 2786 2293 
Q 2538 2584 2113 2584 
z
M 3366 4563 
L 3366 3988 
Q 3128 4100 2886 4159 
Q 2644 4219 2406 4219 
Q 1781 4219 1451 3797 
Q 1122 3375 1075 2522 
Q 1259 2794 1537 2939 
Q 1816 3084 2150 3084 
Q 2853 3084 3261 2657 
Q 3669 2231 3669 1497 
Q 3669 778 3244 343 
Q 2819 -91 2113 -91 
Q 1303 -91 875 529 
Q 447 1150 447 2328 
Q 447 3434 972 4092 
Q 1497 4750 2381 4750 
Q 2619 4750 2861 4703 
Q 3103 4656 3366 4563 
z
" transform="scale(0.015625)"/>
       </defs>
       <use xlink:href="#DejaVuSans-36"/>
       <use xlink:href="#DejaVuSans-30" transform="translate(63.623047 0)"/>
       <use xlink:href="#DejaVuSans-30" transform="translate(127.246094 0)"/>
      </g>
     </g>
    </g>
    <g id="ytick_5">
     <g id="line2d_10">
      <g>
       <use xlink:href="#m181dd53575" x="53.328125" y="118.270232" style="stroke: #000000; stroke-width: 0.8"/>
      </g>
     </g>
     <g id="text_11">
      <!-- 800 -->
      <g transform="translate(27.240625 122.069451) scale(0.1 -0.1)">
       <defs>
        <path id="DejaVuSans-38" d="M 2034 2216 
Q 1584 2216 1326 1975 
Q 1069 1734 1069 1313 
Q 1069 891 1326 650 
Q 1584 409 2034 409 
Q 2484 409 2743 651 
Q 3003 894 3003 1313 
Q 3003 1734 2745 1975 
Q 2488 2216 2034 2216 
z
M 1403 2484 
Q 997 2584 770 2862 
Q 544 3141 544 3541 
Q 544 4100 942 4425 
Q 1341 4750 2034 4750 
Q 2731 4750 3128 4425 
Q 3525 4100 3525 3541 
Q 3525 3141 3298 2862 
Q 3072 2584 2669 2484 
Q 3125 2378 3379 2068 
Q 3634 1759 3634 1313 
Q 3634 634 3220 271 
Q 2806 -91 2034 -91 
Q 1263 -91 848 271 
Q 434 634 434 1313 
Q 434 1759 690 2068 
Q 947 2378 1403 2484 
z
M 1172 3481 
Q 1172 3119 1398 2916 
Q 1625 2713 2034 2713 
Q 2441 2713 2670 2916 
Q 2900 3119 2900 3481 
Q 2900 3844 2670 4047 
Q 2441 4250 2034 4250 
Q 1625 4250 1398 4047 
Q 1172 3844 1172 3481 
z
" transform="scale(0.015625)"/>
       </defs>
       <use xlink:href="#DejaVuSans-38"/>
       <use xlink:href="#DejaVuSans-30" transform="translate(63.623047 0)"/>
       <use xlink:href="#DejaVuSans-30" transform="translate(127.246094 0)"/>
      </g>
     </g>
    </g>
    <g id="ytick_6">
     <g id="line2d_11">
      <g>
       <use xlink:href="#m181dd53575" x="53.328125" y="86.818259" style="stroke: #000000; stroke-width: 0.8"/>
      </g>
     </g>
     <g id="text_12">
      <!-- 1000 -->
      <g transform="translate(20.878125 90.617478) scale(0.1 -0.1)">
       <use xlink:href="#DejaVuSans-31"/>
       <use xlink:href="#DejaVuSans-30" transform="translate(63.623047 0)"/>
       <use xlink:href="#DejaVuSans-30" transform="translate(127.246094 0)"/>
       <use xlink:href="#DejaVuSans-30" transform="translate(190.869141 0)"/>
      </g>
     </g>
    </g>
    <g id="ytick_7">
     <g id="line2d_12">
      <g>
       <use xlink:href="#m181dd53575" x="53.328125" y="55.366286" style="stroke: #000000; stroke-width: 0.8"/>
      </g>
     </g>
     <g id="text_13">
      <!-- 1200 -->
      <g transform="translate(20.878125 59.165505) scale(0.1 -0.1)">
       <use xlink:href="#DejaVuSans-31"/>
       <use xlink:href="#DejaVuSans-32" transform="translate(63.623047 0)"/>
       <use xlink:href="#DejaVuSans-30" transform="translate(127.246094 0)"/>
       <use xlink:href="#DejaVuSans-30" transform="translate(190.869141 0)"/>
      </g>
     </g>
    </g>
    <g id="ytick_8">
     <g id="line2d_13">
      <g>
       <use xlink:href="#m181dd53575" x="53.328125" y="23.914313" style="stroke: #000000; stroke-width: 0.8"/>
      </g>
     </g>
     <g id="text_14">
      <!-- 1400 -->
      <g transform="translate(20.878125 27.713531) scale(0.1 -0.1)">
       <use xlink:href="#DejaVuSans-31"/>
       <use xlink:href="#DejaVuSans-34" transform="translate(63.623047 0)"/>
       <use xlink:href="#DejaVuSans-30" transform="translate(127.246094 0)"/>
       <use xlink:href="#DejaVuSans-30" transform="translate(190.869141 0)"/>
      </g>
     </g>
    </g>
    <g id="text_15">
     <!-- Count -->
     <g transform="translate(14.798438 148.046562) rotate(-90) scale(0.1 -0.1)">
      <defs>
       <path id="DejaVuSans-43" d="M 4122 4306 
L 4122 3641 
Q 3803 3938 3442 4084 
Q 3081 4231 2675 4231 
Q 1875 4231 1450 3742 
Q 1025 3253 1025 2328 
Q 1025 1406 1450 917 
Q 1875 428 2675 428 
Q 3081 428 3442 575 
Q 3803 722 4122 1019 
L 4122 359 
Q 3791 134 3420 21 
Q 3050 -91 2638 -91 
Q 1578 -91 968 557 
Q 359 1206 359 2328 
Q 359 3453 968 4101 
Q 1578 4750 2638 4750 
Q 3056 4750 3426 4639 
Q 3797 4528 4122 4306 
z
" transform="scale(0.015625)"/>
       <path id="DejaVuSans-6f" d="M 1959 3097 
Q 1497 3097 1228 2736 
Q 959 2375 959 1747 
Q 959 1119 1226 758 
Q 1494 397 1959 397 
Q 2419 397 2687 759 
Q 2956 1122 2956 1747 
Q 2956 2369 2687 2733 
Q 2419 3097 1959 3097 
z
M 1959 3584 
Q 2709 3584 3137 3096 
Q 3566 2609 3566 1747 
Q 3566 888 3137 398 
Q 2709 -91 1959 -91 
Q 1206 -91 779 398 
Q 353 888 353 1747 
Q 353 2609 779 3096 
Q 1206 3584 1959 3584 
z
" transform="scale(0.015625)"/>
       <path id="DejaVuSans-75" d="M 544 1381 
L 544 3500 
L 1119 3500 
L 1119 1403 
Q 1119 906 1312 657 
Q 1506 409 1894 409 
Q 2359 409 2629 706 
Q 2900 1003 2900 1516 
L 2900 3500 
L 3475 3500 
L 3475 0 
L 2900 0 
L 2900 538 
Q 2691 219 2414 64 
Q 2138 -91 1772 -91 
Q 1169 -91 856 284 
Q 544 659 544 1381 
z
M 1991 3584 
L 1991 3584 
z
" transform="scale(0.015625)"/>
       <path id="DejaVuSans-6e" d="M 3513 2113 
L 3513 0 
L 2938 0 
L 2938 2094 
Q 2938 2591 2744 2837 
Q 2550 3084 2163 3084 
Q 1697 3084 1428 2787 
Q 1159 2491 1159 1978 
L 1159 0 
L 581 0 
L 581 3500 
L 1159 3500 
L 1159 2956 
Q 1366 3272 1645 3428 
Q 1925 3584 2291 3584 
Q 2894 3584 3203 3211 
Q 3513 2838 3513 2113 
z
" transform="scale(0.015625)"/>
       <path id="DejaVuSans-74" d="M 1172 4494 
L 1172 3500 
L 2356 3500 
L 2356 3053 
L 1172 3053 
L 1172 1153 
Q 1172 725 1289 603 
Q 1406 481 1766 481 
L 2356 481 
L 2356 0 
L 1766 0 
Q 1100 0 847 248 
Q 594 497 594 1153 
L 594 3053 
L 172 3053 
L 172 3500 
L 594 3500 
L 594 4494 
L 1172 4494 
z
" transform="scale(0.015625)"/>
      </defs>
      <use xlink:href="#DejaVuSans-43"/>
      <use xlink:href="#DejaVuSans-6f" transform="translate(69.824219 0)"/>
      <use xlink:href="#DejaVuSans-75" transform="translate(131.005859 0)"/>
      <use xlink:href="#DejaVuSans-6e" transform="translate(194.384766 0)"/>
      <use xlink:href="#DejaVuSans-74" transform="translate(257.763672 0)"/>
     </g>
    </g>
   </g>
   <g id="line2d_14">
    <path d="M 68.546307 167.621042 
L 70.075772 164.32736 
L 71.605238 161.669897 
L 73.134703 159.676332 
L 74.664169 158.350061 
L 76.193634 157.671548 
L 77.7231 157.601052 
L 79.252565 158.082389 
L 80.782031 159.04736 
L 82.311496 160.420435 
L 83.840962 162.123297 
L 85.370427 164.078931 
L 88.429358 168.466401 
L 96.076686 179.822166 
L 99.135617 183.919791 
L 102.194548 187.658537 
L 105.253479 191.06084 
L 108.31241 194.173784 
L 111.371341 197.048059 
L 115.959738 201.000172 
L 120.548134 204.589095 
L 125.136531 207.83542 
L 129.724927 210.734685 
L 134.313324 213.29778 
L 138.90172 215.568511 
L 143.490117 217.610851 
L 149.607979 220.071673 
L 155.725841 222.280706 
L 161.843703 224.242363 
L 167.961565 225.982943 
L 175.608892 227.919758 
L 181.726755 229.265994 
L 187.844617 230.360353 
L 193.962479 231.19878 
L 209.257134 233.105706 
L 223.022323 235.069104 
L 227.61072 235.497761 
L 233.728582 235.807802 
L 241.375909 235.901534 
L 256.670564 235.990464 
L 267.376823 236.335804 
L 287.259875 237.296368 
L 299.495599 238.065334 
L 317.849185 239.341509 
L 327.025978 239.675065 
L 348.438495 240.263427 
L 356.085823 240.739116 
L 363.73315 241.411169 
L 372.909943 242.398782 
L 372.909943 242.398782 
" clip-path="url(#p4166d53eae)" style="fill: none; stroke: #1f77b4; stroke-width: 1.5; stroke-linecap: square"/>
   </g>
   <g id="patch_37">
    <path d="M 53.328125 244.078125 
L 53.328125 22.318125 
" style="fill: none; stroke: #000000; stroke-width: 0.8; stroke-linejoin: miter; stroke-linecap: square"/>
   </g>
   <g id="patch_38">
    <path d="M 388.128125 244.078125 
L 388.128125 22.318125 
" style="fill: none; stroke: #000000; stroke-width: 0.8; stroke-linejoin: miter; stroke-linecap: square"/>
   </g>
   <g id="patch_39">
    <path d="M 53.328125 244.078125 
L 388.128125 244.078125 
" style="fill: none; stroke: #000000; stroke-width: 0.8; stroke-linejoin: miter; stroke-linecap: square"/>
   </g>
   <g id="patch_40">
    <path d="M 53.328125 22.318125 
L 388.128125 22.318125 
" style="fill: none; stroke: #000000; stroke-width: 0.8; stroke-linejoin: miter; stroke-linecap: square"/>
   </g>
   <g id="text_16">
    <!-- Distribuzione di ld -->
    <g transform="translate(166.47125 16.318125) scale(0.12 -0.12)">
     <defs>
      <path id="DejaVuSans-44" d="M 1259 4147 
L 1259 519 
L 2022 519 
Q 2988 519 3436 956 
Q 3884 1394 3884 2338 
Q 3884 3275 3436 3711 
Q 2988 4147 2022 4147 
L 1259 4147 
z
M 628 4666 
L 1925 4666 
Q 3281 4666 3915 4102 
Q 4550 3538 4550 2338 
Q 4550 1131 3912 565 
Q 3275 0 1925 0 
L 628 0 
L 628 4666 
z
" transform="scale(0.015625)"/>
      <path id="DejaVuSans-69" d="M 603 3500 
L 1178 3500 
L 1178 0 
L 603 0 
L 603 3500 
z
M 603 4863 
L 1178 4863 
L 1178 4134 
L 603 4134 
L 603 4863 
z
" transform="scale(0.015625)"/>
      <path id="DejaVuSans-73" d="M 2834 3397 
L 2834 2853 
Q 2591 2978 2328 3040 
Q 2066 3103 1784 3103 
Q 1356 3103 1142 2972 
Q 928 2841 928 2578 
Q 928 2378 1081 2264 
Q 1234 2150 1697 2047 
L 1894 2003 
Q 2506 1872 2764 1633 
Q 3022 1394 3022 966 
Q 3022 478 2636 193 
Q 2250 -91 1575 -91 
Q 1294 -91 989 -36 
Q 684 19 347 128 
L 347 722 
Q 666 556 975 473 
Q 1284 391 1588 391 
Q 1994 391 2212 530 
Q 2431 669 2431 922 
Q 2431 1156 2273 1281 
Q 2116 1406 1581 1522 
L 1381 1569 
Q 847 1681 609 1914 
Q 372 2147 372 2553 
Q 372 3047 722 3315 
Q 1072 3584 1716 3584 
Q 2034 3584 2315 3537 
Q 2597 3491 2834 3397 
z
" transform="scale(0.015625)"/>
      <path id="DejaVuSans-72" d="M 2631 2963 
Q 2534 3019 2420 3045 
Q 2306 3072 2169 3072 
Q 1681 3072 1420 2755 
Q 1159 2438 1159 1844 
L 1159 0 
L 581 0 
L 581 3500 
L 1159 3500 
L 1159 2956 
Q 1341 3275 1631 3429 
Q 1922 3584 2338 3584 
Q 2397 3584 2469 3576 
Q 2541 3569 2628 3553 
L 2631 2963 
z
" transform="scale(0.015625)"/>
      <path id="DejaVuSans-62" d="M 3116 1747 
Q 3116 2381 2855 2742 
Q 2594 3103 2138 3103 
Q 1681 3103 1420 2742 
Q 1159 2381 1159 1747 
Q 1159 1113 1420 752 
Q 1681 391 2138 391 
Q 2594 391 2855 752 
Q 3116 1113 3116 1747 
z
M 1159 2969 
Q 1341 3281 1617 3432 
Q 1894 3584 2278 3584 
Q 2916 3584 3314 3078 
Q 3713 2572 3713 1747 
Q 3713 922 3314 415 
Q 2916 -91 2278 -91 
Q 1894 -91 1617 61 
Q 1341 213 1159 525 
L 1159 0 
L 581 0 
L 581 4863 
L 1159 4863 
L 1159 2969 
z
" transform="scale(0.015625)"/>
      <path id="DejaVuSans-7a" d="M 353 3500 
L 3084 3500 
L 3084 2975 
L 922 459 
L 3084 459 
L 3084 0 
L 275 0 
L 275 525 
L 2438 3041 
L 353 3041 
L 353 3500 
z
" transform="scale(0.015625)"/>
      <path id="DejaVuSans-65" d="M 3597 1894 
L 3597 1613 
L 953 1613 
Q 991 1019 1311 708 
Q 1631 397 2203 397 
Q 2534 397 2845 478 
Q 3156 559 3463 722 
L 3463 178 
Q 3153 47 2828 -22 
Q 2503 -91 2169 -91 
Q 1331 -91 842 396 
Q 353 884 353 1716 
Q 353 2575 817 3079 
Q 1281 3584 2069 3584 
Q 2775 3584 3186 3129 
Q 3597 2675 3597 1894 
z
M 3022 2063 
Q 3016 2534 2758 2815 
Q 2500 3097 2075 3097 
Q 1594 3097 1305 2825 
Q 1016 2553 972 2059 
L 3022 2063 
z
" transform="scale(0.015625)"/>
      <path id="DejaVuSans-20" transform="scale(0.015625)"/>
     </defs>
     <use xlink:href="#DejaVuSans-44"/>
     <use xlink:href="#DejaVuSans-69" transform="translate(77.001953 0)"/>
     <use xlink:href="#DejaVuSans-73" transform="translate(104.785156 0)"/>
     <use xlink:href="#DejaVuSans-74" transform="translate(156.884766 0)"/>
     <use xlink:href="#DejaVuSans-72" transform="translate(196.09375 0)"/>
     <use xlink:href="#DejaVuSans-69" transform="translate(237.207031 0)"/>
     <use xlink:href="#DejaVuSans-62" transform="translate(264.990234 0)"/>
     <use xlink:href="#DejaVuSans-75" transform="translate(328.466797 0)"/>
     <use xlink:href="#DejaVuSans-7a" transform="translate(391.845703 0)"/>
     <use xlink:href="#DejaVuSans-69" transform="translate(444.335938 0)"/>
     <use xlink:href="#DejaVuSans-6f" transform="translate(472.119141 0)"/>
     <use xlink:href="#DejaVuSans-6e" transform="translate(533.300781 0)"/>
     <use xlink:href="#DejaVuSans-65" transform="translate(596.679688 0)"/>
     <use xlink:href="#DejaVuSans-20" transform="translate(658.203125 0)"/>
     <use xlink:href="#DejaVuSans-64" transform="translate(689.990234 0)"/>
     <use xlink:href="#DejaVuSans-69" transform="translate(753.466797 0)"/>
     <use xlink:href="#DejaVuSans-20" transform="translate(781.25 0)"/>
     <use xlink:href="#DejaVuSans-6c" transform="translate(813.037109 0)"/>
     <use xlink:href="#DejaVuSans-64" transform="translate(840.820312 0)"/>
    </g>
   </g>
  </g>
 </g>
 <defs>
  <clipPath id="p4166d53eae">
   <rect x="53.328125" y="22.318125" width="334.8" height="221.76"/>
  </clipPath>
 </defs>
</svg>
