<?xml version="1.0" encoding="utf-8" standalone="no"?>
<!DOCTYPE svg PUBLIC "-//W3C//DTD SVG 1.1//EN"
  "http://www.w3.org/Graphics/SVG/1.1/DTD/svg11.dtd">
<svg xmlns:xlink="http://www.w3.org/1999/xlink" width="404.871875pt" height="281.634375pt" viewBox="0 0 404.871875 281.634375" xmlns="http://www.w3.org/2000/svg" version="1.1">
 <metadata>
  <rdf:RDF xmlns:dc="http://purl.org/dc/elements/1.1/" xmlns:cc="http://creativecommons.org/ns#" xmlns:rdf="http://www.w3.org/1999/02/22-rdf-syntax-ns#">
   <cc:Work>
    <dc:type rdf:resource="http://purl.org/dc/dcmitype/StillImage"/>
    <dc:date>2025-06-30T19:47:05.621065</dc:date>
    <dc:format>image/svg+xml</dc:format>
    <dc:creator>
     <cc:Agent>
      <dc:title>Matplotlib v3.10.3, https://matplotlib.org/</dc:title>
     </cc:Agent>
    </dc:creator>
   </cc:Work>
  </rdf:RDF>
 </metadata>
 <defs>
  <style type="text/css">*{stroke-linejoin: round; stroke-linecap: butt}</style>
 </defs>
 <g id="figure_1">
  <g id="patch_1">
   <path d="M 0 281.634375 
L 404.871875 281.634375 
L 404.871875 0 
L 0 0 
z
" style="fill: #ffffff"/>
  </g>
  <g id="axes_1">
   <g id="patch_2">
    <path d="M 53.328125 244.078125 
L 388.128125 244.078125 
L 388.128125 22.318125 
L 53.328125 22.318125 
z
" style="fill: #ffffff"/>
   </g>
   <g id="patch_3">
    <path d="M 53.328125 244.078125 
L 63.537051 244.078125 
L 63.537051 179.678311 
L 53.328125 179.678311 
z
" clip-path="url(#p1d2888b069)" style="fill: #1f77b4; fill-opacity: 0.5; stroke: #000000; stroke-width: 0.149933; stroke-linejoin: miter"/>
   </g>
   <g id="patch_4">
    <path d="M 63.537051 244.078125 
L 73.745977 244.078125 
L 73.745977 210.333211 
L 63.537051 210.333211 
z
" clip-path="url(#p1d2888b069)" style="fill: #1f77b4; fill-opacity: 0.5; stroke: #000000; stroke-width: 0.149933; stroke-linejoin: miter"/>
   </g>
   <g id="patch_5">
    <path d="M 73.745977 244.078125 
L 83.954903 244.078125 
L 83.954903 32.878125 
L 73.745977 32.878125 
z
" clip-path="url(#p1d2888b069)" style="fill: #1f77b4; fill-opacity: 0.5; stroke: #000000; stroke-width: 0.149933; stroke-linejoin: miter"/>
   </g>
   <g id="patch_6">
    <path d="M 83.954903 244.078125 
L 94.163829 244.078125 
L 94.163829 198.022203 
L 83.954903 198.022203 
z
" clip-path="url(#p1d2888b069)" style="fill: #1f77b4; fill-opacity: 0.5; stroke: #000000; stroke-width: 0.149933; stroke-linejoin: miter"/>
   </g>
   <g id="patch_7">
    <path d="M 94.163829 244.078125 
L 104.372756 244.078125 
L 104.372756 210.970833 
L 94.163829 210.970833 
z
" clip-path="url(#p1d2888b069)" style="fill: #1f77b4; fill-opacity: 0.5; stroke: #000000; stroke-width: 0.149933; stroke-linejoin: miter"/>
   </g>
   <g id="patch_8">
    <path d="M 104.372756 244.078125 
L 114.581682 244.078125 
L 114.581682 185.269765 
L 104.372756 185.269765 
z
" clip-path="url(#p1d2888b069)" style="fill: #1f77b4; fill-opacity: 0.5; stroke: #000000; stroke-width: 0.149933; stroke-linejoin: miter"/>
   </g>
   <g id="patch_9">
    <path d="M 114.581682 244.078125 
L 124.790608 244.078125 
L 124.790608 226.420903 
L 114.581682 226.420903 
z
" clip-path="url(#p1d2888b069)" style="fill: #1f77b4; fill-opacity: 0.5; stroke: #000000; stroke-width: 0.149933; stroke-linejoin: miter"/>
   </g>
   <g id="patch_10">
    <path d="M 124.790608 244.078125 
L 134.999534 244.078125 
L 134.999534 234.709988 
L 124.790608 234.709988 
z
" clip-path="url(#p1d2888b069)" style="fill: #1f77b4; fill-opacity: 0.5; stroke: #000000; stroke-width: 0.149933; stroke-linejoin: miter"/>
   </g>
   <g id="patch_11">
    <path d="M 134.999534 244.078125 
L 145.20846 244.078125 
L 145.20846 235.249514 
L 134.999534 235.249514 
z
" clip-path="url(#p1d2888b069)" style="fill: #1f77b4; fill-opacity: 0.5; stroke: #000000; stroke-width: 0.149933; stroke-linejoin: miter"/>
   </g>
   <g id="patch_12">
    <path d="M 145.20846 244.078125 
L 155.417386 244.078125 
L 155.417386 240.007154 
L 145.20846 240.007154 
z
" clip-path="url(#p1d2888b069)" style="fill: #1f77b4; fill-opacity: 0.5; stroke: #000000; stroke-width: 0.149933; stroke-linejoin: miter"/>
   </g>
   <g id="patch_13">
    <path d="M 155.417386 244.078125 
L 165.626312 244.078125 
L 165.626312 241.969068 
L 155.417386 241.969068 
z
" clip-path="url(#p1d2888b069)" style="fill: #1f77b4; fill-opacity: 0.5; stroke: #000000; stroke-width: 0.149933; stroke-linejoin: miter"/>
   </g>
   <g id="patch_14">
    <path d="M 165.626312 244.078125 
L 175.835238 244.078125 
L 175.835238 242.60669 
L 165.626312 242.60669 
z
" clip-path="url(#p1d2888b069)" style="fill: #1f77b4; fill-opacity: 0.5; stroke: #000000; stroke-width: 0.149933; stroke-linejoin: miter"/>
   </g>
   <g id="patch_15">
    <path d="M 175.835238 244.078125 
L 186.044164 244.078125 
L 186.044164 242.361451 
L 175.835238 242.361451 
z
" clip-path="url(#p1d2888b069)" style="fill: #1f77b4; fill-opacity: 0.5; stroke: #000000; stroke-width: 0.149933; stroke-linejoin: miter"/>
   </g>
   <g id="patch_16">
    <path d="M 186.044164 244.078125 
L 196.253091 244.078125 
L 196.253091 242.067164 
L 186.044164 242.067164 
z
" clip-path="url(#p1d2888b069)" style="fill: #1f77b4; fill-opacity: 0.5; stroke: #000000; stroke-width: 0.149933; stroke-linejoin: miter"/>
   </g>
   <g id="patch_17">
    <path d="M 196.253091 244.078125 
L 206.462017 244.078125 
L 206.462017 243.489551 
L 196.253091 243.489551 
z
" clip-path="url(#p1d2888b069)" style="fill: #1f77b4; fill-opacity: 0.5; stroke: #000000; stroke-width: 0.149933; stroke-linejoin: miter"/>
   </g>
   <g id="patch_18">
    <path d="M 206.462017 244.078125 
L 216.670943 244.078125 
L 216.670943 243.587647 
L 206.462017 243.587647 
z
" clip-path="url(#p1d2888b069)" style="fill: #1f77b4; fill-opacity: 0.5; stroke: #000000; stroke-width: 0.149933; stroke-linejoin: miter"/>
   </g>
   <g id="patch_19">
    <path d="M 216.670943 244.078125 
L 226.879869 244.078125 
L 226.879869 243.636694 
L 216.670943 243.636694 
z
" clip-path="url(#p1d2888b069)" style="fill: #1f77b4; fill-opacity: 0.5; stroke: #000000; stroke-width: 0.149933; stroke-linejoin: miter"/>
   </g>
   <g id="patch_20">
    <path d="M 226.879869 244.078125 
L 237.088795 244.078125 
L 237.088795 243.783838 
L 226.879869 243.783838 
z
" clip-path="url(#p1d2888b069)" style="fill: #1f77b4; fill-opacity: 0.5; stroke: #000000; stroke-width: 0.149933; stroke-linejoin: miter"/>
   </g>
   <g id="patch_21">
    <path d="M 237.088795 244.078125 
L 247.297721 244.078125 
L 247.297721 243.685742 
L 237.088795 243.685742 
z
" clip-path="url(#p1d2888b069)" style="fill: #1f77b4; fill-opacity: 0.5; stroke: #000000; stroke-width: 0.149933; stroke-linejoin: miter"/>
   </g>
   <g id="patch_22">
    <path d="M 247.297721 244.078125 
L 257.506647 244.078125 
L 257.506647 243.685742 
L 247.297721 243.685742 
z
" clip-path="url(#p1d2888b069)" style="fill: #1f77b4; fill-opacity: 0.5; stroke: #000000; stroke-width: 0.149933; stroke-linejoin: miter"/>
   </g>
   <g id="patch_23">
    <path d="M 257.506647 244.078125 
L 267.715573 244.078125 
L 267.715573 243.783838 
L 257.506647 243.783838 
z
" clip-path="url(#p1d2888b069)" style="fill: #1f77b4; fill-opacity: 0.5; stroke: #000000; stroke-width: 0.149933; stroke-linejoin: miter"/>
   </g>
   <g id="patch_24">
    <path d="M 267.715573 244.078125 
L 277.924499 244.078125 
L 277.924499 243.832886 
L 267.715573 243.832886 
z
" clip-path="url(#p1d2888b069)" style="fill: #1f77b4; fill-opacity: 0.5; stroke: #000000; stroke-width: 0.149933; stroke-linejoin: miter"/>
   </g>
   <g id="patch_25">
    <path d="M 277.924499 244.078125 
L 288.133425 244.078125 
L 288.133425 243.930981 
L 277.924499 243.930981 
z
" clip-path="url(#p1d2888b069)" style="fill: #1f77b4; fill-opacity: 0.5; stroke: #000000; stroke-width: 0.149933; stroke-linejoin: miter"/>
   </g>
   <g id="patch_26">
    <path d="M 288.133425 244.078125 
L 298.342352 244.078125 
L 298.342352 243.73479 
L 288.133425 243.73479 
z
" clip-path="url(#p1d2888b069)" style="fill: #1f77b4; fill-opacity: 0.5; stroke: #000000; stroke-width: 0.149933; stroke-linejoin: miter"/>
   </g>
   <g id="patch_27">
    <path d="M 298.342352 244.078125 
L 308.551278 244.078125 
L 308.551278 243.980029 
L 298.342352 243.980029 
z
" clip-path="url(#p1d2888b069)" style="fill: #1f77b4; fill-opacity: 0.5; stroke: #000000; stroke-width: 0.149933; stroke-linejoin: miter"/>
   </g>
   <g id="patch_28">
    <path d="M 308.551278 244.078125 
L 318.760204 244.078125 
L 318.760204 244.029077 
L 308.551278 244.029077 
z
" clip-path="url(#p1d2888b069)" style="fill: #1f77b4; fill-opacity: 0.5; stroke: #000000; stroke-width: 0.149933; stroke-linejoin: miter"/>
   </g>
   <g id="patch_29">
    <path d="M 318.760204 244.078125 
L 328.96913 244.078125 
L 328.96913 243.980029 
L 318.760204 243.980029 
z
" clip-path="url(#p1d2888b069)" style="fill: #1f77b4; fill-opacity: 0.5; stroke: #000000; stroke-width: 0.149933; stroke-linejoin: miter"/>
   </g>
   <g id="patch_30">
    <path d="M 328.96913 244.078125 
L 339.178056 244.078125 
L 339.178056 243.881934 
L 328.96913 243.881934 
z
" clip-path="url(#p1d2888b069)" style="fill: #1f77b4; fill-opacity: 0.5; stroke: #000000; stroke-width: 0.149933; stroke-linejoin: miter"/>
   </g>
   <g id="patch_31">
    <path d="M 339.178056 244.078125 
L 349.386982 244.078125 
L 349.386982 244.078125 
L 339.178056 244.078125 
z
" clip-path="url(#p1d2888b069)" style="fill: #1f77b4; fill-opacity: 0.5; stroke: #000000; stroke-width: 0.149933; stroke-linejoin: miter"/>
   </g>
   <g id="patch_32">
    <path d="M 349.386982 244.078125 
L 359.595908 244.078125 
L 359.595908 243.980029 
L 349.386982 243.980029 
z
" clip-path="url(#p1d2888b069)" style="fill: #1f77b4; fill-opacity: 0.5; stroke: #000000; stroke-width: 0.149933; stroke-linejoin: miter"/>
   </g>
   <g id="patch_33">
    <path d="M 359.595908 244.078125 
L 369.804834 244.078125 
L 369.804834 243.980029 
L 359.595908 243.980029 
z
" clip-path="url(#p1d2888b069)" style="fill: #1f77b4; fill-opacity: 0.5; stroke: #000000; stroke-width: 0.149933; stroke-linejoin: miter"/>
   </g>
   <g id="patch_34">
    <path d="M 369.804834 244.078125 
L 380.01376 244.078125 
L 380.01376 244.078125 
L 369.804834 244.078125 
z
" clip-path="url(#p1d2888b069)" style="fill: #1f77b4; fill-opacity: 0.5; stroke: #000000; stroke-width: 0.149933; stroke-linejoin: miter"/>
   </g>
   <g id="patch_35">
    <path d="M 380.01376 244.078125 
L 390.222687 244.078125 
L 390.222687 243.980029 
L 380.01376 243.980029 
z
" clip-path="url(#p1d2888b069)" style="fill: #1f77b4; fill-opacity: 0.5; stroke: #000000; stroke-width: 0.149933; stroke-linejoin: miter"/>
   </g>
   <g id="patch_36">
    <path d="M 390.222687 244.078125 
L 400.431613 244.078125 
L 400.431613 243.980029 
L 390.222687 243.980029 
z
" clip-path="url(#p1d2888b069)" style="fill: #1f77b4; fill-opacity: 0.5; stroke: #000000; stroke-width: 0.149933; stroke-linejoin: miter"/>
   </g>
   <g id="patch_37">
    <path d="M 400.431613 244.078125 
L 410.640539 244.078125 
L 410.640539 244.029077 
L 400.431613 244.029077 
z
" clip-path="url(#p1d2888b069)" style="fill: #1f77b4; fill-opacity: 0.5; stroke: #000000; stroke-width: 0.149933; stroke-linejoin: miter"/>
   </g>
   <g id="patch_38">
    <path d="M 410.640539 244.078125 
L 420.849465 244.078125 
L 420.849465 243.980029 
L 410.640539 243.980029 
z
" clip-path="url(#p1d2888b069)" style="fill: #1f77b4; fill-opacity: 0.5; stroke: #000000; stroke-width: 0.149933; stroke-linejoin: miter"/>
   </g>
   <g id="patch_39">
    <path d="M 420.849465 244.078125 
L 431.058391 244.078125 
L 431.058391 243.980029 
L 420.849465 243.980029 
z
" clip-path="url(#p1d2888b069)" style="fill: #1f77b4; fill-opacity: 0.5; stroke: #000000; stroke-width: 0.149933; stroke-linejoin: miter"/>
   </g>
   <g id="patch_40">
    <path d="M 431.058391 244.078125 
L 441.267317 244.078125 
L 441.267317 243.930981 
L 431.058391 243.930981 
z
" clip-path="url(#p1d2888b069)" style="fill: #1f77b4; fill-opacity: 0.5; stroke: #000000; stroke-width: 0.149933; stroke-linejoin: miter"/>
   </g>
   <g id="patch_41">
    <path d="M 441.267317 244.078125 
L 451.476243 244.078125 
L 451.476243 243.930981 
L 441.267317 243.930981 
z
" clip-path="url(#p1d2888b069)" style="fill: #1f77b4; fill-opacity: 0.5; stroke: #000000; stroke-width: 0.149933; stroke-linejoin: miter"/>
   </g>
   <g id="patch_42">
    <path d="M 451.476243 244.078125 
L 461.685169 244.078125 
L 461.685169 243.930981 
L 451.476243 243.930981 
z
" clip-path="url(#p1d2888b069)" style="fill: #1f77b4; fill-opacity: 0.5; stroke: #000000; stroke-width: 0.149933; stroke-linejoin: miter"/>
   </g>
   <g id="patch_43">
    <path d="M 461.685169 244.078125 
L 471.894095 244.078125 
L 471.894095 243.980029 
L 461.685169 243.980029 
z
" clip-path="url(#p1d2888b069)" style="fill: #1f77b4; fill-opacity: 0.5; stroke: #000000; stroke-width: 0.149933; stroke-linejoin: miter"/>
   </g>
   <g id="patch_44">
    <path d="M 471.894095 244.078125 
L 482.103022 244.078125 
L 482.103022 244.029077 
L 471.894095 244.029077 
z
" clip-path="url(#p1d2888b069)" style="fill: #1f77b4; fill-opacity: 0.5; stroke: #000000; stroke-width: 0.149933; stroke-linejoin: miter"/>
   </g>
   <g id="patch_45">
    <path d="M 482.103022 244.078125 
L 492.311948 244.078125 
L 492.311948 244.029077 
L 482.103022 244.029077 
z
" clip-path="url(#p1d2888b069)" style="fill: #1f77b4; fill-opacity: 0.5; stroke: #000000; stroke-width: 0.149933; stroke-linejoin: miter"/>
   </g>
   <g id="patch_46">
    <path d="M 492.311948 244.078125 
L 502.520874 244.078125 
L 502.520874 243.980029 
L 492.311948 243.980029 
z
" clip-path="url(#p1d2888b069)" style="fill: #1f77b4; fill-opacity: 0.5; stroke: #000000; stroke-width: 0.149933; stroke-linejoin: miter"/>
   </g>
   <g id="patch_47">
    <path d="M 502.520874 244.078125 
L 512.7298 244.078125 
L 512.7298 244.078125 
L 502.520874 244.078125 
z
" clip-path="url(#p1d2888b069)" style="fill: #1f77b4; fill-opacity: 0.5; stroke: #000000; stroke-width: 0.149933; stroke-linejoin: miter"/>
   </g>
   <g id="patch_48">
    <path d="M 512.7298 244.078125 
L 522.938726 244.078125 
L 522.938726 244.029077 
L 512.7298 244.029077 
z
" clip-path="url(#p1d2888b069)" style="fill: #1f77b4; fill-opacity: 0.5; stroke: #000000; stroke-width: 0.149933; stroke-linejoin: miter"/>
   </g>
   <g id="patch_49">
    <path d="M 522.938726 244.078125 
L 533.147652 244.078125 
L 533.147652 244.078125 
L 522.938726 244.078125 
z
" clip-path="url(#p1d2888b069)" style="fill: #1f77b4; fill-opacity: 0.5; stroke: #000000; stroke-width: 0.149933; stroke-linejoin: miter"/>
   </g>
   <g id="patch_50">
    <path d="M 533.147652 244.078125 
L 543.356578 244.078125 
L 543.356578 243.980029 
L 533.147652 243.980029 
z
" clip-path="url(#p1d2888b069)" style="fill: #1f77b4; fill-opacity: 0.5; stroke: #000000; stroke-width: 0.149933; stroke-linejoin: miter"/>
   </g>
   <g id="patch_51">
    <path d="M 543.356578 244.078125 
L 553.565504 244.078125 
L 553.565504 243.980029 
L 543.356578 243.980029 
z
" clip-path="url(#p1d2888b069)" style="fill: #1f77b4; fill-opacity: 0.5; stroke: #000000; stroke-width: 0.149933; stroke-linejoin: miter"/>
   </g>
   <g id="patch_52">
    <path d="M 553.565504 244.078125 
L 563.77443 244.078125 
L 563.77443 243.832886 
L 553.565504 243.832886 
z
" clip-path="url(#p1d2888b069)" style="fill: #1f77b4; fill-opacity: 0.5; stroke: #000000; stroke-width: 0.149933; stroke-linejoin: miter"/>
   </g>
   <g id="patch_53">
    <path d="M 563.77443 244.078125 
L 573.983357 244.078125 
L 573.983357 243.980029 
L 563.77443 243.980029 
z
" clip-path="url(#p1d2888b069)" style="fill: #1f77b4; fill-opacity: 0.5; stroke: #000000; stroke-width: 0.149933; stroke-linejoin: miter"/>
   </g>
   <g id="patch_54">
    <path d="M 573.983357 244.078125 
L 584.192283 244.078125 
L 584.192283 244.029077 
L 573.983357 244.029077 
z
" clip-path="url(#p1d2888b069)" style="fill: #1f77b4; fill-opacity: 0.5; stroke: #000000; stroke-width: 0.149933; stroke-linejoin: miter"/>
   </g>
   <g id="patch_55">
    <path d="M 584.192283 244.078125 
L 594.401209 244.078125 
L 594.401209 244.078125 
L 584.192283 244.078125 
z
" clip-path="url(#p1d2888b069)" style="fill: #1f77b4; fill-opacity: 0.5; stroke: #000000; stroke-width: 0.149933; stroke-linejoin: miter"/>
   </g>
   <g id="patch_56">
    <path d="M 594.401209 244.078125 
L 604.610135 244.078125 
L 604.610135 244.078125 
L 594.401209 244.078125 
z
" clip-path="url(#p1d2888b069)" style="fill: #1f77b4; fill-opacity: 0.5; stroke: #000000; stroke-width: 0.149933; stroke-linejoin: miter"/>
   </g>
   <g id="patch_57">
    <path d="M 604.610135 244.078125 
L 614.819061 244.078125 
L 614.819061 244.078125 
L 604.610135 244.078125 
z
" clip-path="url(#p1d2888b069)" style="fill: #1f77b4; fill-opacity: 0.5; stroke: #000000; stroke-width: 0.149933; stroke-linejoin: miter"/>
   </g>
   <g id="patch_58">
    <path d="M 614.819061 244.078125 
L 625.027987 244.078125 
L 625.027987 244.078125 
L 614.819061 244.078125 
z
" clip-path="url(#p1d2888b069)" style="fill: #1f77b4; fill-opacity: 0.5; stroke: #000000; stroke-width: 0.149933; stroke-linejoin: miter"/>
   </g>
   <g id="patch_59">
    <path d="M 625.027987 244.078125 
L 635.236913 244.078125 
L 635.236913 244.029077 
L 625.027987 244.029077 
z
" clip-path="url(#p1d2888b069)" style="fill: #1f77b4; fill-opacity: 0.5; stroke: #000000; stroke-width: 0.149933; stroke-linejoin: miter"/>
   </g>
   <g id="patch_60">
    <path d="M 635.236913 244.078125 
L 645.445839 244.078125 
L 645.445839 244.078125 
L 635.236913 244.078125 
z
" clip-path="url(#p1d2888b069)" style="fill: #1f77b4; fill-opacity: 0.5; stroke: #000000; stroke-width: 0.149933; stroke-linejoin: miter"/>
   </g>
   <g id="patch_61">
    <path d="M 645.445839 244.078125 
L 655.654765 244.078125 
L 655.654765 244.078125 
L 645.445839 244.078125 
z
" clip-path="url(#p1d2888b069)" style="fill: #1f77b4; fill-opacity: 0.5; stroke: #000000; stroke-width: 0.149933; stroke-linejoin: miter"/>
   </g>
   <g id="patch_62">
    <path d="M 655.654765 244.078125 
L 665.863692 244.078125 
L 665.863692 243.980029 
L 655.654765 243.980029 
z
" clip-path="url(#p1d2888b069)" style="fill: #1f77b4; fill-opacity: 0.5; stroke: #000000; stroke-width: 0.149933; stroke-linejoin: miter"/>
   </g>
   <g id="patch_63">
    <path d="M 665.863692 244.078125 
L 676.072618 244.078125 
L 676.072618 244.078125 
L 665.863692 244.078125 
z
" clip-path="url(#p1d2888b069)" style="fill: #1f77b4; fill-opacity: 0.5; stroke: #000000; stroke-width: 0.149933; stroke-linejoin: miter"/>
   </g>
   <g id="patch_64">
    <path d="M 676.072618 244.078125 
L 686.281544 244.078125 
L 686.281544 244.078125 
L 676.072618 244.078125 
z
" clip-path="url(#p1d2888b069)" style="fill: #1f77b4; fill-opacity: 0.5; stroke: #000000; stroke-width: 0.149933; stroke-linejoin: miter"/>
   </g>
   <g id="patch_65">
    <path d="M 686.281544 244.078125 
L 696.49047 244.078125 
L 696.49047 243.980029 
L 686.281544 243.980029 
z
" clip-path="url(#p1d2888b069)" style="fill: #1f77b4; fill-opacity: 0.5; stroke: #000000; stroke-width: 0.149933; stroke-linejoin: miter"/>
   </g>
   <g id="patch_66">
    <path d="M 696.49047 244.078125 
L 706.699396 244.078125 
L 706.699396 244.078125 
L 696.49047 244.078125 
z
" clip-path="url(#p1d2888b069)" style="fill: #1f77b4; fill-opacity: 0.5; stroke: #000000; stroke-width: 0.149933; stroke-linejoin: miter"/>
   </g>
   <g id="patch_67">
    <path d="M 706.699396 244.078125 
L 716.908322 244.078125 
L 716.908322 244.078125 
L 706.699396 244.078125 
z
" clip-path="url(#p1d2888b069)" style="fill: #1f77b4; fill-opacity: 0.5; stroke: #000000; stroke-width: 0.149933; stroke-linejoin: miter"/>
   </g>
   <g id="patch_68">
    <path d="M 716.908322 244.078125 
L 727.117248 244.078125 
L 727.117248 244.078125 
L 716.908322 244.078125 
z
" clip-path="url(#p1d2888b069)" style="fill: #1f77b4; fill-opacity: 0.5; stroke: #000000; stroke-width: 0.149933; stroke-linejoin: miter"/>
   </g>
   <g id="patch_69">
    <path d="M 727.117248 244.078125 
L 737.326174 244.078125 
L 737.326174 243.980029 
L 727.117248 243.980029 
z
" clip-path="url(#p1d2888b069)" style="fill: #1f77b4; fill-opacity: 0.5; stroke: #000000; stroke-width: 0.149933; stroke-linejoin: miter"/>
   </g>
   <g id="patch_70">
    <path d="M 737.326174 244.078125 
L 747.5351 244.078125 
L 747.5351 243.930981 
L 737.326174 243.930981 
z
" clip-path="url(#p1d2888b069)" style="fill: #1f77b4; fill-opacity: 0.5; stroke: #000000; stroke-width: 0.149933; stroke-linejoin: miter"/>
   </g>
   <g id="patch_71">
    <path d="M 747.5351 244.078125 
L 757.744026 244.078125 
L 757.744026 244.078125 
L 747.5351 244.078125 
z
" clip-path="url(#p1d2888b069)" style="fill: #1f77b4; fill-opacity: 0.5; stroke: #000000; stroke-width: 0.149933; stroke-linejoin: miter"/>
   </g>
   <g id="patch_72">
    <path d="M 757.744026 244.078125 
L 767.952953 244.078125 
L 767.952953 244.029077 
L 757.744026 244.029077 
z
" clip-path="url(#p1d2888b069)" style="fill: #1f77b4; fill-opacity: 0.5; stroke: #000000; stroke-width: 0.149933; stroke-linejoin: miter"/>
   </g>
   <g id="patch_73">
    <path d="M 767.952953 244.078125 
L 778.161879 244.078125 
L 778.161879 243.980029 
L 767.952953 243.980029 
z
" clip-path="url(#p1d2888b069)" style="fill: #1f77b4; fill-opacity: 0.5; stroke: #000000; stroke-width: 0.149933; stroke-linejoin: miter"/>
   </g>
   <g id="patch_74">
    <path d="M 778.161879 244.078125 
L 788.370805 244.078125 
L 788.370805 244.078125 
L 778.161879 244.078125 
z
" clip-path="url(#p1d2888b069)" style="fill: #1f77b4; fill-opacity: 0.5; stroke: #000000; stroke-width: 0.149933; stroke-linejoin: miter"/>
   </g>
   <g id="patch_75">
    <path d="M 788.370805 244.078125 
L 798.579731 244.078125 
L 798.579731 244.029077 
L 788.370805 244.029077 
z
" clip-path="url(#p1d2888b069)" style="fill: #1f77b4; fill-opacity: 0.5; stroke: #000000; stroke-width: 0.149933; stroke-linejoin: miter"/>
   </g>
   <g id="patch_76">
    <path d="M 798.579731 244.078125 
L 808.788657 244.078125 
L 808.788657 243.980029 
L 798.579731 243.980029 
z
" clip-path="url(#p1d2888b069)" style="fill: #1f77b4; fill-opacity: 0.5; stroke: #000000; stroke-width: 0.149933; stroke-linejoin: miter"/>
   </g>
   <g id="patch_77">
    <path d="M 808.788657 244.078125 
L 818.997583 244.078125 
L 818.997583 244.078125 
L 808.788657 244.078125 
z
" clip-path="url(#p1d2888b069)" style="fill: #1f77b4; fill-opacity: 0.5; stroke: #000000; stroke-width: 0.149933; stroke-linejoin: miter"/>
   </g>
   <g id="patch_78">
    <path d="M 818.997583 244.078125 
L 829.206509 244.078125 
L 829.206509 244.029077 
L 818.997583 244.029077 
z
" clip-path="url(#p1d2888b069)" style="fill: #1f77b4; fill-opacity: 0.5; stroke: #000000; stroke-width: 0.149933; stroke-linejoin: miter"/>
   </g>
   <g id="patch_79">
    <path d="M 829.206509 244.078125 
L 839.415435 244.078125 
L 839.415435 243.980029 
L 829.206509 243.980029 
z
" clip-path="url(#p1d2888b069)" style="fill: #1f77b4; fill-opacity: 0.5; stroke: #000000; stroke-width: 0.149933; stroke-linejoin: miter"/>
   </g>
   <g id="patch_80">
    <path d="M 839.415435 244.078125 
L 849.624361 244.078125 
L 849.624361 244.078125 
L 839.415435 244.078125 
z
" clip-path="url(#p1d2888b069)" style="fill: #1f77b4; fill-opacity: 0.5; stroke: #000000; stroke-width: 0.149933; stroke-linejoin: miter"/>
   </g>
   <g id="patch_81">
    <path d="M 849.624361 244.078125 
L 859.833288 244.078125 
L 859.833288 244.078125 
L 849.624361 244.078125 
z
" clip-path="url(#p1d2888b069)" style="fill: #1f77b4; fill-opacity: 0.5; stroke: #000000; stroke-width: 0.149933; stroke-linejoin: miter"/>
   </g>
   <g id="patch_82">
    <path d="M 859.833288 244.078125 
L 870.042214 244.078125 
L 870.042214 244.078125 
L 859.833288 244.078125 
z
" clip-path="url(#p1d2888b069)" style="fill: #1f77b4; fill-opacity: 0.5; stroke: #000000; stroke-width: 0.149933; stroke-linejoin: miter"/>
   </g>
   <g id="patch_83">
    <path d="M 870.042214 244.078125 
L 880.25114 244.078125 
L 880.25114 244.078125 
L 870.042214 244.078125 
z
" clip-path="url(#p1d2888b069)" style="fill: #1f77b4; fill-opacity: 0.5; stroke: #000000; stroke-width: 0.149933; stroke-linejoin: miter"/>
   </g>
   <g id="patch_84">
    <path d="M 880.25114 244.078125 
L 890.460066 244.078125 
L 890.460066 244.029077 
L 880.25114 244.029077 
z
" clip-path="url(#p1d2888b069)" style="fill: #1f77b4; fill-opacity: 0.5; stroke: #000000; stroke-width: 0.149933; stroke-linejoin: miter"/>
   </g>
   <g id="patch_85">
    <path d="M 890.460066 244.078125 
L 900.668992 244.078125 
L 900.668992 244.078125 
L 890.460066 244.078125 
z
" clip-path="url(#p1d2888b069)" style="fill: #1f77b4; fill-opacity: 0.5; stroke: #000000; stroke-width: 0.149933; stroke-linejoin: miter"/>
   </g>
   <g id="patch_86">
    <path d="M 900.668992 244.078125 
L 910.877918 244.078125 
L 910.877918 244.029077 
L 900.668992 244.029077 
z
" clip-path="url(#p1d2888b069)" style="fill: #1f77b4; fill-opacity: 0.5; stroke: #000000; stroke-width: 0.149933; stroke-linejoin: miter"/>
   </g>
   <g id="patch_87">
    <path d="M 910.877918 244.078125 
L 921.086844 244.078125 
L 921.086844 244.078125 
L 910.877918 244.078125 
z
" clip-path="url(#p1d2888b069)" style="fill: #1f77b4; fill-opacity: 0.5; stroke: #000000; stroke-width: 0.149933; stroke-linejoin: miter"/>
   </g>
   <g id="patch_88">
    <path d="M 921.086844 244.078125 
L 931.29577 244.078125 
L 931.29577 244.078125 
L 921.086844 244.078125 
z
" clip-path="url(#p1d2888b069)" style="fill: #1f77b4; fill-opacity: 0.5; stroke: #000000; stroke-width: 0.149933; stroke-linejoin: miter"/>
   </g>
   <g id="patch_89">
    <path d="M 931.29577 244.078125 
L 941.504696 244.078125 
L 941.504696 244.078125 
L 931.29577 244.078125 
z
" clip-path="url(#p1d2888b069)" style="fill: #1f77b4; fill-opacity: 0.5; stroke: #000000; stroke-width: 0.149933; stroke-linejoin: miter"/>
   </g>
   <g id="patch_90">
    <path d="M 941.504696 244.078125 
L 951.713623 244.078125 
L 951.713623 244.078125 
L 941.504696 244.078125 
z
" clip-path="url(#p1d2888b069)" style="fill: #1f77b4; fill-opacity: 0.5; stroke: #000000; stroke-width: 0.149933; stroke-linejoin: miter"/>
   </g>
   <g id="patch_91">
    <path d="M 951.713623 244.078125 
L 961.922549 244.078125 
L 961.922549 244.078125 
L 951.713623 244.078125 
z
" clip-path="url(#p1d2888b069)" style="fill: #1f77b4; fill-opacity: 0.5; stroke: #000000; stroke-width: 0.149933; stroke-linejoin: miter"/>
   </g>
   <g id="patch_92">
    <path d="M 961.922549 244.078125 
L 972.131475 244.078125 
L 972.131475 244.029077 
L 961.922549 244.029077 
z
" clip-path="url(#p1d2888b069)" style="fill: #1f77b4; fill-opacity: 0.5; stroke: #000000; stroke-width: 0.149933; stroke-linejoin: miter"/>
   </g>
   <g id="patch_93">
    <path d="M 972.131475 244.078125 
L 982.340401 244.078125 
L 982.340401 244.078125 
L 972.131475 244.078125 
z
" clip-path="url(#p1d2888b069)" style="fill: #1f77b4; fill-opacity: 0.5; stroke: #000000; stroke-width: 0.149933; stroke-linejoin: miter"/>
   </g>
   <g id="patch_94">
    <path d="M 982.340401 244.078125 
L 992.549327 244.078125 
L 992.549327 244.078125 
L 982.340401 244.078125 
z
" clip-path="url(#p1d2888b069)" style="fill: #1f77b4; fill-opacity: 0.5; stroke: #000000; stroke-width: 0.149933; stroke-linejoin: miter"/>
   </g>
   <g id="patch_95">
    <path d="M 992.549327 244.078125 
L 1002.758253 244.078125 
L 1002.758253 244.078125 
L 992.549327 244.078125 
z
" clip-path="url(#p1d2888b069)" style="fill: #1f77b4; fill-opacity: 0.5; stroke: #000000; stroke-width: 0.149933; stroke-linejoin: miter"/>
   </g>
   <g id="patch_96">
    <path d="M 1002.758253 244.078125 
L 1012.967179 244.078125 
L 1012.967179 244.078125 
L 1002.758253 244.078125 
z
" clip-path="url(#p1d2888b069)" style="fill: #1f77b4; fill-opacity: 0.5; stroke: #000000; stroke-width: 0.149933; stroke-linejoin: miter"/>
   </g>
   <g id="patch_97">
    <path d="M 1012.967179 244.078125 
L 1023.176105 244.078125 
L 1023.176105 244.078125 
L 1012.967179 244.078125 
z
" clip-path="url(#p1d2888b069)" style="fill: #1f77b4; fill-opacity: 0.5; stroke: #000000; stroke-width: 0.149933; stroke-linejoin: miter"/>
   </g>
   <g id="patch_98">
    <path d="M 1023.176105 244.078125 
L 1033.385031 244.078125 
L 1033.385031 244.078125 
L 1023.176105 244.078125 
z
" clip-path="url(#p1d2888b069)" style="fill: #1f77b4; fill-opacity: 0.5; stroke: #000000; stroke-width: 0.149933; stroke-linejoin: miter"/>
   </g>
   <g id="patch_99">
    <path d="M 1033.385031 244.078125 
L 1043.593958 244.078125 
L 1043.593958 244.078125 
L 1033.385031 244.078125 
z
" clip-path="url(#p1d2888b069)" style="fill: #1f77b4; fill-opacity: 0.5; stroke: #000000; stroke-width: 0.149933; stroke-linejoin: miter"/>
   </g>
   <g id="patch_100">
    <path d="M 1043.593958 244.078125 
L 1053.802884 244.078125 
L 1053.802884 244.078125 
L 1043.593958 244.078125 
z
" clip-path="url(#p1d2888b069)" style="fill: #1f77b4; fill-opacity: 0.5; stroke: #000000; stroke-width: 0.149933; stroke-linejoin: miter"/>
   </g>
   <g id="patch_101">
    <path d="M 1053.802884 244.078125 
L 1064.01181 244.078125 
L 1064.01181 244.078125 
L 1053.802884 244.078125 
z
" clip-path="url(#p1d2888b069)" style="fill: #1f77b4; fill-opacity: 0.5; stroke: #000000; stroke-width: 0.149933; stroke-linejoin: miter"/>
   </g>
   <g id="patch_102">
    <path d="M 1064.01181 244.078125 
L 1074.220736 244.078125 
L 1074.220736 244.078125 
L 1064.01181 244.078125 
z
" clip-path="url(#p1d2888b069)" style="fill: #1f77b4; fill-opacity: 0.5; stroke: #000000; stroke-width: 0.149933; stroke-linejoin: miter"/>
   </g>
   <g id="patch_103">
    <path d="M 1074.220736 244.078125 
L 1084.429662 244.078125 
L 1084.429662 244.078125 
L 1074.220736 244.078125 
z
" clip-path="url(#p1d2888b069)" style="fill: #1f77b4; fill-opacity: 0.5; stroke: #000000; stroke-width: 0.149933; stroke-linejoin: miter"/>
   </g>
   <g id="patch_104">
    <path d="M 1084.429662 244.078125 
L 1094.638588 244.078125 
L 1094.638588 244.078125 
L 1084.429662 244.078125 
z
" clip-path="url(#p1d2888b069)" style="fill: #1f77b4; fill-opacity: 0.5; stroke: #000000; stroke-width: 0.149933; stroke-linejoin: miter"/>
   </g>
   <g id="patch_105">
    <path d="M 1094.638588 244.078125 
L 1104.847514 244.078125 
L 1104.847514 244.029077 
L 1094.638588 244.029077 
z
" clip-path="url(#p1d2888b069)" style="fill: #1f77b4; fill-opacity: 0.5; stroke: #000000; stroke-width: 0.149933; stroke-linejoin: miter"/>
   </g>
   <g id="patch_106">
    <path d="M 1104.847514 244.078125 
L 1115.05644 244.078125 
L 1115.05644 244.029077 
L 1104.847514 244.029077 
z
" clip-path="url(#p1d2888b069)" style="fill: #1f77b4; fill-opacity: 0.5; stroke: #000000; stroke-width: 0.149933; stroke-linejoin: miter"/>
   </g>
   <g id="patch_107">
    <path d="M 1115.05644 244.078125 
L 1125.265366 244.078125 
L 1125.265366 244.078125 
L 1115.05644 244.078125 
z
" clip-path="url(#p1d2888b069)" style="fill: #1f77b4; fill-opacity: 0.5; stroke: #000000; stroke-width: 0.149933; stroke-linejoin: miter"/>
   </g>
   <g id="patch_108">
    <path d="M 1125.265366 244.078125 
L 1135.474292 244.078125 
L 1135.474292 244.078125 
L 1125.265366 244.078125 
z
" clip-path="url(#p1d2888b069)" style="fill: #1f77b4; fill-opacity: 0.5; stroke: #000000; stroke-width: 0.149933; stroke-linejoin: miter"/>
   </g>
   <g id="patch_109">
    <path d="M 1135.474292 244.078125 
L 1145.683219 244.078125 
L 1145.683219 244.078125 
L 1135.474292 244.078125 
z
" clip-path="url(#p1d2888b069)" style="fill: #1f77b4; fill-opacity: 0.5; stroke: #000000; stroke-width: 0.149933; stroke-linejoin: miter"/>
   </g>
   <g id="patch_110">
    <path d="M 1145.683219 244.078125 
L 1155.892145 244.078125 
L 1155.892145 244.078125 
L 1145.683219 244.078125 
z
" clip-path="url(#p1d2888b069)" style="fill: #1f77b4; fill-opacity: 0.5; stroke: #000000; stroke-width: 0.149933; stroke-linejoin: miter"/>
   </g>
   <g id="patch_111">
    <path d="M 1155.892145 244.078125 
L 1166.101071 244.078125 
L 1166.101071 244.078125 
L 1155.892145 244.078125 
z
" clip-path="url(#p1d2888b069)" style="fill: #1f77b4; fill-opacity: 0.5; stroke: #000000; stroke-width: 0.149933; stroke-linejoin: miter"/>
   </g>
   <g id="patch_112">
    <path d="M 1166.101071 244.078125 
L 1176.309997 244.078125 
L 1176.309997 244.078125 
L 1166.101071 244.078125 
z
" clip-path="url(#p1d2888b069)" style="fill: #1f77b4; fill-opacity: 0.5; stroke: #000000; stroke-width: 0.149933; stroke-linejoin: miter"/>
   </g>
   <g id="patch_113">
    <path d="M 1176.309997 244.078125 
L 1186.518923 244.078125 
L 1186.518923 244.078125 
L 1176.309997 244.078125 
z
" clip-path="url(#p1d2888b069)" style="fill: #1f77b4; fill-opacity: 0.5; stroke: #000000; stroke-width: 0.149933; stroke-linejoin: miter"/>
   </g>
   <g id="patch_114">
    <path d="M 1186.518923 244.078125 
L 1196.727849 244.078125 
L 1196.727849 244.078125 
L 1186.518923 244.078125 
z
" clip-path="url(#p1d2888b069)" style="fill: #1f77b4; fill-opacity: 0.5; stroke: #000000; stroke-width: 0.149933; stroke-linejoin: miter"/>
   </g>
   <g id="patch_115">
    <path d="M 1196.727849 244.078125 
L 1206.936775 244.078125 
L 1206.936775 244.078125 
L 1196.727849 244.078125 
z
" clip-path="url(#p1d2888b069)" style="fill: #1f77b4; fill-opacity: 0.5; stroke: #000000; stroke-width: 0.149933; stroke-linejoin: miter"/>
   </g>
   <g id="patch_116">
    <path d="M 1206.936775 244.078125 
L 1217.145701 244.078125 
L 1217.145701 244.078125 
L 1206.936775 244.078125 
z
" clip-path="url(#p1d2888b069)" style="fill: #1f77b4; fill-opacity: 0.5; stroke: #000000; stroke-width: 0.149933; stroke-linejoin: miter"/>
   </g>
   <g id="patch_117">
    <path d="M 1217.145701 244.078125 
L 1227.354627 244.078125 
L 1227.354627 244.078125 
L 1217.145701 244.078125 
z
" clip-path="url(#p1d2888b069)" style="fill: #1f77b4; fill-opacity: 0.5; stroke: #000000; stroke-width: 0.149933; stroke-linejoin: miter"/>
   </g>
   <g id="patch_118">
    <path d="M 1227.354627 244.078125 
L 1237.563554 244.078125 
L 1237.563554 244.078125 
L 1227.354627 244.078125 
z
" clip-path="url(#p1d2888b069)" style="fill: #1f77b4; fill-opacity: 0.5; stroke: #000000; stroke-width: 0.149933; stroke-linejoin: miter"/>
   </g>
   <g id="patch_119">
    <path d="M 1237.563554 244.078125 
L 1247.77248 244.078125 
L 1247.77248 244.078125 
L 1237.563554 244.078125 
z
" clip-path="url(#p1d2888b069)" style="fill: #1f77b4; fill-opacity: 0.5; stroke: #000000; stroke-width: 0.149933; stroke-linejoin: miter"/>
   </g>
   <g id="patch_120">
    <path d="M 1247.77248 244.078125 
L 1257.981406 244.078125 
L 1257.981406 244.078125 
L 1247.77248 244.078125 
z
" clip-path="url(#p1d2888b069)" style="fill: #1f77b4; fill-opacity: 0.5; stroke: #000000; stroke-width: 0.149933; stroke-linejoin: miter"/>
   </g>
   <g id="patch_121">
    <path d="M 1257.981406 244.078125 
L 1268.190332 244.078125 
L 1268.190332 244.078125 
L 1257.981406 244.078125 
z
" clip-path="url(#p1d2888b069)" style="fill: #1f77b4; fill-opacity: 0.5; stroke: #000000; stroke-width: 0.149933; stroke-linejoin: miter"/>
   </g>
   <g id="patch_122">
    <path d="M 1268.190332 244.078125 
L 1278.399258 244.078125 
L 1278.399258 244.078125 
L 1268.190332 244.078125 
z
" clip-path="url(#p1d2888b069)" style="fill: #1f77b4; fill-opacity: 0.5; stroke: #000000; stroke-width: 0.149933; stroke-linejoin: miter"/>
   </g>
   <g id="patch_123">
    <path d="M 1278.399258 244.078125 
L 1288.608184 244.078125 
L 1288.608184 244.078125 
L 1278.399258 244.078125 
z
" clip-path="url(#p1d2888b069)" style="fill: #1f77b4; fill-opacity: 0.5; stroke: #000000; stroke-width: 0.149933; stroke-linejoin: miter"/>
   </g>
   <g id="patch_124">
    <path d="M 1288.608184 244.078125 
L 1298.81711 244.078125 
L 1298.81711 244.078125 
L 1288.608184 244.078125 
z
" clip-path="url(#p1d2888b069)" style="fill: #1f77b4; fill-opacity: 0.5; stroke: #000000; stroke-width: 0.149933; stroke-linejoin: miter"/>
   </g>
   <g id="patch_125">
    <path d="M 1298.81711 244.078125 
L 1309.026036 244.078125 
L 1309.026036 244.078125 
L 1298.81711 244.078125 
z
" clip-path="url(#p1d2888b069)" style="fill: #1f77b4; fill-opacity: 0.5; stroke: #000000; stroke-width: 0.149933; stroke-linejoin: miter"/>
   </g>
   <g id="patch_126">
    <path d="M 1309.026036 244.078125 
L 1319.234962 244.078125 
L 1319.234962 244.078125 
L 1309.026036 244.078125 
z
" clip-path="url(#p1d2888b069)" style="fill: #1f77b4; fill-opacity: 0.5; stroke: #000000; stroke-width: 0.149933; stroke-linejoin: miter"/>
   </g>
   <g id="patch_127">
    <path d="M 1319.234962 244.078125 
L 1329.443889 244.078125 
L 1329.443889 244.078125 
L 1319.234962 244.078125 
z
" clip-path="url(#p1d2888b069)" style="fill: #1f77b4; fill-opacity: 0.5; stroke: #000000; stroke-width: 0.149933; stroke-linejoin: miter"/>
   </g>
   <g id="patch_128">
    <path d="M 1329.443889 244.078125 
L 1339.652815 244.078125 
L 1339.652815 244.078125 
L 1329.443889 244.078125 
z
" clip-path="url(#p1d2888b069)" style="fill: #1f77b4; fill-opacity: 0.5; stroke: #000000; stroke-width: 0.149933; stroke-linejoin: miter"/>
   </g>
   <g id="patch_129">
    <path d="M 1339.652815 244.078125 
L 1349.861741 244.078125 
L 1349.861741 244.078125 
L 1339.652815 244.078125 
z
" clip-path="url(#p1d2888b069)" style="fill: #1f77b4; fill-opacity: 0.5; stroke: #000000; stroke-width: 0.149933; stroke-linejoin: miter"/>
   </g>
   <g id="patch_130">
    <path d="M 1349.861741 244.078125 
L 1360.070667 244.078125 
L 1360.070667 244.029077 
L 1349.861741 244.029077 
z
" clip-path="url(#p1d2888b069)" style="fill: #1f77b4; fill-opacity: 0.5; stroke: #000000; stroke-width: 0.149933; stroke-linejoin: miter"/>
   </g>
   <g id="patch_131">
    <path d="M 1360.070667 244.078125 
L 1370.279593 244.078125 
L 1370.279593 244.078125 
L 1360.070667 244.078125 
z
" clip-path="url(#p1d2888b069)" style="fill: #1f77b4; fill-opacity: 0.5; stroke: #000000; stroke-width: 0.149933; stroke-linejoin: miter"/>
   </g>
   <g id="patch_132">
    <path d="M 1370.279593 244.078125 
L 1380.488519 244.078125 
L 1380.488519 244.078125 
L 1370.279593 244.078125 
z
" clip-path="url(#p1d2888b069)" style="fill: #1f77b4; fill-opacity: 0.5; stroke: #000000; stroke-width: 0.149933; stroke-linejoin: miter"/>
   </g>
   <g id="patch_133">
    <path d="M 1380.488519 244.078125 
L 1390.697445 244.078125 
L 1390.697445 244.078125 
L 1380.488519 244.078125 
z
" clip-path="url(#p1d2888b069)" style="fill: #1f77b4; fill-opacity: 0.5; stroke: #000000; stroke-width: 0.149933; stroke-linejoin: miter"/>
   </g>
   <g id="patch_134">
    <path d="M 1390.697445 244.078125 
L 1400.906371 244.078125 
L 1400.906371 244.078125 
L 1390.697445 244.078125 
z
" clip-path="url(#p1d2888b069)" style="fill: #1f77b4; fill-opacity: 0.5; stroke: #000000; stroke-width: 0.149933; stroke-linejoin: miter"/>
   </g>
   <g id="patch_135">
    <path d="M 1400.906371 244.078125 
L 1411.115297 244.078125 
L 1411.115297 244.078125 
L 1400.906371 244.078125 
z
" clip-path="url(#p1d2888b069)" style="fill: #1f77b4; fill-opacity: 0.5; stroke: #000000; stroke-width: 0.149933; stroke-linejoin: miter"/>
   </g>
   <g id="patch_136">
    <path d="M 1411.115297 244.078125 
L 1421.324224 244.078125 
L 1421.324224 244.078125 
L 1411.115297 244.078125 
z
" clip-path="url(#p1d2888b069)" style="fill: #1f77b4; fill-opacity: 0.5; stroke: #000000; stroke-width: 0.149933; stroke-linejoin: miter"/>
   </g>
   <g id="patch_137">
    <path d="M 1421.324224 244.078125 
L 1431.53315 244.078125 
L 1431.53315 244.078125 
L 1421.324224 244.078125 
z
" clip-path="url(#p1d2888b069)" style="fill: #1f77b4; fill-opacity: 0.5; stroke: #000000; stroke-width: 0.149933; stroke-linejoin: miter"/>
   </g>
   <g id="patch_138">
    <path d="M 1431.53315 244.078125 
L 1441.742076 244.078125 
L 1441.742076 244.078125 
L 1431.53315 244.078125 
z
" clip-path="url(#p1d2888b069)" style="fill: #1f77b4; fill-opacity: 0.5; stroke: #000000; stroke-width: 0.149933; stroke-linejoin: miter"/>
   </g>
   <g id="patch_139">
    <path d="M 1441.742076 244.078125 
L 1451.951002 244.078125 
L 1451.951002 244.078125 
L 1441.742076 244.078125 
z
" clip-path="url(#p1d2888b069)" style="fill: #1f77b4; fill-opacity: 0.5; stroke: #000000; stroke-width: 0.149933; stroke-linejoin: miter"/>
   </g>
   <g id="patch_140">
    <path d="M 1451.951002 244.078125 
L 1462.159928 244.078125 
L 1462.159928 244.078125 
L 1451.951002 244.078125 
z
" clip-path="url(#p1d2888b069)" style="fill: #1f77b4; fill-opacity: 0.5; stroke: #000000; stroke-width: 0.149933; stroke-linejoin: miter"/>
   </g>
   <g id="patch_141">
    <path d="M 1462.159928 244.078125 
L 1472.368854 244.078125 
L 1472.368854 244.029077 
L 1462.159928 244.029077 
z
" clip-path="url(#p1d2888b069)" style="fill: #1f77b4; fill-opacity: 0.5; stroke: #000000; stroke-width: 0.149933; stroke-linejoin: miter"/>
   </g>
   <g id="patch_142">
    <path d="M 1472.368854 244.078125 
L 1482.57778 244.078125 
L 1482.57778 244.078125 
L 1472.368854 244.078125 
z
" clip-path="url(#p1d2888b069)" style="fill: #1f77b4; fill-opacity: 0.5; stroke: #000000; stroke-width: 0.149933; stroke-linejoin: miter"/>
   </g>
   <g id="patch_143">
    <path d="M 1482.57778 244.078125 
L 1492.786706 244.078125 
L 1492.786706 244.078125 
L 1482.57778 244.078125 
z
" clip-path="url(#p1d2888b069)" style="fill: #1f77b4; fill-opacity: 0.5; stroke: #000000; stroke-width: 0.149933; stroke-linejoin: miter"/>
   </g>
   <g id="patch_144">
    <path d="M 1492.786706 244.078125 
L 1502.995632 244.078125 
L 1502.995632 244.078125 
L 1492.786706 244.078125 
z
" clip-path="url(#p1d2888b069)" style="fill: #1f77b4; fill-opacity: 0.5; stroke: #000000; stroke-width: 0.149933; stroke-linejoin: miter"/>
   </g>
   <g id="patch_145">
    <path d="M 1502.995632 244.078125 
L 1513.204558 244.078125 
L 1513.204558 244.078125 
L 1502.995632 244.078125 
z
" clip-path="url(#p1d2888b069)" style="fill: #1f77b4; fill-opacity: 0.5; stroke: #000000; stroke-width: 0.149933; stroke-linejoin: miter"/>
   </g>
   <g id="patch_146">
    <path d="M 1513.204558 244.078125 
L 1523.413485 244.078125 
L 1523.413485 244.078125 
L 1513.204558 244.078125 
z
" clip-path="url(#p1d2888b069)" style="fill: #1f77b4; fill-opacity: 0.5; stroke: #000000; stroke-width: 0.149933; stroke-linejoin: miter"/>
   </g>
   <g id="patch_147">
    <path d="M 1523.413485 244.078125 
L 1533.622411 244.078125 
L 1533.622411 244.078125 
L 1523.413485 244.078125 
z
" clip-path="url(#p1d2888b069)" style="fill: #1f77b4; fill-opacity: 0.5; stroke: #000000; stroke-width: 0.149933; stroke-linejoin: miter"/>
   </g>
   <g id="patch_148">
    <path d="M 1533.622411 244.078125 
L 1543.831337 244.078125 
L 1543.831337 244.078125 
L 1533.622411 244.078125 
z
" clip-path="url(#p1d2888b069)" style="fill: #1f77b4; fill-opacity: 0.5; stroke: #000000; stroke-width: 0.149933; stroke-linejoin: miter"/>
   </g>
   <g id="patch_149">
    <path d="M 1543.831337 244.078125 
L 1554.040263 244.078125 
L 1554.040263 244.078125 
L 1543.831337 244.078125 
z
" clip-path="url(#p1d2888b069)" style="fill: #1f77b4; fill-opacity: 0.5; stroke: #000000; stroke-width: 0.149933; stroke-linejoin: miter"/>
   </g>
   <g id="patch_150">
    <path d="M 1554.040263 244.078125 
L 1564.249189 244.078125 
L 1564.249189 244.078125 
L 1554.040263 244.078125 
z
" clip-path="url(#p1d2888b069)" style="fill: #1f77b4; fill-opacity: 0.5; stroke: #000000; stroke-width: 0.149933; stroke-linejoin: miter"/>
   </g>
   <g id="patch_151">
    <path d="M 1564.249189 244.078125 
L 1574.458115 244.078125 
L 1574.458115 244.078125 
L 1564.249189 244.078125 
z
" clip-path="url(#p1d2888b069)" style="fill: #1f77b4; fill-opacity: 0.5; stroke: #000000; stroke-width: 0.149933; stroke-linejoin: miter"/>
   </g>
   <g id="patch_152">
    <path d="M 1574.458115 244.078125 
L 1584.667041 244.078125 
L 1584.667041 244.078125 
L 1574.458115 244.078125 
z
" clip-path="url(#p1d2888b069)" style="fill: #1f77b4; fill-opacity: 0.5; stroke: #000000; stroke-width: 0.149933; stroke-linejoin: miter"/>
   </g>
   <g id="patch_153">
    <path d="M 1584.667041 244.078125 
L 1594.875967 244.078125 
L 1594.875967 244.078125 
L 1584.667041 244.078125 
z
" clip-path="url(#p1d2888b069)" style="fill: #1f77b4; fill-opacity: 0.5; stroke: #000000; stroke-width: 0.149933; stroke-linejoin: miter"/>
   </g>
   <g id="patch_154">
    <path d="M 1594.875967 244.078125 
L 1605.084893 244.078125 
L 1605.084893 244.078125 
L 1594.875967 244.078125 
z
" clip-path="url(#p1d2888b069)" style="fill: #1f77b4; fill-opacity: 0.5; stroke: #000000; stroke-width: 0.149933; stroke-linejoin: miter"/>
   </g>
   <g id="patch_155">
    <path d="M 1605.084893 244.078125 
L 1615.29382 244.078125 
L 1615.29382 244.078125 
L 1605.084893 244.078125 
z
" clip-path="url(#p1d2888b069)" style="fill: #1f77b4; fill-opacity: 0.5; stroke: #000000; stroke-width: 0.149933; stroke-linejoin: miter"/>
   </g>
   <g id="patch_156">
    <path d="M 1615.29382 244.078125 
L 1625.502746 244.078125 
L 1625.502746 244.078125 
L 1615.29382 244.078125 
z
" clip-path="url(#p1d2888b069)" style="fill: #1f77b4; fill-opacity: 0.5; stroke: #000000; stroke-width: 0.149933; stroke-linejoin: miter"/>
   </g>
   <g id="patch_157">
    <path d="M 1625.502746 244.078125 
L 1635.711672 244.078125 
L 1635.711672 244.078125 
L 1625.502746 244.078125 
z
" clip-path="url(#p1d2888b069)" style="fill: #1f77b4; fill-opacity: 0.5; stroke: #000000; stroke-width: 0.149933; stroke-linejoin: miter"/>
   </g>
   <g id="patch_158">
    <path d="M 1635.711672 244.078125 
L 1645.920598 244.078125 
L 1645.920598 244.078125 
L 1635.711672 244.078125 
z
" clip-path="url(#p1d2888b069)" style="fill: #1f77b4; fill-opacity: 0.5; stroke: #000000; stroke-width: 0.149933; stroke-linejoin: miter"/>
   </g>
   <g id="patch_159">
    <path d="M 1645.920598 244.078125 
L 1656.129524 244.078125 
L 1656.129524 244.078125 
L 1645.920598 244.078125 
z
" clip-path="url(#p1d2888b069)" style="fill: #1f77b4; fill-opacity: 0.5; stroke: #000000; stroke-width: 0.149933; stroke-linejoin: miter"/>
   </g>
   <g id="patch_160">
    <path d="M 1656.129524 244.078125 
L 1666.33845 244.078125 
L 1666.33845 244.078125 
L 1656.129524 244.078125 
z
" clip-path="url(#p1d2888b069)" style="fill: #1f77b4; fill-opacity: 0.5; stroke: #000000; stroke-width: 0.149933; stroke-linejoin: miter"/>
   </g>
   <g id="patch_161">
    <path d="M 1666.33845 244.078125 
L 1676.547376 244.078125 
L 1676.547376 244.078125 
L 1666.33845 244.078125 
z
" clip-path="url(#p1d2888b069)" style="fill: #1f77b4; fill-opacity: 0.5; stroke: #000000; stroke-width: 0.149933; stroke-linejoin: miter"/>
   </g>
   <g id="patch_162">
    <path d="M 1676.547376 244.078125 
L 1686.756302 244.078125 
L 1686.756302 244.078125 
L 1676.547376 244.078125 
z
" clip-path="url(#p1d2888b069)" style="fill: #1f77b4; fill-opacity: 0.5; stroke: #000000; stroke-width: 0.149933; stroke-linejoin: miter"/>
   </g>
   <g id="patch_163">
    <path d="M 1686.756302 244.078125 
L 1696.965228 244.078125 
L 1696.965228 244.078125 
L 1686.756302 244.078125 
z
" clip-path="url(#p1d2888b069)" style="fill: #1f77b4; fill-opacity: 0.5; stroke: #000000; stroke-width: 0.149933; stroke-linejoin: miter"/>
   </g>
   <g id="patch_164">
    <path d="M 1696.965228 244.078125 
L 1707.174155 244.078125 
L 1707.174155 244.078125 
L 1696.965228 244.078125 
z
" clip-path="url(#p1d2888b069)" style="fill: #1f77b4; fill-opacity: 0.5; stroke: #000000; stroke-width: 0.149933; stroke-linejoin: miter"/>
   </g>
   <g id="patch_165">
    <path d="M 1707.174155 244.078125 
L 1717.383081 244.078125 
L 1717.383081 244.078125 
L 1707.174155 244.078125 
z
" clip-path="url(#p1d2888b069)" style="fill: #1f77b4; fill-opacity: 0.5; stroke: #000000; stroke-width: 0.149933; stroke-linejoin: miter"/>
   </g>
   <g id="patch_166">
    <path d="M 1717.383081 244.078125 
L 1727.592007 244.078125 
L 1727.592007 244.078125 
L 1717.383081 244.078125 
z
" clip-path="url(#p1d2888b069)" style="fill: #1f77b4; fill-opacity: 0.5; stroke: #000000; stroke-width: 0.149933; stroke-linejoin: miter"/>
   </g>
   <g id="patch_167">
    <path d="M 1727.592007 244.078125 
L 1737.800933 244.078125 
L 1737.800933 244.078125 
L 1727.592007 244.078125 
z
" clip-path="url(#p1d2888b069)" style="fill: #1f77b4; fill-opacity: 0.5; stroke: #000000; stroke-width: 0.149933; stroke-linejoin: miter"/>
   </g>
   <g id="patch_168">
    <path d="M 1737.800933 244.078125 
L 1748.009859 244.078125 
L 1748.009859 244.078125 
L 1737.800933 244.078125 
z
" clip-path="url(#p1d2888b069)" style="fill: #1f77b4; fill-opacity: 0.5; stroke: #000000; stroke-width: 0.149933; stroke-linejoin: miter"/>
   </g>
   <g id="patch_169">
    <path d="M 1748.009859 244.078125 
L 1758.218785 244.078125 
L 1758.218785 244.078125 
L 1748.009859 244.078125 
z
" clip-path="url(#p1d2888b069)" style="fill: #1f77b4; fill-opacity: 0.5; stroke: #000000; stroke-width: 0.149933; stroke-linejoin: miter"/>
   </g>
   <g id="patch_170">
    <path d="M 1758.218785 244.078125 
L 1768.427711 244.078125 
L 1768.427711 244.078125 
L 1758.218785 244.078125 
z
" clip-path="url(#p1d2888b069)" style="fill: #1f77b4; fill-opacity: 0.5; stroke: #000000; stroke-width: 0.149933; stroke-linejoin: miter"/>
   </g>
   <g id="patch_171">
    <path d="M 1768.427711 244.078125 
L 1778.636637 244.078125 
L 1778.636637 244.078125 
L 1768.427711 244.078125 
z
" clip-path="url(#p1d2888b069)" style="fill: #1f77b4; fill-opacity: 0.5; stroke: #000000; stroke-width: 0.149933; stroke-linejoin: miter"/>
   </g>
   <g id="patch_172">
    <path d="M 1778.636637 244.078125 
L 1788.845563 244.078125 
L 1788.845563 244.078125 
L 1778.636637 244.078125 
z
" clip-path="url(#p1d2888b069)" style="fill: #1f77b4; fill-opacity: 0.5; stroke: #000000; stroke-width: 0.149933; stroke-linejoin: miter"/>
   </g>
   <g id="patch_173">
    <path d="M 1788.845563 244.078125 
L 1799.05449 244.078125 
L 1799.05449 244.078125 
L 1788.845563 244.078125 
z
" clip-path="url(#p1d2888b069)" style="fill: #1f77b4; fill-opacity: 0.5; stroke: #000000; stroke-width: 0.149933; stroke-linejoin: miter"/>
   </g>
   <g id="patch_174">
    <path d="M 1799.05449 244.078125 
L 1809.263416 244.078125 
L 1809.263416 244.078125 
L 1799.05449 244.078125 
z
" clip-path="url(#p1d2888b069)" style="fill: #1f77b4; fill-opacity: 0.5; stroke: #000000; stroke-width: 0.149933; stroke-linejoin: miter"/>
   </g>
   <g id="patch_175">
    <path d="M 1809.263416 244.078125 
L 1819.472342 244.078125 
L 1819.472342 244.078125 
L 1809.263416 244.078125 
z
" clip-path="url(#p1d2888b069)" style="fill: #1f77b4; fill-opacity: 0.5; stroke: #000000; stroke-width: 0.149933; stroke-linejoin: miter"/>
   </g>
   <g id="patch_176">
    <path d="M 1819.472342 244.078125 
L 1829.681268 244.078125 
L 1829.681268 244.078125 
L 1819.472342 244.078125 
z
" clip-path="url(#p1d2888b069)" style="fill: #1f77b4; fill-opacity: 0.5; stroke: #000000; stroke-width: 0.149933; stroke-linejoin: miter"/>
   </g>
   <g id="patch_177">
    <path d="M 1829.681268 244.078125 
L 1839.890194 244.078125 
L 1839.890194 244.078125 
L 1829.681268 244.078125 
z
" clip-path="url(#p1d2888b069)" style="fill: #1f77b4; fill-opacity: 0.5; stroke: #000000; stroke-width: 0.149933; stroke-linejoin: miter"/>
   </g>
   <g id="patch_178">
    <path d="M 1839.890194 244.078125 
L 1850.09912 244.078125 
L 1850.09912 244.078125 
L 1839.890194 244.078125 
z
" clip-path="url(#p1d2888b069)" style="fill: #1f77b4; fill-opacity: 0.5; stroke: #000000; stroke-width: 0.149933; stroke-linejoin: miter"/>
   </g>
   <g id="patch_179">
    <path d="M 1850.09912 244.078125 
L 1860.308046 244.078125 
L 1860.308046 244.078125 
L 1850.09912 244.078125 
z
" clip-path="url(#p1d2888b069)" style="fill: #1f77b4; fill-opacity: 0.5; stroke: #000000; stroke-width: 0.149933; stroke-linejoin: miter"/>
   </g>
   <g id="patch_180">
    <path d="M 1860.308046 244.078125 
L 1870.516972 244.078125 
L 1870.516972 244.078125 
L 1860.308046 244.078125 
z
" clip-path="url(#p1d2888b069)" style="fill: #1f77b4; fill-opacity: 0.5; stroke: #000000; stroke-width: 0.149933; stroke-linejoin: miter"/>
   </g>
   <g id="patch_181">
    <path d="M 1870.516972 244.078125 
L 1880.725898 244.078125 
L 1880.725898 244.078125 
L 1870.516972 244.078125 
z
" clip-path="url(#p1d2888b069)" style="fill: #1f77b4; fill-opacity: 0.5; stroke: #000000; stroke-width: 0.149933; stroke-linejoin: miter"/>
   </g>
   <g id="patch_182">
    <path d="M 1880.725898 244.078125 
L 1890.934825 244.078125 
L 1890.934825 244.078125 
L 1880.725898 244.078125 
z
" clip-path="url(#p1d2888b069)" style="fill: #1f77b4; fill-opacity: 0.5; stroke: #000000; stroke-width: 0.149933; stroke-linejoin: miter"/>
   </g>
   <g id="patch_183">
    <path d="M 1890.934825 244.078125 
L 1901.143751 244.078125 
L 1901.143751 244.078125 
L 1890.934825 244.078125 
z
" clip-path="url(#p1d2888b069)" style="fill: #1f77b4; fill-opacity: 0.5; stroke: #000000; stroke-width: 0.149933; stroke-linejoin: miter"/>
   </g>
   <g id="patch_184">
    <path d="M 1901.143751 244.078125 
L 1911.352677 244.078125 
L 1911.352677 244.078125 
L 1901.143751 244.078125 
z
" clip-path="url(#p1d2888b069)" style="fill: #1f77b4; fill-opacity: 0.5; stroke: #000000; stroke-width: 0.149933; stroke-linejoin: miter"/>
   </g>
   <g id="patch_185">
    <path d="M 1911.352677 244.078125 
L 1921.561603 244.078125 
L 1921.561603 244.078125 
L 1911.352677 244.078125 
z
" clip-path="url(#p1d2888b069)" style="fill: #1f77b4; fill-opacity: 0.5; stroke: #000000; stroke-width: 0.149933; stroke-linejoin: miter"/>
   </g>
   <g id="patch_186">
    <path d="M 1921.561603 244.078125 
L 1931.770529 244.078125 
L 1931.770529 244.078125 
L 1921.561603 244.078125 
z
" clip-path="url(#p1d2888b069)" style="fill: #1f77b4; fill-opacity: 0.5; stroke: #000000; stroke-width: 0.149933; stroke-linejoin: miter"/>
   </g>
   <g id="patch_187">
    <path d="M 1931.770529 244.078125 
L 1941.979455 244.078125 
L 1941.979455 244.078125 
L 1931.770529 244.078125 
z
" clip-path="url(#p1d2888b069)" style="fill: #1f77b4; fill-opacity: 0.5; stroke: #000000; stroke-width: 0.149933; stroke-linejoin: miter"/>
   </g>
   <g id="patch_188">
    <path d="M 1941.979455 244.078125 
L 1952.188381 244.078125 
L 1952.188381 244.078125 
L 1941.979455 244.078125 
z
" clip-path="url(#p1d2888b069)" style="fill: #1f77b4; fill-opacity: 0.5; stroke: #000000; stroke-width: 0.149933; stroke-linejoin: miter"/>
   </g>
   <g id="patch_189">
    <path d="M 1952.188381 244.078125 
L 1962.397307 244.078125 
L 1962.397307 244.078125 
L 1952.188381 244.078125 
z
" clip-path="url(#p1d2888b069)" style="fill: #1f77b4; fill-opacity: 0.5; stroke: #000000; stroke-width: 0.149933; stroke-linejoin: miter"/>
   </g>
   <g id="patch_190">
    <path d="M 1962.397307 244.078125 
L 1972.606233 244.078125 
L 1972.606233 244.078125 
L 1962.397307 244.078125 
z
" clip-path="url(#p1d2888b069)" style="fill: #1f77b4; fill-opacity: 0.5; stroke: #000000; stroke-width: 0.149933; stroke-linejoin: miter"/>
   </g>
   <g id="patch_191">
    <path d="M 1972.606233 244.078125 
L 1982.815159 244.078125 
L 1982.815159 244.029077 
L 1972.606233 244.029077 
z
" clip-path="url(#p1d2888b069)" style="fill: #1f77b4; fill-opacity: 0.5; stroke: #000000; stroke-width: 0.149933; stroke-linejoin: miter"/>
   </g>
   <g id="patch_192">
    <path d="M 1982.815159 244.078125 
L 1993.024086 244.078125 
L 1993.024086 244.078125 
L 1982.815159 244.078125 
z
" clip-path="url(#p1d2888b069)" style="fill: #1f77b4; fill-opacity: 0.5; stroke: #000000; stroke-width: 0.149933; stroke-linejoin: miter"/>
   </g>
   <g id="patch_193">
    <path d="M 1993.024086 244.078125 
L 2003.233012 244.078125 
L 2003.233012 244.078125 
L 1993.024086 244.078125 
z
" clip-path="url(#p1d2888b069)" style="fill: #1f77b4; fill-opacity: 0.5; stroke: #000000; stroke-width: 0.149933; stroke-linejoin: miter"/>
   </g>
   <g id="patch_194">
    <path d="M 2003.233012 244.078125 
L 2013.441938 244.078125 
L 2013.441938 244.078125 
L 2003.233012 244.078125 
z
" clip-path="url(#p1d2888b069)" style="fill: #1f77b4; fill-opacity: 0.5; stroke: #000000; stroke-width: 0.149933; stroke-linejoin: miter"/>
   </g>
   <g id="patch_195">
    <path d="M 2013.441938 244.078125 
L 2023.650864 244.078125 
L 2023.650864 244.078125 
L 2013.441938 244.078125 
z
" clip-path="url(#p1d2888b069)" style="fill: #1f77b4; fill-opacity: 0.5; stroke: #000000; stroke-width: 0.149933; stroke-linejoin: miter"/>
   </g>
   <g id="patch_196">
    <path d="M 2023.650864 244.078125 
L 2033.85979 244.078125 
L 2033.85979 244.078125 
L 2023.650864 244.078125 
z
" clip-path="url(#p1d2888b069)" style="fill: #1f77b4; fill-opacity: 0.5; stroke: #000000; stroke-width: 0.149933; stroke-linejoin: miter"/>
   </g>
   <g id="patch_197">
    <path d="M 2033.85979 244.078125 
L 2044.068716 244.078125 
L 2044.068716 244.078125 
L 2033.85979 244.078125 
z
" clip-path="url(#p1d2888b069)" style="fill: #1f77b4; fill-opacity: 0.5; stroke: #000000; stroke-width: 0.149933; stroke-linejoin: miter"/>
   </g>
   <g id="patch_198">
    <path d="M 2044.068716 244.078125 
L 2054.277642 244.078125 
L 2054.277642 244.078125 
L 2044.068716 244.078125 
z
" clip-path="url(#p1d2888b069)" style="fill: #1f77b4; fill-opacity: 0.5; stroke: #000000; stroke-width: 0.149933; stroke-linejoin: miter"/>
   </g>
   <g id="patch_199">
    <path d="M 2054.277642 244.078125 
L 2064.486568 244.078125 
L 2064.486568 244.078125 
L 2054.277642 244.078125 
z
" clip-path="url(#p1d2888b069)" style="fill: #1f77b4; fill-opacity: 0.5; stroke: #000000; stroke-width: 0.149933; stroke-linejoin: miter"/>
   </g>
   <g id="patch_200">
    <path d="M 2064.486568 244.078125 
L 2074.695494 244.078125 
L 2074.695494 244.078125 
L 2064.486568 244.078125 
z
" clip-path="url(#p1d2888b069)" style="fill: #1f77b4; fill-opacity: 0.5; stroke: #000000; stroke-width: 0.149933; stroke-linejoin: miter"/>
   </g>
   <g id="patch_201">
    <path d="M 2074.695494 244.078125 
L 2084.904421 244.078125 
L 2084.904421 244.078125 
L 2074.695494 244.078125 
z
" clip-path="url(#p1d2888b069)" style="fill: #1f77b4; fill-opacity: 0.5; stroke: #000000; stroke-width: 0.149933; stroke-linejoin: miter"/>
   </g>
   <g id="patch_202">
    <path d="M 2084.904421 244.078125 
L 2095.113347 244.078125 
L 2095.113347 244.078125 
L 2084.904421 244.078125 
z
" clip-path="url(#p1d2888b069)" style="fill: #1f77b4; fill-opacity: 0.5; stroke: #000000; stroke-width: 0.149933; stroke-linejoin: miter"/>
   </g>
   <g id="patch_203">
    <path d="M 2095.113347 244.078125 
L 2105.322273 244.078125 
L 2105.322273 244.078125 
L 2095.113347 244.078125 
z
" clip-path="url(#p1d2888b069)" style="fill: #1f77b4; fill-opacity: 0.5; stroke: #000000; stroke-width: 0.149933; stroke-linejoin: miter"/>
   </g>
   <g id="patch_204">
    <path d="M 2105.322273 244.078125 
L 2115.531199 244.078125 
L 2115.531199 244.029077 
L 2105.322273 244.029077 
z
" clip-path="url(#p1d2888b069)" style="fill: #1f77b4; fill-opacity: 0.5; stroke: #000000; stroke-width: 0.149933; stroke-linejoin: miter"/>
   </g>
   <g id="patch_205">
    <path d="M 2115.531199 244.078125 
L 2125.740125 244.078125 
L 2125.740125 244.029077 
L 2115.531199 244.029077 
z
" clip-path="url(#p1d2888b069)" style="fill: #1f77b4; fill-opacity: 0.5; stroke: #000000; stroke-width: 0.149933; stroke-linejoin: miter"/>
   </g>
   <g id="matplotlib.axis_1">
    <g id="xtick_1">
     <g id="line2d_1">
      <defs>
       <path id="m3a1e65d4c3" d="M 0 0 
L 0 3.5 
" style="stroke: #000000; stroke-width: 0.8"/>
      </defs>
      <g>
       <use xlink:href="#m3a1e65d4c3" x="53.328125" y="244.078125" style="stroke: #000000; stroke-width: 0.8"/>
      </g>
     </g>
     <g id="text_1">
      <!-- 0 -->
      <g transform="translate(50.146875 258.676562) scale(0.1 -0.1)">
       <defs>
        <path id="DejaVuSans-30" d="M 2034 4250 
Q 1547 4250 1301 3770 
Q 1056 3291 1056 2328 
Q 1056 1369 1301 889 
Q 1547 409 2034 409 
Q 2525 409 2770 889 
Q 3016 1369 3016 2328 
Q 3016 3291 2770 3770 
Q 2525 4250 2034 4250 
z
M 2034 4750 
Q 2819 4750 3233 4129 
Q 3647 3509 3647 2328 
Q 3647 1150 3233 529 
Q 2819 -91 2034 -91 
Q 1250 -91 836 529 
Q 422 1150 422 2328 
Q 422 3509 836 4129 
Q 1250 4750 2034 4750 
z
" transform="scale(0.015625)"/>
       </defs>
       <use xlink:href="#DejaVuSans-30"/>
      </g>
     </g>
    </g>
    <g id="xtick_2">
     <g id="line2d_2">
      <g>
       <use xlink:href="#m3a1e65d4c3" x="120.288125" y="244.078125" style="stroke: #000000; stroke-width: 0.8"/>
      </g>
     </g>
     <g id="text_2">
      <!-- 20 -->
      <g transform="translate(113.925625 258.676562) scale(0.1 -0.1)">
       <defs>
        <path id="DejaVuSans-32" d="M 1228 531 
L 3431 531 
L 3431 0 
L 469 0 
L 469 531 
Q 828 903 1448 1529 
Q 2069 2156 2228 2338 
Q 2531 2678 2651 2914 
Q 2772 3150 2772 3378 
Q 2772 3750 2511 3984 
Q 2250 4219 1831 4219 
Q 1534 4219 1204 4116 
Q 875 4013 500 3803 
L 500 4441 
Q 881 4594 1212 4672 
Q 1544 4750 1819 4750 
Q 2544 4750 2975 4387 
Q 3406 4025 3406 3419 
Q 3406 3131 3298 2873 
Q 3191 2616 2906 2266 
Q 2828 2175 2409 1742 
Q 1991 1309 1228 531 
z
" transform="scale(0.015625)"/>
       </defs>
       <use xlink:href="#DejaVuSans-32"/>
       <use xlink:href="#DejaVuSans-30" transform="translate(63.623047 0)"/>
      </g>
     </g>
    </g>
    <g id="xtick_3">
     <g id="line2d_3">
      <g>
       <use xlink:href="#m3a1e65d4c3" x="187.248125" y="244.078125" style="stroke: #000000; stroke-width: 0.8"/>
      </g>
     </g>
     <g id="text_3">
      <!-- 40 -->
      <g transform="translate(180.885625 258.676562) scale(0.1 -0.1)">
       <defs>
        <path id="DejaVuSans-34" d="M 2419 4116 
L 825 1625 
L 2419 1625 
L 2419 4116 
z
M 2253 4666 
L 3047 4666 
L 3047 1625 
L 3713 1625 
L 3713 1100 
L 3047 1100 
L 3047 0 
L 2419 0 
L 2419 1100 
L 313 1100 
L 313 1709 
L 2253 4666 
z
" transform="scale(0.015625)"/>
       </defs>
       <use xlink:href="#DejaVuSans-34"/>
       <use xlink:href="#DejaVuSans-30" transform="translate(63.623047 0)"/>
      </g>
     </g>
    </g>
    <g id="xtick_4">
     <g id="line2d_4">
      <g>
       <use xlink:href="#m3a1e65d4c3" x="254.208125" y="244.078125" style="stroke: #000000; stroke-width: 0.8"/>
      </g>
     </g>
     <g id="text_4">
      <!-- 60 -->
      <g transform="translate(247.845625 258.676562) scale(0.1 -0.1)">
       <defs>
        <path id="DejaVuSans-36" d="M 2113 2584 
Q 1688 2584 1439 2293 
Q 1191 2003 1191 1497 
Q 1191 994 1439 701 
Q 1688 409 2113 409 
Q 2538 409 2786 701 
Q 3034 994 3034 1497 
Q 3034 2003 2786 2293 
Q 2538 2584 2113 2584 
z
M 3366 4563 
L 3366 3988 
Q 3128 4100 2886 4159 
Q 2644 4219 2406 4219 
Q 1781 4219 1451 3797 
Q 1122 3375 1075 2522 
Q 1259 2794 1537 2939 
Q 1816 3084 2150 3084 
Q 2853 3084 3261 2657 
Q 3669 2231 3669 1497 
Q 3669 778 3244 343 
Q 2819 -91 2113 -91 
Q 1303 -91 875 529 
Q 447 1150 447 2328 
Q 447 3434 972 4092 
Q 1497 4750 2381 4750 
Q 2619 4750 2861 4703 
Q 3103 4656 3366 4563 
z
" transform="scale(0.015625)"/>
       </defs>
       <use xlink:href="#DejaVuSans-36"/>
       <use xlink:href="#DejaVuSans-30" transform="translate(63.623047 0)"/>
      </g>
     </g>
    </g>
    <g id="xtick_5">
     <g id="line2d_5">
      <g>
       <use xlink:href="#m3a1e65d4c3" x="321.168125" y="244.078125" style="stroke: #000000; stroke-width: 0.8"/>
      </g>
     </g>
     <g id="text_5">
      <!-- 80 -->
      <g transform="translate(314.805625 258.676562) scale(0.1 -0.1)">
       <defs>
        <path id="DejaVuSans-38" d="M 2034 2216 
Q 1584 2216 1326 1975 
Q 1069 1734 1069 1313 
Q 1069 891 1326 650 
Q 1584 409 2034 409 
Q 2484 409 2743 651 
Q 3003 894 3003 1313 
Q 3003 1734 2745 1975 
Q 2488 2216 2034 2216 
z
M 1403 2484 
Q 997 2584 770 2862 
Q 544 3141 544 3541 
Q 544 4100 942 4425 
Q 1341 4750 2034 4750 
Q 2731 4750 3128 4425 
Q 3525 4100 3525 3541 
Q 3525 3141 3298 2862 
Q 3072 2584 2669 2484 
Q 3125 2378 3379 2068 
Q 3634 1759 3634 1313 
Q 3634 634 3220 271 
Q 2806 -91 2034 -91 
Q 1263 -91 848 271 
Q 434 634 434 1313 
Q 434 1759 690 2068 
Q 947 2378 1403 2484 
z
M 1172 3481 
Q 1172 3119 1398 2916 
Q 1625 2713 2034 2713 
Q 2441 2713 2670 2916 
Q 2900 3119 2900 3481 
Q 2900 3844 2670 4047 
Q 2441 4250 2034 4250 
Q 1625 4250 1398 4047 
Q 1172 3844 1172 3481 
z
" transform="scale(0.015625)"/>
       </defs>
       <use xlink:href="#DejaVuSans-38"/>
       <use xlink:href="#DejaVuSans-30" transform="translate(63.623047 0)"/>
      </g>
     </g>
    </g>
    <g id="xtick_6">
     <g id="line2d_6">
      <g>
       <use xlink:href="#m3a1e65d4c3" x="388.128125" y="244.078125" style="stroke: #000000; stroke-width: 0.8"/>
      </g>
     </g>
     <g id="text_6">
      <!-- 100 -->
      <g transform="translate(378.584375 258.676562) scale(0.1 -0.1)">
       <defs>
        <path id="DejaVuSans-31" d="M 794 531 
L 1825 531 
L 1825 4091 
L 703 3866 
L 703 4441 
L 1819 4666 
L 2450 4666 
L 2450 531 
L 3481 531 
L 3481 0 
L 794 0 
L 794 531 
z
" transform="scale(0.015625)"/>
       </defs>
       <use xlink:href="#DejaVuSans-31"/>
       <use xlink:href="#DejaVuSans-30" transform="translate(63.623047 0)"/>
       <use xlink:href="#DejaVuSans-30" transform="translate(127.246094 0)"/>
      </g>
     </g>
    </g>
    <g id="text_7">
     <!-- exp -->
     <g transform="translate(211.605469 272.354687) scale(0.1 -0.1)">
      <defs>
       <path id="DejaVuSans-65" d="M 3597 1894 
L 3597 1613 
L 953 1613 
Q 991 1019 1311 708 
Q 1631 397 2203 397 
Q 2534 397 2845 478 
Q 3156 559 3463 722 
L 3463 178 
Q 3153 47 2828 -22 
Q 2503 -91 2169 -91 
Q 1331 -91 842 396 
Q 353 884 353 1716 
Q 353 2575 817 3079 
Q 1281 3584 2069 3584 
Q 2775 3584 3186 3129 
Q 3597 2675 3597 1894 
z
M 3022 2063 
Q 3016 2534 2758 2815 
Q 2500 3097 2075 3097 
Q 1594 3097 1305 2825 
Q 1016 2553 972 2059 
L 3022 2063 
z
" transform="scale(0.015625)"/>
       <path id="DejaVuSans-78" d="M 3513 3500 
L 2247 1797 
L 3578 0 
L 2900 0 
L 1881 1375 
L 863 0 
L 184 0 
L 1544 1831 
L 300 3500 
L 978 3500 
L 1906 2253 
L 2834 3500 
L 3513 3500 
z
" transform="scale(0.015625)"/>
       <path id="DejaVuSans-70" d="M 1159 525 
L 1159 -1331 
L 581 -1331 
L 581 3500 
L 1159 3500 
L 1159 2969 
Q 1341 3281 1617 3432 
Q 1894 3584 2278 3584 
Q 2916 3584 3314 3078 
Q 3713 2572 3713 1747 
Q 3713 922 3314 415 
Q 2916 -91 2278 -91 
Q 1894 -91 1617 61 
Q 1341 213 1159 525 
z
M 3116 1747 
Q 3116 2381 2855 2742 
Q 2594 3103 2138 3103 
Q 1681 3103 1420 2742 
Q 1159 2381 1159 1747 
Q 1159 1113 1420 752 
Q 1681 391 2138 391 
Q 2594 391 2855 752 
Q 3116 1113 3116 1747 
z
" transform="scale(0.015625)"/>
      </defs>
      <use xlink:href="#DejaVuSans-65"/>
      <use xlink:href="#DejaVuSans-78" transform="translate(59.773438 0)"/>
      <use xlink:href="#DejaVuSans-70" transform="translate(118.953125 0)"/>
     </g>
    </g>
   </g>
   <g id="matplotlib.axis_2">
    <g id="ytick_1">
     <g id="line2d_7">
      <defs>
       <path id="m4871f0c1b9" d="M 0 0 
L -3.5 0 
" style="stroke: #000000; stroke-width: 0.8"/>
      </defs>
      <g>
       <use xlink:href="#m4871f0c1b9" x="53.328125" y="244.078125" style="stroke: #000000; stroke-width: 0.8"/>
      </g>
     </g>
     <g id="text_8">
      <!-- 0 -->
      <g transform="translate(39.965625 247.877344) scale(0.1 -0.1)">
       <use xlink:href="#DejaVuSans-30"/>
      </g>
     </g>
    </g>
    <g id="ytick_2">
     <g id="line2d_8">
      <g>
       <use xlink:href="#m4871f0c1b9" x="53.328125" y="195.030285" style="stroke: #000000; stroke-width: 0.8"/>
      </g>
     </g>
     <g id="text_9">
      <!-- 1000 -->
      <g transform="translate(20.878125 198.829504) scale(0.1 -0.1)">
       <use xlink:href="#DejaVuSans-31"/>
       <use xlink:href="#DejaVuSans-30" transform="translate(63.623047 0)"/>
       <use xlink:href="#DejaVuSans-30" transform="translate(127.246094 0)"/>
       <use xlink:href="#DejaVuSans-30" transform="translate(190.869141 0)"/>
      </g>
     </g>
    </g>
    <g id="ytick_3">
     <g id="line2d_9">
      <g>
       <use xlink:href="#m4871f0c1b9" x="53.328125" y="145.982445" style="stroke: #000000; stroke-width: 0.8"/>
      </g>
     </g>
     <g id="text_10">
      <!-- 2000 -->
      <g transform="translate(20.878125 149.781663) scale(0.1 -0.1)">
       <use xlink:href="#DejaVuSans-32"/>
       <use xlink:href="#DejaVuSans-30" transform="translate(63.623047 0)"/>
       <use xlink:href="#DejaVuSans-30" transform="translate(127.246094 0)"/>
       <use xlink:href="#DejaVuSans-30" transform="translate(190.869141 0)"/>
      </g>
     </g>
    </g>
    <g id="ytick_4">
     <g id="line2d_10">
      <g>
       <use xlink:href="#m4871f0c1b9" x="53.328125" y="96.934604" style="stroke: #000000; stroke-width: 0.8"/>
      </g>
     </g>
     <g id="text_11">
      <!-- 3000 -->
      <g transform="translate(20.878125 100.733823) scale(0.1 -0.1)">
       <defs>
        <path id="DejaVuSans-33" d="M 2597 2516 
Q 3050 2419 3304 2112 
Q 3559 1806 3559 1356 
Q 3559 666 3084 287 
Q 2609 -91 1734 -91 
Q 1441 -91 1130 -33 
Q 819 25 488 141 
L 488 750 
Q 750 597 1062 519 
Q 1375 441 1716 441 
Q 2309 441 2620 675 
Q 2931 909 2931 1356 
Q 2931 1769 2642 2001 
Q 2353 2234 1838 2234 
L 1294 2234 
L 1294 2753 
L 1863 2753 
Q 2328 2753 2575 2939 
Q 2822 3125 2822 3475 
Q 2822 3834 2567 4026 
Q 2313 4219 1838 4219 
Q 1578 4219 1281 4162 
Q 984 4106 628 3988 
L 628 4550 
Q 988 4650 1302 4700 
Q 1616 4750 1894 4750 
Q 2613 4750 3031 4423 
Q 3450 4097 3450 3541 
Q 3450 3153 3228 2886 
Q 3006 2619 2597 2516 
z
" transform="scale(0.015625)"/>
       </defs>
       <use xlink:href="#DejaVuSans-33"/>
       <use xlink:href="#DejaVuSans-30" transform="translate(63.623047 0)"/>
       <use xlink:href="#DejaVuSans-30" transform="translate(127.246094 0)"/>
       <use xlink:href="#DejaVuSans-30" transform="translate(190.869141 0)"/>
      </g>
     </g>
    </g>
    <g id="ytick_5">
     <g id="line2d_11">
      <g>
       <use xlink:href="#m4871f0c1b9" x="53.328125" y="47.886764" style="stroke: #000000; stroke-width: 0.8"/>
      </g>
     </g>
     <g id="text_12">
      <!-- 4000 -->
      <g transform="translate(20.878125 51.685983) scale(0.1 -0.1)">
       <use xlink:href="#DejaVuSans-34"/>
       <use xlink:href="#DejaVuSans-30" transform="translate(63.623047 0)"/>
       <use xlink:href="#DejaVuSans-30" transform="translate(127.246094 0)"/>
       <use xlink:href="#DejaVuSans-30" transform="translate(190.869141 0)"/>
      </g>
     </g>
    </g>
    <g id="text_13">
     <!-- Count -->
     <g transform="translate(14.798438 148.046562) rotate(-90) scale(0.1 -0.1)">
      <defs>
       <path id="DejaVuSans-43" d="M 4122 4306 
L 4122 3641 
Q 3803 3938 3442 4084 
Q 3081 4231 2675 4231 
Q 1875 4231 1450 3742 
Q 1025 3253 1025 2328 
Q 1025 1406 1450 917 
Q 1875 428 2675 428 
Q 3081 428 3442 575 
Q 3803 722 4122 1019 
L 4122 359 
Q 3791 134 3420 21 
Q 3050 -91 2638 -91 
Q 1578 -91 968 557 
Q 359 1206 359 2328 
Q 359 3453 968 4101 
Q 1578 4750 2638 4750 
Q 3056 4750 3426 4639 
Q 3797 4528 4122 4306 
z
" transform="scale(0.015625)"/>
       <path id="DejaVuSans-6f" d="M 1959 3097 
Q 1497 3097 1228 2736 
Q 959 2375 959 1747 
Q 959 1119 1226 758 
Q 1494 397 1959 397 
Q 2419 397 2687 759 
Q 2956 1122 2956 1747 
Q 2956 2369 2687 2733 
Q 2419 3097 1959 3097 
z
M 1959 3584 
Q 2709 3584 3137 3096 
Q 3566 2609 3566 1747 
Q 3566 888 3137 398 
Q 2709 -91 1959 -91 
Q 1206 -91 779 398 
Q 353 888 353 1747 
Q 353 2609 779 3096 
Q 1206 3584 1959 3584 
z
" transform="scale(0.015625)"/>
       <path id="DejaVuSans-75" d="M 544 1381 
L 544 3500 
L 1119 3500 
L 1119 1403 
Q 1119 906 1312 657 
Q 1506 409 1894 409 
Q 2359 409 2629 706 
Q 2900 1003 2900 1516 
L 2900 3500 
L 3475 3500 
L 3475 0 
L 2900 0 
L 2900 538 
Q 2691 219 2414 64 
Q 2138 -91 1772 -91 
Q 1169 -91 856 284 
Q 544 659 544 1381 
z
M 1991 3584 
L 1991 3584 
z
" transform="scale(0.015625)"/>
       <path id="DejaVuSans-6e" d="M 3513 2113 
L 3513 0 
L 2938 0 
L 2938 2094 
Q 2938 2591 2744 2837 
Q 2550 3084 2163 3084 
Q 1697 3084 1428 2787 
Q 1159 2491 1159 1978 
L 1159 0 
L 581 0 
L 581 3500 
L 1159 3500 
L 1159 2956 
Q 1366 3272 1645 3428 
Q 1925 3584 2291 3584 
Q 2894 3584 3203 3211 
Q 3513 2838 3513 2113 
z
" transform="scale(0.015625)"/>
       <path id="DejaVuSans-74" d="M 1172 4494 
L 1172 3500 
L 2356 3500 
L 2356 3053 
L 1172 3053 
L 1172 1153 
Q 1172 725 1289 603 
Q 1406 481 1766 481 
L 2356 481 
L 2356 0 
L 1766 0 
Q 1100 0 847 248 
Q 594 497 594 1153 
L 594 3053 
L 172 3053 
L 172 3500 
L 594 3500 
L 594 4494 
L 1172 4494 
z
" transform="scale(0.015625)"/>
      </defs>
      <use xlink:href="#DejaVuSans-43"/>
      <use xlink:href="#DejaVuSans-6f" transform="translate(69.824219 0)"/>
      <use xlink:href="#DejaVuSans-75" transform="translate(131.005859 0)"/>
      <use xlink:href="#DejaVuSans-6e" transform="translate(194.384766 0)"/>
      <use xlink:href="#DejaVuSans-74" transform="translate(257.763672 0)"/>
     </g>
    </g>
   </g>
   <g id="line2d_12">
    <path d="M 53.328125 212.887488 
L 63.742256 193.53128 
L 74.156386 154.259344 
L 84.570517 137.360291 
L 94.984648 173.916794 
L 105.398778 197.931335 
L 115.812909 211.332219 
L 126.22704 226.563145 
L 136.64117 234.379572 
L 147.055301 238.101429 
L 157.469432 240.793812 
L 167.883562 242.045351 
L 188.711823 242.497983 
L 199.125954 243.078699 
L 209.540085 243.482777 
L 230.368346 243.692161 
L 386.580306 244.003838 
L 405.871875 243.987896 
L 405.871875 243.987896 
" clip-path="url(#p1d2888b069)" style="fill: none; stroke: #1f77b4; stroke-width: 1.5; stroke-linecap: square"/>
   </g>
   <g id="patch_206">
    <path d="M 53.328125 244.078125 
L 53.328125 22.318125 
" style="fill: none; stroke: #000000; stroke-width: 0.8; stroke-linejoin: miter; stroke-linecap: square"/>
   </g>
   <g id="patch_207">
    <path d="M 388.128125 244.078125 
L 388.128125 22.318125 
" style="fill: none; stroke: #000000; stroke-width: 0.8; stroke-linejoin: miter; stroke-linecap: square"/>
   </g>
   <g id="patch_208">
    <path d="M 53.328125 244.078125 
L 388.128125 244.078125 
" style="fill: none; stroke: #000000; stroke-width: 0.8; stroke-linejoin: miter; stroke-linecap: square"/>
   </g>
   <g id="patch_209">
    <path d="M 53.328125 22.318125 
L 388.128125 22.318125 
" style="fill: none; stroke: #000000; stroke-width: 0.8; stroke-linejoin: miter; stroke-linecap: square"/>
   </g>
   <g id="text_14">
    <!-- Distribuzione di exp -->
    <g transform="translate(161 16.318125) scale(0.12 -0.12)">
     <defs>
      <path id="DejaVuSans-44" d="M 1259 4147 
L 1259 519 
L 2022 519 
Q 2988 519 3436 956 
Q 3884 1394 3884 2338 
Q 3884 3275 3436 3711 
Q 2988 4147 2022 4147 
L 1259 4147 
z
M 628 4666 
L 1925 4666 
Q 3281 4666 3915 4102 
Q 4550 3538 4550 2338 
Q 4550 1131 3912 565 
Q 3275 0 1925 0 
L 628 0 
L 628 4666 
z
" transform="scale(0.015625)"/>
      <path id="DejaVuSans-69" d="M 603 3500 
L 1178 3500 
L 1178 0 
L 603 0 
L 603 3500 
z
M 603 4863 
L 1178 4863 
L 1178 4134 
L 603 4134 
L 603 4863 
z
" transform="scale(0.015625)"/>
      <path id="DejaVuSans-73" d="M 2834 3397 
L 2834 2853 
Q 2591 2978 2328 3040 
Q 2066 3103 1784 3103 
Q 1356 3103 1142 2972 
Q 928 2841 928 2578 
Q 928 2378 1081 2264 
Q 1234 2150 1697 2047 
L 1894 2003 
Q 2506 1872 2764 1633 
Q 3022 1394 3022 966 
Q 3022 478 2636 193 
Q 2250 -91 1575 -91 
Q 1294 -91 989 -36 
Q 684 19 347 128 
L 347 722 
Q 666 556 975 473 
Q 1284 391 1588 391 
Q 1994 391 2212 530 
Q 2431 669 2431 922 
Q 2431 1156 2273 1281 
Q 2116 1406 1581 1522 
L 1381 1569 
Q 847 1681 609 1914 
Q 372 2147 372 2553 
Q 372 3047 722 3315 
Q 1072 3584 1716 3584 
Q 2034 3584 2315 3537 
Q 2597 3491 2834 3397 
z
" transform="scale(0.015625)"/>
      <path id="DejaVuSans-72" d="M 2631 2963 
Q 2534 3019 2420 3045 
Q 2306 3072 2169 3072 
Q 1681 3072 1420 2755 
Q 1159 2438 1159 1844 
L 1159 0 
L 581 0 
L 581 3500 
L 1159 3500 
L 1159 2956 
Q 1341 3275 1631 3429 
Q 1922 3584 2338 3584 
Q 2397 3584 2469 3576 
Q 2541 3569 2628 3553 
L 2631 2963 
z
" transform="scale(0.015625)"/>
      <path id="DejaVuSans-62" d="M 3116 1747 
Q 3116 2381 2855 2742 
Q 2594 3103 2138 3103 
Q 1681 3103 1420 2742 
Q 1159 2381 1159 1747 
Q 1159 1113 1420 752 
Q 1681 391 2138 391 
Q 2594 391 2855 752 
Q 3116 1113 3116 1747 
z
M 1159 2969 
Q 1341 3281 1617 3432 
Q 1894 3584 2278 3584 
Q 2916 3584 3314 3078 
Q 3713 2572 3713 1747 
Q 3713 922 3314 415 
Q 2916 -91 2278 -91 
Q 1894 -91 1617 61 
Q 1341 213 1159 525 
L 1159 0 
L 581 0 
L 581 4863 
L 1159 4863 
L 1159 2969 
z
" transform="scale(0.015625)"/>
      <path id="DejaVuSans-7a" d="M 353 3500 
L 3084 3500 
L 3084 2975 
L 922 459 
L 3084 459 
L 3084 0 
L 275 0 
L 275 525 
L 2438 3041 
L 353 3041 
L 353 3500 
z
" transform="scale(0.015625)"/>
      <path id="DejaVuSans-20" transform="scale(0.015625)"/>
      <path id="DejaVuSans-64" d="M 2906 2969 
L 2906 4863 
L 3481 4863 
L 3481 0 
L 2906 0 
L 2906 525 
Q 2725 213 2448 61 
Q 2172 -91 1784 -91 
Q 1150 -91 751 415 
Q 353 922 353 1747 
Q 353 2572 751 3078 
Q 1150 3584 1784 3584 
Q 2172 3584 2448 3432 
Q 2725 3281 2906 2969 
z
M 947 1747 
Q 947 1113 1208 752 
Q 1469 391 1925 391 
Q 2381 391 2643 752 
Q 2906 1113 2906 1747 
Q 2906 2381 2643 2742 
Q 2381 3103 1925 3103 
Q 1469 3103 1208 2742 
Q 947 2381 947 1747 
z
" transform="scale(0.015625)"/>
     </defs>
     <use xlink:href="#DejaVuSans-44"/>
     <use xlink:href="#DejaVuSans-69" transform="translate(77.001953 0)"/>
     <use xlink:href="#DejaVuSans-73" transform="translate(104.785156 0)"/>
     <use xlink:href="#DejaVuSans-74" transform="translate(156.884766 0)"/>
     <use xlink:href="#DejaVuSans-72" transform="translate(196.09375 0)"/>
     <use xlink:href="#DejaVuSans-69" transform="translate(237.207031 0)"/>
     <use xlink:href="#DejaVuSans-62" transform="translate(264.990234 0)"/>
     <use xlink:href="#DejaVuSans-75" transform="translate(328.466797 0)"/>
     <use xlink:href="#DejaVuSans-7a" transform="translate(391.845703 0)"/>
     <use xlink:href="#DejaVuSans-69" transform="translate(444.335938 0)"/>
     <use xlink:href="#DejaVuSans-6f" transform="translate(472.119141 0)"/>
     <use xlink:href="#DejaVuSans-6e" transform="translate(533.300781 0)"/>
     <use xlink:href="#DejaVuSans-65" transform="translate(596.679688 0)"/>
     <use xlink:href="#DejaVuSans-20" transform="translate(658.203125 0)"/>
     <use xlink:href="#DejaVuSans-64" transform="translate(689.990234 0)"/>
     <use xlink:href="#DejaVuSans-69" transform="translate(753.466797 0)"/>
     <use xlink:href="#DejaVuSans-20" transform="translate(781.25 0)"/>
     <use xlink:href="#DejaVuSans-65" transform="translate(813.037109 0)"/>
     <use xlink:href="#DejaVuSans-78" transform="translate(872.810547 0)"/>
     <use xlink:href="#DejaVuSans-70" transform="translate(931.990234 0)"/>
    </g>
   </g>
  </g>
 </g>
 <defs>
  <clipPath id="p1d2888b069">
   <rect x="53.328125" y="22.318125" width="334.8" height="221.76"/>
  </clipPath>
 </defs>
</svg>
