<?xml version="1.0" encoding="utf-8" standalone="no"?>
<!DOCTYPE svg PUBLIC "-//W3C//DTD SVG 1.1//EN"
  "http://www.w3.org/Graphics/SVG/1.1/DTD/svg11.dtd">
<svg xmlns:xlink="http://www.w3.org/1999/xlink" width="411.234375pt" height="281.634375pt" viewBox="0 0 411.234375 281.634375" xmlns="http://www.w3.org/2000/svg" version="1.1">
 <metadata>
  <rdf:RDF xmlns:dc="http://purl.org/dc/elements/1.1/" xmlns:cc="http://creativecommons.org/ns#" xmlns:rdf="http://www.w3.org/1999/02/22-rdf-syntax-ns#">
   <cc:Work>
    <dc:type rdf:resource="http://purl.org/dc/dcmitype/StillImage"/>
    <dc:date>2025-06-30T19:47:02.599703</dc:date>
    <dc:format>image/svg+xml</dc:format>
    <dc:creator>
     <cc:Agent>
      <dc:title>Matplotlib v3.10.3, https://matplotlib.org/</dc:title>
     </cc:Agent>
    </dc:creator>
   </cc:Work>
  </rdf:RDF>
 </metadata>
 <defs>
  <style type="text/css">*{stroke-linejoin: round; stroke-linecap: butt}</style>
 </defs>
 <g id="figure_1">
  <g id="patch_1">
   <path d="M 0 281.634375 
L 411.234375 281.634375 
L 411.234375 0 
L 0 0 
z
" style="fill: #ffffff"/>
  </g>
  <g id="axes_1">
   <g id="patch_2">
    <path d="M 59.690625 244.078125 
L 394.490625 244.078125 
L 394.490625 22.318125 
L 59.690625 22.318125 
z
" style="fill: #ffffff"/>
   </g>
   <g id="patch_3">
    <path d="M 59.690625 244.078125 
L 108.096438 244.078125 
L 108.096438 32.878125 
L 59.690625 32.878125 
z
" clip-path="url(#p9c712327a1)" style="fill: #1f77b4; fill-opacity: 0.5; stroke: #000000; stroke-width: 0.149933; stroke-linejoin: miter"/>
   </g>
   <g id="patch_4">
    <path d="M 108.096438 244.078125 
L 156.502251 244.078125 
L 156.502251 237.256731 
L 108.096438 237.256731 
z
" clip-path="url(#p9c712327a1)" style="fill: #1f77b4; fill-opacity: 0.5; stroke: #000000; stroke-width: 0.149933; stroke-linejoin: miter"/>
   </g>
   <g id="patch_5">
    <path d="M 156.502251 244.078125 
L 204.908063 244.078125 
L 204.908063 241.972486 
L 156.502251 241.972486 
z
" clip-path="url(#p9c712327a1)" style="fill: #1f77b4; fill-opacity: 0.5; stroke: #000000; stroke-width: 0.149933; stroke-linejoin: miter"/>
   </g>
   <g id="patch_6">
    <path d="M 204.908063 244.078125 
L 253.313876 244.078125 
L 253.313876 243.003372 
L 204.908063 243.003372 
z
" clip-path="url(#p9c712327a1)" style="fill: #1f77b4; fill-opacity: 0.5; stroke: #000000; stroke-width: 0.149933; stroke-linejoin: miter"/>
   </g>
   <g id="patch_7">
    <path d="M 253.313876 244.078125 
L 301.719689 244.078125 
L 301.719689 243.661384 
L 253.313876 243.661384 
z
" clip-path="url(#p9c712327a1)" style="fill: #1f77b4; fill-opacity: 0.5; stroke: #000000; stroke-width: 0.149933; stroke-linejoin: miter"/>
   </g>
   <g id="patch_8">
    <path d="M 301.719689 244.078125 
L 350.125502 244.078125 
L 350.125502 243.661384 
L 301.719689 243.661384 
z
" clip-path="url(#p9c712327a1)" style="fill: #1f77b4; fill-opacity: 0.5; stroke: #000000; stroke-width: 0.149933; stroke-linejoin: miter"/>
   </g>
   <g id="patch_9">
    <path d="M 350.125502 244.078125 
L 398.531315 244.078125 
L 398.531315 243.661384 
L 350.125502 243.661384 
z
" clip-path="url(#p9c712327a1)" style="fill: #1f77b4; fill-opacity: 0.5; stroke: #000000; stroke-width: 0.149933; stroke-linejoin: miter"/>
   </g>
   <g id="patch_10">
    <path d="M 398.531315 244.078125 
L 446.937127 244.078125 
L 446.937127 243.81492 
L 398.531315 243.81492 
z
" clip-path="url(#p9c712327a1)" style="fill: #1f77b4; fill-opacity: 0.5; stroke: #000000; stroke-width: 0.149933; stroke-linejoin: miter"/>
   </g>
   <g id="patch_11">
    <path d="M 446.937127 244.078125 
L 495.34294 244.078125 
L 495.34294 243.749119 
L 446.937127 243.749119 
z
" clip-path="url(#p9c712327a1)" style="fill: #1f77b4; fill-opacity: 0.5; stroke: #000000; stroke-width: 0.149933; stroke-linejoin: miter"/>
   </g>
   <g id="patch_12">
    <path d="M 495.34294 244.078125 
L 543.748753 244.078125 
L 543.748753 243.924589 
L 495.34294 243.924589 
z
" clip-path="url(#p9c712327a1)" style="fill: #1f77b4; fill-opacity: 0.5; stroke: #000000; stroke-width: 0.149933; stroke-linejoin: miter"/>
   </g>
   <g id="patch_13">
    <path d="M 543.748753 244.078125 
L 592.154566 244.078125 
L 592.154566 243.99039 
L 543.748753 243.99039 
z
" clip-path="url(#p9c712327a1)" style="fill: #1f77b4; fill-opacity: 0.5; stroke: #000000; stroke-width: 0.149933; stroke-linejoin: miter"/>
   </g>
   <g id="patch_14">
    <path d="M 592.154566 244.078125 
L 640.560379 244.078125 
L 640.560379 244.056191 
L 592.154566 244.056191 
z
" clip-path="url(#p9c712327a1)" style="fill: #1f77b4; fill-opacity: 0.5; stroke: #000000; stroke-width: 0.149933; stroke-linejoin: miter"/>
   </g>
   <g id="patch_15">
    <path d="M 640.560379 244.078125 
L 688.966192 244.078125 
L 688.966192 244.012324 
L 640.560379 244.012324 
z
" clip-path="url(#p9c712327a1)" style="fill: #1f77b4; fill-opacity: 0.5; stroke: #000000; stroke-width: 0.149933; stroke-linejoin: miter"/>
   </g>
   <g id="patch_16">
    <path d="M 688.966192 244.078125 
L 737.372004 244.078125 
L 737.372004 244.012324 
L 688.966192 244.012324 
z
" clip-path="url(#p9c712327a1)" style="fill: #1f77b4; fill-opacity: 0.5; stroke: #000000; stroke-width: 0.149933; stroke-linejoin: miter"/>
   </g>
   <g id="patch_17">
    <path d="M 737.372004 244.078125 
L 785.777817 244.078125 
L 785.777817 244.012324 
L 737.372004 244.012324 
z
" clip-path="url(#p9c712327a1)" style="fill: #1f77b4; fill-opacity: 0.5; stroke: #000000; stroke-width: 0.149933; stroke-linejoin: miter"/>
   </g>
   <g id="patch_18">
    <path d="M 785.777817 244.078125 
L 834.18363 244.078125 
L 834.18363 244.056191 
L 785.777817 244.056191 
z
" clip-path="url(#p9c712327a1)" style="fill: #1f77b4; fill-opacity: 0.5; stroke: #000000; stroke-width: 0.149933; stroke-linejoin: miter"/>
   </g>
   <g id="patch_19">
    <path d="M 834.18363 244.078125 
L 882.589443 244.078125 
L 882.589443 244.012324 
L 834.18363 244.012324 
z
" clip-path="url(#p9c712327a1)" style="fill: #1f77b4; fill-opacity: 0.5; stroke: #000000; stroke-width: 0.149933; stroke-linejoin: miter"/>
   </g>
   <g id="patch_20">
    <path d="M 882.589443 244.078125 
L 930.995256 244.078125 
L 930.995256 243.99039 
L 882.589443 243.99039 
z
" clip-path="url(#p9c712327a1)" style="fill: #1f77b4; fill-opacity: 0.5; stroke: #000000; stroke-width: 0.149933; stroke-linejoin: miter"/>
   </g>
   <g id="patch_21">
    <path d="M 930.995256 244.078125 
L 979.401068 244.078125 
L 979.401068 243.99039 
L 930.995256 243.99039 
z
" clip-path="url(#p9c712327a1)" style="fill: #1f77b4; fill-opacity: 0.5; stroke: #000000; stroke-width: 0.149933; stroke-linejoin: miter"/>
   </g>
   <g id="patch_22">
    <path d="M 979.401068 244.078125 
L 1027.806881 244.078125 
L 1027.806881 244.078125 
L 979.401068 244.078125 
z
" clip-path="url(#p9c712327a1)" style="fill: #1f77b4; fill-opacity: 0.5; stroke: #000000; stroke-width: 0.149933; stroke-linejoin: miter"/>
   </g>
   <g id="patch_23">
    <path d="M 1027.806881 244.078125 
L 1076.212694 244.078125 
L 1076.212694 244.056191 
L 1027.806881 244.056191 
z
" clip-path="url(#p9c712327a1)" style="fill: #1f77b4; fill-opacity: 0.5; stroke: #000000; stroke-width: 0.149933; stroke-linejoin: miter"/>
   </g>
   <g id="patch_24">
    <path d="M 1076.212694 244.078125 
L 1124.618507 244.078125 
L 1124.618507 244.012324 
L 1076.212694 244.012324 
z
" clip-path="url(#p9c712327a1)" style="fill: #1f77b4; fill-opacity: 0.5; stroke: #000000; stroke-width: 0.149933; stroke-linejoin: miter"/>
   </g>
   <g id="patch_25">
    <path d="M 1124.618507 244.078125 
L 1173.02432 244.078125 
L 1173.02432 244.078125 
L 1124.618507 244.078125 
z
" clip-path="url(#p9c712327a1)" style="fill: #1f77b4; fill-opacity: 0.5; stroke: #000000; stroke-width: 0.149933; stroke-linejoin: miter"/>
   </g>
   <g id="patch_26">
    <path d="M 1173.02432 244.078125 
L 1221.430132 244.078125 
L 1221.430132 244.034258 
L 1173.02432 244.034258 
z
" clip-path="url(#p9c712327a1)" style="fill: #1f77b4; fill-opacity: 0.5; stroke: #000000; stroke-width: 0.149933; stroke-linejoin: miter"/>
   </g>
   <g id="patch_27">
    <path d="M 1221.430132 244.078125 
L 1269.835945 244.078125 
L 1269.835945 244.056191 
L 1221.430132 244.056191 
z
" clip-path="url(#p9c712327a1)" style="fill: #1f77b4; fill-opacity: 0.5; stroke: #000000; stroke-width: 0.149933; stroke-linejoin: miter"/>
   </g>
   <g id="patch_28">
    <path d="M 1269.835945 244.078125 
L 1318.241758 244.078125 
L 1318.241758 244.056191 
L 1269.835945 244.056191 
z
" clip-path="url(#p9c712327a1)" style="fill: #1f77b4; fill-opacity: 0.5; stroke: #000000; stroke-width: 0.149933; stroke-linejoin: miter"/>
   </g>
   <g id="patch_29">
    <path d="M 1318.241758 244.078125 
L 1366.647571 244.078125 
L 1366.647571 244.078125 
L 1318.241758 244.078125 
z
" clip-path="url(#p9c712327a1)" style="fill: #1f77b4; fill-opacity: 0.5; stroke: #000000; stroke-width: 0.149933; stroke-linejoin: miter"/>
   </g>
   <g id="patch_30">
    <path d="M 1366.647571 244.078125 
L 1415.053384 244.078125 
L 1415.053384 244.078125 
L 1366.647571 244.078125 
z
" clip-path="url(#p9c712327a1)" style="fill: #1f77b4; fill-opacity: 0.5; stroke: #000000; stroke-width: 0.149933; stroke-linejoin: miter"/>
   </g>
   <g id="patch_31">
    <path d="M 1415.053384 244.078125 
L 1463.459196 244.078125 
L 1463.459196 244.034258 
L 1415.053384 244.034258 
z
" clip-path="url(#p9c712327a1)" style="fill: #1f77b4; fill-opacity: 0.5; stroke: #000000; stroke-width: 0.149933; stroke-linejoin: miter"/>
   </g>
   <g id="patch_32">
    <path d="M 1463.459196 244.078125 
L 1511.865009 244.078125 
L 1511.865009 244.056191 
L 1463.459196 244.056191 
z
" clip-path="url(#p9c712327a1)" style="fill: #1f77b4; fill-opacity: 0.5; stroke: #000000; stroke-width: 0.149933; stroke-linejoin: miter"/>
   </g>
   <g id="patch_33">
    <path d="M 1511.865009 244.078125 
L 1560.270822 244.078125 
L 1560.270822 244.078125 
L 1511.865009 244.078125 
z
" clip-path="url(#p9c712327a1)" style="fill: #1f77b4; fill-opacity: 0.5; stroke: #000000; stroke-width: 0.149933; stroke-linejoin: miter"/>
   </g>
   <g id="patch_34">
    <path d="M 1560.270822 244.078125 
L 1608.676635 244.078125 
L 1608.676635 244.056191 
L 1560.270822 244.056191 
z
" clip-path="url(#p9c712327a1)" style="fill: #1f77b4; fill-opacity: 0.5; stroke: #000000; stroke-width: 0.149933; stroke-linejoin: miter"/>
   </g>
   <g id="patch_35">
    <path d="M 1608.676635 244.078125 
L 1657.082448 244.078125 
L 1657.082448 244.078125 
L 1608.676635 244.078125 
z
" clip-path="url(#p9c712327a1)" style="fill: #1f77b4; fill-opacity: 0.5; stroke: #000000; stroke-width: 0.149933; stroke-linejoin: miter"/>
   </g>
   <g id="patch_36">
    <path d="M 1657.082448 244.078125 
L 1705.48826 244.078125 
L 1705.48826 244.078125 
L 1657.082448 244.078125 
z
" clip-path="url(#p9c712327a1)" style="fill: #1f77b4; fill-opacity: 0.5; stroke: #000000; stroke-width: 0.149933; stroke-linejoin: miter"/>
   </g>
   <g id="patch_37">
    <path d="M 1705.48826 244.078125 
L 1753.894073 244.078125 
L 1753.894073 244.056191 
L 1705.48826 244.056191 
z
" clip-path="url(#p9c712327a1)" style="fill: #1f77b4; fill-opacity: 0.5; stroke: #000000; stroke-width: 0.149933; stroke-linejoin: miter"/>
   </g>
   <g id="patch_38">
    <path d="M 1753.894073 244.078125 
L 1802.299886 244.078125 
L 1802.299886 244.078125 
L 1753.894073 244.078125 
z
" clip-path="url(#p9c712327a1)" style="fill: #1f77b4; fill-opacity: 0.5; stroke: #000000; stroke-width: 0.149933; stroke-linejoin: miter"/>
   </g>
   <g id="patch_39">
    <path d="M 1802.299886 244.078125 
L 1850.705699 244.078125 
L 1850.705699 244.078125 
L 1802.299886 244.078125 
z
" clip-path="url(#p9c712327a1)" style="fill: #1f77b4; fill-opacity: 0.5; stroke: #000000; stroke-width: 0.149933; stroke-linejoin: miter"/>
   </g>
   <g id="patch_40">
    <path d="M 1850.705699 244.078125 
L 1899.111512 244.078125 
L 1899.111512 244.078125 
L 1850.705699 244.078125 
z
" clip-path="url(#p9c712327a1)" style="fill: #1f77b4; fill-opacity: 0.5; stroke: #000000; stroke-width: 0.149933; stroke-linejoin: miter"/>
   </g>
   <g id="patch_41">
    <path d="M 1899.111512 244.078125 
L 1947.517325 244.078125 
L 1947.517325 244.056191 
L 1899.111512 244.056191 
z
" clip-path="url(#p9c712327a1)" style="fill: #1f77b4; fill-opacity: 0.5; stroke: #000000; stroke-width: 0.149933; stroke-linejoin: miter"/>
   </g>
   <g id="patch_42">
    <path d="M 1947.517325 244.078125 
L 1995.923137 244.078125 
L 1995.923137 244.056191 
L 1947.517325 244.056191 
z
" clip-path="url(#p9c712327a1)" style="fill: #1f77b4; fill-opacity: 0.5; stroke: #000000; stroke-width: 0.149933; stroke-linejoin: miter"/>
   </g>
   <g id="patch_43">
    <path d="M 1995.923137 244.078125 
L 2044.32895 244.078125 
L 2044.32895 244.078125 
L 1995.923137 244.078125 
z
" clip-path="url(#p9c712327a1)" style="fill: #1f77b4; fill-opacity: 0.5; stroke: #000000; stroke-width: 0.149933; stroke-linejoin: miter"/>
   </g>
   <g id="patch_44">
    <path d="M 2044.32895 244.078125 
L 2092.734763 244.078125 
L 2092.734763 244.078125 
L 2044.32895 244.078125 
z
" clip-path="url(#p9c712327a1)" style="fill: #1f77b4; fill-opacity: 0.5; stroke: #000000; stroke-width: 0.149933; stroke-linejoin: miter"/>
   </g>
   <g id="patch_45">
    <path d="M 2092.734763 244.078125 
L 2141.140576 244.078125 
L 2141.140576 244.056191 
L 2092.734763 244.056191 
z
" clip-path="url(#p9c712327a1)" style="fill: #1f77b4; fill-opacity: 0.5; stroke: #000000; stroke-width: 0.149933; stroke-linejoin: miter"/>
   </g>
   <g id="patch_46">
    <path d="M 2141.140576 244.078125 
L 2189.546389 244.078125 
L 2189.546389 244.078125 
L 2141.140576 244.078125 
z
" clip-path="url(#p9c712327a1)" style="fill: #1f77b4; fill-opacity: 0.5; stroke: #000000; stroke-width: 0.149933; stroke-linejoin: miter"/>
   </g>
   <g id="patch_47">
    <path d="M 2189.546389 244.078125 
L 2237.952201 244.078125 
L 2237.952201 244.078125 
L 2189.546389 244.078125 
z
" clip-path="url(#p9c712327a1)" style="fill: #1f77b4; fill-opacity: 0.5; stroke: #000000; stroke-width: 0.149933; stroke-linejoin: miter"/>
   </g>
   <g id="patch_48">
    <path d="M 2237.952201 244.078125 
L 2286.358014 244.078125 
L 2286.358014 244.078125 
L 2237.952201 244.078125 
z
" clip-path="url(#p9c712327a1)" style="fill: #1f77b4; fill-opacity: 0.5; stroke: #000000; stroke-width: 0.149933; stroke-linejoin: miter"/>
   </g>
   <g id="patch_49">
    <path d="M 2286.358014 244.078125 
L 2334.763827 244.078125 
L 2334.763827 244.078125 
L 2286.358014 244.078125 
z
" clip-path="url(#p9c712327a1)" style="fill: #1f77b4; fill-opacity: 0.5; stroke: #000000; stroke-width: 0.149933; stroke-linejoin: miter"/>
   </g>
   <g id="patch_50">
    <path d="M 2334.763827 244.078125 
L 2383.16964 244.078125 
L 2383.16964 244.078125 
L 2334.763827 244.078125 
z
" clip-path="url(#p9c712327a1)" style="fill: #1f77b4; fill-opacity: 0.5; stroke: #000000; stroke-width: 0.149933; stroke-linejoin: miter"/>
   </g>
   <g id="patch_51">
    <path d="M 2383.16964 244.078125 
L 2431.575453 244.078125 
L 2431.575453 244.078125 
L 2383.16964 244.078125 
z
" clip-path="url(#p9c712327a1)" style="fill: #1f77b4; fill-opacity: 0.5; stroke: #000000; stroke-width: 0.149933; stroke-linejoin: miter"/>
   </g>
   <g id="patch_52">
    <path d="M 2431.575453 244.078125 
L 2479.981265 244.078125 
L 2479.981265 244.056191 
L 2431.575453 244.056191 
z
" clip-path="url(#p9c712327a1)" style="fill: #1f77b4; fill-opacity: 0.5; stroke: #000000; stroke-width: 0.149933; stroke-linejoin: miter"/>
   </g>
   <g id="patch_53">
    <path d="M 2479.981265 244.078125 
L 2528.387078 244.078125 
L 2528.387078 244.012324 
L 2479.981265 244.012324 
z
" clip-path="url(#p9c712327a1)" style="fill: #1f77b4; fill-opacity: 0.5; stroke: #000000; stroke-width: 0.149933; stroke-linejoin: miter"/>
   </g>
   <g id="patch_54">
    <path d="M 2528.387078 244.078125 
L 2576.792891 244.078125 
L 2576.792891 244.056191 
L 2528.387078 244.056191 
z
" clip-path="url(#p9c712327a1)" style="fill: #1f77b4; fill-opacity: 0.5; stroke: #000000; stroke-width: 0.149933; stroke-linejoin: miter"/>
   </g>
   <g id="patch_55">
    <path d="M 2576.792891 244.078125 
L 2625.198704 244.078125 
L 2625.198704 244.056191 
L 2576.792891 244.056191 
z
" clip-path="url(#p9c712327a1)" style="fill: #1f77b4; fill-opacity: 0.5; stroke: #000000; stroke-width: 0.149933; stroke-linejoin: miter"/>
   </g>
   <g id="patch_56">
    <path d="M 2625.198704 244.078125 
L 2673.604517 244.078125 
L 2673.604517 244.078125 
L 2625.198704 244.078125 
z
" clip-path="url(#p9c712327a1)" style="fill: #1f77b4; fill-opacity: 0.5; stroke: #000000; stroke-width: 0.149933; stroke-linejoin: miter"/>
   </g>
   <g id="patch_57">
    <path d="M 2673.604517 244.078125 
L 2722.010329 244.078125 
L 2722.010329 244.078125 
L 2673.604517 244.078125 
z
" clip-path="url(#p9c712327a1)" style="fill: #1f77b4; fill-opacity: 0.5; stroke: #000000; stroke-width: 0.149933; stroke-linejoin: miter"/>
   </g>
   <g id="patch_58">
    <path d="M 2722.010329 244.078125 
L 2770.416142 244.078125 
L 2770.416142 244.078125 
L 2722.010329 244.078125 
z
" clip-path="url(#p9c712327a1)" style="fill: #1f77b4; fill-opacity: 0.5; stroke: #000000; stroke-width: 0.149933; stroke-linejoin: miter"/>
   </g>
   <g id="patch_59">
    <path d="M 2770.416142 244.078125 
L 2818.821955 244.078125 
L 2818.821955 244.078125 
L 2770.416142 244.078125 
z
" clip-path="url(#p9c712327a1)" style="fill: #1f77b4; fill-opacity: 0.5; stroke: #000000; stroke-width: 0.149933; stroke-linejoin: miter"/>
   </g>
   <g id="patch_60">
    <path d="M 2818.821955 244.078125 
L 2867.227768 244.078125 
L 2867.227768 244.056191 
L 2818.821955 244.056191 
z
" clip-path="url(#p9c712327a1)" style="fill: #1f77b4; fill-opacity: 0.5; stroke: #000000; stroke-width: 0.149933; stroke-linejoin: miter"/>
   </g>
   <g id="patch_61">
    <path d="M 2867.227768 244.078125 
L 2915.633581 244.078125 
L 2915.633581 244.078125 
L 2867.227768 244.078125 
z
" clip-path="url(#p9c712327a1)" style="fill: #1f77b4; fill-opacity: 0.5; stroke: #000000; stroke-width: 0.149933; stroke-linejoin: miter"/>
   </g>
   <g id="patch_62">
    <path d="M 2915.633581 244.078125 
L 2964.039393 244.078125 
L 2964.039393 244.078125 
L 2915.633581 244.078125 
z
" clip-path="url(#p9c712327a1)" style="fill: #1f77b4; fill-opacity: 0.5; stroke: #000000; stroke-width: 0.149933; stroke-linejoin: miter"/>
   </g>
   <g id="patch_63">
    <path d="M 2964.039393 244.078125 
L 3012.445206 244.078125 
L 3012.445206 244.078125 
L 2964.039393 244.078125 
z
" clip-path="url(#p9c712327a1)" style="fill: #1f77b4; fill-opacity: 0.5; stroke: #000000; stroke-width: 0.149933; stroke-linejoin: miter"/>
   </g>
   <g id="patch_64">
    <path d="M 3012.445206 244.078125 
L 3060.851019 244.078125 
L 3060.851019 244.078125 
L 3012.445206 244.078125 
z
" clip-path="url(#p9c712327a1)" style="fill: #1f77b4; fill-opacity: 0.5; stroke: #000000; stroke-width: 0.149933; stroke-linejoin: miter"/>
   </g>
   <g id="patch_65">
    <path d="M 3060.851019 244.078125 
L 3109.256832 244.078125 
L 3109.256832 244.078125 
L 3060.851019 244.078125 
z
" clip-path="url(#p9c712327a1)" style="fill: #1f77b4; fill-opacity: 0.5; stroke: #000000; stroke-width: 0.149933; stroke-linejoin: miter"/>
   </g>
   <g id="patch_66">
    <path d="M 3109.256832 244.078125 
L 3157.662645 244.078125 
L 3157.662645 244.078125 
L 3109.256832 244.078125 
z
" clip-path="url(#p9c712327a1)" style="fill: #1f77b4; fill-opacity: 0.5; stroke: #000000; stroke-width: 0.149933; stroke-linejoin: miter"/>
   </g>
   <g id="patch_67">
    <path d="M 3157.662645 244.078125 
L 3206.068458 244.078125 
L 3206.068458 244.078125 
L 3157.662645 244.078125 
z
" clip-path="url(#p9c712327a1)" style="fill: #1f77b4; fill-opacity: 0.5; stroke: #000000; stroke-width: 0.149933; stroke-linejoin: miter"/>
   </g>
   <g id="patch_68">
    <path d="M 3206.068458 244.078125 
L 3254.47427 244.078125 
L 3254.47427 244.056191 
L 3206.068458 244.056191 
z
" clip-path="url(#p9c712327a1)" style="fill: #1f77b4; fill-opacity: 0.5; stroke: #000000; stroke-width: 0.149933; stroke-linejoin: miter"/>
   </g>
   <g id="patch_69">
    <path d="M 3254.47427 244.078125 
L 3302.880083 244.078125 
L 3302.880083 244.056191 
L 3254.47427 244.056191 
z
" clip-path="url(#p9c712327a1)" style="fill: #1f77b4; fill-opacity: 0.5; stroke: #000000; stroke-width: 0.149933; stroke-linejoin: miter"/>
   </g>
   <g id="patch_70">
    <path d="M 3302.880083 244.078125 
L 3351.285896 244.078125 
L 3351.285896 244.078125 
L 3302.880083 244.078125 
z
" clip-path="url(#p9c712327a1)" style="fill: #1f77b4; fill-opacity: 0.5; stroke: #000000; stroke-width: 0.149933; stroke-linejoin: miter"/>
   </g>
   <g id="patch_71">
    <path d="M 3351.285896 244.078125 
L 3399.691709 244.078125 
L 3399.691709 244.078125 
L 3351.285896 244.078125 
z
" clip-path="url(#p9c712327a1)" style="fill: #1f77b4; fill-opacity: 0.5; stroke: #000000; stroke-width: 0.149933; stroke-linejoin: miter"/>
   </g>
   <g id="patch_72">
    <path d="M 3399.691709 244.078125 
L 3448.097522 244.078125 
L 3448.097522 244.078125 
L 3399.691709 244.078125 
z
" clip-path="url(#p9c712327a1)" style="fill: #1f77b4; fill-opacity: 0.5; stroke: #000000; stroke-width: 0.149933; stroke-linejoin: miter"/>
   </g>
   <g id="patch_73">
    <path d="M 3448.097522 244.078125 
L 3496.503334 244.078125 
L 3496.503334 244.078125 
L 3448.097522 244.078125 
z
" clip-path="url(#p9c712327a1)" style="fill: #1f77b4; fill-opacity: 0.5; stroke: #000000; stroke-width: 0.149933; stroke-linejoin: miter"/>
   </g>
   <g id="patch_74">
    <path d="M 3496.503334 244.078125 
L 3544.909147 244.078125 
L 3544.909147 244.034258 
L 3496.503334 244.034258 
z
" clip-path="url(#p9c712327a1)" style="fill: #1f77b4; fill-opacity: 0.5; stroke: #000000; stroke-width: 0.149933; stroke-linejoin: miter"/>
   </g>
   <g id="patch_75">
    <path d="M 3544.909147 244.078125 
L 3593.31496 244.078125 
L 3593.31496 244.078125 
L 3544.909147 244.078125 
z
" clip-path="url(#p9c712327a1)" style="fill: #1f77b4; fill-opacity: 0.5; stroke: #000000; stroke-width: 0.149933; stroke-linejoin: miter"/>
   </g>
   <g id="patch_76">
    <path d="M 3593.31496 244.078125 
L 3641.720773 244.078125 
L 3641.720773 244.078125 
L 3593.31496 244.078125 
z
" clip-path="url(#p9c712327a1)" style="fill: #1f77b4; fill-opacity: 0.5; stroke: #000000; stroke-width: 0.149933; stroke-linejoin: miter"/>
   </g>
   <g id="patch_77">
    <path d="M 3641.720773 244.078125 
L 3690.126586 244.078125 
L 3690.126586 244.078125 
L 3641.720773 244.078125 
z
" clip-path="url(#p9c712327a1)" style="fill: #1f77b4; fill-opacity: 0.5; stroke: #000000; stroke-width: 0.149933; stroke-linejoin: miter"/>
   </g>
   <g id="patch_78">
    <path d="M 3690.126586 244.078125 
L 3738.532398 244.078125 
L 3738.532398 244.078125 
L 3690.126586 244.078125 
z
" clip-path="url(#p9c712327a1)" style="fill: #1f77b4; fill-opacity: 0.5; stroke: #000000; stroke-width: 0.149933; stroke-linejoin: miter"/>
   </g>
   <g id="patch_79">
    <path d="M 3738.532398 244.078125 
L 3786.938211 244.078125 
L 3786.938211 244.056191 
L 3738.532398 244.056191 
z
" clip-path="url(#p9c712327a1)" style="fill: #1f77b4; fill-opacity: 0.5; stroke: #000000; stroke-width: 0.149933; stroke-linejoin: miter"/>
   </g>
   <g id="patch_80">
    <path d="M 3786.938211 244.078125 
L 3835.344024 244.078125 
L 3835.344024 244.078125 
L 3786.938211 244.078125 
z
" clip-path="url(#p9c712327a1)" style="fill: #1f77b4; fill-opacity: 0.5; stroke: #000000; stroke-width: 0.149933; stroke-linejoin: miter"/>
   </g>
   <g id="patch_81">
    <path d="M 3835.344024 244.078125 
L 3883.749837 244.078125 
L 3883.749837 244.078125 
L 3835.344024 244.078125 
z
" clip-path="url(#p9c712327a1)" style="fill: #1f77b4; fill-opacity: 0.5; stroke: #000000; stroke-width: 0.149933; stroke-linejoin: miter"/>
   </g>
   <g id="patch_82">
    <path d="M 3883.749837 244.078125 
L 3932.15565 244.078125 
L 3932.15565 244.078125 
L 3883.749837 244.078125 
z
" clip-path="url(#p9c712327a1)" style="fill: #1f77b4; fill-opacity: 0.5; stroke: #000000; stroke-width: 0.149933; stroke-linejoin: miter"/>
   </g>
   <g id="patch_83">
    <path d="M 3932.15565 244.078125 
L 3980.561462 244.078125 
L 3980.561462 244.078125 
L 3932.15565 244.078125 
z
" clip-path="url(#p9c712327a1)" style="fill: #1f77b4; fill-opacity: 0.5; stroke: #000000; stroke-width: 0.149933; stroke-linejoin: miter"/>
   </g>
   <g id="patch_84">
    <path d="M 3980.561462 244.078125 
L 4028.967275 244.078125 
L 4028.967275 244.078125 
L 3980.561462 244.078125 
z
" clip-path="url(#p9c712327a1)" style="fill: #1f77b4; fill-opacity: 0.5; stroke: #000000; stroke-width: 0.149933; stroke-linejoin: miter"/>
   </g>
   <g id="patch_85">
    <path d="M 4028.967275 244.078125 
L 4077.373088 244.078125 
L 4077.373088 244.078125 
L 4028.967275 244.078125 
z
" clip-path="url(#p9c712327a1)" style="fill: #1f77b4; fill-opacity: 0.5; stroke: #000000; stroke-width: 0.149933; stroke-linejoin: miter"/>
   </g>
   <g id="patch_86">
    <path d="M 4077.373088 244.078125 
L 4125.778901 244.078125 
L 4125.778901 244.078125 
L 4077.373088 244.078125 
z
" clip-path="url(#p9c712327a1)" style="fill: #1f77b4; fill-opacity: 0.5; stroke: #000000; stroke-width: 0.149933; stroke-linejoin: miter"/>
   </g>
   <g id="patch_87">
    <path d="M 4125.778901 244.078125 
L 4174.184714 244.078125 
L 4174.184714 244.078125 
L 4125.778901 244.078125 
z
" clip-path="url(#p9c712327a1)" style="fill: #1f77b4; fill-opacity: 0.5; stroke: #000000; stroke-width: 0.149933; stroke-linejoin: miter"/>
   </g>
   <g id="patch_88">
    <path d="M 4174.184714 244.078125 
L 4222.590526 244.078125 
L 4222.590526 244.078125 
L 4174.184714 244.078125 
z
" clip-path="url(#p9c712327a1)" style="fill: #1f77b4; fill-opacity: 0.5; stroke: #000000; stroke-width: 0.149933; stroke-linejoin: miter"/>
   </g>
   <g id="patch_89">
    <path d="M 4222.590526 244.078125 
L 4270.996339 244.078125 
L 4270.996339 244.078125 
L 4222.590526 244.078125 
z
" clip-path="url(#p9c712327a1)" style="fill: #1f77b4; fill-opacity: 0.5; stroke: #000000; stroke-width: 0.149933; stroke-linejoin: miter"/>
   </g>
   <g id="patch_90">
    <path d="M 4270.996339 244.078125 
L 4319.402152 244.078125 
L 4319.402152 244.078125 
L 4270.996339 244.078125 
z
" clip-path="url(#p9c712327a1)" style="fill: #1f77b4; fill-opacity: 0.5; stroke: #000000; stroke-width: 0.149933; stroke-linejoin: miter"/>
   </g>
   <g id="patch_91">
    <path d="M 4319.402152 244.078125 
L 4367.807965 244.078125 
L 4367.807965 244.078125 
L 4319.402152 244.078125 
z
" clip-path="url(#p9c712327a1)" style="fill: #1f77b4; fill-opacity: 0.5; stroke: #000000; stroke-width: 0.149933; stroke-linejoin: miter"/>
   </g>
   <g id="patch_92">
    <path d="M 4367.807965 244.078125 
L 4416.213778 244.078125 
L 4416.213778 244.078125 
L 4367.807965 244.078125 
z
" clip-path="url(#p9c712327a1)" style="fill: #1f77b4; fill-opacity: 0.5; stroke: #000000; stroke-width: 0.149933; stroke-linejoin: miter"/>
   </g>
   <g id="patch_93">
    <path d="M 4416.213778 244.078125 
L 4464.619591 244.078125 
L 4464.619591 244.078125 
L 4416.213778 244.078125 
z
" clip-path="url(#p9c712327a1)" style="fill: #1f77b4; fill-opacity: 0.5; stroke: #000000; stroke-width: 0.149933; stroke-linejoin: miter"/>
   </g>
   <g id="patch_94">
    <path d="M 4464.619591 244.078125 
L 4513.025403 244.078125 
L 4513.025403 244.078125 
L 4464.619591 244.078125 
z
" clip-path="url(#p9c712327a1)" style="fill: #1f77b4; fill-opacity: 0.5; stroke: #000000; stroke-width: 0.149933; stroke-linejoin: miter"/>
   </g>
   <g id="patch_95">
    <path d="M 4513.025403 244.078125 
L 4561.431216 244.078125 
L 4561.431216 244.078125 
L 4513.025403 244.078125 
z
" clip-path="url(#p9c712327a1)" style="fill: #1f77b4; fill-opacity: 0.5; stroke: #000000; stroke-width: 0.149933; stroke-linejoin: miter"/>
   </g>
   <g id="patch_96">
    <path d="M 4561.431216 244.078125 
L 4609.837029 244.078125 
L 4609.837029 244.078125 
L 4561.431216 244.078125 
z
" clip-path="url(#p9c712327a1)" style="fill: #1f77b4; fill-opacity: 0.5; stroke: #000000; stroke-width: 0.149933; stroke-linejoin: miter"/>
   </g>
   <g id="patch_97">
    <path d="M 4609.837029 244.078125 
L 4658.242842 244.078125 
L 4658.242842 244.078125 
L 4609.837029 244.078125 
z
" clip-path="url(#p9c712327a1)" style="fill: #1f77b4; fill-opacity: 0.5; stroke: #000000; stroke-width: 0.149933; stroke-linejoin: miter"/>
   </g>
   <g id="patch_98">
    <path d="M 4658.242842 244.078125 
L 4706.648655 244.078125 
L 4706.648655 244.078125 
L 4658.242842 244.078125 
z
" clip-path="url(#p9c712327a1)" style="fill: #1f77b4; fill-opacity: 0.5; stroke: #000000; stroke-width: 0.149933; stroke-linejoin: miter"/>
   </g>
   <g id="patch_99">
    <path d="M 4706.648655 244.078125 
L 4755.054467 244.078125 
L 4755.054467 244.078125 
L 4706.648655 244.078125 
z
" clip-path="url(#p9c712327a1)" style="fill: #1f77b4; fill-opacity: 0.5; stroke: #000000; stroke-width: 0.149933; stroke-linejoin: miter"/>
   </g>
   <g id="patch_100">
    <path d="M 4755.054467 244.078125 
L 4803.46028 244.078125 
L 4803.46028 244.056191 
L 4755.054467 244.056191 
z
" clip-path="url(#p9c712327a1)" style="fill: #1f77b4; fill-opacity: 0.5; stroke: #000000; stroke-width: 0.149933; stroke-linejoin: miter"/>
   </g>
   <g id="patch_101">
    <path d="M 4803.46028 244.078125 
L 4851.866093 244.078125 
L 4851.866093 244.078125 
L 4803.46028 244.078125 
z
" clip-path="url(#p9c712327a1)" style="fill: #1f77b4; fill-opacity: 0.5; stroke: #000000; stroke-width: 0.149933; stroke-linejoin: miter"/>
   </g>
   <g id="patch_102">
    <path d="M 4851.866093 244.078125 
L 4900.271906 244.078125 
L 4900.271906 244.078125 
L 4851.866093 244.078125 
z
" clip-path="url(#p9c712327a1)" style="fill: #1f77b4; fill-opacity: 0.5; stroke: #000000; stroke-width: 0.149933; stroke-linejoin: miter"/>
   </g>
   <g id="patch_103">
    <path d="M 4900.271906 244.078125 
L 4948.677719 244.078125 
L 4948.677719 244.078125 
L 4900.271906 244.078125 
z
" clip-path="url(#p9c712327a1)" style="fill: #1f77b4; fill-opacity: 0.5; stroke: #000000; stroke-width: 0.149933; stroke-linejoin: miter"/>
   </g>
   <g id="patch_104">
    <path d="M 4948.677719 244.078125 
L 4997.083531 244.078125 
L 4997.083531 244.078125 
L 4948.677719 244.078125 
z
" clip-path="url(#p9c712327a1)" style="fill: #1f77b4; fill-opacity: 0.5; stroke: #000000; stroke-width: 0.149933; stroke-linejoin: miter"/>
   </g>
   <g id="patch_105">
    <path d="M 4997.083531 244.078125 
L 5045.489344 244.078125 
L 5045.489344 244.078125 
L 4997.083531 244.078125 
z
" clip-path="url(#p9c712327a1)" style="fill: #1f77b4; fill-opacity: 0.5; stroke: #000000; stroke-width: 0.149933; stroke-linejoin: miter"/>
   </g>
   <g id="patch_106">
    <path d="M 5045.489344 244.078125 
L 5093.895157 244.078125 
L 5093.895157 244.056191 
L 5045.489344 244.056191 
z
" clip-path="url(#p9c712327a1)" style="fill: #1f77b4; fill-opacity: 0.5; stroke: #000000; stroke-width: 0.149933; stroke-linejoin: miter"/>
   </g>
   <g id="patch_107">
    <path d="M 5093.895157 244.078125 
L 5142.30097 244.078125 
L 5142.30097 244.078125 
L 5093.895157 244.078125 
z
" clip-path="url(#p9c712327a1)" style="fill: #1f77b4; fill-opacity: 0.5; stroke: #000000; stroke-width: 0.149933; stroke-linejoin: miter"/>
   </g>
   <g id="patch_108">
    <path d="M 5142.30097 244.078125 
L 5190.706783 244.078125 
L 5190.706783 244.078125 
L 5142.30097 244.078125 
z
" clip-path="url(#p9c712327a1)" style="fill: #1f77b4; fill-opacity: 0.5; stroke: #000000; stroke-width: 0.149933; stroke-linejoin: miter"/>
   </g>
   <g id="patch_109">
    <path d="M 5190.706783 244.078125 
L 5239.112595 244.078125 
L 5239.112595 244.078125 
L 5190.706783 244.078125 
z
" clip-path="url(#p9c712327a1)" style="fill: #1f77b4; fill-opacity: 0.5; stroke: #000000; stroke-width: 0.149933; stroke-linejoin: miter"/>
   </g>
   <g id="patch_110">
    <path d="M 5239.112595 244.078125 
L 5287.518408 244.078125 
L 5287.518408 244.078125 
L 5239.112595 244.078125 
z
" clip-path="url(#p9c712327a1)" style="fill: #1f77b4; fill-opacity: 0.5; stroke: #000000; stroke-width: 0.149933; stroke-linejoin: miter"/>
   </g>
   <g id="patch_111">
    <path d="M 5287.518408 244.078125 
L 5335.924221 244.078125 
L 5335.924221 244.078125 
L 5287.518408 244.078125 
z
" clip-path="url(#p9c712327a1)" style="fill: #1f77b4; fill-opacity: 0.5; stroke: #000000; stroke-width: 0.149933; stroke-linejoin: miter"/>
   </g>
   <g id="patch_112">
    <path d="M 5335.924221 244.078125 
L 5384.330034 244.078125 
L 5384.330034 244.078125 
L 5335.924221 244.078125 
z
" clip-path="url(#p9c712327a1)" style="fill: #1f77b4; fill-opacity: 0.5; stroke: #000000; stroke-width: 0.149933; stroke-linejoin: miter"/>
   </g>
   <g id="patch_113">
    <path d="M 5384.330034 244.078125 
L 5432.735847 244.078125 
L 5432.735847 244.078125 
L 5384.330034 244.078125 
z
" clip-path="url(#p9c712327a1)" style="fill: #1f77b4; fill-opacity: 0.5; stroke: #000000; stroke-width: 0.149933; stroke-linejoin: miter"/>
   </g>
   <g id="patch_114">
    <path d="M 5432.735847 244.078125 
L 5481.141659 244.078125 
L 5481.141659 244.078125 
L 5432.735847 244.078125 
z
" clip-path="url(#p9c712327a1)" style="fill: #1f77b4; fill-opacity: 0.5; stroke: #000000; stroke-width: 0.149933; stroke-linejoin: miter"/>
   </g>
   <g id="patch_115">
    <path d="M 5481.141659 244.078125 
L 5529.547472 244.078125 
L 5529.547472 244.078125 
L 5481.141659 244.078125 
z
" clip-path="url(#p9c712327a1)" style="fill: #1f77b4; fill-opacity: 0.5; stroke: #000000; stroke-width: 0.149933; stroke-linejoin: miter"/>
   </g>
   <g id="patch_116">
    <path d="M 5529.547472 244.078125 
L 5577.953285 244.078125 
L 5577.953285 244.078125 
L 5529.547472 244.078125 
z
" clip-path="url(#p9c712327a1)" style="fill: #1f77b4; fill-opacity: 0.5; stroke: #000000; stroke-width: 0.149933; stroke-linejoin: miter"/>
   </g>
   <g id="patch_117">
    <path d="M 5577.953285 244.078125 
L 5626.359098 244.078125 
L 5626.359098 244.078125 
L 5577.953285 244.078125 
z
" clip-path="url(#p9c712327a1)" style="fill: #1f77b4; fill-opacity: 0.5; stroke: #000000; stroke-width: 0.149933; stroke-linejoin: miter"/>
   </g>
   <g id="patch_118">
    <path d="M 5626.359098 244.078125 
L 5674.764911 244.078125 
L 5674.764911 244.078125 
L 5626.359098 244.078125 
z
" clip-path="url(#p9c712327a1)" style="fill: #1f77b4; fill-opacity: 0.5; stroke: #000000; stroke-width: 0.149933; stroke-linejoin: miter"/>
   </g>
   <g id="patch_119">
    <path d="M 5674.764911 244.078125 
L 5723.170724 244.078125 
L 5723.170724 244.078125 
L 5674.764911 244.078125 
z
" clip-path="url(#p9c712327a1)" style="fill: #1f77b4; fill-opacity: 0.5; stroke: #000000; stroke-width: 0.149933; stroke-linejoin: miter"/>
   </g>
   <g id="patch_120">
    <path d="M 5723.170724 244.078125 
L 5771.576536 244.078125 
L 5771.576536 244.078125 
L 5723.170724 244.078125 
z
" clip-path="url(#p9c712327a1)" style="fill: #1f77b4; fill-opacity: 0.5; stroke: #000000; stroke-width: 0.149933; stroke-linejoin: miter"/>
   </g>
   <g id="patch_121">
    <path d="M 5771.576536 244.078125 
L 5819.982349 244.078125 
L 5819.982349 244.078125 
L 5771.576536 244.078125 
z
" clip-path="url(#p9c712327a1)" style="fill: #1f77b4; fill-opacity: 0.5; stroke: #000000; stroke-width: 0.149933; stroke-linejoin: miter"/>
   </g>
   <g id="patch_122">
    <path d="M 5819.982349 244.078125 
L 5868.388162 244.078125 
L 5868.388162 244.078125 
L 5819.982349 244.078125 
z
" clip-path="url(#p9c712327a1)" style="fill: #1f77b4; fill-opacity: 0.5; stroke: #000000; stroke-width: 0.149933; stroke-linejoin: miter"/>
   </g>
   <g id="patch_123">
    <path d="M 5868.388162 244.078125 
L 5916.793975 244.078125 
L 5916.793975 244.078125 
L 5868.388162 244.078125 
z
" clip-path="url(#p9c712327a1)" style="fill: #1f77b4; fill-opacity: 0.5; stroke: #000000; stroke-width: 0.149933; stroke-linejoin: miter"/>
   </g>
   <g id="patch_124">
    <path d="M 5916.793975 244.078125 
L 5965.199788 244.078125 
L 5965.199788 244.078125 
L 5916.793975 244.078125 
z
" clip-path="url(#p9c712327a1)" style="fill: #1f77b4; fill-opacity: 0.5; stroke: #000000; stroke-width: 0.149933; stroke-linejoin: miter"/>
   </g>
   <g id="patch_125">
    <path d="M 5965.199788 244.078125 
L 6013.6056 244.078125 
L 6013.6056 244.078125 
L 5965.199788 244.078125 
z
" clip-path="url(#p9c712327a1)" style="fill: #1f77b4; fill-opacity: 0.5; stroke: #000000; stroke-width: 0.149933; stroke-linejoin: miter"/>
   </g>
   <g id="patch_126">
    <path d="M 6013.6056 244.078125 
L 6062.011413 244.078125 
L 6062.011413 244.078125 
L 6013.6056 244.078125 
z
" clip-path="url(#p9c712327a1)" style="fill: #1f77b4; fill-opacity: 0.5; stroke: #000000; stroke-width: 0.149933; stroke-linejoin: miter"/>
   </g>
   <g id="patch_127">
    <path d="M 6062.011413 244.078125 
L 6110.417226 244.078125 
L 6110.417226 244.078125 
L 6062.011413 244.078125 
z
" clip-path="url(#p9c712327a1)" style="fill: #1f77b4; fill-opacity: 0.5; stroke: #000000; stroke-width: 0.149933; stroke-linejoin: miter"/>
   </g>
   <g id="patch_128">
    <path d="M 6110.417226 244.078125 
L 6158.823039 244.078125 
L 6158.823039 244.078125 
L 6110.417226 244.078125 
z
" clip-path="url(#p9c712327a1)" style="fill: #1f77b4; fill-opacity: 0.5; stroke: #000000; stroke-width: 0.149933; stroke-linejoin: miter"/>
   </g>
   <g id="patch_129">
    <path d="M 6158.823039 244.078125 
L 6207.228852 244.078125 
L 6207.228852 244.078125 
L 6158.823039 244.078125 
z
" clip-path="url(#p9c712327a1)" style="fill: #1f77b4; fill-opacity: 0.5; stroke: #000000; stroke-width: 0.149933; stroke-linejoin: miter"/>
   </g>
   <g id="patch_130">
    <path d="M 6207.228852 244.078125 
L 6255.634664 244.078125 
L 6255.634664 244.078125 
L 6207.228852 244.078125 
z
" clip-path="url(#p9c712327a1)" style="fill: #1f77b4; fill-opacity: 0.5; stroke: #000000; stroke-width: 0.149933; stroke-linejoin: miter"/>
   </g>
   <g id="patch_131">
    <path d="M 6255.634664 244.078125 
L 6304.040477 244.078125 
L 6304.040477 244.078125 
L 6255.634664 244.078125 
z
" clip-path="url(#p9c712327a1)" style="fill: #1f77b4; fill-opacity: 0.5; stroke: #000000; stroke-width: 0.149933; stroke-linejoin: miter"/>
   </g>
   <g id="patch_132">
    <path d="M 6304.040477 244.078125 
L 6352.44629 244.078125 
L 6352.44629 244.078125 
L 6304.040477 244.078125 
z
" clip-path="url(#p9c712327a1)" style="fill: #1f77b4; fill-opacity: 0.5; stroke: #000000; stroke-width: 0.149933; stroke-linejoin: miter"/>
   </g>
   <g id="patch_133">
    <path d="M 6352.44629 244.078125 
L 6400.852103 244.078125 
L 6400.852103 244.078125 
L 6352.44629 244.078125 
z
" clip-path="url(#p9c712327a1)" style="fill: #1f77b4; fill-opacity: 0.5; stroke: #000000; stroke-width: 0.149933; stroke-linejoin: miter"/>
   </g>
   <g id="patch_134">
    <path d="M 6400.852103 244.078125 
L 6449.257916 244.078125 
L 6449.257916 244.078125 
L 6400.852103 244.078125 
z
" clip-path="url(#p9c712327a1)" style="fill: #1f77b4; fill-opacity: 0.5; stroke: #000000; stroke-width: 0.149933; stroke-linejoin: miter"/>
   </g>
   <g id="patch_135">
    <path d="M 6449.257916 244.078125 
L 6497.663728 244.078125 
L 6497.663728 244.056191 
L 6449.257916 244.056191 
z
" clip-path="url(#p9c712327a1)" style="fill: #1f77b4; fill-opacity: 0.5; stroke: #000000; stroke-width: 0.149933; stroke-linejoin: miter"/>
   </g>
   <g id="patch_136">
    <path d="M 6497.663728 244.078125 
L 6546.069541 244.078125 
L 6546.069541 244.078125 
L 6497.663728 244.078125 
z
" clip-path="url(#p9c712327a1)" style="fill: #1f77b4; fill-opacity: 0.5; stroke: #000000; stroke-width: 0.149933; stroke-linejoin: miter"/>
   </g>
   <g id="patch_137">
    <path d="M 6546.069541 244.078125 
L 6594.475354 244.078125 
L 6594.475354 244.078125 
L 6546.069541 244.078125 
z
" clip-path="url(#p9c712327a1)" style="fill: #1f77b4; fill-opacity: 0.5; stroke: #000000; stroke-width: 0.149933; stroke-linejoin: miter"/>
   </g>
   <g id="patch_138">
    <path d="M 6594.475354 244.078125 
L 6642.881167 244.078125 
L 6642.881167 244.078125 
L 6594.475354 244.078125 
z
" clip-path="url(#p9c712327a1)" style="fill: #1f77b4; fill-opacity: 0.5; stroke: #000000; stroke-width: 0.149933; stroke-linejoin: miter"/>
   </g>
   <g id="patch_139">
    <path d="M 6642.881167 244.078125 
L 6691.28698 244.078125 
L 6691.28698 244.078125 
L 6642.881167 244.078125 
z
" clip-path="url(#p9c712327a1)" style="fill: #1f77b4; fill-opacity: 0.5; stroke: #000000; stroke-width: 0.149933; stroke-linejoin: miter"/>
   </g>
   <g id="patch_140">
    <path d="M 6691.28698 244.078125 
L 6739.692792 244.078125 
L 6739.692792 244.078125 
L 6691.28698 244.078125 
z
" clip-path="url(#p9c712327a1)" style="fill: #1f77b4; fill-opacity: 0.5; stroke: #000000; stroke-width: 0.149933; stroke-linejoin: miter"/>
   </g>
   <g id="patch_141">
    <path d="M 6739.692792 244.078125 
L 6788.098605 244.078125 
L 6788.098605 244.078125 
L 6739.692792 244.078125 
z
" clip-path="url(#p9c712327a1)" style="fill: #1f77b4; fill-opacity: 0.5; stroke: #000000; stroke-width: 0.149933; stroke-linejoin: miter"/>
   </g>
   <g id="patch_142">
    <path d="M 6788.098605 244.078125 
L 6836.504418 244.078125 
L 6836.504418 244.078125 
L 6788.098605 244.078125 
z
" clip-path="url(#p9c712327a1)" style="fill: #1f77b4; fill-opacity: 0.5; stroke: #000000; stroke-width: 0.149933; stroke-linejoin: miter"/>
   </g>
   <g id="patch_143">
    <path d="M 6836.504418 244.078125 
L 6884.910231 244.078125 
L 6884.910231 244.056191 
L 6836.504418 244.056191 
z
" clip-path="url(#p9c712327a1)" style="fill: #1f77b4; fill-opacity: 0.5; stroke: #000000; stroke-width: 0.149933; stroke-linejoin: miter"/>
   </g>
   <g id="patch_144">
    <path d="M 6884.910231 244.078125 
L 6933.316044 244.078125 
L 6933.316044 244.078125 
L 6884.910231 244.078125 
z
" clip-path="url(#p9c712327a1)" style="fill: #1f77b4; fill-opacity: 0.5; stroke: #000000; stroke-width: 0.149933; stroke-linejoin: miter"/>
   </g>
   <g id="patch_145">
    <path d="M 6933.316044 244.078125 
L 6981.721857 244.078125 
L 6981.721857 244.078125 
L 6933.316044 244.078125 
z
" clip-path="url(#p9c712327a1)" style="fill: #1f77b4; fill-opacity: 0.5; stroke: #000000; stroke-width: 0.149933; stroke-linejoin: miter"/>
   </g>
   <g id="patch_146">
    <path d="M 6981.721857 244.078125 
L 7030.127669 244.078125 
L 7030.127669 244.078125 
L 6981.721857 244.078125 
z
" clip-path="url(#p9c712327a1)" style="fill: #1f77b4; fill-opacity: 0.5; stroke: #000000; stroke-width: 0.149933; stroke-linejoin: miter"/>
   </g>
   <g id="patch_147">
    <path d="M 7030.127669 244.078125 
L 7078.533482 244.078125 
L 7078.533482 244.078125 
L 7030.127669 244.078125 
z
" clip-path="url(#p9c712327a1)" style="fill: #1f77b4; fill-opacity: 0.5; stroke: #000000; stroke-width: 0.149933; stroke-linejoin: miter"/>
   </g>
   <g id="patch_148">
    <path d="M 7078.533482 244.078125 
L 7126.939295 244.078125 
L 7126.939295 244.078125 
L 7078.533482 244.078125 
z
" clip-path="url(#p9c712327a1)" style="fill: #1f77b4; fill-opacity: 0.5; stroke: #000000; stroke-width: 0.149933; stroke-linejoin: miter"/>
   </g>
   <g id="patch_149">
    <path d="M 7126.939295 244.078125 
L 7175.345108 244.078125 
L 7175.345108 244.078125 
L 7126.939295 244.078125 
z
" clip-path="url(#p9c712327a1)" style="fill: #1f77b4; fill-opacity: 0.5; stroke: #000000; stroke-width: 0.149933; stroke-linejoin: miter"/>
   </g>
   <g id="patch_150">
    <path d="M 7175.345108 244.078125 
L 7223.750921 244.078125 
L 7223.750921 244.078125 
L 7175.345108 244.078125 
z
" clip-path="url(#p9c712327a1)" style="fill: #1f77b4; fill-opacity: 0.5; stroke: #000000; stroke-width: 0.149933; stroke-linejoin: miter"/>
   </g>
   <g id="patch_151">
    <path d="M 7223.750921 244.078125 
L 7272.156733 244.078125 
L 7272.156733 244.078125 
L 7223.750921 244.078125 
z
" clip-path="url(#p9c712327a1)" style="fill: #1f77b4; fill-opacity: 0.5; stroke: #000000; stroke-width: 0.149933; stroke-linejoin: miter"/>
   </g>
   <g id="patch_152">
    <path d="M 7272.156733 244.078125 
L 7320.562546 244.078125 
L 7320.562546 244.078125 
L 7272.156733 244.078125 
z
" clip-path="url(#p9c712327a1)" style="fill: #1f77b4; fill-opacity: 0.5; stroke: #000000; stroke-width: 0.149933; stroke-linejoin: miter"/>
   </g>
   <g id="patch_153">
    <path d="M 7320.562546 244.078125 
L 7368.968359 244.078125 
L 7368.968359 244.078125 
L 7320.562546 244.078125 
z
" clip-path="url(#p9c712327a1)" style="fill: #1f77b4; fill-opacity: 0.5; stroke: #000000; stroke-width: 0.149933; stroke-linejoin: miter"/>
   </g>
   <g id="patch_154">
    <path d="M 7368.968359 244.078125 
L 7417.374172 244.078125 
L 7417.374172 244.078125 
L 7368.968359 244.078125 
z
" clip-path="url(#p9c712327a1)" style="fill: #1f77b4; fill-opacity: 0.5; stroke: #000000; stroke-width: 0.149933; stroke-linejoin: miter"/>
   </g>
   <g id="patch_155">
    <path d="M 7417.374172 244.078125 
L 7465.779985 244.078125 
L 7465.779985 244.078125 
L 7417.374172 244.078125 
z
" clip-path="url(#p9c712327a1)" style="fill: #1f77b4; fill-opacity: 0.5; stroke: #000000; stroke-width: 0.149933; stroke-linejoin: miter"/>
   </g>
   <g id="patch_156">
    <path d="M 7465.779985 244.078125 
L 7514.185797 244.078125 
L 7514.185797 244.078125 
L 7465.779985 244.078125 
z
" clip-path="url(#p9c712327a1)" style="fill: #1f77b4; fill-opacity: 0.5; stroke: #000000; stroke-width: 0.149933; stroke-linejoin: miter"/>
   </g>
   <g id="patch_157">
    <path d="M 7514.185797 244.078125 
L 7562.59161 244.078125 
L 7562.59161 244.078125 
L 7514.185797 244.078125 
z
" clip-path="url(#p9c712327a1)" style="fill: #1f77b4; fill-opacity: 0.5; stroke: #000000; stroke-width: 0.149933; stroke-linejoin: miter"/>
   </g>
   <g id="patch_158">
    <path d="M 7562.59161 244.078125 
L 7610.997423 244.078125 
L 7610.997423 244.078125 
L 7562.59161 244.078125 
z
" clip-path="url(#p9c712327a1)" style="fill: #1f77b4; fill-opacity: 0.5; stroke: #000000; stroke-width: 0.149933; stroke-linejoin: miter"/>
   </g>
   <g id="patch_159">
    <path d="M 7610.997423 244.078125 
L 7659.403236 244.078125 
L 7659.403236 244.056191 
L 7610.997423 244.056191 
z
" clip-path="url(#p9c712327a1)" style="fill: #1f77b4; fill-opacity: 0.5; stroke: #000000; stroke-width: 0.149933; stroke-linejoin: miter"/>
   </g>
   <g id="patch_160">
    <path d="M 7659.403236 244.078125 
L 7707.809049 244.078125 
L 7707.809049 244.078125 
L 7659.403236 244.078125 
z
" clip-path="url(#p9c712327a1)" style="fill: #1f77b4; fill-opacity: 0.5; stroke: #000000; stroke-width: 0.149933; stroke-linejoin: miter"/>
   </g>
   <g id="patch_161">
    <path d="M 7707.809049 244.078125 
L 7756.214861 244.078125 
L 7756.214861 244.078125 
L 7707.809049 244.078125 
z
" clip-path="url(#p9c712327a1)" style="fill: #1f77b4; fill-opacity: 0.5; stroke: #000000; stroke-width: 0.149933; stroke-linejoin: miter"/>
   </g>
   <g id="patch_162">
    <path d="M 7756.214861 244.078125 
L 7804.620674 244.078125 
L 7804.620674 244.078125 
L 7756.214861 244.078125 
z
" clip-path="url(#p9c712327a1)" style="fill: #1f77b4; fill-opacity: 0.5; stroke: #000000; stroke-width: 0.149933; stroke-linejoin: miter"/>
   </g>
   <g id="patch_163">
    <path d="M 7804.620674 244.078125 
L 7853.026487 244.078125 
L 7853.026487 244.078125 
L 7804.620674 244.078125 
z
" clip-path="url(#p9c712327a1)" style="fill: #1f77b4; fill-opacity: 0.5; stroke: #000000; stroke-width: 0.149933; stroke-linejoin: miter"/>
   </g>
   <g id="patch_164">
    <path d="M 7853.026487 244.078125 
L 7901.4323 244.078125 
L 7901.4323 244.078125 
L 7853.026487 244.078125 
z
" clip-path="url(#p9c712327a1)" style="fill: #1f77b4; fill-opacity: 0.5; stroke: #000000; stroke-width: 0.149933; stroke-linejoin: miter"/>
   </g>
   <g id="patch_165">
    <path d="M 7901.4323 244.078125 
L 7949.838113 244.078125 
L 7949.838113 244.078125 
L 7901.4323 244.078125 
z
" clip-path="url(#p9c712327a1)" style="fill: #1f77b4; fill-opacity: 0.5; stroke: #000000; stroke-width: 0.149933; stroke-linejoin: miter"/>
   </g>
   <g id="patch_166">
    <path d="M 7949.838113 244.078125 
L 7998.243925 244.078125 
L 7998.243925 244.078125 
L 7949.838113 244.078125 
z
" clip-path="url(#p9c712327a1)" style="fill: #1f77b4; fill-opacity: 0.5; stroke: #000000; stroke-width: 0.149933; stroke-linejoin: miter"/>
   </g>
   <g id="patch_167">
    <path d="M 7998.243925 244.078125 
L 8046.649738 244.078125 
L 8046.649738 244.078125 
L 7998.243925 244.078125 
z
" clip-path="url(#p9c712327a1)" style="fill: #1f77b4; fill-opacity: 0.5; stroke: #000000; stroke-width: 0.149933; stroke-linejoin: miter"/>
   </g>
   <g id="patch_168">
    <path d="M 8046.649738 244.078125 
L 8095.055551 244.078125 
L 8095.055551 244.078125 
L 8046.649738 244.078125 
z
" clip-path="url(#p9c712327a1)" style="fill: #1f77b4; fill-opacity: 0.5; stroke: #000000; stroke-width: 0.149933; stroke-linejoin: miter"/>
   </g>
   <g id="patch_169">
    <path d="M 8095.055551 244.078125 
L 8143.461364 244.078125 
L 8143.461364 244.078125 
L 8095.055551 244.078125 
z
" clip-path="url(#p9c712327a1)" style="fill: #1f77b4; fill-opacity: 0.5; stroke: #000000; stroke-width: 0.149933; stroke-linejoin: miter"/>
   </g>
   <g id="patch_170">
    <path d="M 8143.461364 244.078125 
L 8191.867177 244.078125 
L 8191.867177 244.078125 
L 8143.461364 244.078125 
z
" clip-path="url(#p9c712327a1)" style="fill: #1f77b4; fill-opacity: 0.5; stroke: #000000; stroke-width: 0.149933; stroke-linejoin: miter"/>
   </g>
   <g id="patch_171">
    <path d="M 8191.867177 244.078125 
L 8240.27299 244.078125 
L 8240.27299 244.078125 
L 8191.867177 244.078125 
z
" clip-path="url(#p9c712327a1)" style="fill: #1f77b4; fill-opacity: 0.5; stroke: #000000; stroke-width: 0.149933; stroke-linejoin: miter"/>
   </g>
   <g id="patch_172">
    <path d="M 8240.27299 244.078125 
L 8288.678802 244.078125 
L 8288.678802 244.078125 
L 8240.27299 244.078125 
z
" clip-path="url(#p9c712327a1)" style="fill: #1f77b4; fill-opacity: 0.5; stroke: #000000; stroke-width: 0.149933; stroke-linejoin: miter"/>
   </g>
   <g id="patch_173">
    <path d="M 8288.678802 244.078125 
L 8337.084615 244.078125 
L 8337.084615 244.078125 
L 8288.678802 244.078125 
z
" clip-path="url(#p9c712327a1)" style="fill: #1f77b4; fill-opacity: 0.5; stroke: #000000; stroke-width: 0.149933; stroke-linejoin: miter"/>
   </g>
   <g id="patch_174">
    <path d="M 8337.084615 244.078125 
L 8385.490428 244.078125 
L 8385.490428 244.078125 
L 8337.084615 244.078125 
z
" clip-path="url(#p9c712327a1)" style="fill: #1f77b4; fill-opacity: 0.5; stroke: #000000; stroke-width: 0.149933; stroke-linejoin: miter"/>
   </g>
   <g id="patch_175">
    <path d="M 8385.490428 244.078125 
L 8433.896241 244.078125 
L 8433.896241 244.078125 
L 8385.490428 244.078125 
z
" clip-path="url(#p9c712327a1)" style="fill: #1f77b4; fill-opacity: 0.5; stroke: #000000; stroke-width: 0.149933; stroke-linejoin: miter"/>
   </g>
   <g id="patch_176">
    <path d="M 8433.896241 244.078125 
L 8482.302054 244.078125 
L 8482.302054 244.078125 
L 8433.896241 244.078125 
z
" clip-path="url(#p9c712327a1)" style="fill: #1f77b4; fill-opacity: 0.5; stroke: #000000; stroke-width: 0.149933; stroke-linejoin: miter"/>
   </g>
   <g id="patch_177">
    <path d="M 8482.302054 244.078125 
L 8530.707866 244.078125 
L 8530.707866 244.078125 
L 8482.302054 244.078125 
z
" clip-path="url(#p9c712327a1)" style="fill: #1f77b4; fill-opacity: 0.5; stroke: #000000; stroke-width: 0.149933; stroke-linejoin: miter"/>
   </g>
   <g id="patch_178">
    <path d="M 8530.707866 244.078125 
L 8579.113679 244.078125 
L 8579.113679 244.078125 
L 8530.707866 244.078125 
z
" clip-path="url(#p9c712327a1)" style="fill: #1f77b4; fill-opacity: 0.5; stroke: #000000; stroke-width: 0.149933; stroke-linejoin: miter"/>
   </g>
   <g id="patch_179">
    <path d="M 8579.113679 244.078125 
L 8627.519492 244.078125 
L 8627.519492 244.078125 
L 8579.113679 244.078125 
z
" clip-path="url(#p9c712327a1)" style="fill: #1f77b4; fill-opacity: 0.5; stroke: #000000; stroke-width: 0.149933; stroke-linejoin: miter"/>
   </g>
   <g id="patch_180">
    <path d="M 8627.519492 244.078125 
L 8675.925305 244.078125 
L 8675.925305 244.078125 
L 8627.519492 244.078125 
z
" clip-path="url(#p9c712327a1)" style="fill: #1f77b4; fill-opacity: 0.5; stroke: #000000; stroke-width: 0.149933; stroke-linejoin: miter"/>
   </g>
   <g id="patch_181">
    <path d="M 8675.925305 244.078125 
L 8724.331118 244.078125 
L 8724.331118 244.078125 
L 8675.925305 244.078125 
z
" clip-path="url(#p9c712327a1)" style="fill: #1f77b4; fill-opacity: 0.5; stroke: #000000; stroke-width: 0.149933; stroke-linejoin: miter"/>
   </g>
   <g id="patch_182">
    <path d="M 8724.331118 244.078125 
L 8772.73693 244.078125 
L 8772.73693 244.078125 
L 8724.331118 244.078125 
z
" clip-path="url(#p9c712327a1)" style="fill: #1f77b4; fill-opacity: 0.5; stroke: #000000; stroke-width: 0.149933; stroke-linejoin: miter"/>
   </g>
   <g id="patch_183">
    <path d="M 8772.73693 244.078125 
L 8821.142743 244.078125 
L 8821.142743 244.078125 
L 8772.73693 244.078125 
z
" clip-path="url(#p9c712327a1)" style="fill: #1f77b4; fill-opacity: 0.5; stroke: #000000; stroke-width: 0.149933; stroke-linejoin: miter"/>
   </g>
   <g id="patch_184">
    <path d="M 8821.142743 244.078125 
L 8869.548556 244.078125 
L 8869.548556 244.078125 
L 8821.142743 244.078125 
z
" clip-path="url(#p9c712327a1)" style="fill: #1f77b4; fill-opacity: 0.5; stroke: #000000; stroke-width: 0.149933; stroke-linejoin: miter"/>
   </g>
   <g id="patch_185">
    <path d="M 8869.548556 244.078125 
L 8917.954369 244.078125 
L 8917.954369 244.078125 
L 8869.548556 244.078125 
z
" clip-path="url(#p9c712327a1)" style="fill: #1f77b4; fill-opacity: 0.5; stroke: #000000; stroke-width: 0.149933; stroke-linejoin: miter"/>
   </g>
   <g id="patch_186">
    <path d="M 8917.954369 244.078125 
L 8966.360182 244.078125 
L 8966.360182 244.078125 
L 8917.954369 244.078125 
z
" clip-path="url(#p9c712327a1)" style="fill: #1f77b4; fill-opacity: 0.5; stroke: #000000; stroke-width: 0.149933; stroke-linejoin: miter"/>
   </g>
   <g id="patch_187">
    <path d="M 8966.360182 244.078125 
L 9014.765994 244.078125 
L 9014.765994 244.078125 
L 8966.360182 244.078125 
z
" clip-path="url(#p9c712327a1)" style="fill: #1f77b4; fill-opacity: 0.5; stroke: #000000; stroke-width: 0.149933; stroke-linejoin: miter"/>
   </g>
   <g id="patch_188">
    <path d="M 9014.765994 244.078125 
L 9063.171807 244.078125 
L 9063.171807 244.078125 
L 9014.765994 244.078125 
z
" clip-path="url(#p9c712327a1)" style="fill: #1f77b4; fill-opacity: 0.5; stroke: #000000; stroke-width: 0.149933; stroke-linejoin: miter"/>
   </g>
   <g id="patch_189">
    <path d="M 9063.171807 244.078125 
L 9111.57762 244.078125 
L 9111.57762 244.078125 
L 9063.171807 244.078125 
z
" clip-path="url(#p9c712327a1)" style="fill: #1f77b4; fill-opacity: 0.5; stroke: #000000; stroke-width: 0.149933; stroke-linejoin: miter"/>
   </g>
   <g id="patch_190">
    <path d="M 9111.57762 244.078125 
L 9159.983433 244.078125 
L 9159.983433 244.078125 
L 9111.57762 244.078125 
z
" clip-path="url(#p9c712327a1)" style="fill: #1f77b4; fill-opacity: 0.5; stroke: #000000; stroke-width: 0.149933; stroke-linejoin: miter"/>
   </g>
   <g id="patch_191">
    <path d="M 9159.983433 244.078125 
L 9208.389246 244.078125 
L 9208.389246 244.078125 
L 9159.983433 244.078125 
z
" clip-path="url(#p9c712327a1)" style="fill: #1f77b4; fill-opacity: 0.5; stroke: #000000; stroke-width: 0.149933; stroke-linejoin: miter"/>
   </g>
   <g id="patch_192">
    <path d="M 9208.389246 244.078125 
L 9256.795058 244.078125 
L 9256.795058 244.078125 
L 9208.389246 244.078125 
z
" clip-path="url(#p9c712327a1)" style="fill: #1f77b4; fill-opacity: 0.5; stroke: #000000; stroke-width: 0.149933; stroke-linejoin: miter"/>
   </g>
   <g id="patch_193">
    <path d="M 9256.795058 244.078125 
L 9305.200871 244.078125 
L 9305.200871 244.078125 
L 9256.795058 244.078125 
z
" clip-path="url(#p9c712327a1)" style="fill: #1f77b4; fill-opacity: 0.5; stroke: #000000; stroke-width: 0.149933; stroke-linejoin: miter"/>
   </g>
   <g id="patch_194">
    <path d="M 9305.200871 244.078125 
L 9353.606684 244.078125 
L 9353.606684 244.078125 
L 9305.200871 244.078125 
z
" clip-path="url(#p9c712327a1)" style="fill: #1f77b4; fill-opacity: 0.5; stroke: #000000; stroke-width: 0.149933; stroke-linejoin: miter"/>
   </g>
   <g id="patch_195">
    <path d="M 9353.606684 244.078125 
L 9402.012497 244.078125 
L 9402.012497 244.078125 
L 9353.606684 244.078125 
z
" clip-path="url(#p9c712327a1)" style="fill: #1f77b4; fill-opacity: 0.5; stroke: #000000; stroke-width: 0.149933; stroke-linejoin: miter"/>
   </g>
   <g id="patch_196">
    <path d="M 9402.012497 244.078125 
L 9450.41831 244.078125 
L 9450.41831 244.078125 
L 9402.012497 244.078125 
z
" clip-path="url(#p9c712327a1)" style="fill: #1f77b4; fill-opacity: 0.5; stroke: #000000; stroke-width: 0.149933; stroke-linejoin: miter"/>
   </g>
   <g id="patch_197">
    <path d="M 9450.41831 244.078125 
L 9498.824123 244.078125 
L 9498.824123 244.078125 
L 9450.41831 244.078125 
z
" clip-path="url(#p9c712327a1)" style="fill: #1f77b4; fill-opacity: 0.5; stroke: #000000; stroke-width: 0.149933; stroke-linejoin: miter"/>
   </g>
   <g id="patch_198">
    <path d="M 9498.824123 244.078125 
L 9547.229935 244.078125 
L 9547.229935 244.078125 
L 9498.824123 244.078125 
z
" clip-path="url(#p9c712327a1)" style="fill: #1f77b4; fill-opacity: 0.5; stroke: #000000; stroke-width: 0.149933; stroke-linejoin: miter"/>
   </g>
   <g id="patch_199">
    <path d="M 9547.229935 244.078125 
L 9595.635748 244.078125 
L 9595.635748 244.078125 
L 9547.229935 244.078125 
z
" clip-path="url(#p9c712327a1)" style="fill: #1f77b4; fill-opacity: 0.5; stroke: #000000; stroke-width: 0.149933; stroke-linejoin: miter"/>
   </g>
   <g id="patch_200">
    <path d="M 9595.635748 244.078125 
L 9644.041561 244.078125 
L 9644.041561 244.078125 
L 9595.635748 244.078125 
z
" clip-path="url(#p9c712327a1)" style="fill: #1f77b4; fill-opacity: 0.5; stroke: #000000; stroke-width: 0.149933; stroke-linejoin: miter"/>
   </g>
   <g id="patch_201">
    <path d="M 9644.041561 244.078125 
L 9692.447374 244.078125 
L 9692.447374 244.078125 
L 9644.041561 244.078125 
z
" clip-path="url(#p9c712327a1)" style="fill: #1f77b4; fill-opacity: 0.5; stroke: #000000; stroke-width: 0.149933; stroke-linejoin: miter"/>
   </g>
   <g id="patch_202">
    <path d="M 9692.447374 244.078125 
L 9740.853187 244.078125 
L 9740.853187 244.078125 
L 9692.447374 244.078125 
z
" clip-path="url(#p9c712327a1)" style="fill: #1f77b4; fill-opacity: 0.5; stroke: #000000; stroke-width: 0.149933; stroke-linejoin: miter"/>
   </g>
   <g id="patch_203">
    <path d="M 9740.853187 244.078125 
L 9789.258999 244.078125 
L 9789.258999 244.078125 
L 9740.853187 244.078125 
z
" clip-path="url(#p9c712327a1)" style="fill: #1f77b4; fill-opacity: 0.5; stroke: #000000; stroke-width: 0.149933; stroke-linejoin: miter"/>
   </g>
   <g id="patch_204">
    <path d="M 9789.258999 244.078125 
L 9837.664812 244.078125 
L 9837.664812 244.078125 
L 9789.258999 244.078125 
z
" clip-path="url(#p9c712327a1)" style="fill: #1f77b4; fill-opacity: 0.5; stroke: #000000; stroke-width: 0.149933; stroke-linejoin: miter"/>
   </g>
   <g id="patch_205">
    <path d="M 9837.664812 244.078125 
L 9886.070625 244.078125 
L 9886.070625 244.056191 
L 9837.664812 244.056191 
z
" clip-path="url(#p9c712327a1)" style="fill: #1f77b4; fill-opacity: 0.5; stroke: #000000; stroke-width: 0.149933; stroke-linejoin: miter"/>
   </g>
   <g id="matplotlib.axis_1">
    <g id="xtick_1">
     <g id="line2d_1">
      <defs>
       <path id="m9c7939a04e" d="M 0 0 
L 0 3.5 
" style="stroke: #000000; stroke-width: 0.8"/>
      </defs>
      <g>
       <use xlink:href="#m9c7939a04e" x="59.690625" y="244.078125" style="stroke: #000000; stroke-width: 0.8"/>
      </g>
     </g>
     <g id="text_1">
      <!-- 0 -->
      <g transform="translate(56.509375 258.676562) scale(0.1 -0.1)">
       <defs>
        <path id="DejaVuSans-30" d="M 2034 4250 
Q 1547 4250 1301 3770 
Q 1056 3291 1056 2328 
Q 1056 1369 1301 889 
Q 1547 409 2034 409 
Q 2525 409 2770 889 
Q 3016 1369 3016 2328 
Q 3016 3291 2770 3770 
Q 2525 4250 2034 4250 
z
M 2034 4750 
Q 2819 4750 3233 4129 
Q 3647 3509 3647 2328 
Q 3647 1150 3233 529 
Q 2819 -91 2034 -91 
Q 1250 -91 836 529 
Q 422 1150 422 2328 
Q 422 3509 836 4129 
Q 1250 4750 2034 4750 
z
" transform="scale(0.015625)"/>
       </defs>
       <use xlink:href="#DejaVuSans-30"/>
      </g>
     </g>
    </g>
    <g id="xtick_2">
     <g id="line2d_2">
      <g>
       <use xlink:href="#m9c7939a04e" x="126.650625" y="244.078125" style="stroke: #000000; stroke-width: 0.8"/>
      </g>
     </g>
     <g id="text_2">
      <!-- 20 -->
      <g transform="translate(120.288125 258.676562) scale(0.1 -0.1)">
       <defs>
        <path id="DejaVuSans-32" d="M 1228 531 
L 3431 531 
L 3431 0 
L 469 0 
L 469 531 
Q 828 903 1448 1529 
Q 2069 2156 2228 2338 
Q 2531 2678 2651 2914 
Q 2772 3150 2772 3378 
Q 2772 3750 2511 3984 
Q 2250 4219 1831 4219 
Q 1534 4219 1204 4116 
Q 875 4013 500 3803 
L 500 4441 
Q 881 4594 1212 4672 
Q 1544 4750 1819 4750 
Q 2544 4750 2975 4387 
Q 3406 4025 3406 3419 
Q 3406 3131 3298 2873 
Q 3191 2616 2906 2266 
Q 2828 2175 2409 1742 
Q 1991 1309 1228 531 
z
" transform="scale(0.015625)"/>
       </defs>
       <use xlink:href="#DejaVuSans-32"/>
       <use xlink:href="#DejaVuSans-30" transform="translate(63.623047 0)"/>
      </g>
     </g>
    </g>
    <g id="xtick_3">
     <g id="line2d_3">
      <g>
       <use xlink:href="#m9c7939a04e" x="193.610625" y="244.078125" style="stroke: #000000; stroke-width: 0.8"/>
      </g>
     </g>
     <g id="text_3">
      <!-- 40 -->
      <g transform="translate(187.248125 258.676562) scale(0.1 -0.1)">
       <defs>
        <path id="DejaVuSans-34" d="M 2419 4116 
L 825 1625 
L 2419 1625 
L 2419 4116 
z
M 2253 4666 
L 3047 4666 
L 3047 1625 
L 3713 1625 
L 3713 1100 
L 3047 1100 
L 3047 0 
L 2419 0 
L 2419 1100 
L 313 1100 
L 313 1709 
L 2253 4666 
z
" transform="scale(0.015625)"/>
       </defs>
       <use xlink:href="#DejaVuSans-34"/>
       <use xlink:href="#DejaVuSans-30" transform="translate(63.623047 0)"/>
      </g>
     </g>
    </g>
    <g id="xtick_4">
     <g id="line2d_4">
      <g>
       <use xlink:href="#m9c7939a04e" x="260.570625" y="244.078125" style="stroke: #000000; stroke-width: 0.8"/>
      </g>
     </g>
     <g id="text_4">
      <!-- 60 -->
      <g transform="translate(254.208125 258.676562) scale(0.1 -0.1)">
       <defs>
        <path id="DejaVuSans-36" d="M 2113 2584 
Q 1688 2584 1439 2293 
Q 1191 2003 1191 1497 
Q 1191 994 1439 701 
Q 1688 409 2113 409 
Q 2538 409 2786 701 
Q 3034 994 3034 1497 
Q 3034 2003 2786 2293 
Q 2538 2584 2113 2584 
z
M 3366 4563 
L 3366 3988 
Q 3128 4100 2886 4159 
Q 2644 4219 2406 4219 
Q 1781 4219 1451 3797 
Q 1122 3375 1075 2522 
Q 1259 2794 1537 2939 
Q 1816 3084 2150 3084 
Q 2853 3084 3261 2657 
Q 3669 2231 3669 1497 
Q 3669 778 3244 343 
Q 2819 -91 2113 -91 
Q 1303 -91 875 529 
Q 447 1150 447 2328 
Q 447 3434 972 4092 
Q 1497 4750 2381 4750 
Q 2619 4750 2861 4703 
Q 3103 4656 3366 4563 
z
" transform="scale(0.015625)"/>
       </defs>
       <use xlink:href="#DejaVuSans-36"/>
       <use xlink:href="#DejaVuSans-30" transform="translate(63.623047 0)"/>
      </g>
     </g>
    </g>
    <g id="xtick_5">
     <g id="line2d_5">
      <g>
       <use xlink:href="#m9c7939a04e" x="327.530625" y="244.078125" style="stroke: #000000; stroke-width: 0.8"/>
      </g>
     </g>
     <g id="text_5">
      <!-- 80 -->
      <g transform="translate(321.168125 258.676562) scale(0.1 -0.1)">
       <defs>
        <path id="DejaVuSans-38" d="M 2034 2216 
Q 1584 2216 1326 1975 
Q 1069 1734 1069 1313 
Q 1069 891 1326 650 
Q 1584 409 2034 409 
Q 2484 409 2743 651 
Q 3003 894 3003 1313 
Q 3003 1734 2745 1975 
Q 2488 2216 2034 2216 
z
M 1403 2484 
Q 997 2584 770 2862 
Q 544 3141 544 3541 
Q 544 4100 942 4425 
Q 1341 4750 2034 4750 
Q 2731 4750 3128 4425 
Q 3525 4100 3525 3541 
Q 3525 3141 3298 2862 
Q 3072 2584 2669 2484 
Q 3125 2378 3379 2068 
Q 3634 1759 3634 1313 
Q 3634 634 3220 271 
Q 2806 -91 2034 -91 
Q 1263 -91 848 271 
Q 434 634 434 1313 
Q 434 1759 690 2068 
Q 947 2378 1403 2484 
z
M 1172 3481 
Q 1172 3119 1398 2916 
Q 1625 2713 2034 2713 
Q 2441 2713 2670 2916 
Q 2900 3119 2900 3481 
Q 2900 3844 2670 4047 
Q 2441 4250 2034 4250 
Q 1625 4250 1398 4047 
Q 1172 3844 1172 3481 
z
" transform="scale(0.015625)"/>
       </defs>
       <use xlink:href="#DejaVuSans-38"/>
       <use xlink:href="#DejaVuSans-30" transform="translate(63.623047 0)"/>
      </g>
     </g>
    </g>
    <g id="xtick_6">
     <g id="line2d_6">
      <g>
       <use xlink:href="#m9c7939a04e" x="394.490625" y="244.078125" style="stroke: #000000; stroke-width: 0.8"/>
      </g>
     </g>
     <g id="text_6">
      <!-- 100 -->
      <g transform="translate(384.946875 258.676562) scale(0.1 -0.1)">
       <defs>
        <path id="DejaVuSans-31" d="M 794 531 
L 1825 531 
L 1825 4091 
L 703 3866 
L 703 4441 
L 1819 4666 
L 2450 4666 
L 2450 531 
L 3481 531 
L 3481 0 
L 794 0 
L 794 531 
z
" transform="scale(0.015625)"/>
       </defs>
       <use xlink:href="#DejaVuSans-31"/>
       <use xlink:href="#DejaVuSans-30" transform="translate(63.623047 0)"/>
       <use xlink:href="#DejaVuSans-30" transform="translate(127.246094 0)"/>
      </g>
     </g>
    </g>
    <g id="text_7">
     <!-- nf -->
     <g transform="translate(222.161719 272.354687) scale(0.1 -0.1)">
      <defs>
       <path id="DejaVuSans-6e" d="M 3513 2113 
L 3513 0 
L 2938 0 
L 2938 2094 
Q 2938 2591 2744 2837 
Q 2550 3084 2163 3084 
Q 1697 3084 1428 2787 
Q 1159 2491 1159 1978 
L 1159 0 
L 581 0 
L 581 3500 
L 1159 3500 
L 1159 2956 
Q 1366 3272 1645 3428 
Q 1925 3584 2291 3584 
Q 2894 3584 3203 3211 
Q 3513 2838 3513 2113 
z
" transform="scale(0.015625)"/>
       <path id="DejaVuSans-66" d="M 2375 4863 
L 2375 4384 
L 1825 4384 
Q 1516 4384 1395 4259 
Q 1275 4134 1275 3809 
L 1275 3500 
L 2222 3500 
L 2222 3053 
L 1275 3053 
L 1275 0 
L 697 0 
L 697 3053 
L 147 3053 
L 147 3500 
L 697 3500 
L 697 3744 
Q 697 4328 969 4595 
Q 1241 4863 1831 4863 
L 2375 4863 
z
" transform="scale(0.015625)"/>
      </defs>
      <use xlink:href="#DejaVuSans-6e"/>
      <use xlink:href="#DejaVuSans-66" transform="translate(63.378906 0)"/>
     </g>
    </g>
   </g>
   <g id="matplotlib.axis_2">
    <g id="ytick_1">
     <g id="line2d_7">
      <defs>
       <path id="m8db9a49722" d="M 0 0 
L -3.5 0 
" style="stroke: #000000; stroke-width: 0.8"/>
      </defs>
      <g>
       <use xlink:href="#m8db9a49722" x="59.690625" y="244.078125" style="stroke: #000000; stroke-width: 0.8"/>
      </g>
     </g>
     <g id="text_8">
      <!-- 0 -->
      <g transform="translate(46.328125 247.877344) scale(0.1 -0.1)">
       <use xlink:href="#DejaVuSans-30"/>
      </g>
     </g>
    </g>
    <g id="ytick_2">
     <g id="line2d_8">
      <g>
       <use xlink:href="#m8db9a49722" x="59.690625" y="200.210641" style="stroke: #000000; stroke-width: 0.8"/>
      </g>
     </g>
     <g id="text_9">
      <!-- 2000 -->
      <g transform="translate(27.240625 204.00986) scale(0.1 -0.1)">
       <use xlink:href="#DejaVuSans-32"/>
       <use xlink:href="#DejaVuSans-30" transform="translate(63.623047 0)"/>
       <use xlink:href="#DejaVuSans-30" transform="translate(127.246094 0)"/>
       <use xlink:href="#DejaVuSans-30" transform="translate(190.869141 0)"/>
      </g>
     </g>
    </g>
    <g id="ytick_3">
     <g id="line2d_9">
      <g>
       <use xlink:href="#m8db9a49722" x="59.690625" y="156.343158" style="stroke: #000000; stroke-width: 0.8"/>
      </g>
     </g>
     <g id="text_10">
      <!-- 4000 -->
      <g transform="translate(27.240625 160.142376) scale(0.1 -0.1)">
       <use xlink:href="#DejaVuSans-34"/>
       <use xlink:href="#DejaVuSans-30" transform="translate(63.623047 0)"/>
       <use xlink:href="#DejaVuSans-30" transform="translate(127.246094 0)"/>
       <use xlink:href="#DejaVuSans-30" transform="translate(190.869141 0)"/>
      </g>
     </g>
    </g>
    <g id="ytick_4">
     <g id="line2d_10">
      <g>
       <use xlink:href="#m8db9a49722" x="59.690625" y="112.475674" style="stroke: #000000; stroke-width: 0.8"/>
      </g>
     </g>
     <g id="text_11">
      <!-- 6000 -->
      <g transform="translate(27.240625 116.274893) scale(0.1 -0.1)">
       <use xlink:href="#DejaVuSans-36"/>
       <use xlink:href="#DejaVuSans-30" transform="translate(63.623047 0)"/>
       <use xlink:href="#DejaVuSans-30" transform="translate(127.246094 0)"/>
       <use xlink:href="#DejaVuSans-30" transform="translate(190.869141 0)"/>
      </g>
     </g>
    </g>
    <g id="ytick_5">
     <g id="line2d_11">
      <g>
       <use xlink:href="#m8db9a49722" x="59.690625" y="68.60819" style="stroke: #000000; stroke-width: 0.8"/>
      </g>
     </g>
     <g id="text_12">
      <!-- 8000 -->
      <g transform="translate(27.240625 72.407409) scale(0.1 -0.1)">
       <use xlink:href="#DejaVuSans-38"/>
       <use xlink:href="#DejaVuSans-30" transform="translate(63.623047 0)"/>
       <use xlink:href="#DejaVuSans-30" transform="translate(127.246094 0)"/>
       <use xlink:href="#DejaVuSans-30" transform="translate(190.869141 0)"/>
      </g>
     </g>
    </g>
    <g id="ytick_6">
     <g id="line2d_12">
      <g>
       <use xlink:href="#m8db9a49722" x="59.690625" y="24.740707" style="stroke: #000000; stroke-width: 0.8"/>
      </g>
     </g>
     <g id="text_13">
      <!-- 10000 -->
      <g transform="translate(20.878125 28.539926) scale(0.1 -0.1)">
       <use xlink:href="#DejaVuSans-31"/>
       <use xlink:href="#DejaVuSans-30" transform="translate(63.623047 0)"/>
       <use xlink:href="#DejaVuSans-30" transform="translate(127.246094 0)"/>
       <use xlink:href="#DejaVuSans-30" transform="translate(190.869141 0)"/>
       <use xlink:href="#DejaVuSans-30" transform="translate(254.492188 0)"/>
      </g>
     </g>
    </g>
    <g id="text_14">
     <!-- Count -->
     <g transform="translate(14.798438 148.046562) rotate(-90) scale(0.1 -0.1)">
      <defs>
       <path id="DejaVuSans-43" d="M 4122 4306 
L 4122 3641 
Q 3803 3938 3442 4084 
Q 3081 4231 2675 4231 
Q 1875 4231 1450 3742 
Q 1025 3253 1025 2328 
Q 1025 1406 1450 917 
Q 1875 428 2675 428 
Q 3081 428 3442 575 
Q 3803 722 4122 1019 
L 4122 359 
Q 3791 134 3420 21 
Q 3050 -91 2638 -91 
Q 1578 -91 968 557 
Q 359 1206 359 2328 
Q 359 3453 968 4101 
Q 1578 4750 2638 4750 
Q 3056 4750 3426 4639 
Q 3797 4528 4122 4306 
z
" transform="scale(0.015625)"/>
       <path id="DejaVuSans-6f" d="M 1959 3097 
Q 1497 3097 1228 2736 
Q 959 2375 959 1747 
Q 959 1119 1226 758 
Q 1494 397 1959 397 
Q 2419 397 2687 759 
Q 2956 1122 2956 1747 
Q 2956 2369 2687 2733 
Q 2419 3097 1959 3097 
z
M 1959 3584 
Q 2709 3584 3137 3096 
Q 3566 2609 3566 1747 
Q 3566 888 3137 398 
Q 2709 -91 1959 -91 
Q 1206 -91 779 398 
Q 353 888 353 1747 
Q 353 2609 779 3096 
Q 1206 3584 1959 3584 
z
" transform="scale(0.015625)"/>
       <path id="DejaVuSans-75" d="M 544 1381 
L 544 3500 
L 1119 3500 
L 1119 1403 
Q 1119 906 1312 657 
Q 1506 409 1894 409 
Q 2359 409 2629 706 
Q 2900 1003 2900 1516 
L 2900 3500 
L 3475 3500 
L 3475 0 
L 2900 0 
L 2900 538 
Q 2691 219 2414 64 
Q 2138 -91 1772 -91 
Q 1169 -91 856 284 
Q 544 659 544 1381 
z
M 1991 3584 
L 1991 3584 
z
" transform="scale(0.015625)"/>
       <path id="DejaVuSans-74" d="M 1172 4494 
L 1172 3500 
L 2356 3500 
L 2356 3053 
L 1172 3053 
L 1172 1153 
Q 1172 725 1289 603 
Q 1406 481 1766 481 
L 2356 481 
L 2356 0 
L 1766 0 
Q 1100 0 847 248 
Q 594 497 594 1153 
L 594 3053 
L 172 3053 
L 172 3500 
L 594 3500 
L 594 4494 
L 1172 4494 
z
" transform="scale(0.015625)"/>
      </defs>
      <use xlink:href="#DejaVuSans-43"/>
      <use xlink:href="#DejaVuSans-6f" transform="translate(69.824219 0)"/>
      <use xlink:href="#DejaVuSans-75" transform="translate(131.005859 0)"/>
      <use xlink:href="#DejaVuSans-6e" transform="translate(194.384766 0)"/>
      <use xlink:href="#DejaVuSans-74" transform="translate(257.763672 0)"/>
     </g>
    </g>
   </g>
   <g id="line2d_13">
    <path d="M 59.690625 125.754218 
L 109.069419 184.248049 
L 158.448213 236.973009 
L 207.827007 242.355804 
L 257.205801 243.290685 
L 306.584595 243.653524 
L 412.234375 243.73829 
L 412.234375 243.73829 
" clip-path="url(#p9c712327a1)" style="fill: none; stroke: #1f77b4; stroke-width: 1.5; stroke-linecap: square"/>
   </g>
   <g id="patch_206">
    <path d="M 59.690625 244.078125 
L 59.690625 22.318125 
" style="fill: none; stroke: #000000; stroke-width: 0.8; stroke-linejoin: miter; stroke-linecap: square"/>
   </g>
   <g id="patch_207">
    <path d="M 394.490625 244.078125 
L 394.490625 22.318125 
" style="fill: none; stroke: #000000; stroke-width: 0.8; stroke-linejoin: miter; stroke-linecap: square"/>
   </g>
   <g id="patch_208">
    <path d="M 59.690625 244.078125 
L 394.490625 244.078125 
" style="fill: none; stroke: #000000; stroke-width: 0.8; stroke-linejoin: miter; stroke-linecap: square"/>
   </g>
   <g id="patch_209">
    <path d="M 59.690625 22.318125 
L 394.490625 22.318125 
" style="fill: none; stroke: #000000; stroke-width: 0.8; stroke-linejoin: miter; stroke-linecap: square"/>
   </g>
   <g id="text_15">
    <!-- Distribuzione di nf -->
    <g transform="translate(172.395 16.318125) scale(0.12 -0.12)">
     <defs>
      <path id="DejaVuSans-44" d="M 1259 4147 
L 1259 519 
L 2022 519 
Q 2988 519 3436 956 
Q 3884 1394 3884 2338 
Q 3884 3275 3436 3711 
Q 2988 4147 2022 4147 
L 1259 4147 
z
M 628 4666 
L 1925 4666 
Q 3281 4666 3915 4102 
Q 4550 3538 4550 2338 
Q 4550 1131 3912 565 
Q 3275 0 1925 0 
L 628 0 
L 628 4666 
z
" transform="scale(0.015625)"/>
      <path id="DejaVuSans-69" d="M 603 3500 
L 1178 3500 
L 1178 0 
L 603 0 
L 603 3500 
z
M 603 4863 
L 1178 4863 
L 1178 4134 
L 603 4134 
L 603 4863 
z
" transform="scale(0.015625)"/>
      <path id="DejaVuSans-73" d="M 2834 3397 
L 2834 2853 
Q 2591 2978 2328 3040 
Q 2066 3103 1784 3103 
Q 1356 3103 1142 2972 
Q 928 2841 928 2578 
Q 928 2378 1081 2264 
Q 1234 2150 1697 2047 
L 1894 2003 
Q 2506 1872 2764 1633 
Q 3022 1394 3022 966 
Q 3022 478 2636 193 
Q 2250 -91 1575 -91 
Q 1294 -91 989 -36 
Q 684 19 347 128 
L 347 722 
Q 666 556 975 473 
Q 1284 391 1588 391 
Q 1994 391 2212 530 
Q 2431 669 2431 922 
Q 2431 1156 2273 1281 
Q 2116 1406 1581 1522 
L 1381 1569 
Q 847 1681 609 1914 
Q 372 2147 372 2553 
Q 372 3047 722 3315 
Q 1072 3584 1716 3584 
Q 2034 3584 2315 3537 
Q 2597 3491 2834 3397 
z
" transform="scale(0.015625)"/>
      <path id="DejaVuSans-72" d="M 2631 2963 
Q 2534 3019 2420 3045 
Q 2306 3072 2169 3072 
Q 1681 3072 1420 2755 
Q 1159 2438 1159 1844 
L 1159 0 
L 581 0 
L 581 3500 
L 1159 3500 
L 1159 2956 
Q 1341 3275 1631 3429 
Q 1922 3584 2338 3584 
Q 2397 3584 2469 3576 
Q 2541 3569 2628 3553 
L 2631 2963 
z
" transform="scale(0.015625)"/>
      <path id="DejaVuSans-62" d="M 3116 1747 
Q 3116 2381 2855 2742 
Q 2594 3103 2138 3103 
Q 1681 3103 1420 2742 
Q 1159 2381 1159 1747 
Q 1159 1113 1420 752 
Q 1681 391 2138 391 
Q 2594 391 2855 752 
Q 3116 1113 3116 1747 
z
M 1159 2969 
Q 1341 3281 1617 3432 
Q 1894 3584 2278 3584 
Q 2916 3584 3314 3078 
Q 3713 2572 3713 1747 
Q 3713 922 3314 415 
Q 2916 -91 2278 -91 
Q 1894 -91 1617 61 
Q 1341 213 1159 525 
L 1159 0 
L 581 0 
L 581 4863 
L 1159 4863 
L 1159 2969 
z
" transform="scale(0.015625)"/>
      <path id="DejaVuSans-7a" d="M 353 3500 
L 3084 3500 
L 3084 2975 
L 922 459 
L 3084 459 
L 3084 0 
L 275 0 
L 275 525 
L 2438 3041 
L 353 3041 
L 353 3500 
z
" transform="scale(0.015625)"/>
      <path id="DejaVuSans-65" d="M 3597 1894 
L 3597 1613 
L 953 1613 
Q 991 1019 1311 708 
Q 1631 397 2203 397 
Q 2534 397 2845 478 
Q 3156 559 3463 722 
L 3463 178 
Q 3153 47 2828 -22 
Q 2503 -91 2169 -91 
Q 1331 -91 842 396 
Q 353 884 353 1716 
Q 353 2575 817 3079 
Q 1281 3584 2069 3584 
Q 2775 3584 3186 3129 
Q 3597 2675 3597 1894 
z
M 3022 2063 
Q 3016 2534 2758 2815 
Q 2500 3097 2075 3097 
Q 1594 3097 1305 2825 
Q 1016 2553 972 2059 
L 3022 2063 
z
" transform="scale(0.015625)"/>
      <path id="DejaVuSans-20" transform="scale(0.015625)"/>
      <path id="DejaVuSans-64" d="M 2906 2969 
L 2906 4863 
L 3481 4863 
L 3481 0 
L 2906 0 
L 2906 525 
Q 2725 213 2448 61 
Q 2172 -91 1784 -91 
Q 1150 -91 751 415 
Q 353 922 353 1747 
Q 353 2572 751 3078 
Q 1150 3584 1784 3584 
Q 2172 3584 2448 3432 
Q 2725 3281 2906 2969 
z
M 947 1747 
Q 947 1113 1208 752 
Q 1469 391 1925 391 
Q 2381 391 2643 752 
Q 2906 1113 2906 1747 
Q 2906 2381 2643 2742 
Q 2381 3103 1925 3103 
Q 1469 3103 1208 2742 
Q 947 2381 947 1747 
z
" transform="scale(0.015625)"/>
     </defs>
     <use xlink:href="#DejaVuSans-44"/>
     <use xlink:href="#DejaVuSans-69" transform="translate(77.001953 0)"/>
     <use xlink:href="#DejaVuSans-73" transform="translate(104.785156 0)"/>
     <use xlink:href="#DejaVuSans-74" transform="translate(156.884766 0)"/>
     <use xlink:href="#DejaVuSans-72" transform="translate(196.09375 0)"/>
     <use xlink:href="#DejaVuSans-69" transform="translate(237.207031 0)"/>
     <use xlink:href="#DejaVuSans-62" transform="translate(264.990234 0)"/>
     <use xlink:href="#DejaVuSans-75" transform="translate(328.466797 0)"/>
     <use xlink:href="#DejaVuSans-7a" transform="translate(391.845703 0)"/>
     <use xlink:href="#DejaVuSans-69" transform="translate(444.335938 0)"/>
     <use xlink:href="#DejaVuSans-6f" transform="translate(472.119141 0)"/>
     <use xlink:href="#DejaVuSans-6e" transform="translate(533.300781 0)"/>
     <use xlink:href="#DejaVuSans-65" transform="translate(596.679688 0)"/>
     <use xlink:href="#DejaVuSans-20" transform="translate(658.203125 0)"/>
     <use xlink:href="#DejaVuSans-64" transform="translate(689.990234 0)"/>
     <use xlink:href="#DejaVuSans-69" transform="translate(753.466797 0)"/>
     <use xlink:href="#DejaVuSans-20" transform="translate(781.25 0)"/>
     <use xlink:href="#DejaVuSans-6e" transform="translate(813.037109 0)"/>
     <use xlink:href="#DejaVuSans-66" transform="translate(876.416016 0)"/>
    </g>
   </g>
  </g>
 </g>
 <defs>
  <clipPath id="p9c712327a1">
   <rect x="59.690625" y="22.318125" width="334.8" height="221.76"/>
  </clipPath>
 </defs>
</svg>
