<?xml version="1.0" encoding="utf-8" standalone="no"?>
<!DOCTYPE svg PUBLIC "-//W3C//DTD SVG 1.1//EN"
  "http://www.w3.org/Graphics/SVG/1.1/DTD/svg11.dtd">
<svg xmlns:xlink="http://www.w3.org/1999/xlink" width="404.871875pt" height="281.634375pt" viewBox="0 0 404.871875 281.634375" xmlns="http://www.w3.org/2000/svg" version="1.1">
 <metadata>
  <rdf:RDF xmlns:dc="http://purl.org/dc/elements/1.1/" xmlns:cc="http://creativecommons.org/ns#" xmlns:rdf="http://www.w3.org/1999/02/22-rdf-syntax-ns#">
   <cc:Work>
    <dc:type rdf:resource="http://purl.org/dc/dcmitype/StillImage"/>
    <dc:date>2025-07-05T19:01:03.589432</dc:date>
    <dc:format>image/svg+xml</dc:format>
    <dc:creator>
     <cc:Agent>
      <dc:title>Matplotlib v3.10.3, https://matplotlib.org/</dc:title>
     </cc:Agent>
    </dc:creator>
   </cc:Work>
  </rdf:RDF>
 </metadata>
 <defs>
  <style type="text/css">*{stroke-linejoin: round; stroke-linecap: butt}</style>
 </defs>
 <g id="figure_1">
  <g id="patch_1">
   <path d="M 0 281.634375 
L 404.871875 281.634375 
L 404.871875 0 
L 0 0 
z
" style="fill: #ffffff"/>
  </g>
  <g id="axes_1">
   <g id="patch_2">
    <path d="M 53.328125 244.078125 
L 388.128125 244.078125 
L 388.128125 22.318125 
L 53.328125 22.318125 
z
" style="fill: #ffffff"/>
   </g>
   <g id="patch_3">
    <path d="M 56.676125 244.078125 
L 57.307305 244.078125 
L 57.307305 192.950316 
L 56.676125 192.950316 
z
" clip-path="url(#p1eb36ab9e7)" style="fill: #1f77b4; fill-opacity: 0.5; stroke: #000000; stroke-width: 0.249478; stroke-linejoin: miter"/>
   </g>
   <g id="patch_4">
    <path d="M 57.307305 244.078125 
L 57.938486 244.078125 
L 57.938486 244.078125 
L 57.307305 244.078125 
z
" clip-path="url(#p1eb36ab9e7)" style="fill: #1f77b4; fill-opacity: 0.5; stroke: #000000; stroke-width: 0.249478; stroke-linejoin: miter"/>
   </g>
   <g id="patch_5">
    <path d="M 57.938486 244.078125 
L 58.569666 244.078125 
L 58.569666 244.078125 
L 57.938486 244.078125 
z
" clip-path="url(#p1eb36ab9e7)" style="fill: #1f77b4; fill-opacity: 0.5; stroke: #000000; stroke-width: 0.249478; stroke-linejoin: miter"/>
   </g>
   <g id="patch_6">
    <path d="M 58.569666 244.078125 
L 59.200846 244.078125 
L 59.200846 244.078125 
L 58.569666 244.078125 
z
" clip-path="url(#p1eb36ab9e7)" style="fill: #1f77b4; fill-opacity: 0.5; stroke: #000000; stroke-width: 0.249478; stroke-linejoin: miter"/>
   </g>
   <g id="patch_7">
    <path d="M 59.200846 244.078125 
L 59.832027 244.078125 
L 59.832027 244.078125 
L 59.200846 244.078125 
z
" clip-path="url(#p1eb36ab9e7)" style="fill: #1f77b4; fill-opacity: 0.5; stroke: #000000; stroke-width: 0.249478; stroke-linejoin: miter"/>
   </g>
   <g id="patch_8">
    <path d="M 59.832027 244.078125 
L 60.463207 244.078125 
L 60.463207 240.046541 
L 59.832027 240.046541 
z
" clip-path="url(#p1eb36ab9e7)" style="fill: #1f77b4; fill-opacity: 0.5; stroke: #000000; stroke-width: 0.249478; stroke-linejoin: miter"/>
   </g>
   <g id="patch_9">
    <path d="M 60.463207 244.078125 
L 61.094387 244.078125 
L 61.094387 244.078125 
L 60.463207 244.078125 
z
" clip-path="url(#p1eb36ab9e7)" style="fill: #1f77b4; fill-opacity: 0.5; stroke: #000000; stroke-width: 0.249478; stroke-linejoin: miter"/>
   </g>
   <g id="patch_10">
    <path d="M 61.094387 244.078125 
L 61.725568 244.078125 
L 61.725568 244.078125 
L 61.094387 244.078125 
z
" clip-path="url(#p1eb36ab9e7)" style="fill: #1f77b4; fill-opacity: 0.5; stroke: #000000; stroke-width: 0.249478; stroke-linejoin: miter"/>
   </g>
   <g id="patch_11">
    <path d="M 61.725568 244.078125 
L 62.356748 244.078125 
L 62.356748 244.078125 
L 61.725568 244.078125 
z
" clip-path="url(#p1eb36ab9e7)" style="fill: #1f77b4; fill-opacity: 0.5; stroke: #000000; stroke-width: 0.249478; stroke-linejoin: miter"/>
   </g>
   <g id="patch_12">
    <path d="M 62.356748 244.078125 
L 62.987928 244.078125 
L 62.987928 244.078125 
L 62.356748 244.078125 
z
" clip-path="url(#p1eb36ab9e7)" style="fill: #1f77b4; fill-opacity: 0.5; stroke: #000000; stroke-width: 0.249478; stroke-linejoin: miter"/>
   </g>
   <g id="patch_13">
    <path d="M 62.987928 244.078125 
L 63.619109 244.078125 
L 63.619109 238.855392 
L 62.987928 238.855392 
z
" clip-path="url(#p1eb36ab9e7)" style="fill: #1f77b4; fill-opacity: 0.5; stroke: #000000; stroke-width: 0.249478; stroke-linejoin: miter"/>
   </g>
   <g id="patch_14">
    <path d="M 63.619109 244.078125 
L 64.250289 244.078125 
L 64.250289 244.078125 
L 63.619109 244.078125 
z
" clip-path="url(#p1eb36ab9e7)" style="fill: #1f77b4; fill-opacity: 0.5; stroke: #000000; stroke-width: 0.249478; stroke-linejoin: miter"/>
   </g>
   <g id="patch_15">
    <path d="M 64.250289 244.078125 
L 64.881469 244.078125 
L 64.881469 244.078125 
L 64.250289 244.078125 
z
" clip-path="url(#p1eb36ab9e7)" style="fill: #1f77b4; fill-opacity: 0.5; stroke: #000000; stroke-width: 0.249478; stroke-linejoin: miter"/>
   </g>
   <g id="patch_16">
    <path d="M 64.881469 244.078125 
L 65.51265 244.078125 
L 65.51265 244.078125 
L 64.881469 244.078125 
z
" clip-path="url(#p1eb36ab9e7)" style="fill: #1f77b4; fill-opacity: 0.5; stroke: #000000; stroke-width: 0.249478; stroke-linejoin: miter"/>
   </g>
   <g id="patch_17">
    <path d="M 65.51265 244.078125 
L 66.14383 244.078125 
L 66.14383 244.078125 
L 65.51265 244.078125 
z
" clip-path="url(#p1eb36ab9e7)" style="fill: #1f77b4; fill-opacity: 0.5; stroke: #000000; stroke-width: 0.249478; stroke-linejoin: miter"/>
   </g>
   <g id="patch_18">
    <path d="M 66.14383 244.078125 
L 66.77501 244.078125 
L 66.77501 203.395782 
L 66.14383 203.395782 
z
" clip-path="url(#p1eb36ab9e7)" style="fill: #1f77b4; fill-opacity: 0.5; stroke: #000000; stroke-width: 0.249478; stroke-linejoin: miter"/>
   </g>
   <g id="patch_19">
    <path d="M 66.77501 244.078125 
L 67.406191 244.078125 
L 67.406191 244.078125 
L 66.77501 244.078125 
z
" clip-path="url(#p1eb36ab9e7)" style="fill: #1f77b4; fill-opacity: 0.5; stroke: #000000; stroke-width: 0.249478; stroke-linejoin: miter"/>
   </g>
   <g id="patch_20">
    <path d="M 67.406191 244.078125 
L 68.037371 244.078125 
L 68.037371 244.078125 
L 67.406191 244.078125 
z
" clip-path="url(#p1eb36ab9e7)" style="fill: #1f77b4; fill-opacity: 0.5; stroke: #000000; stroke-width: 0.249478; stroke-linejoin: miter"/>
   </g>
   <g id="patch_21">
    <path d="M 68.037371 244.078125 
L 68.668551 244.078125 
L 68.668551 244.078125 
L 68.037371 244.078125 
z
" clip-path="url(#p1eb36ab9e7)" style="fill: #1f77b4; fill-opacity: 0.5; stroke: #000000; stroke-width: 0.249478; stroke-linejoin: miter"/>
   </g>
   <g id="patch_22">
    <path d="M 68.668551 244.078125 
L 69.299732 244.078125 
L 69.299732 244.078125 
L 68.668551 244.078125 
z
" clip-path="url(#p1eb36ab9e7)" style="fill: #1f77b4; fill-opacity: 0.5; stroke: #000000; stroke-width: 0.249478; stroke-linejoin: miter"/>
   </g>
   <g id="patch_23">
    <path d="M 69.299732 244.078125 
L 69.930912 244.078125 
L 69.930912 244.078125 
L 69.299732 244.078125 
z
" clip-path="url(#p1eb36ab9e7)" style="fill: #1f77b4; fill-opacity: 0.5; stroke: #000000; stroke-width: 0.249478; stroke-linejoin: miter"/>
   </g>
   <g id="patch_24">
    <path d="M 69.930912 244.078125 
L 70.562092 244.078125 
L 70.562092 228.318299 
L 69.930912 228.318299 
z
" clip-path="url(#p1eb36ab9e7)" style="fill: #1f77b4; fill-opacity: 0.5; stroke: #000000; stroke-width: 0.249478; stroke-linejoin: miter"/>
   </g>
   <g id="patch_25">
    <path d="M 70.562092 244.078125 
L 71.193273 244.078125 
L 71.193273 244.078125 
L 70.562092 244.078125 
z
" clip-path="url(#p1eb36ab9e7)" style="fill: #1f77b4; fill-opacity: 0.5; stroke: #000000; stroke-width: 0.249478; stroke-linejoin: miter"/>
   </g>
   <g id="patch_26">
    <path d="M 71.193273 244.078125 
L 71.824453 244.078125 
L 71.824453 244.078125 
L 71.193273 244.078125 
z
" clip-path="url(#p1eb36ab9e7)" style="fill: #1f77b4; fill-opacity: 0.5; stroke: #000000; stroke-width: 0.249478; stroke-linejoin: miter"/>
   </g>
   <g id="patch_27">
    <path d="M 71.824453 244.078125 
L 72.455633 244.078125 
L 72.455633 244.078125 
L 71.824453 244.078125 
z
" clip-path="url(#p1eb36ab9e7)" style="fill: #1f77b4; fill-opacity: 0.5; stroke: #000000; stroke-width: 0.249478; stroke-linejoin: miter"/>
   </g>
   <g id="patch_28">
    <path d="M 72.455633 244.078125 
L 73.086814 244.078125 
L 73.086814 244.078125 
L 72.455633 244.078125 
z
" clip-path="url(#p1eb36ab9e7)" style="fill: #1f77b4; fill-opacity: 0.5; stroke: #000000; stroke-width: 0.249478; stroke-linejoin: miter"/>
   </g>
   <g id="patch_29">
    <path d="M 73.086814 244.078125 
L 73.717994 244.078125 
L 73.717994 226.943895 
L 73.086814 226.943895 
z
" clip-path="url(#p1eb36ab9e7)" style="fill: #1f77b4; fill-opacity: 0.5; stroke: #000000; stroke-width: 0.249478; stroke-linejoin: miter"/>
   </g>
   <g id="patch_30">
    <path d="M 73.717994 244.078125 
L 74.349174 244.078125 
L 74.349174 244.078125 
L 73.717994 244.078125 
z
" clip-path="url(#p1eb36ab9e7)" style="fill: #1f77b4; fill-opacity: 0.5; stroke: #000000; stroke-width: 0.249478; stroke-linejoin: miter"/>
   </g>
   <g id="patch_31">
    <path d="M 74.349174 244.078125 
L 74.980355 244.078125 
L 74.980355 244.078125 
L 74.349174 244.078125 
z
" clip-path="url(#p1eb36ab9e7)" style="fill: #1f77b4; fill-opacity: 0.5; stroke: #000000; stroke-width: 0.249478; stroke-linejoin: miter"/>
   </g>
   <g id="patch_32">
    <path d="M 74.980355 244.078125 
L 75.611535 244.078125 
L 75.611535 244.078125 
L 74.980355 244.078125 
z
" clip-path="url(#p1eb36ab9e7)" style="fill: #1f77b4; fill-opacity: 0.5; stroke: #000000; stroke-width: 0.249478; stroke-linejoin: miter"/>
   </g>
   <g id="patch_33">
    <path d="M 75.611535 244.078125 
L 76.242715 244.078125 
L 76.242715 244.078125 
L 75.611535 244.078125 
z
" clip-path="url(#p1eb36ab9e7)" style="fill: #1f77b4; fill-opacity: 0.5; stroke: #000000; stroke-width: 0.249478; stroke-linejoin: miter"/>
   </g>
   <g id="patch_34">
    <path d="M 76.242715 244.078125 
L 76.873895 244.078125 
L 76.873895 189.743374 
L 76.242715 189.743374 
z
" clip-path="url(#p1eb36ab9e7)" style="fill: #1f77b4; fill-opacity: 0.5; stroke: #000000; stroke-width: 0.249478; stroke-linejoin: miter"/>
   </g>
   <g id="patch_35">
    <path d="M 76.873895 244.078125 
L 77.505076 244.078125 
L 77.505076 244.078125 
L 76.873895 244.078125 
z
" clip-path="url(#p1eb36ab9e7)" style="fill: #1f77b4; fill-opacity: 0.5; stroke: #000000; stroke-width: 0.249478; stroke-linejoin: miter"/>
   </g>
   <g id="patch_36">
    <path d="M 77.505076 244.078125 
L 78.136256 244.078125 
L 78.136256 244.078125 
L 77.505076 244.078125 
z
" clip-path="url(#p1eb36ab9e7)" style="fill: #1f77b4; fill-opacity: 0.5; stroke: #000000; stroke-width: 0.249478; stroke-linejoin: miter"/>
   </g>
   <g id="patch_37">
    <path d="M 78.136256 244.078125 
L 78.767436 244.078125 
L 78.767436 244.078125 
L 78.136256 244.078125 
z
" clip-path="url(#p1eb36ab9e7)" style="fill: #1f77b4; fill-opacity: 0.5; stroke: #000000; stroke-width: 0.249478; stroke-linejoin: miter"/>
   </g>
   <g id="patch_38">
    <path d="M 78.767436 244.078125 
L 79.398617 244.078125 
L 79.398617 244.078125 
L 78.767436 244.078125 
z
" clip-path="url(#p1eb36ab9e7)" style="fill: #1f77b4; fill-opacity: 0.5; stroke: #000000; stroke-width: 0.249478; stroke-linejoin: miter"/>
   </g>
   <g id="patch_39">
    <path d="M 79.398617 244.078125 
L 80.029797 244.078125 
L 80.029797 244.078125 
L 79.398617 244.078125 
z
" clip-path="url(#p1eb36ab9e7)" style="fill: #1f77b4; fill-opacity: 0.5; stroke: #000000; stroke-width: 0.249478; stroke-linejoin: miter"/>
   </g>
   <g id="patch_40">
    <path d="M 80.029797 244.078125 
L 80.660977 244.078125 
L 80.660977 32.878125 
L 80.029797 32.878125 
z
" clip-path="url(#p1eb36ab9e7)" style="fill: #1f77b4; fill-opacity: 0.5; stroke: #000000; stroke-width: 0.249478; stroke-linejoin: miter"/>
   </g>
   <g id="patch_41">
    <path d="M 80.660977 244.078125 
L 81.292158 244.078125 
L 81.292158 244.078125 
L 80.660977 244.078125 
z
" clip-path="url(#p1eb36ab9e7)" style="fill: #1f77b4; fill-opacity: 0.5; stroke: #000000; stroke-width: 0.249478; stroke-linejoin: miter"/>
   </g>
   <g id="patch_42">
    <path d="M 81.292158 244.078125 
L 81.923338 244.078125 
L 81.923338 244.078125 
L 81.292158 244.078125 
z
" clip-path="url(#p1eb36ab9e7)" style="fill: #1f77b4; fill-opacity: 0.5; stroke: #000000; stroke-width: 0.249478; stroke-linejoin: miter"/>
   </g>
   <g id="patch_43">
    <path d="M 81.923338 244.078125 
L 82.554518 244.078125 
L 82.554518 244.078125 
L 81.923338 244.078125 
z
" clip-path="url(#p1eb36ab9e7)" style="fill: #1f77b4; fill-opacity: 0.5; stroke: #000000; stroke-width: 0.249478; stroke-linejoin: miter"/>
   </g>
   <g id="patch_44">
    <path d="M 82.554518 244.078125 
L 83.185699 244.078125 
L 83.185699 244.078125 
L 82.554518 244.078125 
z
" clip-path="url(#p1eb36ab9e7)" style="fill: #1f77b4; fill-opacity: 0.5; stroke: #000000; stroke-width: 0.249478; stroke-linejoin: miter"/>
   </g>
   <g id="patch_45">
    <path d="M 83.185699 244.078125 
L 83.816879 244.078125 
L 83.816879 34.893917 
L 83.185699 34.893917 
z
" clip-path="url(#p1eb36ab9e7)" style="fill: #1f77b4; fill-opacity: 0.5; stroke: #000000; stroke-width: 0.249478; stroke-linejoin: miter"/>
   </g>
   <g id="patch_46">
    <path d="M 83.816879 244.078125 
L 84.448059 244.078125 
L 84.448059 244.078125 
L 83.816879 244.078125 
z
" clip-path="url(#p1eb36ab9e7)" style="fill: #1f77b4; fill-opacity: 0.5; stroke: #000000; stroke-width: 0.249478; stroke-linejoin: miter"/>
   </g>
   <g id="patch_47">
    <path d="M 84.448059 244.078125 
L 85.07924 244.078125 
L 85.07924 244.078125 
L 84.448059 244.078125 
z
" clip-path="url(#p1eb36ab9e7)" style="fill: #1f77b4; fill-opacity: 0.5; stroke: #000000; stroke-width: 0.249478; stroke-linejoin: miter"/>
   </g>
   <g id="patch_48">
    <path d="M 85.07924 244.078125 
L 85.71042 244.078125 
L 85.71042 244.078125 
L 85.07924 244.078125 
z
" clip-path="url(#p1eb36ab9e7)" style="fill: #1f77b4; fill-opacity: 0.5; stroke: #000000; stroke-width: 0.249478; stroke-linejoin: miter"/>
   </g>
   <g id="patch_49">
    <path d="M 85.71042 244.078125 
L 86.3416 244.078125 
L 86.3416 244.078125 
L 85.71042 244.078125 
z
" clip-path="url(#p1eb36ab9e7)" style="fill: #1f77b4; fill-opacity: 0.5; stroke: #000000; stroke-width: 0.249478; stroke-linejoin: miter"/>
   </g>
   <g id="patch_50">
    <path d="M 86.3416 244.078125 
L 86.972781 244.078125 
L 86.972781 184.887149 
L 86.3416 184.887149 
z
" clip-path="url(#p1eb36ab9e7)" style="fill: #1f77b4; fill-opacity: 0.5; stroke: #000000; stroke-width: 0.249478; stroke-linejoin: miter"/>
   </g>
   <g id="patch_51">
    <path d="M 86.972781 244.078125 
L 87.603961 244.078125 
L 87.603961 244.078125 
L 86.972781 244.078125 
z
" clip-path="url(#p1eb36ab9e7)" style="fill: #1f77b4; fill-opacity: 0.5; stroke: #000000; stroke-width: 0.249478; stroke-linejoin: miter"/>
   </g>
   <g id="patch_52">
    <path d="M 87.603961 244.078125 
L 88.235141 244.078125 
L 88.235141 244.078125 
L 87.603961 244.078125 
z
" clip-path="url(#p1eb36ab9e7)" style="fill: #1f77b4; fill-opacity: 0.5; stroke: #000000; stroke-width: 0.249478; stroke-linejoin: miter"/>
   </g>
   <g id="patch_53">
    <path d="M 88.235141 244.078125 
L 88.866322 244.078125 
L 88.866322 244.078125 
L 88.235141 244.078125 
z
" clip-path="url(#p1eb36ab9e7)" style="fill: #1f77b4; fill-opacity: 0.5; stroke: #000000; stroke-width: 0.249478; stroke-linejoin: miter"/>
   </g>
   <g id="patch_54">
    <path d="M 88.866322 244.078125 
L 89.497502 244.078125 
L 89.497502 244.078125 
L 88.866322 244.078125 
z
" clip-path="url(#p1eb36ab9e7)" style="fill: #1f77b4; fill-opacity: 0.5; stroke: #000000; stroke-width: 0.249478; stroke-linejoin: miter"/>
   </g>
   <g id="patch_55">
    <path d="M 89.497502 244.078125 
L 90.128682 244.078125 
L 90.128682 244.078125 
L 89.497502 244.078125 
z
" clip-path="url(#p1eb36ab9e7)" style="fill: #1f77b4; fill-opacity: 0.5; stroke: #000000; stroke-width: 0.249478; stroke-linejoin: miter"/>
   </g>
   <g id="patch_56">
    <path d="M 90.128682 244.078125 
L 90.759863 244.078125 
L 90.759863 218.789101 
L 90.128682 218.789101 
z
" clip-path="url(#p1eb36ab9e7)" style="fill: #1f77b4; fill-opacity: 0.5; stroke: #000000; stroke-width: 0.249478; stroke-linejoin: miter"/>
   </g>
   <g id="patch_57">
    <path d="M 90.759863 244.078125 
L 91.391043 244.078125 
L 91.391043 244.078125 
L 90.759863 244.078125 
z
" clip-path="url(#p1eb36ab9e7)" style="fill: #1f77b4; fill-opacity: 0.5; stroke: #000000; stroke-width: 0.249478; stroke-linejoin: miter"/>
   </g>
   <g id="patch_58">
    <path d="M 91.391043 244.078125 
L 92.022223 244.078125 
L 92.022223 244.078125 
L 91.391043 244.078125 
z
" clip-path="url(#p1eb36ab9e7)" style="fill: #1f77b4; fill-opacity: 0.5; stroke: #000000; stroke-width: 0.249478; stroke-linejoin: miter"/>
   </g>
   <g id="patch_59">
    <path d="M 92.022223 244.078125 
L 92.653404 244.078125 
L 92.653404 244.078125 
L 92.022223 244.078125 
z
" clip-path="url(#p1eb36ab9e7)" style="fill: #1f77b4; fill-opacity: 0.5; stroke: #000000; stroke-width: 0.249478; stroke-linejoin: miter"/>
   </g>
   <g id="patch_60">
    <path d="M 92.653404 244.078125 
L 93.284584 244.078125 
L 93.284584 244.078125 
L 92.653404 244.078125 
z
" clip-path="url(#p1eb36ab9e7)" style="fill: #1f77b4; fill-opacity: 0.5; stroke: #000000; stroke-width: 0.249478; stroke-linejoin: miter"/>
   </g>
   <g id="patch_61">
    <path d="M 93.284584 244.078125 
L 93.915764 244.078125 
L 93.915764 224.195088 
L 93.284584 224.195088 
z
" clip-path="url(#p1eb36ab9e7)" style="fill: #1f77b4; fill-opacity: 0.5; stroke: #000000; stroke-width: 0.249478; stroke-linejoin: miter"/>
   </g>
   <g id="patch_62">
    <path d="M 93.915764 244.078125 
L 94.546945 244.078125 
L 94.546945 244.078125 
L 93.915764 244.078125 
z
" clip-path="url(#p1eb36ab9e7)" style="fill: #1f77b4; fill-opacity: 0.5; stroke: #000000; stroke-width: 0.249478; stroke-linejoin: miter"/>
   </g>
   <g id="patch_63">
    <path d="M 94.546945 244.078125 
L 95.178125 244.078125 
L 95.178125 244.078125 
L 94.546945 244.078125 
z
" clip-path="url(#p1eb36ab9e7)" style="fill: #1f77b4; fill-opacity: 0.5; stroke: #000000; stroke-width: 0.249478; stroke-linejoin: miter"/>
   </g>
   <g id="patch_64">
    <path d="M 95.178125 244.078125 
L 95.809305 244.078125 
L 95.809305 244.078125 
L 95.178125 244.078125 
z
" clip-path="url(#p1eb36ab9e7)" style="fill: #1f77b4; fill-opacity: 0.5; stroke: #000000; stroke-width: 0.249478; stroke-linejoin: miter"/>
   </g>
   <g id="patch_65">
    <path d="M 95.809305 244.078125 
L 96.440486 244.078125 
L 96.440486 244.078125 
L 95.809305 244.078125 
z
" clip-path="url(#p1eb36ab9e7)" style="fill: #1f77b4; fill-opacity: 0.5; stroke: #000000; stroke-width: 0.249478; stroke-linejoin: miter"/>
   </g>
   <g id="patch_66">
    <path d="M 96.440486 244.078125 
L 97.071666 244.078125 
L 97.071666 222.179296 
L 96.440486 222.179296 
z
" clip-path="url(#p1eb36ab9e7)" style="fill: #1f77b4; fill-opacity: 0.5; stroke: #000000; stroke-width: 0.249478; stroke-linejoin: miter"/>
   </g>
   <g id="patch_67">
    <path d="M 97.071666 244.078125 
L 97.702846 244.078125 
L 97.702846 244.078125 
L 97.071666 244.078125 
z
" clip-path="url(#p1eb36ab9e7)" style="fill: #1f77b4; fill-opacity: 0.5; stroke: #000000; stroke-width: 0.249478; stroke-linejoin: miter"/>
   </g>
   <g id="patch_68">
    <path d="M 97.702846 244.078125 
L 98.334027 244.078125 
L 98.334027 244.078125 
L 97.702846 244.078125 
z
" clip-path="url(#p1eb36ab9e7)" style="fill: #1f77b4; fill-opacity: 0.5; stroke: #000000; stroke-width: 0.249478; stroke-linejoin: miter"/>
   </g>
   <g id="patch_69">
    <path d="M 98.334027 244.078125 
L 98.965207 244.078125 
L 98.965207 244.078125 
L 98.334027 244.078125 
z
" clip-path="url(#p1eb36ab9e7)" style="fill: #1f77b4; fill-opacity: 0.5; stroke: #000000; stroke-width: 0.249478; stroke-linejoin: miter"/>
   </g>
   <g id="patch_70">
    <path d="M 98.965207 244.078125 
L 99.596387 244.078125 
L 99.596387 244.078125 
L 98.965207 244.078125 
z
" clip-path="url(#p1eb36ab9e7)" style="fill: #1f77b4; fill-opacity: 0.5; stroke: #000000; stroke-width: 0.249478; stroke-linejoin: miter"/>
   </g>
   <g id="patch_71">
    <path d="M 99.596387 244.078125 
L 100.227568 244.078125 
L 100.227568 212.833353 
L 99.596387 212.833353 
z
" clip-path="url(#p1eb36ab9e7)" style="fill: #1f77b4; fill-opacity: 0.5; stroke: #000000; stroke-width: 0.249478; stroke-linejoin: miter"/>
   </g>
   <g id="patch_72">
    <path d="M 100.227568 244.078125 
L 100.858748 244.078125 
L 100.858748 244.078125 
L 100.227568 244.078125 
z
" clip-path="url(#p1eb36ab9e7)" style="fill: #1f77b4; fill-opacity: 0.5; stroke: #000000; stroke-width: 0.249478; stroke-linejoin: miter"/>
   </g>
   <g id="patch_73">
    <path d="M 100.858748 244.078125 
L 101.489928 244.078125 
L 101.489928 244.078125 
L 100.858748 244.078125 
z
" clip-path="url(#p1eb36ab9e7)" style="fill: #1f77b4; fill-opacity: 0.5; stroke: #000000; stroke-width: 0.249478; stroke-linejoin: miter"/>
   </g>
   <g id="patch_74">
    <path d="M 101.489928 244.078125 
L 102.121109 244.078125 
L 102.121109 244.078125 
L 101.489928 244.078125 
z
" clip-path="url(#p1eb36ab9e7)" style="fill: #1f77b4; fill-opacity: 0.5; stroke: #000000; stroke-width: 0.249478; stroke-linejoin: miter"/>
   </g>
   <g id="patch_75">
    <path d="M 102.121109 244.078125 
L 102.752289 244.078125 
L 102.752289 244.078125 
L 102.121109 244.078125 
z
" clip-path="url(#p1eb36ab9e7)" style="fill: #1f77b4; fill-opacity: 0.5; stroke: #000000; stroke-width: 0.249478; stroke-linejoin: miter"/>
   </g>
   <g id="patch_76">
    <path d="M 102.752289 244.078125 
L 103.383469 244.078125 
L 103.383469 244.078125 
L 102.752289 244.078125 
z
" clip-path="url(#p1eb36ab9e7)" style="fill: #1f77b4; fill-opacity: 0.5; stroke: #000000; stroke-width: 0.249478; stroke-linejoin: miter"/>
   </g>
   <g id="patch_77">
    <path d="M 103.383469 244.078125 
L 104.01465 244.078125 
L 104.01465 217.323071 
L 103.383469 217.323071 
z
" clip-path="url(#p1eb36ab9e7)" style="fill: #1f77b4; fill-opacity: 0.5; stroke: #000000; stroke-width: 0.249478; stroke-linejoin: miter"/>
   </g>
   <g id="patch_78">
    <path d="M 104.01465 244.078125 
L 104.64583 244.078125 
L 104.64583 244.078125 
L 104.01465 244.078125 
z
" clip-path="url(#p1eb36ab9e7)" style="fill: #1f77b4; fill-opacity: 0.5; stroke: #000000; stroke-width: 0.249478; stroke-linejoin: miter"/>
   </g>
   <g id="patch_79">
    <path d="M 104.64583 244.078125 
L 105.27701 244.078125 
L 105.27701 244.078125 
L 104.64583 244.078125 
z
" clip-path="url(#p1eb36ab9e7)" style="fill: #1f77b4; fill-opacity: 0.5; stroke: #000000; stroke-width: 0.249478; stroke-linejoin: miter"/>
   </g>
   <g id="patch_80">
    <path d="M 105.27701 244.078125 
L 105.908191 244.078125 
L 105.908191 244.078125 
L 105.27701 244.078125 
z
" clip-path="url(#p1eb36ab9e7)" style="fill: #1f77b4; fill-opacity: 0.5; stroke: #000000; stroke-width: 0.249478; stroke-linejoin: miter"/>
   </g>
   <g id="patch_81">
    <path d="M 105.908191 244.078125 
L 106.539371 244.078125 
L 106.539371 244.078125 
L 105.908191 244.078125 
z
" clip-path="url(#p1eb36ab9e7)" style="fill: #1f77b4; fill-opacity: 0.5; stroke: #000000; stroke-width: 0.249478; stroke-linejoin: miter"/>
   </g>
   <g id="patch_82">
    <path d="M 106.539371 244.078125 
L 107.170551 244.078125 
L 107.170551 208.343635 
L 106.539371 208.343635 
z
" clip-path="url(#p1eb36ab9e7)" style="fill: #1f77b4; fill-opacity: 0.5; stroke: #000000; stroke-width: 0.249478; stroke-linejoin: miter"/>
   </g>
   <g id="patch_83">
    <path d="M 107.170551 244.078125 
L 107.801732 244.078125 
L 107.801732 244.078125 
L 107.170551 244.078125 
z
" clip-path="url(#p1eb36ab9e7)" style="fill: #1f77b4; fill-opacity: 0.5; stroke: #000000; stroke-width: 0.249478; stroke-linejoin: miter"/>
   </g>
   <g id="patch_84">
    <path d="M 107.801732 244.078125 
L 108.432912 244.078125 
L 108.432912 244.078125 
L 107.801732 244.078125 
z
" clip-path="url(#p1eb36ab9e7)" style="fill: #1f77b4; fill-opacity: 0.5; stroke: #000000; stroke-width: 0.249478; stroke-linejoin: miter"/>
   </g>
   <g id="patch_85">
    <path d="M 108.432912 244.078125 
L 109.064092 244.078125 
L 109.064092 244.078125 
L 108.432912 244.078125 
z
" clip-path="url(#p1eb36ab9e7)" style="fill: #1f77b4; fill-opacity: 0.5; stroke: #000000; stroke-width: 0.249478; stroke-linejoin: miter"/>
   </g>
   <g id="patch_86">
    <path d="M 109.064092 244.078125 
L 109.695273 244.078125 
L 109.695273 244.078125 
L 109.064092 244.078125 
z
" clip-path="url(#p1eb36ab9e7)" style="fill: #1f77b4; fill-opacity: 0.5; stroke: #000000; stroke-width: 0.249478; stroke-linejoin: miter"/>
   </g>
   <g id="patch_87">
    <path d="M 109.695273 244.078125 
L 110.326453 244.078125 
L 110.326453 232.441509 
L 109.695273 232.441509 
z
" clip-path="url(#p1eb36ab9e7)" style="fill: #1f77b4; fill-opacity: 0.5; stroke: #000000; stroke-width: 0.249478; stroke-linejoin: miter"/>
   </g>
   <g id="patch_88">
    <path d="M 110.326453 244.078125 
L 110.957633 244.078125 
L 110.957633 244.078125 
L 110.326453 244.078125 
z
" clip-path="url(#p1eb36ab9e7)" style="fill: #1f77b4; fill-opacity: 0.5; stroke: #000000; stroke-width: 0.249478; stroke-linejoin: miter"/>
   </g>
   <g id="patch_89">
    <path d="M 110.957633 244.078125 
L 111.588814 244.078125 
L 111.588814 244.078125 
L 110.957633 244.078125 
z
" clip-path="url(#p1eb36ab9e7)" style="fill: #1f77b4; fill-opacity: 0.5; stroke: #000000; stroke-width: 0.249478; stroke-linejoin: miter"/>
   </g>
   <g id="patch_90">
    <path d="M 111.588814 244.078125 
L 112.219994 244.078125 
L 112.219994 244.078125 
L 111.588814 244.078125 
z
" clip-path="url(#p1eb36ab9e7)" style="fill: #1f77b4; fill-opacity: 0.5; stroke: #000000; stroke-width: 0.249478; stroke-linejoin: miter"/>
   </g>
   <g id="patch_91">
    <path d="M 112.219994 244.078125 
L 112.851174 244.078125 
L 112.851174 244.078125 
L 112.219994 244.078125 
z
" clip-path="url(#p1eb36ab9e7)" style="fill: #1f77b4; fill-opacity: 0.5; stroke: #000000; stroke-width: 0.249478; stroke-linejoin: miter"/>
   </g>
   <g id="patch_92">
    <path d="M 112.851174 244.078125 
L 113.482355 244.078125 
L 113.482355 244.078125 
L 112.851174 244.078125 
z
" clip-path="url(#p1eb36ab9e7)" style="fill: #1f77b4; fill-opacity: 0.5; stroke: #000000; stroke-width: 0.249478; stroke-linejoin: miter"/>
   </g>
   <g id="patch_93">
    <path d="M 113.482355 244.078125 
L 114.113535 244.078125 
L 114.113535 235.190316 
L 113.482355 235.190316 
z
" clip-path="url(#p1eb36ab9e7)" style="fill: #1f77b4; fill-opacity: 0.5; stroke: #000000; stroke-width: 0.249478; stroke-linejoin: miter"/>
   </g>
   <g id="patch_94">
    <path d="M 114.113535 244.078125 
L 114.744715 244.078125 
L 114.744715 244.078125 
L 114.113535 244.078125 
z
" clip-path="url(#p1eb36ab9e7)" style="fill: #1f77b4; fill-opacity: 0.5; stroke: #000000; stroke-width: 0.249478; stroke-linejoin: miter"/>
   </g>
   <g id="patch_95">
    <path d="M 114.744715 244.078125 
L 115.375895 244.078125 
L 115.375895 244.078125 
L 114.744715 244.078125 
z
" clip-path="url(#p1eb36ab9e7)" style="fill: #1f77b4; fill-opacity: 0.5; stroke: #000000; stroke-width: 0.249478; stroke-linejoin: miter"/>
   </g>
   <g id="patch_96">
    <path d="M 115.375895 244.078125 
L 116.007076 244.078125 
L 116.007076 244.078125 
L 115.375895 244.078125 
z
" clip-path="url(#p1eb36ab9e7)" style="fill: #1f77b4; fill-opacity: 0.5; stroke: #000000; stroke-width: 0.249478; stroke-linejoin: miter"/>
   </g>
   <g id="patch_97">
    <path d="M 116.007076 244.078125 
L 116.638256 244.078125 
L 116.638256 244.078125 
L 116.007076 244.078125 
z
" clip-path="url(#p1eb36ab9e7)" style="fill: #1f77b4; fill-opacity: 0.5; stroke: #000000; stroke-width: 0.249478; stroke-linejoin: miter"/>
   </g>
   <g id="patch_98">
    <path d="M 116.638256 244.078125 
L 117.269436 244.078125 
L 117.269436 240.229795 
L 116.638256 240.229795 
z
" clip-path="url(#p1eb36ab9e7)" style="fill: #1f77b4; fill-opacity: 0.5; stroke: #000000; stroke-width: 0.249478; stroke-linejoin: miter"/>
   </g>
   <g id="patch_99">
    <path d="M 117.269436 244.078125 
L 117.900617 244.078125 
L 117.900617 244.078125 
L 117.269436 244.078125 
z
" clip-path="url(#p1eb36ab9e7)" style="fill: #1f77b4; fill-opacity: 0.5; stroke: #000000; stroke-width: 0.249478; stroke-linejoin: miter"/>
   </g>
   <g id="patch_100">
    <path d="M 117.900617 244.078125 
L 118.531797 244.078125 
L 118.531797 244.078125 
L 117.900617 244.078125 
z
" clip-path="url(#p1eb36ab9e7)" style="fill: #1f77b4; fill-opacity: 0.5; stroke: #000000; stroke-width: 0.249478; stroke-linejoin: miter"/>
   </g>
   <g id="patch_101">
    <path d="M 118.531797 244.078125 
L 119.162977 244.078125 
L 119.162977 244.078125 
L 118.531797 244.078125 
z
" clip-path="url(#p1eb36ab9e7)" style="fill: #1f77b4; fill-opacity: 0.5; stroke: #000000; stroke-width: 0.249478; stroke-linejoin: miter"/>
   </g>
   <g id="patch_102">
    <path d="M 119.162977 244.078125 
L 119.794158 244.078125 
L 119.794158 244.078125 
L 119.162977 244.078125 
z
" clip-path="url(#p1eb36ab9e7)" style="fill: #1f77b4; fill-opacity: 0.5; stroke: #000000; stroke-width: 0.249478; stroke-linejoin: miter"/>
   </g>
   <g id="patch_103">
    <path d="M 119.794158 244.078125 
L 120.425338 244.078125 
L 120.425338 242.15396 
L 119.794158 242.15396 
z
" clip-path="url(#p1eb36ab9e7)" style="fill: #1f77b4; fill-opacity: 0.5; stroke: #000000; stroke-width: 0.249478; stroke-linejoin: miter"/>
   </g>
   <g id="patch_104">
    <path d="M 120.425338 244.078125 
L 121.056518 244.078125 
L 121.056518 244.078125 
L 120.425338 244.078125 
z
" clip-path="url(#p1eb36ab9e7)" style="fill: #1f77b4; fill-opacity: 0.5; stroke: #000000; stroke-width: 0.249478; stroke-linejoin: miter"/>
   </g>
   <g id="patch_105">
    <path d="M 121.056518 244.078125 
L 121.687699 244.078125 
L 121.687699 244.078125 
L 121.056518 244.078125 
z
" clip-path="url(#p1eb36ab9e7)" style="fill: #1f77b4; fill-opacity: 0.5; stroke: #000000; stroke-width: 0.249478; stroke-linejoin: miter"/>
   </g>
   <g id="patch_106">
    <path d="M 121.687699 244.078125 
L 122.318879 244.078125 
L 122.318879 244.078125 
L 121.687699 244.078125 
z
" clip-path="url(#p1eb36ab9e7)" style="fill: #1f77b4; fill-opacity: 0.5; stroke: #000000; stroke-width: 0.249478; stroke-linejoin: miter"/>
   </g>
   <g id="patch_107">
    <path d="M 122.318879 244.078125 
L 122.950059 244.078125 
L 122.950059 244.078125 
L 122.318879 244.078125 
z
" clip-path="url(#p1eb36ab9e7)" style="fill: #1f77b4; fill-opacity: 0.5; stroke: #000000; stroke-width: 0.249478; stroke-linejoin: miter"/>
   </g>
   <g id="patch_108">
    <path d="M 122.950059 244.078125 
L 123.58124 244.078125 
L 123.58124 244.078125 
L 122.950059 244.078125 
z
" clip-path="url(#p1eb36ab9e7)" style="fill: #1f77b4; fill-opacity: 0.5; stroke: #000000; stroke-width: 0.249478; stroke-linejoin: miter"/>
   </g>
   <g id="patch_109">
    <path d="M 123.58124 244.078125 
L 124.21242 244.078125 
L 124.21242 243.619991 
L 123.58124 243.619991 
z
" clip-path="url(#p1eb36ab9e7)" style="fill: #1f77b4; fill-opacity: 0.5; stroke: #000000; stroke-width: 0.249478; stroke-linejoin: miter"/>
   </g>
   <g id="patch_110">
    <path d="M 124.21242 244.078125 
L 124.8436 244.078125 
L 124.8436 244.078125 
L 124.21242 244.078125 
z
" clip-path="url(#p1eb36ab9e7)" style="fill: #1f77b4; fill-opacity: 0.5; stroke: #000000; stroke-width: 0.249478; stroke-linejoin: miter"/>
   </g>
   <g id="patch_111">
    <path d="M 124.8436 244.078125 
L 125.474781 244.078125 
L 125.474781 244.078125 
L 124.8436 244.078125 
z
" clip-path="url(#p1eb36ab9e7)" style="fill: #1f77b4; fill-opacity: 0.5; stroke: #000000; stroke-width: 0.249478; stroke-linejoin: miter"/>
   </g>
   <g id="patch_112">
    <path d="M 125.474781 244.078125 
L 126.105961 244.078125 
L 126.105961 244.078125 
L 125.474781 244.078125 
z
" clip-path="url(#p1eb36ab9e7)" style="fill: #1f77b4; fill-opacity: 0.5; stroke: #000000; stroke-width: 0.249478; stroke-linejoin: miter"/>
   </g>
   <g id="patch_113">
    <path d="M 126.105961 244.078125 
L 126.737141 244.078125 
L 126.737141 244.078125 
L 126.105961 244.078125 
z
" clip-path="url(#p1eb36ab9e7)" style="fill: #1f77b4; fill-opacity: 0.5; stroke: #000000; stroke-width: 0.249478; stroke-linejoin: miter"/>
   </g>
   <g id="patch_114">
    <path d="M 126.737141 244.078125 
L 127.368322 244.078125 
L 127.368322 243.161856 
L 126.737141 243.161856 
z
" clip-path="url(#p1eb36ab9e7)" style="fill: #1f77b4; fill-opacity: 0.5; stroke: #000000; stroke-width: 0.249478; stroke-linejoin: miter"/>
   </g>
   <g id="patch_115">
    <path d="M 127.368322 244.078125 
L 127.999502 244.078125 
L 127.999502 244.078125 
L 127.368322 244.078125 
z
" clip-path="url(#p1eb36ab9e7)" style="fill: #1f77b4; fill-opacity: 0.5; stroke: #000000; stroke-width: 0.249478; stroke-linejoin: miter"/>
   </g>
   <g id="patch_116">
    <path d="M 127.999502 244.078125 
L 128.630682 244.078125 
L 128.630682 244.078125 
L 127.999502 244.078125 
z
" clip-path="url(#p1eb36ab9e7)" style="fill: #1f77b4; fill-opacity: 0.5; stroke: #000000; stroke-width: 0.249478; stroke-linejoin: miter"/>
   </g>
   <g id="patch_117">
    <path d="M 128.630682 244.078125 
L 129.261863 244.078125 
L 129.261863 244.078125 
L 128.630682 244.078125 
z
" clip-path="url(#p1eb36ab9e7)" style="fill: #1f77b4; fill-opacity: 0.5; stroke: #000000; stroke-width: 0.249478; stroke-linejoin: miter"/>
   </g>
   <g id="patch_118">
    <path d="M 129.261863 244.078125 
L 129.893043 244.078125 
L 129.893043 244.078125 
L 129.261863 244.078125 
z
" clip-path="url(#p1eb36ab9e7)" style="fill: #1f77b4; fill-opacity: 0.5; stroke: #000000; stroke-width: 0.249478; stroke-linejoin: miter"/>
   </g>
   <g id="patch_119">
    <path d="M 129.893043 244.078125 
L 130.524223 244.078125 
L 130.524223 243.803244 
L 129.893043 243.803244 
z
" clip-path="url(#p1eb36ab9e7)" style="fill: #1f77b4; fill-opacity: 0.5; stroke: #000000; stroke-width: 0.249478; stroke-linejoin: miter"/>
   </g>
   <g id="patch_120">
    <path d="M 130.524223 244.078125 
L 131.155404 244.078125 
L 131.155404 244.078125 
L 130.524223 244.078125 
z
" clip-path="url(#p1eb36ab9e7)" style="fill: #1f77b4; fill-opacity: 0.5; stroke: #000000; stroke-width: 0.249478; stroke-linejoin: miter"/>
   </g>
   <g id="patch_121">
    <path d="M 131.155404 244.078125 
L 131.786584 244.078125 
L 131.786584 244.078125 
L 131.155404 244.078125 
z
" clip-path="url(#p1eb36ab9e7)" style="fill: #1f77b4; fill-opacity: 0.5; stroke: #000000; stroke-width: 0.249478; stroke-linejoin: miter"/>
   </g>
   <g id="patch_122">
    <path d="M 131.786584 244.078125 
L 132.417764 244.078125 
L 132.417764 244.078125 
L 131.786584 244.078125 
z
" clip-path="url(#p1eb36ab9e7)" style="fill: #1f77b4; fill-opacity: 0.5; stroke: #000000; stroke-width: 0.249478; stroke-linejoin: miter"/>
   </g>
   <g id="patch_123">
    <path d="M 132.417764 244.078125 
L 133.048945 244.078125 
L 133.048945 244.078125 
L 132.417764 244.078125 
z
" clip-path="url(#p1eb36ab9e7)" style="fill: #1f77b4; fill-opacity: 0.5; stroke: #000000; stroke-width: 0.249478; stroke-linejoin: miter"/>
   </g>
   <g id="patch_124">
    <path d="M 133.048945 244.078125 
L 133.680125 244.078125 
L 133.680125 243.986498 
L 133.048945 243.986498 
z
" clip-path="url(#p1eb36ab9e7)" style="fill: #1f77b4; fill-opacity: 0.5; stroke: #000000; stroke-width: 0.249478; stroke-linejoin: miter"/>
   </g>
   <g id="matplotlib.axis_1">
    <g id="xtick_1">
     <g id="line2d_1">
      <defs>
       <path id="m941a0df0ec" d="M 0 0 
L 0 3.5 
" style="stroke: #000000; stroke-width: 0.8"/>
      </defs>
      <g>
       <use xlink:href="#m941a0df0ec" x="53.328125" y="244.078125" style="stroke: #000000; stroke-width: 0.8"/>
      </g>
     </g>
     <g id="text_1">
      <!-- 0 -->
      <g transform="translate(50.146875 258.676562) scale(0.1 -0.1)">
       <defs>
        <path id="DejaVuSans-30" d="M 2034 4250 
Q 1547 4250 1301 3770 
Q 1056 3291 1056 2328 
Q 1056 1369 1301 889 
Q 1547 409 2034 409 
Q 2525 409 2770 889 
Q 3016 1369 3016 2328 
Q 3016 3291 2770 3770 
Q 2525 4250 2034 4250 
z
M 2034 4750 
Q 2819 4750 3233 4129 
Q 3647 3509 3647 2328 
Q 3647 1150 3233 529 
Q 2819 -91 2034 -91 
Q 1250 -91 836 529 
Q 422 1150 422 2328 
Q 422 3509 836 4129 
Q 1250 4750 2034 4750 
z
" transform="scale(0.015625)"/>
       </defs>
       <use xlink:href="#DejaVuSans-30"/>
      </g>
     </g>
    </g>
    <g id="xtick_2">
     <g id="line2d_2">
      <g>
       <use xlink:href="#m941a0df0ec" x="120.288125" y="244.078125" style="stroke: #000000; stroke-width: 0.8"/>
      </g>
     </g>
     <g id="text_2">
      <!-- 20 -->
      <g transform="translate(113.925625 258.676562) scale(0.1 -0.1)">
       <defs>
        <path id="DejaVuSans-32" d="M 1228 531 
L 3431 531 
L 3431 0 
L 469 0 
L 469 531 
Q 828 903 1448 1529 
Q 2069 2156 2228 2338 
Q 2531 2678 2651 2914 
Q 2772 3150 2772 3378 
Q 2772 3750 2511 3984 
Q 2250 4219 1831 4219 
Q 1534 4219 1204 4116 
Q 875 4013 500 3803 
L 500 4441 
Q 881 4594 1212 4672 
Q 1544 4750 1819 4750 
Q 2544 4750 2975 4387 
Q 3406 4025 3406 3419 
Q 3406 3131 3298 2873 
Q 3191 2616 2906 2266 
Q 2828 2175 2409 1742 
Q 1991 1309 1228 531 
z
" transform="scale(0.015625)"/>
       </defs>
       <use xlink:href="#DejaVuSans-32"/>
       <use xlink:href="#DejaVuSans-30" transform="translate(63.623047 0)"/>
      </g>
     </g>
    </g>
    <g id="xtick_3">
     <g id="line2d_3">
      <g>
       <use xlink:href="#m941a0df0ec" x="187.248125" y="244.078125" style="stroke: #000000; stroke-width: 0.8"/>
      </g>
     </g>
     <g id="text_3">
      <!-- 40 -->
      <g transform="translate(180.885625 258.676562) scale(0.1 -0.1)">
       <defs>
        <path id="DejaVuSans-34" d="M 2419 4116 
L 825 1625 
L 2419 1625 
L 2419 4116 
z
M 2253 4666 
L 3047 4666 
L 3047 1625 
L 3713 1625 
L 3713 1100 
L 3047 1100 
L 3047 0 
L 2419 0 
L 2419 1100 
L 313 1100 
L 313 1709 
L 2253 4666 
z
" transform="scale(0.015625)"/>
       </defs>
       <use xlink:href="#DejaVuSans-34"/>
       <use xlink:href="#DejaVuSans-30" transform="translate(63.623047 0)"/>
      </g>
     </g>
    </g>
    <g id="xtick_4">
     <g id="line2d_4">
      <g>
       <use xlink:href="#m941a0df0ec" x="254.208125" y="244.078125" style="stroke: #000000; stroke-width: 0.8"/>
      </g>
     </g>
     <g id="text_4">
      <!-- 60 -->
      <g transform="translate(247.845625 258.676562) scale(0.1 -0.1)">
       <defs>
        <path id="DejaVuSans-36" d="M 2113 2584 
Q 1688 2584 1439 2293 
Q 1191 2003 1191 1497 
Q 1191 994 1439 701 
Q 1688 409 2113 409 
Q 2538 409 2786 701 
Q 3034 994 3034 1497 
Q 3034 2003 2786 2293 
Q 2538 2584 2113 2584 
z
M 3366 4563 
L 3366 3988 
Q 3128 4100 2886 4159 
Q 2644 4219 2406 4219 
Q 1781 4219 1451 3797 
Q 1122 3375 1075 2522 
Q 1259 2794 1537 2939 
Q 1816 3084 2150 3084 
Q 2853 3084 3261 2657 
Q 3669 2231 3669 1497 
Q 3669 778 3244 343 
Q 2819 -91 2113 -91 
Q 1303 -91 875 529 
Q 447 1150 447 2328 
Q 447 3434 972 4092 
Q 1497 4750 2381 4750 
Q 2619 4750 2861 4703 
Q 3103 4656 3366 4563 
z
" transform="scale(0.015625)"/>
       </defs>
       <use xlink:href="#DejaVuSans-36"/>
       <use xlink:href="#DejaVuSans-30" transform="translate(63.623047 0)"/>
      </g>
     </g>
    </g>
    <g id="xtick_5">
     <g id="line2d_5">
      <g>
       <use xlink:href="#m941a0df0ec" x="321.168125" y="244.078125" style="stroke: #000000; stroke-width: 0.8"/>
      </g>
     </g>
     <g id="text_5">
      <!-- 80 -->
      <g transform="translate(314.805625 258.676562) scale(0.1 -0.1)">
       <defs>
        <path id="DejaVuSans-38" d="M 2034 2216 
Q 1584 2216 1326 1975 
Q 1069 1734 1069 1313 
Q 1069 891 1326 650 
Q 1584 409 2034 409 
Q 2484 409 2743 651 
Q 3003 894 3003 1313 
Q 3003 1734 2745 1975 
Q 2488 2216 2034 2216 
z
M 1403 2484 
Q 997 2584 770 2862 
Q 544 3141 544 3541 
Q 544 4100 942 4425 
Q 1341 4750 2034 4750 
Q 2731 4750 3128 4425 
Q 3525 4100 3525 3541 
Q 3525 3141 3298 2862 
Q 3072 2584 2669 2484 
Q 3125 2378 3379 2068 
Q 3634 1759 3634 1313 
Q 3634 634 3220 271 
Q 2806 -91 2034 -91 
Q 1263 -91 848 271 
Q 434 634 434 1313 
Q 434 1759 690 2068 
Q 947 2378 1403 2484 
z
M 1172 3481 
Q 1172 3119 1398 2916 
Q 1625 2713 2034 2713 
Q 2441 2713 2670 2916 
Q 2900 3119 2900 3481 
Q 2900 3844 2670 4047 
Q 2441 4250 2034 4250 
Q 1625 4250 1398 4047 
Q 1172 3844 1172 3481 
z
" transform="scale(0.015625)"/>
       </defs>
       <use xlink:href="#DejaVuSans-38"/>
       <use xlink:href="#DejaVuSans-30" transform="translate(63.623047 0)"/>
      </g>
     </g>
    </g>
    <g id="xtick_6">
     <g id="line2d_6">
      <g>
       <use xlink:href="#m941a0df0ec" x="388.128125" y="244.078125" style="stroke: #000000; stroke-width: 0.8"/>
      </g>
     </g>
     <g id="text_6">
      <!-- 100 -->
      <g transform="translate(378.584375 258.676562) scale(0.1 -0.1)">
       <defs>
        <path id="DejaVuSans-31" d="M 794 531 
L 1825 531 
L 1825 4091 
L 703 3866 
L 703 4441 
L 1819 4666 
L 2450 4666 
L 2450 531 
L 3481 531 
L 3481 0 
L 794 0 
L 794 531 
z
" transform="scale(0.015625)"/>
       </defs>
       <use xlink:href="#DejaVuSans-31"/>
       <use xlink:href="#DejaVuSans-30" transform="translate(63.623047 0)"/>
       <use xlink:href="#DejaVuSans-30" transform="translate(127.246094 0)"/>
      </g>
     </g>
    </g>
    <g id="text_7">
     <!-- exp -->
     <g transform="translate(211.605469 272.354687) scale(0.1 -0.1)">
      <defs>
       <path id="DejaVuSans-65" d="M 3597 1894 
L 3597 1613 
L 953 1613 
Q 991 1019 1311 708 
Q 1631 397 2203 397 
Q 2534 397 2845 478 
Q 3156 559 3463 722 
L 3463 178 
Q 3153 47 2828 -22 
Q 2503 -91 2169 -91 
Q 1331 -91 842 396 
Q 353 884 353 1716 
Q 353 2575 817 3079 
Q 1281 3584 2069 3584 
Q 2775 3584 3186 3129 
Q 3597 2675 3597 1894 
z
M 3022 2063 
Q 3016 2534 2758 2815 
Q 2500 3097 2075 3097 
Q 1594 3097 1305 2825 
Q 1016 2553 972 2059 
L 3022 2063 
z
" transform="scale(0.015625)"/>
       <path id="DejaVuSans-78" d="M 3513 3500 
L 2247 1797 
L 3578 0 
L 2900 0 
L 1881 1375 
L 863 0 
L 184 0 
L 1544 1831 
L 300 3500 
L 978 3500 
L 1906 2253 
L 2834 3500 
L 3513 3500 
z
" transform="scale(0.015625)"/>
       <path id="DejaVuSans-70" d="M 1159 525 
L 1159 -1331 
L 581 -1331 
L 581 3500 
L 1159 3500 
L 1159 2969 
Q 1341 3281 1617 3432 
Q 1894 3584 2278 3584 
Q 2916 3584 3314 3078 
Q 3713 2572 3713 1747 
Q 3713 922 3314 415 
Q 2916 -91 2278 -91 
Q 1894 -91 1617 61 
Q 1341 213 1159 525 
z
M 3116 1747 
Q 3116 2381 2855 2742 
Q 2594 3103 2138 3103 
Q 1681 3103 1420 2742 
Q 1159 2381 1159 1747 
Q 1159 1113 1420 752 
Q 1681 391 2138 391 
Q 2594 391 2855 752 
Q 3116 1113 3116 1747 
z
" transform="scale(0.015625)"/>
      </defs>
      <use xlink:href="#DejaVuSans-65"/>
      <use xlink:href="#DejaVuSans-78" transform="translate(59.773438 0)"/>
      <use xlink:href="#DejaVuSans-70" transform="translate(118.953125 0)"/>
     </g>
    </g>
   </g>
   <g id="matplotlib.axis_2">
    <g id="ytick_1">
     <g id="line2d_7">
      <defs>
       <path id="m1703672821" d="M 0 0 
L -3.5 0 
" style="stroke: #000000; stroke-width: 0.8"/>
      </defs>
      <g>
       <use xlink:href="#m1703672821" x="53.328125" y="244.078125" style="stroke: #000000; stroke-width: 0.8"/>
      </g>
     </g>
     <g id="text_8">
      <!-- 0 -->
      <g transform="translate(39.965625 247.877344) scale(0.1 -0.1)">
       <use xlink:href="#DejaVuSans-30"/>
      </g>
     </g>
    </g>
    <g id="ytick_2">
     <g id="line2d_8">
      <g>
       <use xlink:href="#m1703672821" x="53.328125" y="198.264676" style="stroke: #000000; stroke-width: 0.8"/>
      </g>
     </g>
     <g id="text_9">
      <!-- 500 -->
      <g transform="translate(27.240625 202.063895) scale(0.1 -0.1)">
       <defs>
        <path id="DejaVuSans-35" d="M 691 4666 
L 3169 4666 
L 3169 4134 
L 1269 4134 
L 1269 2991 
Q 1406 3038 1543 3061 
Q 1681 3084 1819 3084 
Q 2600 3084 3056 2656 
Q 3513 2228 3513 1497 
Q 3513 744 3044 326 
Q 2575 -91 1722 -91 
Q 1428 -91 1123 -41 
Q 819 9 494 109 
L 494 744 
Q 775 591 1075 516 
Q 1375 441 1709 441 
Q 2250 441 2565 725 
Q 2881 1009 2881 1497 
Q 2881 1984 2565 2268 
Q 2250 2553 1709 2553 
Q 1456 2553 1204 2497 
Q 953 2441 691 2322 
L 691 4666 
z
" transform="scale(0.015625)"/>
       </defs>
       <use xlink:href="#DejaVuSans-35"/>
       <use xlink:href="#DejaVuSans-30" transform="translate(63.623047 0)"/>
       <use xlink:href="#DejaVuSans-30" transform="translate(127.246094 0)"/>
      </g>
     </g>
    </g>
    <g id="ytick_3">
     <g id="line2d_9">
      <g>
       <use xlink:href="#m1703672821" x="53.328125" y="152.451227" style="stroke: #000000; stroke-width: 0.8"/>
      </g>
     </g>
     <g id="text_10">
      <!-- 1000 -->
      <g transform="translate(20.878125 156.250446) scale(0.1 -0.1)">
       <use xlink:href="#DejaVuSans-31"/>
       <use xlink:href="#DejaVuSans-30" transform="translate(63.623047 0)"/>
       <use xlink:href="#DejaVuSans-30" transform="translate(127.246094 0)"/>
       <use xlink:href="#DejaVuSans-30" transform="translate(190.869141 0)"/>
      </g>
     </g>
    </g>
    <g id="ytick_4">
     <g id="line2d_10">
      <g>
       <use xlink:href="#m1703672821" x="53.328125" y="106.637778" style="stroke: #000000; stroke-width: 0.8"/>
      </g>
     </g>
     <g id="text_11">
      <!-- 1500 -->
      <g transform="translate(20.878125 110.436997) scale(0.1 -0.1)">
       <use xlink:href="#DejaVuSans-31"/>
       <use xlink:href="#DejaVuSans-35" transform="translate(63.623047 0)"/>
       <use xlink:href="#DejaVuSans-30" transform="translate(127.246094 0)"/>
       <use xlink:href="#DejaVuSans-30" transform="translate(190.869141 0)"/>
      </g>
     </g>
    </g>
    <g id="ytick_5">
     <g id="line2d_11">
      <g>
       <use xlink:href="#m1703672821" x="53.328125" y="60.824329" style="stroke: #000000; stroke-width: 0.8"/>
      </g>
     </g>
     <g id="text_12">
      <!-- 2000 -->
      <g transform="translate(20.878125 64.623548) scale(0.1 -0.1)">
       <use xlink:href="#DejaVuSans-32"/>
       <use xlink:href="#DejaVuSans-30" transform="translate(63.623047 0)"/>
       <use xlink:href="#DejaVuSans-30" transform="translate(127.246094 0)"/>
       <use xlink:href="#DejaVuSans-30" transform="translate(190.869141 0)"/>
      </g>
     </g>
    </g>
    <g id="text_13">
     <!-- Count -->
     <g transform="translate(14.798438 148.046562) rotate(-90) scale(0.1 -0.1)">
      <defs>
       <path id="DejaVuSans-43" d="M 4122 4306 
L 4122 3641 
Q 3803 3938 3442 4084 
Q 3081 4231 2675 4231 
Q 1875 4231 1450 3742 
Q 1025 3253 1025 2328 
Q 1025 1406 1450 917 
Q 1875 428 2675 428 
Q 3081 428 3442 575 
Q 3803 722 4122 1019 
L 4122 359 
Q 3791 134 3420 21 
Q 3050 -91 2638 -91 
Q 1578 -91 968 557 
Q 359 1206 359 2328 
Q 359 3453 968 4101 
Q 1578 4750 2638 4750 
Q 3056 4750 3426 4639 
Q 3797 4528 4122 4306 
z
" transform="scale(0.015625)"/>
       <path id="DejaVuSans-6f" d="M 1959 3097 
Q 1497 3097 1228 2736 
Q 959 2375 959 1747 
Q 959 1119 1226 758 
Q 1494 397 1959 397 
Q 2419 397 2687 759 
Q 2956 1122 2956 1747 
Q 2956 2369 2687 2733 
Q 2419 3097 1959 3097 
z
M 1959 3584 
Q 2709 3584 3137 3096 
Q 3566 2609 3566 1747 
Q 3566 888 3137 398 
Q 2709 -91 1959 -91 
Q 1206 -91 779 398 
Q 353 888 353 1747 
Q 353 2609 779 3096 
Q 1206 3584 1959 3584 
z
" transform="scale(0.015625)"/>
       <path id="DejaVuSans-75" d="M 544 1381 
L 544 3500 
L 1119 3500 
L 1119 1403 
Q 1119 906 1312 657 
Q 1506 409 1894 409 
Q 2359 409 2629 706 
Q 2900 1003 2900 1516 
L 2900 3500 
L 3475 3500 
L 3475 0 
L 2900 0 
L 2900 538 
Q 2691 219 2414 64 
Q 2138 -91 1772 -91 
Q 1169 -91 856 284 
Q 544 659 544 1381 
z
M 1991 3584 
L 1991 3584 
z
" transform="scale(0.015625)"/>
       <path id="DejaVuSans-6e" d="M 3513 2113 
L 3513 0 
L 2938 0 
L 2938 2094 
Q 2938 2591 2744 2837 
Q 2550 3084 2163 3084 
Q 1697 3084 1428 2787 
Q 1159 2491 1159 1978 
L 1159 0 
L 581 0 
L 581 3500 
L 1159 3500 
L 1159 2956 
Q 1366 3272 1645 3428 
Q 1925 3584 2291 3584 
Q 2894 3584 3203 3211 
Q 3513 2838 3513 2113 
z
" transform="scale(0.015625)"/>
       <path id="DejaVuSans-74" d="M 1172 4494 
L 1172 3500 
L 2356 3500 
L 2356 3053 
L 1172 3053 
L 1172 1153 
Q 1172 725 1289 603 
Q 1406 481 1766 481 
L 2356 481 
L 2356 0 
L 1766 0 
Q 1100 0 847 248 
Q 594 497 594 1153 
L 594 3053 
L 172 3053 
L 172 3500 
L 594 3500 
L 594 4494 
L 1172 4494 
z
" transform="scale(0.015625)"/>
      </defs>
      <use xlink:href="#DejaVuSans-43"/>
      <use xlink:href="#DejaVuSans-6f" transform="translate(69.824219 0)"/>
      <use xlink:href="#DejaVuSans-75" transform="translate(131.005859 0)"/>
      <use xlink:href="#DejaVuSans-6e" transform="translate(194.384766 0)"/>
      <use xlink:href="#DejaVuSans-74" transform="translate(257.763672 0)"/>
     </g>
    </g>
   </g>
   <g id="line2d_12">
    <path d="M 56.676125 237.571378 
L 57.06308 237.640748 
L 57.450035 237.920917 
L 58.223944 238.961208 
L 59.771763 241.464616 
L 60.545673 242.284082 
L 61.319582 242.685658 
L 62.093492 242.705499 
L 62.867401 242.377582 
L 63.641311 241.716318 
L 64.802175 240.241709 
L 65.96304 238.804762 
L 66.736949 238.326867 
L 67.123904 238.292178 
L 67.897813 238.59044 
L 70.606497 240.507962 
L 71.380406 240.651893 
L 72.154316 240.521098 
L 72.928226 240.075556 
L 73.702135 239.244425 
L 74.476045 237.930061 
L 75.249954 236.018425 
L 76.023864 233.368931 
L 76.797773 229.810798 
L 77.571683 225.257666 
L 79.893411 210.338966 
L 80.667321 207.570629 
L 81.054276 206.78961 
L 81.441231 206.36419 
L 81.828185 206.259148 
L 82.21514 206.460096 
L 82.602095 206.979124 
L 82.98905 207.847249 
L 83.376004 209.096693 
L 84.149914 212.752992 
L 85.310778 220.195221 
L 86.471643 227.434102 
L 87.245552 231.181064 
L 88.019462 233.998655 
L 88.793371 236.051347 
L 89.567281 237.510074 
L 90.34119 238.520281 
L 91.1151 239.202645 
L 91.889009 239.645886 
L 93.049874 239.997694 
L 94.210738 240.108407 
L 95.371602 240.036934 
L 96.919421 239.687896 
L 100.788969 238.574265 
L 103.884607 238.568498 
L 106.206336 238.226837 
L 106.980246 238.426412 
L 107.754155 238.926188 
L 110.849793 241.585056 
L 112.010658 242.067752 
L 114.719341 242.735298 
L 117.428024 243.33856 
L 120.136708 243.682884 
L 124.006256 243.938102 
L 133.680125 244.057562 
L 133.680125 244.057562 
" clip-path="url(#p1eb36ab9e7)" style="fill: none; stroke: #1f77b4; stroke-width: 1.5; stroke-linecap: square"/>
   </g>
   <g id="patch_125">
    <path d="M 53.328125 244.078125 
L 53.328125 22.318125 
" style="fill: none; stroke: #000000; stroke-width: 0.8; stroke-linejoin: miter; stroke-linecap: square"/>
   </g>
   <g id="patch_126">
    <path d="M 388.128125 244.078125 
L 388.128125 22.318125 
" style="fill: none; stroke: #000000; stroke-width: 0.8; stroke-linejoin: miter; stroke-linecap: square"/>
   </g>
   <g id="patch_127">
    <path d="M 53.328125 244.078125 
L 388.128125 244.078125 
" style="fill: none; stroke: #000000; stroke-width: 0.8; stroke-linejoin: miter; stroke-linecap: square"/>
   </g>
   <g id="patch_128">
    <path d="M 53.328125 22.318125 
L 388.128125 22.318125 
" style="fill: none; stroke: #000000; stroke-width: 0.8; stroke-linejoin: miter; stroke-linecap: square"/>
   </g>
   <g id="text_14">
    <!-- Distribuzione di exp -->
    <g transform="translate(161 16.318125) scale(0.12 -0.12)">
     <defs>
      <path id="DejaVuSans-44" d="M 1259 4147 
L 1259 519 
L 2022 519 
Q 2988 519 3436 956 
Q 3884 1394 3884 2338 
Q 3884 3275 3436 3711 
Q 2988 4147 2022 4147 
L 1259 4147 
z
M 628 4666 
L 1925 4666 
Q 3281 4666 3915 4102 
Q 4550 3538 4550 2338 
Q 4550 1131 3912 565 
Q 3275 0 1925 0 
L 628 0 
L 628 4666 
z
" transform="scale(0.015625)"/>
      <path id="DejaVuSans-69" d="M 603 3500 
L 1178 3500 
L 1178 0 
L 603 0 
L 603 3500 
z
M 603 4863 
L 1178 4863 
L 1178 4134 
L 603 4134 
L 603 4863 
z
" transform="scale(0.015625)"/>
      <path id="DejaVuSans-73" d="M 2834 3397 
L 2834 2853 
Q 2591 2978 2328 3040 
Q 2066 3103 1784 3103 
Q 1356 3103 1142 2972 
Q 928 2841 928 2578 
Q 928 2378 1081 2264 
Q 1234 2150 1697 2047 
L 1894 2003 
Q 2506 1872 2764 1633 
Q 3022 1394 3022 966 
Q 3022 478 2636 193 
Q 2250 -91 1575 -91 
Q 1294 -91 989 -36 
Q 684 19 347 128 
L 347 722 
Q 666 556 975 473 
Q 1284 391 1588 391 
Q 1994 391 2212 530 
Q 2431 669 2431 922 
Q 2431 1156 2273 1281 
Q 2116 1406 1581 1522 
L 1381 1569 
Q 847 1681 609 1914 
Q 372 2147 372 2553 
Q 372 3047 722 3315 
Q 1072 3584 1716 3584 
Q 2034 3584 2315 3537 
Q 2597 3491 2834 3397 
z
" transform="scale(0.015625)"/>
      <path id="DejaVuSans-72" d="M 2631 2963 
Q 2534 3019 2420 3045 
Q 2306 3072 2169 3072 
Q 1681 3072 1420 2755 
Q 1159 2438 1159 1844 
L 1159 0 
L 581 0 
L 581 3500 
L 1159 3500 
L 1159 2956 
Q 1341 3275 1631 3429 
Q 1922 3584 2338 3584 
Q 2397 3584 2469 3576 
Q 2541 3569 2628 3553 
L 2631 2963 
z
" transform="scale(0.015625)"/>
      <path id="DejaVuSans-62" d="M 3116 1747 
Q 3116 2381 2855 2742 
Q 2594 3103 2138 3103 
Q 1681 3103 1420 2742 
Q 1159 2381 1159 1747 
Q 1159 1113 1420 752 
Q 1681 391 2138 391 
Q 2594 391 2855 752 
Q 3116 1113 3116 1747 
z
M 1159 2969 
Q 1341 3281 1617 3432 
Q 1894 3584 2278 3584 
Q 2916 3584 3314 3078 
Q 3713 2572 3713 1747 
Q 3713 922 3314 415 
Q 2916 -91 2278 -91 
Q 1894 -91 1617 61 
Q 1341 213 1159 525 
L 1159 0 
L 581 0 
L 581 4863 
L 1159 4863 
L 1159 2969 
z
" transform="scale(0.015625)"/>
      <path id="DejaVuSans-7a" d="M 353 3500 
L 3084 3500 
L 3084 2975 
L 922 459 
L 3084 459 
L 3084 0 
L 275 0 
L 275 525 
L 2438 3041 
L 353 3041 
L 353 3500 
z
" transform="scale(0.015625)"/>
      <path id="DejaVuSans-20" transform="scale(0.015625)"/>
      <path id="DejaVuSans-64" d="M 2906 2969 
L 2906 4863 
L 3481 4863 
L 3481 0 
L 2906 0 
L 2906 525 
Q 2725 213 2448 61 
Q 2172 -91 1784 -91 
Q 1150 -91 751 415 
Q 353 922 353 1747 
Q 353 2572 751 3078 
Q 1150 3584 1784 3584 
Q 2172 3584 2448 3432 
Q 2725 3281 2906 2969 
z
M 947 1747 
Q 947 1113 1208 752 
Q 1469 391 1925 391 
Q 2381 391 2643 752 
Q 2906 1113 2906 1747 
Q 2906 2381 2643 2742 
Q 2381 3103 1925 3103 
Q 1469 3103 1208 2742 
Q 947 2381 947 1747 
z
" transform="scale(0.015625)"/>
     </defs>
     <use xlink:href="#DejaVuSans-44"/>
     <use xlink:href="#DejaVuSans-69" transform="translate(77.001953 0)"/>
     <use xlink:href="#DejaVuSans-73" transform="translate(104.785156 0)"/>
     <use xlink:href="#DejaVuSans-74" transform="translate(156.884766 0)"/>
     <use xlink:href="#DejaVuSans-72" transform="translate(196.09375 0)"/>
     <use xlink:href="#DejaVuSans-69" transform="translate(237.207031 0)"/>
     <use xlink:href="#DejaVuSans-62" transform="translate(264.990234 0)"/>
     <use xlink:href="#DejaVuSans-75" transform="translate(328.466797 0)"/>
     <use xlink:href="#DejaVuSans-7a" transform="translate(391.845703 0)"/>
     <use xlink:href="#DejaVuSans-69" transform="translate(444.335938 0)"/>
     <use xlink:href="#DejaVuSans-6f" transform="translate(472.119141 0)"/>
     <use xlink:href="#DejaVuSans-6e" transform="translate(533.300781 0)"/>
     <use xlink:href="#DejaVuSans-65" transform="translate(596.679688 0)"/>
     <use xlink:href="#DejaVuSans-20" transform="translate(658.203125 0)"/>
     <use xlink:href="#DejaVuSans-64" transform="translate(689.990234 0)"/>
     <use xlink:href="#DejaVuSans-69" transform="translate(753.466797 0)"/>
     <use xlink:href="#DejaVuSans-20" transform="translate(781.25 0)"/>
     <use xlink:href="#DejaVuSans-65" transform="translate(813.037109 0)"/>
     <use xlink:href="#DejaVuSans-78" transform="translate(872.810547 0)"/>
     <use xlink:href="#DejaVuSans-70" transform="translate(931.990234 0)"/>
    </g>
   </g>
  </g>
 </g>
 <defs>
  <clipPath id="p1eb36ab9e7">
   <rect x="53.328125" y="22.318125" width="334.8" height="221.76"/>
  </clipPath>
 </defs>
</svg>
