<?xml version="1.0" encoding="utf-8" standalone="no"?>
<!DOCTYPE svg PUBLIC "-//W3C//DTD SVG 1.1//EN"
  "http://www.w3.org/Graphics/SVG/1.1/DTD/svg11.dtd">
<svg xmlns:xlink="http://www.w3.org/1999/xlink" width="398.509375pt" height="281.634375pt" viewBox="0 0 398.509375 281.634375" xmlns="http://www.w3.org/2000/svg" version="1.1">
 <metadata>
  <rdf:RDF xmlns:dc="http://purl.org/dc/elements/1.1/" xmlns:cc="http://creativecommons.org/ns#" xmlns:rdf="http://www.w3.org/1999/02/22-rdf-syntax-ns#">
   <cc:Work>
    <dc:type rdf:resource="http://purl.org/dc/dcmitype/StillImage"/>
    <dc:date>2025-06-30T19:47:06.034243</dc:date>
    <dc:format>image/svg+xml</dc:format>
    <dc:creator>
     <cc:Agent>
      <dc:title>Matplotlib v3.10.3, https://matplotlib.org/</dc:title>
     </cc:Agent>
    </dc:creator>
   </cc:Work>
  </rdf:RDF>
 </metadata>
 <defs>
  <style type="text/css">*{stroke-linejoin: round; stroke-linecap: butt}</style>
 </defs>
 <g id="figure_1">
  <g id="patch_1">
   <path d="M 0 281.634375 
L 398.509375 281.634375 
L 398.509375 0 
L 0 0 
z
" style="fill: #ffffff"/>
  </g>
  <g id="axes_1">
   <g id="patch_2">
    <path d="M 53.328125 244.078125 
L 388.128125 244.078125 
L 388.128125 22.318125 
L 53.328125 22.318125 
z
" style="fill: #ffffff"/>
   </g>
   <g id="patch_3">
    <path d="M 53.328125 244.078125 
L 65.862509 244.078125 
L 65.862509 226.321553 
L 53.328125 226.321553 
z
" clip-path="url(#p4166d19e7a)" style="fill: #1f77b4; fill-opacity: 0.5; stroke: #000000; stroke-width: 0.149933; stroke-linejoin: miter"/>
   </g>
   <g id="patch_4">
    <path d="M 65.862509 244.078125 
L 78.396893 244.078125 
L 78.396893 244.078125 
L 65.862509 244.078125 
z
" clip-path="url(#p4166d19e7a)" style="fill: #1f77b4; fill-opacity: 0.5; stroke: #000000; stroke-width: 0.149933; stroke-linejoin: miter"/>
   </g>
   <g id="patch_5">
    <path d="M 78.396893 244.078125 
L 90.931278 244.078125 
L 90.931278 244.078125 
L 78.396893 244.078125 
z
" clip-path="url(#p4166d19e7a)" style="fill: #1f77b4; fill-opacity: 0.5; stroke: #000000; stroke-width: 0.149933; stroke-linejoin: miter"/>
   </g>
   <g id="patch_6">
    <path d="M 90.931278 244.078125 
L 103.465662 244.078125 
L 103.465662 244.078125 
L 90.931278 244.078125 
z
" clip-path="url(#p4166d19e7a)" style="fill: #1f77b4; fill-opacity: 0.5; stroke: #000000; stroke-width: 0.149933; stroke-linejoin: miter"/>
   </g>
   <g id="patch_7">
    <path d="M 103.465662 244.078125 
L 116.000046 244.078125 
L 116.000046 244.078125 
L 103.465662 244.078125 
z
" clip-path="url(#p4166d19e7a)" style="fill: #1f77b4; fill-opacity: 0.5; stroke: #000000; stroke-width: 0.149933; stroke-linejoin: miter"/>
   </g>
   <g id="patch_8">
    <path d="M 116.000046 244.078125 
L 128.53443 244.078125 
L 128.53443 32.878125 
L 116.000046 32.878125 
z
" clip-path="url(#p4166d19e7a)" style="fill: #1f77b4; fill-opacity: 0.5; stroke: #000000; stroke-width: 0.149933; stroke-linejoin: miter"/>
   </g>
   <g id="patch_9">
    <path d="M 128.53443 244.078125 
L 141.068815 244.078125 
L 141.068815 244.078125 
L 128.53443 244.078125 
z
" clip-path="url(#p4166d19e7a)" style="fill: #1f77b4; fill-opacity: 0.5; stroke: #000000; stroke-width: 0.149933; stroke-linejoin: miter"/>
   </g>
   <g id="patch_10">
    <path d="M 141.068815 244.078125 
L 153.603199 244.078125 
L 153.603199 244.078125 
L 141.068815 244.078125 
z
" clip-path="url(#p4166d19e7a)" style="fill: #1f77b4; fill-opacity: 0.5; stroke: #000000; stroke-width: 0.149933; stroke-linejoin: miter"/>
   </g>
   <g id="patch_11">
    <path d="M 153.603199 244.078125 
L 166.137583 244.078125 
L 166.137583 244.078125 
L 153.603199 244.078125 
z
" clip-path="url(#p4166d19e7a)" style="fill: #1f77b4; fill-opacity: 0.5; stroke: #000000; stroke-width: 0.149933; stroke-linejoin: miter"/>
   </g>
   <g id="patch_12">
    <path d="M 166.137583 244.078125 
L 178.671967 244.078125 
L 178.671967 244.078125 
L 166.137583 244.078125 
z
" clip-path="url(#p4166d19e7a)" style="fill: #1f77b4; fill-opacity: 0.5; stroke: #000000; stroke-width: 0.149933; stroke-linejoin: miter"/>
   </g>
   <g id="patch_13">
    <path d="M 178.671967 244.078125 
L 191.206352 244.078125 
L 191.206352 216.530299 
L 178.671967 216.530299 
z
" clip-path="url(#p4166d19e7a)" style="fill: #1f77b4; fill-opacity: 0.5; stroke: #000000; stroke-width: 0.149933; stroke-linejoin: miter"/>
   </g>
   <g id="patch_14">
    <path d="M 191.206352 244.078125 
L 203.740736 244.078125 
L 203.740736 244.078125 
L 191.206352 244.078125 
z
" clip-path="url(#p4166d19e7a)" style="fill: #1f77b4; fill-opacity: 0.5; stroke: #000000; stroke-width: 0.149933; stroke-linejoin: miter"/>
   </g>
   <g id="patch_15">
    <path d="M 203.740736 244.078125 
L 216.27512 244.078125 
L 216.27512 244.078125 
L 203.740736 244.078125 
z
" clip-path="url(#p4166d19e7a)" style="fill: #1f77b4; fill-opacity: 0.5; stroke: #000000; stroke-width: 0.149933; stroke-linejoin: miter"/>
   </g>
   <g id="patch_16">
    <path d="M 216.27512 244.078125 
L 228.809504 244.078125 
L 228.809504 244.078125 
L 216.27512 244.078125 
z
" clip-path="url(#p4166d19e7a)" style="fill: #1f77b4; fill-opacity: 0.5; stroke: #000000; stroke-width: 0.149933; stroke-linejoin: miter"/>
   </g>
   <g id="patch_17">
    <path d="M 228.809504 244.078125 
L 241.343889 244.078125 
L 241.343889 244.078125 
L 228.809504 244.078125 
z
" clip-path="url(#p4166d19e7a)" style="fill: #1f77b4; fill-opacity: 0.5; stroke: #000000; stroke-width: 0.149933; stroke-linejoin: miter"/>
   </g>
   <g id="patch_18">
    <path d="M 241.343889 244.078125 
L 253.878273 244.078125 
L 253.878273 244.078125 
L 241.343889 244.078125 
z
" clip-path="url(#p4166d19e7a)" style="fill: #1f77b4; fill-opacity: 0.5; stroke: #000000; stroke-width: 0.149933; stroke-linejoin: miter"/>
   </g>
   <g id="patch_19">
    <path d="M 253.878273 244.078125 
L 266.412657 244.078125 
L 266.412657 238.494464 
L 253.878273 238.494464 
z
" clip-path="url(#p4166d19e7a)" style="fill: #1f77b4; fill-opacity: 0.5; stroke: #000000; stroke-width: 0.149933; stroke-linejoin: miter"/>
   </g>
   <g id="patch_20">
    <path d="M 266.412657 244.078125 
L 278.947041 244.078125 
L 278.947041 244.078125 
L 266.412657 244.078125 
z
" clip-path="url(#p4166d19e7a)" style="fill: #1f77b4; fill-opacity: 0.5; stroke: #000000; stroke-width: 0.149933; stroke-linejoin: miter"/>
   </g>
   <g id="patch_21">
    <path d="M 278.947041 244.078125 
L 291.481425 244.078125 
L 291.481425 244.078125 
L 278.947041 244.078125 
z
" clip-path="url(#p4166d19e7a)" style="fill: #1f77b4; fill-opacity: 0.5; stroke: #000000; stroke-width: 0.149933; stroke-linejoin: miter"/>
   </g>
   <g id="patch_22">
    <path d="M 291.481425 244.078125 
L 304.01581 244.078125 
L 304.01581 244.078125 
L 291.481425 244.078125 
z
" clip-path="url(#p4166d19e7a)" style="fill: #1f77b4; fill-opacity: 0.5; stroke: #000000; stroke-width: 0.149933; stroke-linejoin: miter"/>
   </g>
   <g id="patch_23">
    <path d="M 304.01581 244.078125 
L 316.550194 244.078125 
L 316.550194 244.078125 
L 304.01581 244.078125 
z
" clip-path="url(#p4166d19e7a)" style="fill: #1f77b4; fill-opacity: 0.5; stroke: #000000; stroke-width: 0.149933; stroke-linejoin: miter"/>
   </g>
   <g id="patch_24">
    <path d="M 316.550194 244.078125 
L 329.084578 244.078125 
L 329.084578 242.066948 
L 316.550194 242.066948 
z
" clip-path="url(#p4166d19e7a)" style="fill: #1f77b4; fill-opacity: 0.5; stroke: #000000; stroke-width: 0.149933; stroke-linejoin: miter"/>
   </g>
   <g id="patch_25">
    <path d="M 329.084578 244.078125 
L 341.618962 244.078125 
L 341.618962 244.078125 
L 329.084578 244.078125 
z
" clip-path="url(#p4166d19e7a)" style="fill: #1f77b4; fill-opacity: 0.5; stroke: #000000; stroke-width: 0.149933; stroke-linejoin: miter"/>
   </g>
   <g id="patch_26">
    <path d="M 341.618962 244.078125 
L 354.153347 244.078125 
L 354.153347 244.078125 
L 341.618962 244.078125 
z
" clip-path="url(#p4166d19e7a)" style="fill: #1f77b4; fill-opacity: 0.5; stroke: #000000; stroke-width: 0.149933; stroke-linejoin: miter"/>
   </g>
   <g id="patch_27">
    <path d="M 354.153347 244.078125 
L 366.687731 244.078125 
L 366.687731 244.078125 
L 354.153347 244.078125 
z
" clip-path="url(#p4166d19e7a)" style="fill: #1f77b4; fill-opacity: 0.5; stroke: #000000; stroke-width: 0.149933; stroke-linejoin: miter"/>
   </g>
   <g id="patch_28">
    <path d="M 366.687731 244.078125 
L 379.222115 244.078125 
L 379.222115 244.078125 
L 366.687731 244.078125 
z
" clip-path="url(#p4166d19e7a)" style="fill: #1f77b4; fill-opacity: 0.5; stroke: #000000; stroke-width: 0.149933; stroke-linejoin: miter"/>
   </g>
   <g id="patch_29">
    <path d="M 379.222115 244.078125 
L 391.756499 244.078125 
L 391.756499 242.91376 
L 379.222115 242.91376 
z
" clip-path="url(#p4166d19e7a)" style="fill: #1f77b4; fill-opacity: 0.5; stroke: #000000; stroke-width: 0.149933; stroke-linejoin: miter"/>
   </g>
   <g id="patch_30">
    <path d="M 391.756499 244.078125 
L 404.290884 244.078125 
L 404.290884 244.078125 
L 391.756499 244.078125 
z
" clip-path="url(#p4166d19e7a)" style="fill: #1f77b4; fill-opacity: 0.5; stroke: #000000; stroke-width: 0.149933; stroke-linejoin: miter"/>
   </g>
   <g id="patch_31">
    <path d="M 404.290884 244.078125 
L 416.825268 244.078125 
L 416.825268 244.078125 
L 404.290884 244.078125 
z
" clip-path="url(#p4166d19e7a)" style="fill: #1f77b4; fill-opacity: 0.5; stroke: #000000; stroke-width: 0.149933; stroke-linejoin: miter"/>
   </g>
   <g id="patch_32">
    <path d="M 416.825268 244.078125 
L 429.359652 244.078125 
L 429.359652 244.078125 
L 416.825268 244.078125 
z
" clip-path="url(#p4166d19e7a)" style="fill: #1f77b4; fill-opacity: 0.5; stroke: #000000; stroke-width: 0.149933; stroke-linejoin: miter"/>
   </g>
   <g id="patch_33">
    <path d="M 429.359652 244.078125 
L 441.894036 244.078125 
L 441.894036 244.078125 
L 429.359652 244.078125 
z
" clip-path="url(#p4166d19e7a)" style="fill: #1f77b4; fill-opacity: 0.5; stroke: #000000; stroke-width: 0.149933; stroke-linejoin: miter"/>
   </g>
   <g id="patch_34">
    <path d="M 441.894036 244.078125 
L 454.428421 244.078125 
L 454.428421 244.078125 
L 441.894036 244.078125 
z
" clip-path="url(#p4166d19e7a)" style="fill: #1f77b4; fill-opacity: 0.5; stroke: #000000; stroke-width: 0.149933; stroke-linejoin: miter"/>
   </g>
   <g id="patch_35">
    <path d="M 454.428421 244.078125 
L 466.962805 244.078125 
L 466.962805 243.469479 
L 454.428421 243.469479 
z
" clip-path="url(#p4166d19e7a)" style="fill: #1f77b4; fill-opacity: 0.5; stroke: #000000; stroke-width: 0.149933; stroke-linejoin: miter"/>
   </g>
   <g id="patch_36">
    <path d="M 466.962805 244.078125 
L 479.497189 244.078125 
L 479.497189 244.078125 
L 466.962805 244.078125 
z
" clip-path="url(#p4166d19e7a)" style="fill: #1f77b4; fill-opacity: 0.5; stroke: #000000; stroke-width: 0.149933; stroke-linejoin: miter"/>
   </g>
   <g id="patch_37">
    <path d="M 479.497189 244.078125 
L 492.031573 244.078125 
L 492.031573 244.078125 
L 479.497189 244.078125 
z
" clip-path="url(#p4166d19e7a)" style="fill: #1f77b4; fill-opacity: 0.5; stroke: #000000; stroke-width: 0.149933; stroke-linejoin: miter"/>
   </g>
   <g id="patch_38">
    <path d="M 492.031573 244.078125 
L 504.565958 244.078125 
L 504.565958 244.078125 
L 492.031573 244.078125 
z
" clip-path="url(#p4166d19e7a)" style="fill: #1f77b4; fill-opacity: 0.5; stroke: #000000; stroke-width: 0.149933; stroke-linejoin: miter"/>
   </g>
   <g id="patch_39">
    <path d="M 504.565958 244.078125 
L 517.100342 244.078125 
L 517.100342 244.078125 
L 504.565958 244.078125 
z
" clip-path="url(#p4166d19e7a)" style="fill: #1f77b4; fill-opacity: 0.5; stroke: #000000; stroke-width: 0.149933; stroke-linejoin: miter"/>
   </g>
   <g id="patch_40">
    <path d="M 517.100342 244.078125 
L 529.634726 244.078125 
L 529.634726 243.787034 
L 517.100342 243.787034 
z
" clip-path="url(#p4166d19e7a)" style="fill: #1f77b4; fill-opacity: 0.5; stroke: #000000; stroke-width: 0.149933; stroke-linejoin: miter"/>
   </g>
   <g id="patch_41">
    <path d="M 529.634726 244.078125 
L 542.16911 244.078125 
L 542.16911 244.078125 
L 529.634726 244.078125 
z
" clip-path="url(#p4166d19e7a)" style="fill: #1f77b4; fill-opacity: 0.5; stroke: #000000; stroke-width: 0.149933; stroke-linejoin: miter"/>
   </g>
   <g id="patch_42">
    <path d="M 542.16911 244.078125 
L 554.703494 244.078125 
L 554.703494 244.078125 
L 542.16911 244.078125 
z
" clip-path="url(#p4166d19e7a)" style="fill: #1f77b4; fill-opacity: 0.5; stroke: #000000; stroke-width: 0.149933; stroke-linejoin: miter"/>
   </g>
   <g id="patch_43">
    <path d="M 554.703494 244.078125 
L 567.237879 244.078125 
L 567.237879 244.078125 
L 554.703494 244.078125 
z
" clip-path="url(#p4166d19e7a)" style="fill: #1f77b4; fill-opacity: 0.5; stroke: #000000; stroke-width: 0.149933; stroke-linejoin: miter"/>
   </g>
   <g id="patch_44">
    <path d="M 567.237879 244.078125 
L 579.772263 244.078125 
L 579.772263 244.078125 
L 567.237879 244.078125 
z
" clip-path="url(#p4166d19e7a)" style="fill: #1f77b4; fill-opacity: 0.5; stroke: #000000; stroke-width: 0.149933; stroke-linejoin: miter"/>
   </g>
   <g id="patch_45">
    <path d="M 579.772263 244.078125 
L 592.306647 244.078125 
L 592.306647 243.839959 
L 579.772263 243.839959 
z
" clip-path="url(#p4166d19e7a)" style="fill: #1f77b4; fill-opacity: 0.5; stroke: #000000; stroke-width: 0.149933; stroke-linejoin: miter"/>
   </g>
   <g id="patch_46">
    <path d="M 592.306647 244.078125 
L 604.841031 244.078125 
L 604.841031 244.078125 
L 592.306647 244.078125 
z
" clip-path="url(#p4166d19e7a)" style="fill: #1f77b4; fill-opacity: 0.5; stroke: #000000; stroke-width: 0.149933; stroke-linejoin: miter"/>
   </g>
   <g id="patch_47">
    <path d="M 604.841031 244.078125 
L 617.375416 244.078125 
L 617.375416 244.078125 
L 604.841031 244.078125 
z
" clip-path="url(#p4166d19e7a)" style="fill: #1f77b4; fill-opacity: 0.5; stroke: #000000; stroke-width: 0.149933; stroke-linejoin: miter"/>
   </g>
   <g id="patch_48">
    <path d="M 617.375416 244.078125 
L 629.9098 244.078125 
L 629.9098 244.078125 
L 617.375416 244.078125 
z
" clip-path="url(#p4166d19e7a)" style="fill: #1f77b4; fill-opacity: 0.5; stroke: #000000; stroke-width: 0.149933; stroke-linejoin: miter"/>
   </g>
   <g id="patch_49">
    <path d="M 629.9098 244.078125 
L 642.444184 244.078125 
L 642.444184 244.078125 
L 629.9098 244.078125 
z
" clip-path="url(#p4166d19e7a)" style="fill: #1f77b4; fill-opacity: 0.5; stroke: #000000; stroke-width: 0.149933; stroke-linejoin: miter"/>
   </g>
   <g id="patch_50">
    <path d="M 642.444184 244.078125 
L 654.978568 244.078125 
L 654.978568 244.078125 
L 642.444184 244.078125 
z
" clip-path="url(#p4166d19e7a)" style="fill: #1f77b4; fill-opacity: 0.5; stroke: #000000; stroke-width: 0.149933; stroke-linejoin: miter"/>
   </g>
   <g id="patch_51">
    <path d="M 654.978568 244.078125 
L 667.512953 244.078125 
L 667.512953 243.760571 
L 654.978568 243.760571 
z
" clip-path="url(#p4166d19e7a)" style="fill: #1f77b4; fill-opacity: 0.5; stroke: #000000; stroke-width: 0.149933; stroke-linejoin: miter"/>
   </g>
   <g id="patch_52">
    <path d="M 667.512953 244.078125 
L 680.047337 244.078125 
L 680.047337 244.078125 
L 667.512953 244.078125 
z
" clip-path="url(#p4166d19e7a)" style="fill: #1f77b4; fill-opacity: 0.5; stroke: #000000; stroke-width: 0.149933; stroke-linejoin: miter"/>
   </g>
   <g id="patch_53">
    <path d="M 680.047337 244.078125 
L 692.581721 244.078125 
L 692.581721 244.078125 
L 680.047337 244.078125 
z
" clip-path="url(#p4166d19e7a)" style="fill: #1f77b4; fill-opacity: 0.5; stroke: #000000; stroke-width: 0.149933; stroke-linejoin: miter"/>
   </g>
   <g id="patch_54">
    <path d="M 692.581721 244.078125 
L 705.116105 244.078125 
L 705.116105 244.078125 
L 692.581721 244.078125 
z
" clip-path="url(#p4166d19e7a)" style="fill: #1f77b4; fill-opacity: 0.5; stroke: #000000; stroke-width: 0.149933; stroke-linejoin: miter"/>
   </g>
   <g id="patch_55">
    <path d="M 705.116105 244.078125 
L 717.65049 244.078125 
L 717.65049 244.078125 
L 705.116105 244.078125 
z
" clip-path="url(#p4166d19e7a)" style="fill: #1f77b4; fill-opacity: 0.5; stroke: #000000; stroke-width: 0.149933; stroke-linejoin: miter"/>
   </g>
   <g id="patch_56">
    <path d="M 717.65049 244.078125 
L 730.184874 244.078125 
L 730.184874 243.839959 
L 717.65049 243.839959 
z
" clip-path="url(#p4166d19e7a)" style="fill: #1f77b4; fill-opacity: 0.5; stroke: #000000; stroke-width: 0.149933; stroke-linejoin: miter"/>
   </g>
   <g id="patch_57">
    <path d="M 730.184874 244.078125 
L 742.719258 244.078125 
L 742.719258 244.078125 
L 730.184874 244.078125 
z
" clip-path="url(#p4166d19e7a)" style="fill: #1f77b4; fill-opacity: 0.5; stroke: #000000; stroke-width: 0.149933; stroke-linejoin: miter"/>
   </g>
   <g id="patch_58">
    <path d="M 742.719258 244.078125 
L 755.253642 244.078125 
L 755.253642 244.078125 
L 742.719258 244.078125 
z
" clip-path="url(#p4166d19e7a)" style="fill: #1f77b4; fill-opacity: 0.5; stroke: #000000; stroke-width: 0.149933; stroke-linejoin: miter"/>
   </g>
   <g id="patch_59">
    <path d="M 755.253642 244.078125 
L 767.788026 244.078125 
L 767.788026 244.078125 
L 755.253642 244.078125 
z
" clip-path="url(#p4166d19e7a)" style="fill: #1f77b4; fill-opacity: 0.5; stroke: #000000; stroke-width: 0.149933; stroke-linejoin: miter"/>
   </g>
   <g id="patch_60">
    <path d="M 767.788026 244.078125 
L 780.322411 244.078125 
L 780.322411 244.078125 
L 767.788026 244.078125 
z
" clip-path="url(#p4166d19e7a)" style="fill: #1f77b4; fill-opacity: 0.5; stroke: #000000; stroke-width: 0.149933; stroke-linejoin: miter"/>
   </g>
   <g id="patch_61">
    <path d="M 780.322411 244.078125 
L 792.856795 244.078125 
L 792.856795 243.892885 
L 780.322411 243.892885 
z
" clip-path="url(#p4166d19e7a)" style="fill: #1f77b4; fill-opacity: 0.5; stroke: #000000; stroke-width: 0.149933; stroke-linejoin: miter"/>
   </g>
   <g id="patch_62">
    <path d="M 792.856795 244.078125 
L 805.391179 244.078125 
L 805.391179 244.078125 
L 792.856795 244.078125 
z
" clip-path="url(#p4166d19e7a)" style="fill: #1f77b4; fill-opacity: 0.5; stroke: #000000; stroke-width: 0.149933; stroke-linejoin: miter"/>
   </g>
   <g id="patch_63">
    <path d="M 805.391179 244.078125 
L 817.925563 244.078125 
L 817.925563 244.078125 
L 805.391179 244.078125 
z
" clip-path="url(#p4166d19e7a)" style="fill: #1f77b4; fill-opacity: 0.5; stroke: #000000; stroke-width: 0.149933; stroke-linejoin: miter"/>
   </g>
   <g id="patch_64">
    <path d="M 817.925563 244.078125 
L 830.459948 244.078125 
L 830.459948 244.078125 
L 817.925563 244.078125 
z
" clip-path="url(#p4166d19e7a)" style="fill: #1f77b4; fill-opacity: 0.5; stroke: #000000; stroke-width: 0.149933; stroke-linejoin: miter"/>
   </g>
   <g id="patch_65">
    <path d="M 830.459948 244.078125 
L 842.994332 244.078125 
L 842.994332 244.078125 
L 830.459948 244.078125 
z
" clip-path="url(#p4166d19e7a)" style="fill: #1f77b4; fill-opacity: 0.5; stroke: #000000; stroke-width: 0.149933; stroke-linejoin: miter"/>
   </g>
   <g id="patch_66">
    <path d="M 842.994332 244.078125 
L 855.528716 244.078125 
L 855.528716 244.078125 
L 842.994332 244.078125 
z
" clip-path="url(#p4166d19e7a)" style="fill: #1f77b4; fill-opacity: 0.5; stroke: #000000; stroke-width: 0.149933; stroke-linejoin: miter"/>
   </g>
   <g id="patch_67">
    <path d="M 855.528716 244.078125 
L 868.0631 244.078125 
L 868.0631 243.945811 
L 855.528716 243.945811 
z
" clip-path="url(#p4166d19e7a)" style="fill: #1f77b4; fill-opacity: 0.5; stroke: #000000; stroke-width: 0.149933; stroke-linejoin: miter"/>
   </g>
   <g id="patch_68">
    <path d="M 868.0631 244.078125 
L 880.597485 244.078125 
L 880.597485 244.078125 
L 868.0631 244.078125 
z
" clip-path="url(#p4166d19e7a)" style="fill: #1f77b4; fill-opacity: 0.5; stroke: #000000; stroke-width: 0.149933; stroke-linejoin: miter"/>
   </g>
   <g id="patch_69">
    <path d="M 880.597485 244.078125 
L 893.131869 244.078125 
L 893.131869 244.078125 
L 880.597485 244.078125 
z
" clip-path="url(#p4166d19e7a)" style="fill: #1f77b4; fill-opacity: 0.5; stroke: #000000; stroke-width: 0.149933; stroke-linejoin: miter"/>
   </g>
   <g id="patch_70">
    <path d="M 893.131869 244.078125 
L 905.666253 244.078125 
L 905.666253 244.078125 
L 893.131869 244.078125 
z
" clip-path="url(#p4166d19e7a)" style="fill: #1f77b4; fill-opacity: 0.5; stroke: #000000; stroke-width: 0.149933; stroke-linejoin: miter"/>
   </g>
   <g id="patch_71">
    <path d="M 905.666253 244.078125 
L 918.200637 244.078125 
L 918.200637 244.078125 
L 905.666253 244.078125 
z
" clip-path="url(#p4166d19e7a)" style="fill: #1f77b4; fill-opacity: 0.5; stroke: #000000; stroke-width: 0.149933; stroke-linejoin: miter"/>
   </g>
   <g id="patch_72">
    <path d="M 918.200637 244.078125 
L 930.735022 244.078125 
L 930.735022 243.892885 
L 918.200637 243.892885 
z
" clip-path="url(#p4166d19e7a)" style="fill: #1f77b4; fill-opacity: 0.5; stroke: #000000; stroke-width: 0.149933; stroke-linejoin: miter"/>
   </g>
   <g id="patch_73">
    <path d="M 930.735022 244.078125 
L 943.269406 244.078125 
L 943.269406 244.078125 
L 930.735022 244.078125 
z
" clip-path="url(#p4166d19e7a)" style="fill: #1f77b4; fill-opacity: 0.5; stroke: #000000; stroke-width: 0.149933; stroke-linejoin: miter"/>
   </g>
   <g id="patch_74">
    <path d="M 943.269406 244.078125 
L 955.80379 244.078125 
L 955.80379 244.078125 
L 943.269406 244.078125 
z
" clip-path="url(#p4166d19e7a)" style="fill: #1f77b4; fill-opacity: 0.5; stroke: #000000; stroke-width: 0.149933; stroke-linejoin: miter"/>
   </g>
   <g id="patch_75">
    <path d="M 955.80379 244.078125 
L 968.338174 244.078125 
L 968.338174 244.078125 
L 955.80379 244.078125 
z
" clip-path="url(#p4166d19e7a)" style="fill: #1f77b4; fill-opacity: 0.5; stroke: #000000; stroke-width: 0.149933; stroke-linejoin: miter"/>
   </g>
   <g id="patch_76">
    <path d="M 968.338174 244.078125 
L 980.872558 244.078125 
L 980.872558 244.078125 
L 968.338174 244.078125 
z
" clip-path="url(#p4166d19e7a)" style="fill: #1f77b4; fill-opacity: 0.5; stroke: #000000; stroke-width: 0.149933; stroke-linejoin: miter"/>
   </g>
   <g id="patch_77">
    <path d="M 980.872558 244.078125 
L 993.406943 244.078125 
L 993.406943 243.919348 
L 980.872558 243.919348 
z
" clip-path="url(#p4166d19e7a)" style="fill: #1f77b4; fill-opacity: 0.5; stroke: #000000; stroke-width: 0.149933; stroke-linejoin: miter"/>
   </g>
   <g id="patch_78">
    <path d="M 993.406943 244.078125 
L 1005.941327 244.078125 
L 1005.941327 244.078125 
L 993.406943 244.078125 
z
" clip-path="url(#p4166d19e7a)" style="fill: #1f77b4; fill-opacity: 0.5; stroke: #000000; stroke-width: 0.149933; stroke-linejoin: miter"/>
   </g>
   <g id="patch_79">
    <path d="M 1005.941327 244.078125 
L 1018.475711 244.078125 
L 1018.475711 244.078125 
L 1005.941327 244.078125 
z
" clip-path="url(#p4166d19e7a)" style="fill: #1f77b4; fill-opacity: 0.5; stroke: #000000; stroke-width: 0.149933; stroke-linejoin: miter"/>
   </g>
   <g id="patch_80">
    <path d="M 1018.475711 244.078125 
L 1031.010095 244.078125 
L 1031.010095 244.078125 
L 1018.475711 244.078125 
z
" clip-path="url(#p4166d19e7a)" style="fill: #1f77b4; fill-opacity: 0.5; stroke: #000000; stroke-width: 0.149933; stroke-linejoin: miter"/>
   </g>
   <g id="patch_81">
    <path d="M 1031.010095 244.078125 
L 1043.54448 244.078125 
L 1043.54448 244.078125 
L 1031.010095 244.078125 
z
" clip-path="url(#p4166d19e7a)" style="fill: #1f77b4; fill-opacity: 0.5; stroke: #000000; stroke-width: 0.149933; stroke-linejoin: miter"/>
   </g>
   <g id="patch_82">
    <path d="M 1043.54448 244.078125 
L 1056.078864 244.078125 
L 1056.078864 244.078125 
L 1043.54448 244.078125 
z
" clip-path="url(#p4166d19e7a)" style="fill: #1f77b4; fill-opacity: 0.5; stroke: #000000; stroke-width: 0.149933; stroke-linejoin: miter"/>
   </g>
   <g id="patch_83">
    <path d="M 1056.078864 244.078125 
L 1068.613248 244.078125 
L 1068.613248 244.051662 
L 1056.078864 244.051662 
z
" clip-path="url(#p4166d19e7a)" style="fill: #1f77b4; fill-opacity: 0.5; stroke: #000000; stroke-width: 0.149933; stroke-linejoin: miter"/>
   </g>
   <g id="patch_84">
    <path d="M 1068.613248 244.078125 
L 1081.147632 244.078125 
L 1081.147632 244.078125 
L 1068.613248 244.078125 
z
" clip-path="url(#p4166d19e7a)" style="fill: #1f77b4; fill-opacity: 0.5; stroke: #000000; stroke-width: 0.149933; stroke-linejoin: miter"/>
   </g>
   <g id="patch_85">
    <path d="M 1081.147632 244.078125 
L 1093.682017 244.078125 
L 1093.682017 244.078125 
L 1081.147632 244.078125 
z
" clip-path="url(#p4166d19e7a)" style="fill: #1f77b4; fill-opacity: 0.5; stroke: #000000; stroke-width: 0.149933; stroke-linejoin: miter"/>
   </g>
   <g id="patch_86">
    <path d="M 1093.682017 244.078125 
L 1106.216401 244.078125 
L 1106.216401 244.078125 
L 1093.682017 244.078125 
z
" clip-path="url(#p4166d19e7a)" style="fill: #1f77b4; fill-opacity: 0.5; stroke: #000000; stroke-width: 0.149933; stroke-linejoin: miter"/>
   </g>
   <g id="patch_87">
    <path d="M 1106.216401 244.078125 
L 1118.750785 244.078125 
L 1118.750785 244.078125 
L 1106.216401 244.078125 
z
" clip-path="url(#p4166d19e7a)" style="fill: #1f77b4; fill-opacity: 0.5; stroke: #000000; stroke-width: 0.149933; stroke-linejoin: miter"/>
   </g>
   <g id="patch_88">
    <path d="M 1118.750785 244.078125 
L 1131.285169 244.078125 
L 1131.285169 243.919348 
L 1118.750785 243.919348 
z
" clip-path="url(#p4166d19e7a)" style="fill: #1f77b4; fill-opacity: 0.5; stroke: #000000; stroke-width: 0.149933; stroke-linejoin: miter"/>
   </g>
   <g id="patch_89">
    <path d="M 1131.285169 244.078125 
L 1143.819554 244.078125 
L 1143.819554 244.078125 
L 1131.285169 244.078125 
z
" clip-path="url(#p4166d19e7a)" style="fill: #1f77b4; fill-opacity: 0.5; stroke: #000000; stroke-width: 0.149933; stroke-linejoin: miter"/>
   </g>
   <g id="patch_90">
    <path d="M 1143.819554 244.078125 
L 1156.353938 244.078125 
L 1156.353938 244.078125 
L 1143.819554 244.078125 
z
" clip-path="url(#p4166d19e7a)" style="fill: #1f77b4; fill-opacity: 0.5; stroke: #000000; stroke-width: 0.149933; stroke-linejoin: miter"/>
   </g>
   <g id="patch_91">
    <path d="M 1156.353938 244.078125 
L 1168.888322 244.078125 
L 1168.888322 244.078125 
L 1156.353938 244.078125 
z
" clip-path="url(#p4166d19e7a)" style="fill: #1f77b4; fill-opacity: 0.5; stroke: #000000; stroke-width: 0.149933; stroke-linejoin: miter"/>
   </g>
   <g id="patch_92">
    <path d="M 1168.888322 244.078125 
L 1181.422706 244.078125 
L 1181.422706 244.078125 
L 1168.888322 244.078125 
z
" clip-path="url(#p4166d19e7a)" style="fill: #1f77b4; fill-opacity: 0.5; stroke: #000000; stroke-width: 0.149933; stroke-linejoin: miter"/>
   </g>
   <g id="patch_93">
    <path d="M 1181.422706 244.078125 
L 1193.957091 244.078125 
L 1193.957091 243.972274 
L 1181.422706 243.972274 
z
" clip-path="url(#p4166d19e7a)" style="fill: #1f77b4; fill-opacity: 0.5; stroke: #000000; stroke-width: 0.149933; stroke-linejoin: miter"/>
   </g>
   <g id="patch_94">
    <path d="M 1193.957091 244.078125 
L 1206.491475 244.078125 
L 1206.491475 244.078125 
L 1193.957091 244.078125 
z
" clip-path="url(#p4166d19e7a)" style="fill: #1f77b4; fill-opacity: 0.5; stroke: #000000; stroke-width: 0.149933; stroke-linejoin: miter"/>
   </g>
   <g id="patch_95">
    <path d="M 1206.491475 244.078125 
L 1219.025859 244.078125 
L 1219.025859 244.078125 
L 1206.491475 244.078125 
z
" clip-path="url(#p4166d19e7a)" style="fill: #1f77b4; fill-opacity: 0.5; stroke: #000000; stroke-width: 0.149933; stroke-linejoin: miter"/>
   </g>
   <g id="patch_96">
    <path d="M 1219.025859 244.078125 
L 1231.560243 244.078125 
L 1231.560243 244.078125 
L 1219.025859 244.078125 
z
" clip-path="url(#p4166d19e7a)" style="fill: #1f77b4; fill-opacity: 0.5; stroke: #000000; stroke-width: 0.149933; stroke-linejoin: miter"/>
   </g>
   <g id="patch_97">
    <path d="M 1231.560243 244.078125 
L 1244.094627 244.078125 
L 1244.094627 244.078125 
L 1231.560243 244.078125 
z
" clip-path="url(#p4166d19e7a)" style="fill: #1f77b4; fill-opacity: 0.5; stroke: #000000; stroke-width: 0.149933; stroke-linejoin: miter"/>
   </g>
   <g id="patch_98">
    <path d="M 1244.094627 244.078125 
L 1256.629012 244.078125 
L 1256.629012 244.078125 
L 1244.094627 244.078125 
z
" clip-path="url(#p4166d19e7a)" style="fill: #1f77b4; fill-opacity: 0.5; stroke: #000000; stroke-width: 0.149933; stroke-linejoin: miter"/>
   </g>
   <g id="patch_99">
    <path d="M 1256.629012 244.078125 
L 1269.163396 244.078125 
L 1269.163396 243.945811 
L 1256.629012 243.945811 
z
" clip-path="url(#p4166d19e7a)" style="fill: #1f77b4; fill-opacity: 0.5; stroke: #000000; stroke-width: 0.149933; stroke-linejoin: miter"/>
   </g>
   <g id="patch_100">
    <path d="M 1269.163396 244.078125 
L 1281.69778 244.078125 
L 1281.69778 244.078125 
L 1269.163396 244.078125 
z
" clip-path="url(#p4166d19e7a)" style="fill: #1f77b4; fill-opacity: 0.5; stroke: #000000; stroke-width: 0.149933; stroke-linejoin: miter"/>
   </g>
   <g id="patch_101">
    <path d="M 1281.69778 244.078125 
L 1294.232164 244.078125 
L 1294.232164 244.078125 
L 1281.69778 244.078125 
z
" clip-path="url(#p4166d19e7a)" style="fill: #1f77b4; fill-opacity: 0.5; stroke: #000000; stroke-width: 0.149933; stroke-linejoin: miter"/>
   </g>
   <g id="patch_102">
    <path d="M 1294.232164 244.078125 
L 1306.766549 244.078125 
L 1306.766549 244.078125 
L 1294.232164 244.078125 
z
" clip-path="url(#p4166d19e7a)" style="fill: #1f77b4; fill-opacity: 0.5; stroke: #000000; stroke-width: 0.149933; stroke-linejoin: miter"/>
   </g>
   <g id="patch_103">
    <path d="M 1306.766549 244.078125 
L 1319.300933 244.078125 
L 1319.300933 244.078125 
L 1306.766549 244.078125 
z
" clip-path="url(#p4166d19e7a)" style="fill: #1f77b4; fill-opacity: 0.5; stroke: #000000; stroke-width: 0.149933; stroke-linejoin: miter"/>
   </g>
   <g id="patch_104">
    <path d="M 1319.300933 244.078125 
L 1331.835317 244.078125 
L 1331.835317 243.972274 
L 1319.300933 243.972274 
z
" clip-path="url(#p4166d19e7a)" style="fill: #1f77b4; fill-opacity: 0.5; stroke: #000000; stroke-width: 0.149933; stroke-linejoin: miter"/>
   </g>
   <g id="patch_105">
    <path d="M 1331.835317 244.078125 
L 1344.369701 244.078125 
L 1344.369701 244.078125 
L 1331.835317 244.078125 
z
" clip-path="url(#p4166d19e7a)" style="fill: #1f77b4; fill-opacity: 0.5; stroke: #000000; stroke-width: 0.149933; stroke-linejoin: miter"/>
   </g>
   <g id="patch_106">
    <path d="M 1344.369701 244.078125 
L 1356.904086 244.078125 
L 1356.904086 244.078125 
L 1344.369701 244.078125 
z
" clip-path="url(#p4166d19e7a)" style="fill: #1f77b4; fill-opacity: 0.5; stroke: #000000; stroke-width: 0.149933; stroke-linejoin: miter"/>
   </g>
   <g id="patch_107">
    <path d="M 1356.904086 244.078125 
L 1369.43847 244.078125 
L 1369.43847 244.078125 
L 1356.904086 244.078125 
z
" clip-path="url(#p4166d19e7a)" style="fill: #1f77b4; fill-opacity: 0.5; stroke: #000000; stroke-width: 0.149933; stroke-linejoin: miter"/>
   </g>
   <g id="patch_108">
    <path d="M 1369.43847 244.078125 
L 1381.972854 244.078125 
L 1381.972854 244.078125 
L 1369.43847 244.078125 
z
" clip-path="url(#p4166d19e7a)" style="fill: #1f77b4; fill-opacity: 0.5; stroke: #000000; stroke-width: 0.149933; stroke-linejoin: miter"/>
   </g>
   <g id="patch_109">
    <path d="M 1381.972854 244.078125 
L 1394.507238 244.078125 
L 1394.507238 243.628257 
L 1381.972854 243.628257 
z
" clip-path="url(#p4166d19e7a)" style="fill: #1f77b4; fill-opacity: 0.5; stroke: #000000; stroke-width: 0.149933; stroke-linejoin: miter"/>
   </g>
   <g id="patch_110">
    <path d="M 1394.507238 244.078125 
L 1407.041623 244.078125 
L 1407.041623 244.078125 
L 1394.507238 244.078125 
z
" clip-path="url(#p4166d19e7a)" style="fill: #1f77b4; fill-opacity: 0.5; stroke: #000000; stroke-width: 0.149933; stroke-linejoin: miter"/>
   </g>
   <g id="patch_111">
    <path d="M 1407.041623 244.078125 
L 1419.576007 244.078125 
L 1419.576007 244.078125 
L 1407.041623 244.078125 
z
" clip-path="url(#p4166d19e7a)" style="fill: #1f77b4; fill-opacity: 0.5; stroke: #000000; stroke-width: 0.149933; stroke-linejoin: miter"/>
   </g>
   <g id="patch_112">
    <path d="M 1419.576007 244.078125 
L 1432.110391 244.078125 
L 1432.110391 244.078125 
L 1419.576007 244.078125 
z
" clip-path="url(#p4166d19e7a)" style="fill: #1f77b4; fill-opacity: 0.5; stroke: #000000; stroke-width: 0.149933; stroke-linejoin: miter"/>
   </g>
   <g id="patch_113">
    <path d="M 1432.110391 244.078125 
L 1444.644775 244.078125 
L 1444.644775 244.078125 
L 1432.110391 244.078125 
z
" clip-path="url(#p4166d19e7a)" style="fill: #1f77b4; fill-opacity: 0.5; stroke: #000000; stroke-width: 0.149933; stroke-linejoin: miter"/>
   </g>
   <g id="patch_114">
    <path d="M 1444.644775 244.078125 
L 1457.179159 244.078125 
L 1457.179159 244.078125 
L 1444.644775 244.078125 
z
" clip-path="url(#p4166d19e7a)" style="fill: #1f77b4; fill-opacity: 0.5; stroke: #000000; stroke-width: 0.149933; stroke-linejoin: miter"/>
   </g>
   <g id="patch_115">
    <path d="M 1457.179159 244.078125 
L 1469.713544 244.078125 
L 1469.713544 243.998736 
L 1457.179159 243.998736 
z
" clip-path="url(#p4166d19e7a)" style="fill: #1f77b4; fill-opacity: 0.5; stroke: #000000; stroke-width: 0.149933; stroke-linejoin: miter"/>
   </g>
   <g id="patch_116">
    <path d="M 1469.713544 244.078125 
L 1482.247928 244.078125 
L 1482.247928 244.078125 
L 1469.713544 244.078125 
z
" clip-path="url(#p4166d19e7a)" style="fill: #1f77b4; fill-opacity: 0.5; stroke: #000000; stroke-width: 0.149933; stroke-linejoin: miter"/>
   </g>
   <g id="patch_117">
    <path d="M 1482.247928 244.078125 
L 1494.782312 244.078125 
L 1494.782312 244.078125 
L 1482.247928 244.078125 
z
" clip-path="url(#p4166d19e7a)" style="fill: #1f77b4; fill-opacity: 0.5; stroke: #000000; stroke-width: 0.149933; stroke-linejoin: miter"/>
   </g>
   <g id="patch_118">
    <path d="M 1494.782312 244.078125 
L 1507.316696 244.078125 
L 1507.316696 244.078125 
L 1494.782312 244.078125 
z
" clip-path="url(#p4166d19e7a)" style="fill: #1f77b4; fill-opacity: 0.5; stroke: #000000; stroke-width: 0.149933; stroke-linejoin: miter"/>
   </g>
   <g id="patch_119">
    <path d="M 1507.316696 244.078125 
L 1519.851081 244.078125 
L 1519.851081 244.078125 
L 1507.316696 244.078125 
z
" clip-path="url(#p4166d19e7a)" style="fill: #1f77b4; fill-opacity: 0.5; stroke: #000000; stroke-width: 0.149933; stroke-linejoin: miter"/>
   </g>
   <g id="patch_120">
    <path d="M 1519.851081 244.078125 
L 1532.385465 244.078125 
L 1532.385465 243.760571 
L 1519.851081 243.760571 
z
" clip-path="url(#p4166d19e7a)" style="fill: #1f77b4; fill-opacity: 0.5; stroke: #000000; stroke-width: 0.149933; stroke-linejoin: miter"/>
   </g>
   <g id="patch_121">
    <path d="M 1532.385465 244.078125 
L 1544.919849 244.078125 
L 1544.919849 244.078125 
L 1532.385465 244.078125 
z
" clip-path="url(#p4166d19e7a)" style="fill: #1f77b4; fill-opacity: 0.5; stroke: #000000; stroke-width: 0.149933; stroke-linejoin: miter"/>
   </g>
   <g id="patch_122">
    <path d="M 1544.919849 244.078125 
L 1557.454233 244.078125 
L 1557.454233 244.078125 
L 1544.919849 244.078125 
z
" clip-path="url(#p4166d19e7a)" style="fill: #1f77b4; fill-opacity: 0.5; stroke: #000000; stroke-width: 0.149933; stroke-linejoin: miter"/>
   </g>
   <g id="patch_123">
    <path d="M 1557.454233 244.078125 
L 1569.988618 244.078125 
L 1569.988618 244.078125 
L 1557.454233 244.078125 
z
" clip-path="url(#p4166d19e7a)" style="fill: #1f77b4; fill-opacity: 0.5; stroke: #000000; stroke-width: 0.149933; stroke-linejoin: miter"/>
   </g>
   <g id="patch_124">
    <path d="M 1569.988618 244.078125 
L 1582.523002 244.078125 
L 1582.523002 244.078125 
L 1569.988618 244.078125 
z
" clip-path="url(#p4166d19e7a)" style="fill: #1f77b4; fill-opacity: 0.5; stroke: #000000; stroke-width: 0.149933; stroke-linejoin: miter"/>
   </g>
   <g id="patch_125">
    <path d="M 1582.523002 244.078125 
L 1595.057386 244.078125 
L 1595.057386 243.337165 
L 1582.523002 243.337165 
z
" clip-path="url(#p4166d19e7a)" style="fill: #1f77b4; fill-opacity: 0.5; stroke: #000000; stroke-width: 0.149933; stroke-linejoin: miter"/>
   </g>
   <g id="patch_126">
    <path d="M 1595.057386 244.078125 
L 1607.59177 244.078125 
L 1607.59177 244.078125 
L 1595.057386 244.078125 
z
" clip-path="url(#p4166d19e7a)" style="fill: #1f77b4; fill-opacity: 0.5; stroke: #000000; stroke-width: 0.149933; stroke-linejoin: miter"/>
   </g>
   <g id="patch_127">
    <path d="M 1607.59177 244.078125 
L 1620.126155 244.078125 
L 1620.126155 244.078125 
L 1607.59177 244.078125 
z
" clip-path="url(#p4166d19e7a)" style="fill: #1f77b4; fill-opacity: 0.5; stroke: #000000; stroke-width: 0.149933; stroke-linejoin: miter"/>
   </g>
   <g id="patch_128">
    <path d="M 1620.126155 244.078125 
L 1632.660539 244.078125 
L 1632.660539 244.078125 
L 1620.126155 244.078125 
z
" clip-path="url(#p4166d19e7a)" style="fill: #1f77b4; fill-opacity: 0.5; stroke: #000000; stroke-width: 0.149933; stroke-linejoin: miter"/>
   </g>
   <g id="patch_129">
    <path d="M 1632.660539 244.078125 
L 1645.194923 244.078125 
L 1645.194923 244.078125 
L 1632.660539 244.078125 
z
" clip-path="url(#p4166d19e7a)" style="fill: #1f77b4; fill-opacity: 0.5; stroke: #000000; stroke-width: 0.149933; stroke-linejoin: miter"/>
   </g>
   <g id="patch_130">
    <path d="M 1645.194923 244.078125 
L 1657.729307 244.078125 
L 1657.729307 244.078125 
L 1645.194923 244.078125 
z
" clip-path="url(#p4166d19e7a)" style="fill: #1f77b4; fill-opacity: 0.5; stroke: #000000; stroke-width: 0.149933; stroke-linejoin: miter"/>
   </g>
   <g id="patch_131">
    <path d="M 1657.729307 244.078125 
L 1670.263692 244.078125 
L 1670.263692 243.787034 
L 1657.729307 243.787034 
z
" clip-path="url(#p4166d19e7a)" style="fill: #1f77b4; fill-opacity: 0.5; stroke: #000000; stroke-width: 0.149933; stroke-linejoin: miter"/>
   </g>
   <g id="patch_132">
    <path d="M 1670.263692 244.078125 
L 1682.798076 244.078125 
L 1682.798076 244.078125 
L 1670.263692 244.078125 
z
" clip-path="url(#p4166d19e7a)" style="fill: #1f77b4; fill-opacity: 0.5; stroke: #000000; stroke-width: 0.149933; stroke-linejoin: miter"/>
   </g>
   <g id="patch_133">
    <path d="M 1682.798076 244.078125 
L 1695.33246 244.078125 
L 1695.33246 244.078125 
L 1682.798076 244.078125 
z
" clip-path="url(#p4166d19e7a)" style="fill: #1f77b4; fill-opacity: 0.5; stroke: #000000; stroke-width: 0.149933; stroke-linejoin: miter"/>
   </g>
   <g id="patch_134">
    <path d="M 1695.33246 244.078125 
L 1707.866844 244.078125 
L 1707.866844 244.078125 
L 1695.33246 244.078125 
z
" clip-path="url(#p4166d19e7a)" style="fill: #1f77b4; fill-opacity: 0.5; stroke: #000000; stroke-width: 0.149933; stroke-linejoin: miter"/>
   </g>
   <g id="patch_135">
    <path d="M 1707.866844 244.078125 
L 1720.401228 244.078125 
L 1720.401228 244.078125 
L 1707.866844 244.078125 
z
" clip-path="url(#p4166d19e7a)" style="fill: #1f77b4; fill-opacity: 0.5; stroke: #000000; stroke-width: 0.149933; stroke-linejoin: miter"/>
   </g>
   <g id="patch_136">
    <path d="M 1720.401228 244.078125 
L 1732.935613 244.078125 
L 1732.935613 244.078125 
L 1720.401228 244.078125 
z
" clip-path="url(#p4166d19e7a)" style="fill: #1f77b4; fill-opacity: 0.5; stroke: #000000; stroke-width: 0.149933; stroke-linejoin: miter"/>
   </g>
   <g id="patch_137">
    <path d="M 1732.935613 244.078125 
L 1745.469997 244.078125 
L 1745.469997 244.078125 
L 1732.935613 244.078125 
z
" clip-path="url(#p4166d19e7a)" style="fill: #1f77b4; fill-opacity: 0.5; stroke: #000000; stroke-width: 0.149933; stroke-linejoin: miter"/>
   </g>
   <g id="patch_138">
    <path d="M 1745.469997 244.078125 
L 1758.004381 244.078125 
L 1758.004381 244.078125 
L 1745.469997 244.078125 
z
" clip-path="url(#p4166d19e7a)" style="fill: #1f77b4; fill-opacity: 0.5; stroke: #000000; stroke-width: 0.149933; stroke-linejoin: miter"/>
   </g>
   <g id="patch_139">
    <path d="M 1758.004381 244.078125 
L 1770.538765 244.078125 
L 1770.538765 244.078125 
L 1758.004381 244.078125 
z
" clip-path="url(#p4166d19e7a)" style="fill: #1f77b4; fill-opacity: 0.5; stroke: #000000; stroke-width: 0.149933; stroke-linejoin: miter"/>
   </g>
   <g id="patch_140">
    <path d="M 1770.538765 244.078125 
L 1783.07315 244.078125 
L 1783.07315 244.078125 
L 1770.538765 244.078125 
z
" clip-path="url(#p4166d19e7a)" style="fill: #1f77b4; fill-opacity: 0.5; stroke: #000000; stroke-width: 0.149933; stroke-linejoin: miter"/>
   </g>
   <g id="patch_141">
    <path d="M 1783.07315 244.078125 
L 1795.607534 244.078125 
L 1795.607534 244.078125 
L 1783.07315 244.078125 
z
" clip-path="url(#p4166d19e7a)" style="fill: #1f77b4; fill-opacity: 0.5; stroke: #000000; stroke-width: 0.149933; stroke-linejoin: miter"/>
   </g>
   <g id="patch_142">
    <path d="M 1795.607534 244.078125 
L 1808.141918 244.078125 
L 1808.141918 244.078125 
L 1795.607534 244.078125 
z
" clip-path="url(#p4166d19e7a)" style="fill: #1f77b4; fill-opacity: 0.5; stroke: #000000; stroke-width: 0.149933; stroke-linejoin: miter"/>
   </g>
   <g id="patch_143">
    <path d="M 1808.141918 244.078125 
L 1820.676302 244.078125 
L 1820.676302 244.078125 
L 1808.141918 244.078125 
z
" clip-path="url(#p4166d19e7a)" style="fill: #1f77b4; fill-opacity: 0.5; stroke: #000000; stroke-width: 0.149933; stroke-linejoin: miter"/>
   </g>
   <g id="patch_144">
    <path d="M 1820.676302 244.078125 
L 1833.210687 244.078125 
L 1833.210687 244.078125 
L 1820.676302 244.078125 
z
" clip-path="url(#p4166d19e7a)" style="fill: #1f77b4; fill-opacity: 0.5; stroke: #000000; stroke-width: 0.149933; stroke-linejoin: miter"/>
   </g>
   <g id="patch_145">
    <path d="M 1833.210687 244.078125 
L 1845.745071 244.078125 
L 1845.745071 244.078125 
L 1833.210687 244.078125 
z
" clip-path="url(#p4166d19e7a)" style="fill: #1f77b4; fill-opacity: 0.5; stroke: #000000; stroke-width: 0.149933; stroke-linejoin: miter"/>
   </g>
   <g id="patch_146">
    <path d="M 1845.745071 244.078125 
L 1858.279455 244.078125 
L 1858.279455 244.078125 
L 1845.745071 244.078125 
z
" clip-path="url(#p4166d19e7a)" style="fill: #1f77b4; fill-opacity: 0.5; stroke: #000000; stroke-width: 0.149933; stroke-linejoin: miter"/>
   </g>
   <g id="patch_147">
    <path d="M 1858.279455 244.078125 
L 1870.813839 244.078125 
L 1870.813839 244.078125 
L 1858.279455 244.078125 
z
" clip-path="url(#p4166d19e7a)" style="fill: #1f77b4; fill-opacity: 0.5; stroke: #000000; stroke-width: 0.149933; stroke-linejoin: miter"/>
   </g>
   <g id="patch_148">
    <path d="M 1870.813839 244.078125 
L 1883.348224 244.078125 
L 1883.348224 244.078125 
L 1870.813839 244.078125 
z
" clip-path="url(#p4166d19e7a)" style="fill: #1f77b4; fill-opacity: 0.5; stroke: #000000; stroke-width: 0.149933; stroke-linejoin: miter"/>
   </g>
   <g id="patch_149">
    <path d="M 1883.348224 244.078125 
L 1895.882608 244.078125 
L 1895.882608 244.078125 
L 1883.348224 244.078125 
z
" clip-path="url(#p4166d19e7a)" style="fill: #1f77b4; fill-opacity: 0.5; stroke: #000000; stroke-width: 0.149933; stroke-linejoin: miter"/>
   </g>
   <g id="patch_150">
    <path d="M 1895.882608 244.078125 
L 1908.416992 244.078125 
L 1908.416992 244.078125 
L 1895.882608 244.078125 
z
" clip-path="url(#p4166d19e7a)" style="fill: #1f77b4; fill-opacity: 0.5; stroke: #000000; stroke-width: 0.149933; stroke-linejoin: miter"/>
   </g>
   <g id="patch_151">
    <path d="M 1908.416992 244.078125 
L 1920.951376 244.078125 
L 1920.951376 244.078125 
L 1908.416992 244.078125 
z
" clip-path="url(#p4166d19e7a)" style="fill: #1f77b4; fill-opacity: 0.5; stroke: #000000; stroke-width: 0.149933; stroke-linejoin: miter"/>
   </g>
   <g id="patch_152">
    <path d="M 1920.951376 244.078125 
L 1933.48576 244.078125 
L 1933.48576 244.078125 
L 1920.951376 244.078125 
z
" clip-path="url(#p4166d19e7a)" style="fill: #1f77b4; fill-opacity: 0.5; stroke: #000000; stroke-width: 0.149933; stroke-linejoin: miter"/>
   </g>
   <g id="patch_153">
    <path d="M 1933.48576 244.078125 
L 1946.020145 244.078125 
L 1946.020145 244.078125 
L 1933.48576 244.078125 
z
" clip-path="url(#p4166d19e7a)" style="fill: #1f77b4; fill-opacity: 0.5; stroke: #000000; stroke-width: 0.149933; stroke-linejoin: miter"/>
   </g>
   <g id="patch_154">
    <path d="M 1946.020145 244.078125 
L 1958.554529 244.078125 
L 1958.554529 244.078125 
L 1946.020145 244.078125 
z
" clip-path="url(#p4166d19e7a)" style="fill: #1f77b4; fill-opacity: 0.5; stroke: #000000; stroke-width: 0.149933; stroke-linejoin: miter"/>
   </g>
   <g id="patch_155">
    <path d="M 1958.554529 244.078125 
L 1971.088913 244.078125 
L 1971.088913 244.078125 
L 1958.554529 244.078125 
z
" clip-path="url(#p4166d19e7a)" style="fill: #1f77b4; fill-opacity: 0.5; stroke: #000000; stroke-width: 0.149933; stroke-linejoin: miter"/>
   </g>
   <g id="patch_156">
    <path d="M 1971.088913 244.078125 
L 1983.623297 244.078125 
L 1983.623297 244.078125 
L 1971.088913 244.078125 
z
" clip-path="url(#p4166d19e7a)" style="fill: #1f77b4; fill-opacity: 0.5; stroke: #000000; stroke-width: 0.149933; stroke-linejoin: miter"/>
   </g>
   <g id="patch_157">
    <path d="M 1983.623297 244.078125 
L 1996.157682 244.078125 
L 1996.157682 244.078125 
L 1983.623297 244.078125 
z
" clip-path="url(#p4166d19e7a)" style="fill: #1f77b4; fill-opacity: 0.5; stroke: #000000; stroke-width: 0.149933; stroke-linejoin: miter"/>
   </g>
   <g id="patch_158">
    <path d="M 1996.157682 244.078125 
L 2008.692066 244.078125 
L 2008.692066 244.078125 
L 1996.157682 244.078125 
z
" clip-path="url(#p4166d19e7a)" style="fill: #1f77b4; fill-opacity: 0.5; stroke: #000000; stroke-width: 0.149933; stroke-linejoin: miter"/>
   </g>
   <g id="patch_159">
    <path d="M 2008.692066 244.078125 
L 2021.22645 244.078125 
L 2021.22645 244.078125 
L 2008.692066 244.078125 
z
" clip-path="url(#p4166d19e7a)" style="fill: #1f77b4; fill-opacity: 0.5; stroke: #000000; stroke-width: 0.149933; stroke-linejoin: miter"/>
   </g>
   <g id="patch_160">
    <path d="M 2021.22645 244.078125 
L 2033.760834 244.078125 
L 2033.760834 244.078125 
L 2021.22645 244.078125 
z
" clip-path="url(#p4166d19e7a)" style="fill: #1f77b4; fill-opacity: 0.5; stroke: #000000; stroke-width: 0.149933; stroke-linejoin: miter"/>
   </g>
   <g id="patch_161">
    <path d="M 2033.760834 244.078125 
L 2046.295219 244.078125 
L 2046.295219 244.078125 
L 2033.760834 244.078125 
z
" clip-path="url(#p4166d19e7a)" style="fill: #1f77b4; fill-opacity: 0.5; stroke: #000000; stroke-width: 0.149933; stroke-linejoin: miter"/>
   </g>
   <g id="patch_162">
    <path d="M 2046.295219 244.078125 
L 2058.829603 244.078125 
L 2058.829603 244.078125 
L 2046.295219 244.078125 
z
" clip-path="url(#p4166d19e7a)" style="fill: #1f77b4; fill-opacity: 0.5; stroke: #000000; stroke-width: 0.149933; stroke-linejoin: miter"/>
   </g>
   <g id="patch_163">
    <path d="M 2058.829603 244.078125 
L 2071.363987 244.078125 
L 2071.363987 244.078125 
L 2058.829603 244.078125 
z
" clip-path="url(#p4166d19e7a)" style="fill: #1f77b4; fill-opacity: 0.5; stroke: #000000; stroke-width: 0.149933; stroke-linejoin: miter"/>
   </g>
   <g id="patch_164">
    <path d="M 2071.363987 244.078125 
L 2083.898371 244.078125 
L 2083.898371 244.078125 
L 2071.363987 244.078125 
z
" clip-path="url(#p4166d19e7a)" style="fill: #1f77b4; fill-opacity: 0.5; stroke: #000000; stroke-width: 0.149933; stroke-linejoin: miter"/>
   </g>
   <g id="patch_165">
    <path d="M 2083.898371 244.078125 
L 2096.432756 244.078125 
L 2096.432756 244.078125 
L 2083.898371 244.078125 
z
" clip-path="url(#p4166d19e7a)" style="fill: #1f77b4; fill-opacity: 0.5; stroke: #000000; stroke-width: 0.149933; stroke-linejoin: miter"/>
   </g>
   <g id="patch_166">
    <path d="M 2096.432756 244.078125 
L 2108.96714 244.078125 
L 2108.96714 244.078125 
L 2096.432756 244.078125 
z
" clip-path="url(#p4166d19e7a)" style="fill: #1f77b4; fill-opacity: 0.5; stroke: #000000; stroke-width: 0.149933; stroke-linejoin: miter"/>
   </g>
   <g id="patch_167">
    <path d="M 2108.96714 244.078125 
L 2121.501524 244.078125 
L 2121.501524 244.078125 
L 2108.96714 244.078125 
z
" clip-path="url(#p4166d19e7a)" style="fill: #1f77b4; fill-opacity: 0.5; stroke: #000000; stroke-width: 0.149933; stroke-linejoin: miter"/>
   </g>
   <g id="patch_168">
    <path d="M 2121.501524 244.078125 
L 2134.035908 244.078125 
L 2134.035908 244.078125 
L 2121.501524 244.078125 
z
" clip-path="url(#p4166d19e7a)" style="fill: #1f77b4; fill-opacity: 0.5; stroke: #000000; stroke-width: 0.149933; stroke-linejoin: miter"/>
   </g>
   <g id="patch_169">
    <path d="M 2134.035908 244.078125 
L 2146.570292 244.078125 
L 2146.570292 244.078125 
L 2134.035908 244.078125 
z
" clip-path="url(#p4166d19e7a)" style="fill: #1f77b4; fill-opacity: 0.5; stroke: #000000; stroke-width: 0.149933; stroke-linejoin: miter"/>
   </g>
   <g id="patch_170">
    <path d="M 2146.570292 244.078125 
L 2159.104677 244.078125 
L 2159.104677 244.078125 
L 2146.570292 244.078125 
z
" clip-path="url(#p4166d19e7a)" style="fill: #1f77b4; fill-opacity: 0.5; stroke: #000000; stroke-width: 0.149933; stroke-linejoin: miter"/>
   </g>
   <g id="patch_171">
    <path d="M 2159.104677 244.078125 
L 2171.639061 244.078125 
L 2171.639061 244.078125 
L 2159.104677 244.078125 
z
" clip-path="url(#p4166d19e7a)" style="fill: #1f77b4; fill-opacity: 0.5; stroke: #000000; stroke-width: 0.149933; stroke-linejoin: miter"/>
   </g>
   <g id="patch_172">
    <path d="M 2171.639061 244.078125 
L 2184.173445 244.078125 
L 2184.173445 244.078125 
L 2171.639061 244.078125 
z
" clip-path="url(#p4166d19e7a)" style="fill: #1f77b4; fill-opacity: 0.5; stroke: #000000; stroke-width: 0.149933; stroke-linejoin: miter"/>
   </g>
   <g id="patch_173">
    <path d="M 2184.173445 244.078125 
L 2196.707829 244.078125 
L 2196.707829 244.078125 
L 2184.173445 244.078125 
z
" clip-path="url(#p4166d19e7a)" style="fill: #1f77b4; fill-opacity: 0.5; stroke: #000000; stroke-width: 0.149933; stroke-linejoin: miter"/>
   </g>
   <g id="patch_174">
    <path d="M 2196.707829 244.078125 
L 2209.242214 244.078125 
L 2209.242214 244.078125 
L 2196.707829 244.078125 
z
" clip-path="url(#p4166d19e7a)" style="fill: #1f77b4; fill-opacity: 0.5; stroke: #000000; stroke-width: 0.149933; stroke-linejoin: miter"/>
   </g>
   <g id="patch_175">
    <path d="M 2209.242214 244.078125 
L 2221.776598 244.078125 
L 2221.776598 244.078125 
L 2209.242214 244.078125 
z
" clip-path="url(#p4166d19e7a)" style="fill: #1f77b4; fill-opacity: 0.5; stroke: #000000; stroke-width: 0.149933; stroke-linejoin: miter"/>
   </g>
   <g id="patch_176">
    <path d="M 2221.776598 244.078125 
L 2234.310982 244.078125 
L 2234.310982 244.078125 
L 2221.776598 244.078125 
z
" clip-path="url(#p4166d19e7a)" style="fill: #1f77b4; fill-opacity: 0.5; stroke: #000000; stroke-width: 0.149933; stroke-linejoin: miter"/>
   </g>
   <g id="patch_177">
    <path d="M 2234.310982 244.078125 
L 2246.845366 244.078125 
L 2246.845366 244.078125 
L 2234.310982 244.078125 
z
" clip-path="url(#p4166d19e7a)" style="fill: #1f77b4; fill-opacity: 0.5; stroke: #000000; stroke-width: 0.149933; stroke-linejoin: miter"/>
   </g>
   <g id="patch_178">
    <path d="M 2246.845366 244.078125 
L 2259.379751 244.078125 
L 2259.379751 244.078125 
L 2246.845366 244.078125 
z
" clip-path="url(#p4166d19e7a)" style="fill: #1f77b4; fill-opacity: 0.5; stroke: #000000; stroke-width: 0.149933; stroke-linejoin: miter"/>
   </g>
   <g id="patch_179">
    <path d="M 2259.379751 244.078125 
L 2271.914135 244.078125 
L 2271.914135 244.051662 
L 2259.379751 244.051662 
z
" clip-path="url(#p4166d19e7a)" style="fill: #1f77b4; fill-opacity: 0.5; stroke: #000000; stroke-width: 0.149933; stroke-linejoin: miter"/>
   </g>
   <g id="patch_180">
    <path d="M 2271.914135 244.078125 
L 2284.448519 244.078125 
L 2284.448519 244.078125 
L 2271.914135 244.078125 
z
" clip-path="url(#p4166d19e7a)" style="fill: #1f77b4; fill-opacity: 0.5; stroke: #000000; stroke-width: 0.149933; stroke-linejoin: miter"/>
   </g>
   <g id="patch_181">
    <path d="M 2284.448519 244.078125 
L 2296.982903 244.078125 
L 2296.982903 244.078125 
L 2284.448519 244.078125 
z
" clip-path="url(#p4166d19e7a)" style="fill: #1f77b4; fill-opacity: 0.5; stroke: #000000; stroke-width: 0.149933; stroke-linejoin: miter"/>
   </g>
   <g id="patch_182">
    <path d="M 2296.982903 244.078125 
L 2309.517288 244.078125 
L 2309.517288 244.078125 
L 2296.982903 244.078125 
z
" clip-path="url(#p4166d19e7a)" style="fill: #1f77b4; fill-opacity: 0.5; stroke: #000000; stroke-width: 0.149933; stroke-linejoin: miter"/>
   </g>
   <g id="patch_183">
    <path d="M 2309.517288 244.078125 
L 2322.051672 244.078125 
L 2322.051672 244.078125 
L 2309.517288 244.078125 
z
" clip-path="url(#p4166d19e7a)" style="fill: #1f77b4; fill-opacity: 0.5; stroke: #000000; stroke-width: 0.149933; stroke-linejoin: miter"/>
   </g>
   <g id="patch_184">
    <path d="M 2322.051672 244.078125 
L 2334.586056 244.078125 
L 2334.586056 244.078125 
L 2322.051672 244.078125 
z
" clip-path="url(#p4166d19e7a)" style="fill: #1f77b4; fill-opacity: 0.5; stroke: #000000; stroke-width: 0.149933; stroke-linejoin: miter"/>
   </g>
   <g id="patch_185">
    <path d="M 2334.586056 244.078125 
L 2347.12044 244.078125 
L 2347.12044 244.078125 
L 2334.586056 244.078125 
z
" clip-path="url(#p4166d19e7a)" style="fill: #1f77b4; fill-opacity: 0.5; stroke: #000000; stroke-width: 0.149933; stroke-linejoin: miter"/>
   </g>
   <g id="patch_186">
    <path d="M 2347.12044 244.078125 
L 2359.654825 244.078125 
L 2359.654825 244.078125 
L 2347.12044 244.078125 
z
" clip-path="url(#p4166d19e7a)" style="fill: #1f77b4; fill-opacity: 0.5; stroke: #000000; stroke-width: 0.149933; stroke-linejoin: miter"/>
   </g>
   <g id="patch_187">
    <path d="M 2359.654825 244.078125 
L 2372.189209 244.078125 
L 2372.189209 244.078125 
L 2359.654825 244.078125 
z
" clip-path="url(#p4166d19e7a)" style="fill: #1f77b4; fill-opacity: 0.5; stroke: #000000; stroke-width: 0.149933; stroke-linejoin: miter"/>
   </g>
   <g id="patch_188">
    <path d="M 2372.189209 244.078125 
L 2384.723593 244.078125 
L 2384.723593 244.078125 
L 2372.189209 244.078125 
z
" clip-path="url(#p4166d19e7a)" style="fill: #1f77b4; fill-opacity: 0.5; stroke: #000000; stroke-width: 0.149933; stroke-linejoin: miter"/>
   </g>
   <g id="patch_189">
    <path d="M 2384.723593 244.078125 
L 2397.257977 244.078125 
L 2397.257977 244.025199 
L 2384.723593 244.025199 
z
" clip-path="url(#p4166d19e7a)" style="fill: #1f77b4; fill-opacity: 0.5; stroke: #000000; stroke-width: 0.149933; stroke-linejoin: miter"/>
   </g>
   <g id="patch_190">
    <path d="M 2397.257977 244.078125 
L 2409.792361 244.078125 
L 2409.792361 244.078125 
L 2397.257977 244.078125 
z
" clip-path="url(#p4166d19e7a)" style="fill: #1f77b4; fill-opacity: 0.5; stroke: #000000; stroke-width: 0.149933; stroke-linejoin: miter"/>
   </g>
   <g id="patch_191">
    <path d="M 2409.792361 244.078125 
L 2422.326746 244.078125 
L 2422.326746 244.078125 
L 2409.792361 244.078125 
z
" clip-path="url(#p4166d19e7a)" style="fill: #1f77b4; fill-opacity: 0.5; stroke: #000000; stroke-width: 0.149933; stroke-linejoin: miter"/>
   </g>
   <g id="patch_192">
    <path d="M 2422.326746 244.078125 
L 2434.86113 244.078125 
L 2434.86113 244.078125 
L 2422.326746 244.078125 
z
" clip-path="url(#p4166d19e7a)" style="fill: #1f77b4; fill-opacity: 0.5; stroke: #000000; stroke-width: 0.149933; stroke-linejoin: miter"/>
   </g>
   <g id="patch_193">
    <path d="M 2434.86113 244.078125 
L 2447.395514 244.078125 
L 2447.395514 244.078125 
L 2434.86113 244.078125 
z
" clip-path="url(#p4166d19e7a)" style="fill: #1f77b4; fill-opacity: 0.5; stroke: #000000; stroke-width: 0.149933; stroke-linejoin: miter"/>
   </g>
   <g id="patch_194">
    <path d="M 2447.395514 244.078125 
L 2459.929898 244.078125 
L 2459.929898 244.078125 
L 2447.395514 244.078125 
z
" clip-path="url(#p4166d19e7a)" style="fill: #1f77b4; fill-opacity: 0.5; stroke: #000000; stroke-width: 0.149933; stroke-linejoin: miter"/>
   </g>
   <g id="patch_195">
    <path d="M 2459.929898 244.078125 
L 2472.464283 244.078125 
L 2472.464283 243.972274 
L 2459.929898 243.972274 
z
" clip-path="url(#p4166d19e7a)" style="fill: #1f77b4; fill-opacity: 0.5; stroke: #000000; stroke-width: 0.149933; stroke-linejoin: miter"/>
   </g>
   <g id="patch_196">
    <path d="M 2472.464283 244.078125 
L 2484.998667 244.078125 
L 2484.998667 244.078125 
L 2472.464283 244.078125 
z
" clip-path="url(#p4166d19e7a)" style="fill: #1f77b4; fill-opacity: 0.5; stroke: #000000; stroke-width: 0.149933; stroke-linejoin: miter"/>
   </g>
   <g id="patch_197">
    <path d="M 2484.998667 244.078125 
L 2497.533051 244.078125 
L 2497.533051 244.078125 
L 2484.998667 244.078125 
z
" clip-path="url(#p4166d19e7a)" style="fill: #1f77b4; fill-opacity: 0.5; stroke: #000000; stroke-width: 0.149933; stroke-linejoin: miter"/>
   </g>
   <g id="patch_198">
    <path d="M 2497.533051 244.078125 
L 2510.067435 244.078125 
L 2510.067435 244.078125 
L 2497.533051 244.078125 
z
" clip-path="url(#p4166d19e7a)" style="fill: #1f77b4; fill-opacity: 0.5; stroke: #000000; stroke-width: 0.149933; stroke-linejoin: miter"/>
   </g>
   <g id="patch_199">
    <path d="M 2510.067435 244.078125 
L 2522.60182 244.078125 
L 2522.60182 244.078125 
L 2510.067435 244.078125 
z
" clip-path="url(#p4166d19e7a)" style="fill: #1f77b4; fill-opacity: 0.5; stroke: #000000; stroke-width: 0.149933; stroke-linejoin: miter"/>
   </g>
   <g id="patch_200">
    <path d="M 2522.60182 244.078125 
L 2535.136204 244.078125 
L 2535.136204 243.469479 
L 2522.60182 243.469479 
z
" clip-path="url(#p4166d19e7a)" style="fill: #1f77b4; fill-opacity: 0.5; stroke: #000000; stroke-width: 0.149933; stroke-linejoin: miter"/>
   </g>
   <g id="patch_201">
    <path d="M 2535.136204 244.078125 
L 2547.670588 244.078125 
L 2547.670588 244.078125 
L 2535.136204 244.078125 
z
" clip-path="url(#p4166d19e7a)" style="fill: #1f77b4; fill-opacity: 0.5; stroke: #000000; stroke-width: 0.149933; stroke-linejoin: miter"/>
   </g>
   <g id="patch_202">
    <path d="M 2547.670588 244.078125 
L 2560.204972 244.078125 
L 2560.204972 244.078125 
L 2547.670588 244.078125 
z
" clip-path="url(#p4166d19e7a)" style="fill: #1f77b4; fill-opacity: 0.5; stroke: #000000; stroke-width: 0.149933; stroke-linejoin: miter"/>
   </g>
   <g id="patch_203">
    <path d="M 2560.204972 244.078125 
L 2572.739357 244.078125 
L 2572.739357 244.078125 
L 2560.204972 244.078125 
z
" clip-path="url(#p4166d19e7a)" style="fill: #1f77b4; fill-opacity: 0.5; stroke: #000000; stroke-width: 0.149933; stroke-linejoin: miter"/>
   </g>
   <g id="patch_204">
    <path d="M 2572.739357 244.078125 
L 2585.273741 244.078125 
L 2585.273741 244.078125 
L 2572.739357 244.078125 
z
" clip-path="url(#p4166d19e7a)" style="fill: #1f77b4; fill-opacity: 0.5; stroke: #000000; stroke-width: 0.149933; stroke-linejoin: miter"/>
   </g>
   <g id="patch_205">
    <path d="M 2585.273741 244.078125 
L 2597.808125 244.078125 
L 2597.808125 244.025199 
L 2585.273741 244.025199 
z
" clip-path="url(#p4166d19e7a)" style="fill: #1f77b4; fill-opacity: 0.5; stroke: #000000; stroke-width: 0.149933; stroke-linejoin: miter"/>
   </g>
   <g id="matplotlib.axis_1">
    <g id="xtick_1">
     <g id="line2d_1">
      <defs>
       <path id="m5f6699d9cc" d="M 0 0 
L 0 3.5 
" style="stroke: #000000; stroke-width: 0.8"/>
      </defs>
      <g>
       <use xlink:href="#m5f6699d9cc" x="53.328125" y="244.078125" style="stroke: #000000; stroke-width: 0.8"/>
      </g>
     </g>
     <g id="text_1">
      <!-- 0 -->
      <g transform="translate(50.146875 258.676562) scale(0.1 -0.1)">
       <defs>
        <path id="DejaVuSans-30" d="M 2034 4250 
Q 1547 4250 1301 3770 
Q 1056 3291 1056 2328 
Q 1056 1369 1301 889 
Q 1547 409 2034 409 
Q 2525 409 2770 889 
Q 3016 1369 3016 2328 
Q 3016 3291 2770 3770 
Q 2525 4250 2034 4250 
z
M 2034 4750 
Q 2819 4750 3233 4129 
Q 3647 3509 3647 2328 
Q 3647 1150 3233 529 
Q 2819 -91 2034 -91 
Q 1250 -91 836 529 
Q 422 1150 422 2328 
Q 422 3509 836 4129 
Q 1250 4750 2034 4750 
z
" transform="scale(0.015625)"/>
       </defs>
       <use xlink:href="#DejaVuSans-30"/>
      </g>
     </g>
    </g>
    <g id="xtick_2">
     <g id="line2d_2">
      <g>
       <use xlink:href="#m5f6699d9cc" x="120.288125" y="244.078125" style="stroke: #000000; stroke-width: 0.8"/>
      </g>
     </g>
     <g id="text_2">
      <!-- 1 -->
      <g transform="translate(117.106875 258.676562) scale(0.1 -0.1)">
       <defs>
        <path id="DejaVuSans-31" d="M 794 531 
L 1825 531 
L 1825 4091 
L 703 3866 
L 703 4441 
L 1819 4666 
L 2450 4666 
L 2450 531 
L 3481 531 
L 3481 0 
L 794 0 
L 794 531 
z
" transform="scale(0.015625)"/>
       </defs>
       <use xlink:href="#DejaVuSans-31"/>
      </g>
     </g>
    </g>
    <g id="xtick_3">
     <g id="line2d_3">
      <g>
       <use xlink:href="#m5f6699d9cc" x="187.248125" y="244.078125" style="stroke: #000000; stroke-width: 0.8"/>
      </g>
     </g>
     <g id="text_3">
      <!-- 2 -->
      <g transform="translate(184.066875 258.676562) scale(0.1 -0.1)">
       <defs>
        <path id="DejaVuSans-32" d="M 1228 531 
L 3431 531 
L 3431 0 
L 469 0 
L 469 531 
Q 828 903 1448 1529 
Q 2069 2156 2228 2338 
Q 2531 2678 2651 2914 
Q 2772 3150 2772 3378 
Q 2772 3750 2511 3984 
Q 2250 4219 1831 4219 
Q 1534 4219 1204 4116 
Q 875 4013 500 3803 
L 500 4441 
Q 881 4594 1212 4672 
Q 1544 4750 1819 4750 
Q 2544 4750 2975 4387 
Q 3406 4025 3406 3419 
Q 3406 3131 3298 2873 
Q 3191 2616 2906 2266 
Q 2828 2175 2409 1742 
Q 1991 1309 1228 531 
z
" transform="scale(0.015625)"/>
       </defs>
       <use xlink:href="#DejaVuSans-32"/>
      </g>
     </g>
    </g>
    <g id="xtick_4">
     <g id="line2d_4">
      <g>
       <use xlink:href="#m5f6699d9cc" x="254.208125" y="244.078125" style="stroke: #000000; stroke-width: 0.8"/>
      </g>
     </g>
     <g id="text_4">
      <!-- 3 -->
      <g transform="translate(251.026875 258.676562) scale(0.1 -0.1)">
       <defs>
        <path id="DejaVuSans-33" d="M 2597 2516 
Q 3050 2419 3304 2112 
Q 3559 1806 3559 1356 
Q 3559 666 3084 287 
Q 2609 -91 1734 -91 
Q 1441 -91 1130 -33 
Q 819 25 488 141 
L 488 750 
Q 750 597 1062 519 
Q 1375 441 1716 441 
Q 2309 441 2620 675 
Q 2931 909 2931 1356 
Q 2931 1769 2642 2001 
Q 2353 2234 1838 2234 
L 1294 2234 
L 1294 2753 
L 1863 2753 
Q 2328 2753 2575 2939 
Q 2822 3125 2822 3475 
Q 2822 3834 2567 4026 
Q 2313 4219 1838 4219 
Q 1578 4219 1281 4162 
Q 984 4106 628 3988 
L 628 4550 
Q 988 4650 1302 4700 
Q 1616 4750 1894 4750 
Q 2613 4750 3031 4423 
Q 3450 4097 3450 3541 
Q 3450 3153 3228 2886 
Q 3006 2619 2597 2516 
z
" transform="scale(0.015625)"/>
       </defs>
       <use xlink:href="#DejaVuSans-33"/>
      </g>
     </g>
    </g>
    <g id="xtick_5">
     <g id="line2d_5">
      <g>
       <use xlink:href="#m5f6699d9cc" x="321.168125" y="244.078125" style="stroke: #000000; stroke-width: 0.8"/>
      </g>
     </g>
     <g id="text_5">
      <!-- 4 -->
      <g transform="translate(317.986875 258.676562) scale(0.1 -0.1)">
       <defs>
        <path id="DejaVuSans-34" d="M 2419 4116 
L 825 1625 
L 2419 1625 
L 2419 4116 
z
M 2253 4666 
L 3047 4666 
L 3047 1625 
L 3713 1625 
L 3713 1100 
L 3047 1100 
L 3047 0 
L 2419 0 
L 2419 1100 
L 313 1100 
L 313 1709 
L 2253 4666 
z
" transform="scale(0.015625)"/>
       </defs>
       <use xlink:href="#DejaVuSans-34"/>
      </g>
     </g>
    </g>
    <g id="xtick_6">
     <g id="line2d_6">
      <g>
       <use xlink:href="#m5f6699d9cc" x="388.128125" y="244.078125" style="stroke: #000000; stroke-width: 0.8"/>
      </g>
     </g>
     <g id="text_6">
      <!-- 5 -->
      <g transform="translate(384.946875 258.676562) scale(0.1 -0.1)">
       <defs>
        <path id="DejaVuSans-35" d="M 691 4666 
L 3169 4666 
L 3169 4134 
L 1269 4134 
L 1269 2991 
Q 1406 3038 1543 3061 
Q 1681 3084 1819 3084 
Q 2600 3084 3056 2656 
Q 3513 2228 3513 1497 
Q 3513 744 3044 326 
Q 2575 -91 1722 -91 
Q 1428 -91 1123 -41 
Q 819 9 494 109 
L 494 744 
Q 775 591 1075 516 
Q 1375 441 1709 441 
Q 2250 441 2565 725 
Q 2881 1009 2881 1497 
Q 2881 1984 2565 2268 
Q 2250 2553 1709 2553 
Q 1456 2553 1204 2497 
Q 953 2441 691 2322 
L 691 4666 
z
" transform="scale(0.015625)"/>
       </defs>
       <use xlink:href="#DejaVuSans-35"/>
      </g>
     </g>
    </g>
    <g id="text_7">
     <!-- rexp -->
     <g transform="translate(209.6625 272.354687) scale(0.1 -0.1)">
      <defs>
       <path id="DejaVuSans-72" d="M 2631 2963 
Q 2534 3019 2420 3045 
Q 2306 3072 2169 3072 
Q 1681 3072 1420 2755 
Q 1159 2438 1159 1844 
L 1159 0 
L 581 0 
L 581 3500 
L 1159 3500 
L 1159 2956 
Q 1341 3275 1631 3429 
Q 1922 3584 2338 3584 
Q 2397 3584 2469 3576 
Q 2541 3569 2628 3553 
L 2631 2963 
z
" transform="scale(0.015625)"/>
       <path id="DejaVuSans-65" d="M 3597 1894 
L 3597 1613 
L 953 1613 
Q 991 1019 1311 708 
Q 1631 397 2203 397 
Q 2534 397 2845 478 
Q 3156 559 3463 722 
L 3463 178 
Q 3153 47 2828 -22 
Q 2503 -91 2169 -91 
Q 1331 -91 842 396 
Q 353 884 353 1716 
Q 353 2575 817 3079 
Q 1281 3584 2069 3584 
Q 2775 3584 3186 3129 
Q 3597 2675 3597 1894 
z
M 3022 2063 
Q 3016 2534 2758 2815 
Q 2500 3097 2075 3097 
Q 1594 3097 1305 2825 
Q 1016 2553 972 2059 
L 3022 2063 
z
" transform="scale(0.015625)"/>
       <path id="DejaVuSans-78" d="M 3513 3500 
L 2247 1797 
L 3578 0 
L 2900 0 
L 1881 1375 
L 863 0 
L 184 0 
L 1544 1831 
L 300 3500 
L 978 3500 
L 1906 2253 
L 2834 3500 
L 3513 3500 
z
" transform="scale(0.015625)"/>
       <path id="DejaVuSans-70" d="M 1159 525 
L 1159 -1331 
L 581 -1331 
L 581 3500 
L 1159 3500 
L 1159 2969 
Q 1341 3281 1617 3432 
Q 1894 3584 2278 3584 
Q 2916 3584 3314 3078 
Q 3713 2572 3713 1747 
Q 3713 922 3314 415 
Q 2916 -91 2278 -91 
Q 1894 -91 1617 61 
Q 1341 213 1159 525 
z
M 3116 1747 
Q 3116 2381 2855 2742 
Q 2594 3103 2138 3103 
Q 1681 3103 1420 2742 
Q 1159 2381 1159 1747 
Q 1159 1113 1420 752 
Q 1681 391 2138 391 
Q 2594 391 2855 752 
Q 3116 1113 3116 1747 
z
" transform="scale(0.015625)"/>
      </defs>
      <use xlink:href="#DejaVuSans-72"/>
      <use xlink:href="#DejaVuSans-65" transform="translate(38.863281 0)"/>
      <use xlink:href="#DejaVuSans-78" transform="translate(98.636719 0)"/>
      <use xlink:href="#DejaVuSans-70" transform="translate(157.816406 0)"/>
     </g>
    </g>
   </g>
   <g id="matplotlib.axis_2">
    <g id="ytick_1">
     <g id="line2d_7">
      <defs>
       <path id="mf107cf8ac1" d="M 0 0 
L -3.5 0 
" style="stroke: #000000; stroke-width: 0.8"/>
      </defs>
      <g>
       <use xlink:href="#mf107cf8ac1" x="53.328125" y="244.078125" style="stroke: #000000; stroke-width: 0.8"/>
      </g>
     </g>
     <g id="text_8">
      <!-- 0 -->
      <g transform="translate(39.965625 247.877344) scale(0.1 -0.1)">
       <use xlink:href="#DejaVuSans-30"/>
      </g>
     </g>
    </g>
    <g id="ytick_2">
     <g id="line2d_8">
      <g>
       <use xlink:href="#mf107cf8ac1" x="53.328125" y="217.615276" style="stroke: #000000; stroke-width: 0.8"/>
      </g>
     </g>
     <g id="text_9">
      <!-- 1000 -->
      <g transform="translate(20.878125 221.414494) scale(0.1 -0.1)">
       <use xlink:href="#DejaVuSans-31"/>
       <use xlink:href="#DejaVuSans-30" transform="translate(63.623047 0)"/>
       <use xlink:href="#DejaVuSans-30" transform="translate(127.246094 0)"/>
       <use xlink:href="#DejaVuSans-30" transform="translate(190.869141 0)"/>
      </g>
     </g>
    </g>
    <g id="ytick_3">
     <g id="line2d_9">
      <g>
       <use xlink:href="#mf107cf8ac1" x="53.328125" y="191.152426" style="stroke: #000000; stroke-width: 0.8"/>
      </g>
     </g>
     <g id="text_10">
      <!-- 2000 -->
      <g transform="translate(20.878125 194.951645) scale(0.1 -0.1)">
       <use xlink:href="#DejaVuSans-32"/>
       <use xlink:href="#DejaVuSans-30" transform="translate(63.623047 0)"/>
       <use xlink:href="#DejaVuSans-30" transform="translate(127.246094 0)"/>
       <use xlink:href="#DejaVuSans-30" transform="translate(190.869141 0)"/>
      </g>
     </g>
    </g>
    <g id="ytick_4">
     <g id="line2d_10">
      <g>
       <use xlink:href="#mf107cf8ac1" x="53.328125" y="164.689577" style="stroke: #000000; stroke-width: 0.8"/>
      </g>
     </g>
     <g id="text_11">
      <!-- 3000 -->
      <g transform="translate(20.878125 168.488796) scale(0.1 -0.1)">
       <use xlink:href="#DejaVuSans-33"/>
       <use xlink:href="#DejaVuSans-30" transform="translate(63.623047 0)"/>
       <use xlink:href="#DejaVuSans-30" transform="translate(127.246094 0)"/>
       <use xlink:href="#DejaVuSans-30" transform="translate(190.869141 0)"/>
      </g>
     </g>
    </g>
    <g id="ytick_5">
     <g id="line2d_11">
      <g>
       <use xlink:href="#mf107cf8ac1" x="53.328125" y="138.226728" style="stroke: #000000; stroke-width: 0.8"/>
      </g>
     </g>
     <g id="text_12">
      <!-- 4000 -->
      <g transform="translate(20.878125 142.025947) scale(0.1 -0.1)">
       <use xlink:href="#DejaVuSans-34"/>
       <use xlink:href="#DejaVuSans-30" transform="translate(63.623047 0)"/>
       <use xlink:href="#DejaVuSans-30" transform="translate(127.246094 0)"/>
       <use xlink:href="#DejaVuSans-30" transform="translate(190.869141 0)"/>
      </g>
     </g>
    </g>
    <g id="ytick_6">
     <g id="line2d_12">
      <g>
       <use xlink:href="#mf107cf8ac1" x="53.328125" y="111.763879" style="stroke: #000000; stroke-width: 0.8"/>
      </g>
     </g>
     <g id="text_13">
      <!-- 5000 -->
      <g transform="translate(20.878125 115.563097) scale(0.1 -0.1)">
       <use xlink:href="#DejaVuSans-35"/>
       <use xlink:href="#DejaVuSans-30" transform="translate(63.623047 0)"/>
       <use xlink:href="#DejaVuSans-30" transform="translate(127.246094 0)"/>
       <use xlink:href="#DejaVuSans-30" transform="translate(190.869141 0)"/>
      </g>
     </g>
    </g>
    <g id="ytick_7">
     <g id="line2d_13">
      <g>
       <use xlink:href="#mf107cf8ac1" x="53.328125" y="85.301029" style="stroke: #000000; stroke-width: 0.8"/>
      </g>
     </g>
     <g id="text_14">
      <!-- 6000 -->
      <g transform="translate(20.878125 89.100248) scale(0.1 -0.1)">
       <defs>
        <path id="DejaVuSans-36" d="M 2113 2584 
Q 1688 2584 1439 2293 
Q 1191 2003 1191 1497 
Q 1191 994 1439 701 
Q 1688 409 2113 409 
Q 2538 409 2786 701 
Q 3034 994 3034 1497 
Q 3034 2003 2786 2293 
Q 2538 2584 2113 2584 
z
M 3366 4563 
L 3366 3988 
Q 3128 4100 2886 4159 
Q 2644 4219 2406 4219 
Q 1781 4219 1451 3797 
Q 1122 3375 1075 2522 
Q 1259 2794 1537 2939 
Q 1816 3084 2150 3084 
Q 2853 3084 3261 2657 
Q 3669 2231 3669 1497 
Q 3669 778 3244 343 
Q 2819 -91 2113 -91 
Q 1303 -91 875 529 
Q 447 1150 447 2328 
Q 447 3434 972 4092 
Q 1497 4750 2381 4750 
Q 2619 4750 2861 4703 
Q 3103 4656 3366 4563 
z
" transform="scale(0.015625)"/>
       </defs>
       <use xlink:href="#DejaVuSans-36"/>
       <use xlink:href="#DejaVuSans-30" transform="translate(63.623047 0)"/>
       <use xlink:href="#DejaVuSans-30" transform="translate(127.246094 0)"/>
       <use xlink:href="#DejaVuSans-30" transform="translate(190.869141 0)"/>
      </g>
     </g>
    </g>
    <g id="ytick_8">
     <g id="line2d_14">
      <g>
       <use xlink:href="#mf107cf8ac1" x="53.328125" y="58.83818" style="stroke: #000000; stroke-width: 0.8"/>
      </g>
     </g>
     <g id="text_15">
      <!-- 7000 -->
      <g transform="translate(20.878125 62.637399) scale(0.1 -0.1)">
       <defs>
        <path id="DejaVuSans-37" d="M 525 4666 
L 3525 4666 
L 3525 4397 
L 1831 0 
L 1172 0 
L 2766 4134 
L 525 4134 
L 525 4666 
z
" transform="scale(0.015625)"/>
       </defs>
       <use xlink:href="#DejaVuSans-37"/>
       <use xlink:href="#DejaVuSans-30" transform="translate(63.623047 0)"/>
       <use xlink:href="#DejaVuSans-30" transform="translate(127.246094 0)"/>
       <use xlink:href="#DejaVuSans-30" transform="translate(190.869141 0)"/>
      </g>
     </g>
    </g>
    <g id="ytick_9">
     <g id="line2d_15">
      <g>
       <use xlink:href="#mf107cf8ac1" x="53.328125" y="32.375331" style="stroke: #000000; stroke-width: 0.8"/>
      </g>
     </g>
     <g id="text_16">
      <!-- 8000 -->
      <g transform="translate(20.878125 36.17455) scale(0.1 -0.1)">
       <defs>
        <path id="DejaVuSans-38" d="M 2034 2216 
Q 1584 2216 1326 1975 
Q 1069 1734 1069 1313 
Q 1069 891 1326 650 
Q 1584 409 2034 409 
Q 2484 409 2743 651 
Q 3003 894 3003 1313 
Q 3003 1734 2745 1975 
Q 2488 2216 2034 2216 
z
M 1403 2484 
Q 997 2584 770 2862 
Q 544 3141 544 3541 
Q 544 4100 942 4425 
Q 1341 4750 2034 4750 
Q 2731 4750 3128 4425 
Q 3525 4100 3525 3541 
Q 3525 3141 3298 2862 
Q 3072 2584 2669 2484 
Q 3125 2378 3379 2068 
Q 3634 1759 3634 1313 
Q 3634 634 3220 271 
Q 2806 -91 2034 -91 
Q 1263 -91 848 271 
Q 434 634 434 1313 
Q 434 1759 690 2068 
Q 947 2378 1403 2484 
z
M 1172 3481 
Q 1172 3119 1398 2916 
Q 1625 2713 2034 2713 
Q 2441 2713 2670 2916 
Q 2900 3119 2900 3481 
Q 2900 3844 2670 4047 
Q 2441 4250 2034 4250 
Q 1625 4250 1398 4047 
Q 1172 3844 1172 3481 
z
" transform="scale(0.015625)"/>
       </defs>
       <use xlink:href="#DejaVuSans-38"/>
       <use xlink:href="#DejaVuSans-30" transform="translate(63.623047 0)"/>
       <use xlink:href="#DejaVuSans-30" transform="translate(127.246094 0)"/>
       <use xlink:href="#DejaVuSans-30" transform="translate(190.869141 0)"/>
      </g>
     </g>
    </g>
    <g id="text_17">
     <!-- Count -->
     <g transform="translate(14.798438 148.046562) rotate(-90) scale(0.1 -0.1)">
      <defs>
       <path id="DejaVuSans-43" d="M 4122 4306 
L 4122 3641 
Q 3803 3938 3442 4084 
Q 3081 4231 2675 4231 
Q 1875 4231 1450 3742 
Q 1025 3253 1025 2328 
Q 1025 1406 1450 917 
Q 1875 428 2675 428 
Q 3081 428 3442 575 
Q 3803 722 4122 1019 
L 4122 359 
Q 3791 134 3420 21 
Q 3050 -91 2638 -91 
Q 1578 -91 968 557 
Q 359 1206 359 2328 
Q 359 3453 968 4101 
Q 1578 4750 2638 4750 
Q 3056 4750 3426 4639 
Q 3797 4528 4122 4306 
z
" transform="scale(0.015625)"/>
       <path id="DejaVuSans-6f" d="M 1959 3097 
Q 1497 3097 1228 2736 
Q 959 2375 959 1747 
Q 959 1119 1226 758 
Q 1494 397 1959 397 
Q 2419 397 2687 759 
Q 2956 1122 2956 1747 
Q 2956 2369 2687 2733 
Q 2419 3097 1959 3097 
z
M 1959 3584 
Q 2709 3584 3137 3096 
Q 3566 2609 3566 1747 
Q 3566 888 3137 398 
Q 2709 -91 1959 -91 
Q 1206 -91 779 398 
Q 353 888 353 1747 
Q 353 2609 779 3096 
Q 1206 3584 1959 3584 
z
" transform="scale(0.015625)"/>
       <path id="DejaVuSans-75" d="M 544 1381 
L 544 3500 
L 1119 3500 
L 1119 1403 
Q 1119 906 1312 657 
Q 1506 409 1894 409 
Q 2359 409 2629 706 
Q 2900 1003 2900 1516 
L 2900 3500 
L 3475 3500 
L 3475 0 
L 2900 0 
L 2900 538 
Q 2691 219 2414 64 
Q 2138 -91 1772 -91 
Q 1169 -91 856 284 
Q 544 659 544 1381 
z
M 1991 3584 
L 1991 3584 
z
" transform="scale(0.015625)"/>
       <path id="DejaVuSans-6e" d="M 3513 2113 
L 3513 0 
L 2938 0 
L 2938 2094 
Q 2938 2591 2744 2837 
Q 2550 3084 2163 3084 
Q 1697 3084 1428 2787 
Q 1159 2491 1159 1978 
L 1159 0 
L 581 0 
L 581 3500 
L 1159 3500 
L 1159 2956 
Q 1366 3272 1645 3428 
Q 1925 3584 2291 3584 
Q 2894 3584 3203 3211 
Q 3513 2838 3513 2113 
z
" transform="scale(0.015625)"/>
       <path id="DejaVuSans-74" d="M 1172 4494 
L 1172 3500 
L 2356 3500 
L 2356 3053 
L 1172 3053 
L 1172 1153 
Q 1172 725 1289 603 
Q 1406 481 1766 481 
L 2356 481 
L 2356 0 
L 1766 0 
Q 1100 0 847 248 
Q 594 497 594 1153 
L 594 3053 
L 172 3053 
L 172 3500 
L 594 3500 
L 594 4494 
L 1172 4494 
z
" transform="scale(0.015625)"/>
      </defs>
      <use xlink:href="#DejaVuSans-43"/>
      <use xlink:href="#DejaVuSans-6f" transform="translate(69.824219 0)"/>
      <use xlink:href="#DejaVuSans-75" transform="translate(131.005859 0)"/>
      <use xlink:href="#DejaVuSans-6e" transform="translate(194.384766 0)"/>
      <use xlink:href="#DejaVuSans-74" transform="translate(257.763672 0)"/>
     </g>
    </g>
   </g>
   <g id="line2d_16">
    <path d="M 53.328125 238.023778 
L 66.114457 234.211689 
L 78.900788 228.191648 
L 91.68712 220.422971 
L 104.473452 213.052768 
L 117.259783 209.087994 
L 130.046115 210.375199 
L 142.832447 216.160184 
L 155.618778 223.69959 
L 168.40511 230.304552 
L 181.191442 234.844713 
L 193.977773 237.650724 
L 206.764105 239.492878 
L 219.550437 240.837838 
L 232.336768 241.803235 
L 245.1231 242.428487 
L 257.909432 242.81895 
L 283.482095 243.314052 
L 309.054758 243.582716 
L 372.986416 243.828202 
L 399.509375 243.869197 
L 399.509375 243.869197 
" clip-path="url(#p4166d19e7a)" style="fill: none; stroke: #1f77b4; stroke-width: 1.5; stroke-linecap: square"/>
   </g>
   <g id="patch_206">
    <path d="M 53.328125 244.078125 
L 53.328125 22.318125 
" style="fill: none; stroke: #000000; stroke-width: 0.8; stroke-linejoin: miter; stroke-linecap: square"/>
   </g>
   <g id="patch_207">
    <path d="M 388.128125 244.078125 
L 388.128125 22.318125 
" style="fill: none; stroke: #000000; stroke-width: 0.8; stroke-linejoin: miter; stroke-linecap: square"/>
   </g>
   <g id="patch_208">
    <path d="M 53.328125 244.078125 
L 388.128125 244.078125 
" style="fill: none; stroke: #000000; stroke-width: 0.8; stroke-linejoin: miter; stroke-linecap: square"/>
   </g>
   <g id="patch_209">
    <path d="M 53.328125 22.318125 
L 388.128125 22.318125 
" style="fill: none; stroke: #000000; stroke-width: 0.8; stroke-linejoin: miter; stroke-linecap: square"/>
   </g>
   <g id="text_18">
    <!-- Distribuzione di rexp -->
    <g transform="translate(158.668438 16.318125) scale(0.12 -0.12)">
     <defs>
      <path id="DejaVuSans-44" d="M 1259 4147 
L 1259 519 
L 2022 519 
Q 2988 519 3436 956 
Q 3884 1394 3884 2338 
Q 3884 3275 3436 3711 
Q 2988 4147 2022 4147 
L 1259 4147 
z
M 628 4666 
L 1925 4666 
Q 3281 4666 3915 4102 
Q 4550 3538 4550 2338 
Q 4550 1131 3912 565 
Q 3275 0 1925 0 
L 628 0 
L 628 4666 
z
" transform="scale(0.015625)"/>
      <path id="DejaVuSans-69" d="M 603 3500 
L 1178 3500 
L 1178 0 
L 603 0 
L 603 3500 
z
M 603 4863 
L 1178 4863 
L 1178 4134 
L 603 4134 
L 603 4863 
z
" transform="scale(0.015625)"/>
      <path id="DejaVuSans-73" d="M 2834 3397 
L 2834 2853 
Q 2591 2978 2328 3040 
Q 2066 3103 1784 3103 
Q 1356 3103 1142 2972 
Q 928 2841 928 2578 
Q 928 2378 1081 2264 
Q 1234 2150 1697 2047 
L 1894 2003 
Q 2506 1872 2764 1633 
Q 3022 1394 3022 966 
Q 3022 478 2636 193 
Q 2250 -91 1575 -91 
Q 1294 -91 989 -36 
Q 684 19 347 128 
L 347 722 
Q 666 556 975 473 
Q 1284 391 1588 391 
Q 1994 391 2212 530 
Q 2431 669 2431 922 
Q 2431 1156 2273 1281 
Q 2116 1406 1581 1522 
L 1381 1569 
Q 847 1681 609 1914 
Q 372 2147 372 2553 
Q 372 3047 722 3315 
Q 1072 3584 1716 3584 
Q 2034 3584 2315 3537 
Q 2597 3491 2834 3397 
z
" transform="scale(0.015625)"/>
      <path id="DejaVuSans-62" d="M 3116 1747 
Q 3116 2381 2855 2742 
Q 2594 3103 2138 3103 
Q 1681 3103 1420 2742 
Q 1159 2381 1159 1747 
Q 1159 1113 1420 752 
Q 1681 391 2138 391 
Q 2594 391 2855 752 
Q 3116 1113 3116 1747 
z
M 1159 2969 
Q 1341 3281 1617 3432 
Q 1894 3584 2278 3584 
Q 2916 3584 3314 3078 
Q 3713 2572 3713 1747 
Q 3713 922 3314 415 
Q 2916 -91 2278 -91 
Q 1894 -91 1617 61 
Q 1341 213 1159 525 
L 1159 0 
L 581 0 
L 581 4863 
L 1159 4863 
L 1159 2969 
z
" transform="scale(0.015625)"/>
      <path id="DejaVuSans-7a" d="M 353 3500 
L 3084 3500 
L 3084 2975 
L 922 459 
L 3084 459 
L 3084 0 
L 275 0 
L 275 525 
L 2438 3041 
L 353 3041 
L 353 3500 
z
" transform="scale(0.015625)"/>
      <path id="DejaVuSans-20" transform="scale(0.015625)"/>
      <path id="DejaVuSans-64" d="M 2906 2969 
L 2906 4863 
L 3481 4863 
L 3481 0 
L 2906 0 
L 2906 525 
Q 2725 213 2448 61 
Q 2172 -91 1784 -91 
Q 1150 -91 751 415 
Q 353 922 353 1747 
Q 353 2572 751 3078 
Q 1150 3584 1784 3584 
Q 2172 3584 2448 3432 
Q 2725 3281 2906 2969 
z
M 947 1747 
Q 947 1113 1208 752 
Q 1469 391 1925 391 
Q 2381 391 2643 752 
Q 2906 1113 2906 1747 
Q 2906 2381 2643 2742 
Q 2381 3103 1925 3103 
Q 1469 3103 1208 2742 
Q 947 2381 947 1747 
z
" transform="scale(0.015625)"/>
     </defs>
     <use xlink:href="#DejaVuSans-44"/>
     <use xlink:href="#DejaVuSans-69" transform="translate(77.001953 0)"/>
     <use xlink:href="#DejaVuSans-73" transform="translate(104.785156 0)"/>
     <use xlink:href="#DejaVuSans-74" transform="translate(156.884766 0)"/>
     <use xlink:href="#DejaVuSans-72" transform="translate(196.09375 0)"/>
     <use xlink:href="#DejaVuSans-69" transform="translate(237.207031 0)"/>
     <use xlink:href="#DejaVuSans-62" transform="translate(264.990234 0)"/>
     <use xlink:href="#DejaVuSans-75" transform="translate(328.466797 0)"/>
     <use xlink:href="#DejaVuSans-7a" transform="translate(391.845703 0)"/>
     <use xlink:href="#DejaVuSans-69" transform="translate(444.335938 0)"/>
     <use xlink:href="#DejaVuSans-6f" transform="translate(472.119141 0)"/>
     <use xlink:href="#DejaVuSans-6e" transform="translate(533.300781 0)"/>
     <use xlink:href="#DejaVuSans-65" transform="translate(596.679688 0)"/>
     <use xlink:href="#DejaVuSans-20" transform="translate(658.203125 0)"/>
     <use xlink:href="#DejaVuSans-64" transform="translate(689.990234 0)"/>
     <use xlink:href="#DejaVuSans-69" transform="translate(753.466797 0)"/>
     <use xlink:href="#DejaVuSans-20" transform="translate(781.25 0)"/>
     <use xlink:href="#DejaVuSans-72" transform="translate(813.037109 0)"/>
     <use xlink:href="#DejaVuSans-65" transform="translate(851.900391 0)"/>
     <use xlink:href="#DejaVuSans-78" transform="translate(911.673828 0)"/>
     <use xlink:href="#DejaVuSans-70" transform="translate(970.853516 0)"/>
    </g>
   </g>
  </g>
 </g>
 <defs>
  <clipPath id="p4166d19e7a">
   <rect x="53.328125" y="22.318125" width="334.8" height="221.76"/>
  </clipPath>
 </defs>
</svg>
