<?xml version="1.0" encoding="utf-8" standalone="no"?>
<!DOCTYPE svg PUBLIC "-//W3C//DTD SVG 1.1//EN"
  "http://www.w3.org/Graphics/SVG/1.1/DTD/svg11.dtd">
<svg xmlns:xlink="http://www.w3.org/1999/xlink" width="395.328125pt" height="281.634375pt" viewBox="0 0 395.328125 281.634375" xmlns="http://www.w3.org/2000/svg" version="1.1">
 <metadata>
  <rdf:RDF xmlns:dc="http://purl.org/dc/elements/1.1/" xmlns:cc="http://creativecommons.org/ns#" xmlns:rdf="http://www.w3.org/1999/02/22-rdf-syntax-ns#">
   <cc:Work>
    <dc:type rdf:resource="http://purl.org/dc/dcmitype/StillImage"/>
    <dc:date>2025-07-05T16:46:52.065271</dc:date>
    <dc:format>image/svg+xml</dc:format>
    <dc:creator>
     <cc:Agent>
      <dc:title>Matplotlib v3.10.3, https://matplotlib.org/</dc:title>
     </cc:Agent>
    </dc:creator>
   </cc:Work>
  </rdf:RDF>
 </metadata>
 <defs>
  <style type="text/css">*{stroke-linejoin: round; stroke-linecap: butt}</style>
 </defs>
 <g id="figure_1">
  <g id="patch_1">
   <path d="M 0 281.634375 
L 395.328125 281.634375 
L 395.328125 0 
L 0 0 
z
" style="fill: #ffffff"/>
  </g>
  <g id="axes_1">
   <g id="patch_2">
    <path d="M 53.328125 244.078125 
L 388.128125 244.078125 
L 388.128125 22.318125 
L 53.328125 22.318125 
z
" style="fill: #ffffff"/>
   </g>
   <g id="patch_3">
    <path d="M 68.546307 244.078125 
L 72.213339 244.078125 
L 72.213339 32.878125 
L 68.546307 32.878125 
z
" clip-path="url(#p61683ea356)" style="fill: #1f77b4; fill-opacity: 0.5; stroke: #000000; stroke-width: 0.366703; stroke-linejoin: miter"/>
   </g>
   <g id="patch_4">
    <path d="M 72.213339 244.078125 
L 75.88037 244.078125 
L 75.88037 231.193156 
L 72.213339 231.193156 
z
" clip-path="url(#p61683ea356)" style="fill: #1f77b4; fill-opacity: 0.5; stroke: #000000; stroke-width: 0.366703; stroke-linejoin: miter"/>
   </g>
   <g id="patch_5">
    <path d="M 75.88037 244.078125 
L 79.547402 244.078125 
L 79.547402 229.290453 
L 75.88037 229.290453 
z
" clip-path="url(#p61683ea356)" style="fill: #1f77b4; fill-opacity: 0.5; stroke: #000000; stroke-width: 0.366703; stroke-linejoin: miter"/>
   </g>
   <g id="patch_6">
    <path d="M 79.547402 244.078125 
L 83.214434 244.078125 
L 83.214434 230.759206 
L 79.547402 230.759206 
z
" clip-path="url(#p61683ea356)" style="fill: #1f77b4; fill-opacity: 0.5; stroke: #000000; stroke-width: 0.366703; stroke-linejoin: miter"/>
   </g>
   <g id="patch_7">
    <path d="M 83.214434 244.078125 
L 86.881466 244.078125 
L 86.881466 226.786897 
L 83.214434 226.786897 
z
" clip-path="url(#p61683ea356)" style="fill: #1f77b4; fill-opacity: 0.5; stroke: #000000; stroke-width: 0.366703; stroke-linejoin: miter"/>
   </g>
   <g id="patch_8">
    <path d="M 86.881466 244.078125 
L 90.548497 244.078125 
L 90.548497 227.254227 
L 86.881466 227.254227 
z
" clip-path="url(#p61683ea356)" style="fill: #1f77b4; fill-opacity: 0.5; stroke: #000000; stroke-width: 0.366703; stroke-linejoin: miter"/>
   </g>
   <g id="patch_9">
    <path d="M 90.548497 244.078125 
L 94.215529 244.078125 
L 94.215529 220.578078 
L 90.548497 220.578078 
z
" clip-path="url(#p61683ea356)" style="fill: #1f77b4; fill-opacity: 0.5; stroke: #000000; stroke-width: 0.366703; stroke-linejoin: miter"/>
   </g>
   <g id="patch_10">
    <path d="M 94.215529 244.078125 
L 97.882561 244.078125 
L 97.882561 212.366413 
L 94.215529 212.366413 
z
" clip-path="url(#p61683ea356)" style="fill: #1f77b4; fill-opacity: 0.5; stroke: #000000; stroke-width: 0.366703; stroke-linejoin: miter"/>
   </g>
   <g id="patch_11">
    <path d="M 97.882561 244.078125 
L 101.549593 244.078125 
L 101.549593 230.05821 
L 97.882561 230.05821 
z
" clip-path="url(#p61683ea356)" style="fill: #1f77b4; fill-opacity: 0.5; stroke: #000000; stroke-width: 0.366703; stroke-linejoin: miter"/>
   </g>
   <g id="patch_12">
    <path d="M 101.549593 244.078125 
L 105.216624 244.078125 
L 105.216624 227.721558 
L 101.549593 227.721558 
z
" clip-path="url(#p61683ea356)" style="fill: #1f77b4; fill-opacity: 0.5; stroke: #000000; stroke-width: 0.366703; stroke-linejoin: miter"/>
   </g>
   <g id="patch_13">
    <path d="M 105.216624 244.078125 
L 108.883656 244.078125 
L 108.883656 228.589457 
L 105.216624 228.589457 
z
" clip-path="url(#p61683ea356)" style="fill: #1f77b4; fill-opacity: 0.5; stroke: #000000; stroke-width: 0.366703; stroke-linejoin: miter"/>
   </g>
   <g id="patch_14">
    <path d="M 108.883656 244.078125 
L 112.550688 244.078125 
L 112.550688 224.383483 
L 108.883656 224.383483 
z
" clip-path="url(#p61683ea356)" style="fill: #1f77b4; fill-opacity: 0.5; stroke: #000000; stroke-width: 0.366703; stroke-linejoin: miter"/>
   </g>
   <g id="patch_15">
    <path d="M 112.550688 244.078125 
L 116.21772 244.078125 
L 116.21772 230.258495 
L 112.550688 230.258495 
z
" clip-path="url(#p61683ea356)" style="fill: #1f77b4; fill-opacity: 0.5; stroke: #000000; stroke-width: 0.366703; stroke-linejoin: miter"/>
   </g>
   <g id="patch_16">
    <path d="M 116.21772 244.078125 
L 119.884752 244.078125 
L 119.884752 230.05821 
L 116.21772 230.05821 
z
" clip-path="url(#p61683ea356)" style="fill: #1f77b4; fill-opacity: 0.5; stroke: #000000; stroke-width: 0.366703; stroke-linejoin: miter"/>
   </g>
   <g id="patch_17">
    <path d="M 119.884752 244.078125 
L 123.551783 244.078125 
L 123.551783 231.82739 
L 119.884752 231.82739 
z
" clip-path="url(#p61683ea356)" style="fill: #1f77b4; fill-opacity: 0.5; stroke: #000000; stroke-width: 0.366703; stroke-linejoin: miter"/>
   </g>
   <g id="patch_18">
    <path d="M 123.551783 244.078125 
L 127.218815 244.078125 
L 127.218815 234.49785 
L 123.551783 234.49785 
z
" clip-path="url(#p61683ea356)" style="fill: #1f77b4; fill-opacity: 0.5; stroke: #000000; stroke-width: 0.366703; stroke-linejoin: miter"/>
   </g>
   <g id="patch_19">
    <path d="M 127.218815 244.078125 
L 130.885847 244.078125 
L 130.885847 234.564611 
L 127.218815 234.564611 
z
" clip-path="url(#p61683ea356)" style="fill: #1f77b4; fill-opacity: 0.5; stroke: #000000; stroke-width: 0.366703; stroke-linejoin: miter"/>
   </g>
   <g id="patch_20">
    <path d="M 130.885847 244.078125 
L 134.552879 244.078125 
L 134.552879 235.365749 
L 130.885847 235.365749 
z
" clip-path="url(#p61683ea356)" style="fill: #1f77b4; fill-opacity: 0.5; stroke: #000000; stroke-width: 0.366703; stroke-linejoin: miter"/>
   </g>
   <g id="patch_21">
    <path d="M 134.552879 244.078125 
L 138.21991 244.078125 
L 138.21991 235.83308 
L 134.552879 235.83308 
z
" clip-path="url(#p61683ea356)" style="fill: #1f77b4; fill-opacity: 0.5; stroke: #000000; stroke-width: 0.366703; stroke-linejoin: miter"/>
   </g>
   <g id="patch_22">
    <path d="M 138.21991 244.078125 
L 141.886942 244.078125 
L 141.886942 237.101548 
L 138.21991 237.101548 
z
" clip-path="url(#p61683ea356)" style="fill: #1f77b4; fill-opacity: 0.5; stroke: #000000; stroke-width: 0.366703; stroke-linejoin: miter"/>
   </g>
   <g id="patch_23">
    <path d="M 141.886942 244.078125 
L 145.553974 244.078125 
L 145.553974 236.600837 
L 141.886942 236.600837 
z
" clip-path="url(#p61683ea356)" style="fill: #1f77b4; fill-opacity: 0.5; stroke: #000000; stroke-width: 0.366703; stroke-linejoin: miter"/>
   </g>
   <g id="patch_24">
    <path d="M 145.553974 244.078125 
L 149.221006 244.078125 
L 149.221006 237.735783 
L 145.553974 237.735783 
z
" clip-path="url(#p61683ea356)" style="fill: #1f77b4; fill-opacity: 0.5; stroke: #000000; stroke-width: 0.366703; stroke-linejoin: miter"/>
   </g>
   <g id="patch_25">
    <path d="M 149.221006 244.078125 
L 152.888037 244.078125 
L 152.888037 237.835925 
L 149.221006 237.835925 
z
" clip-path="url(#p61683ea356)" style="fill: #1f77b4; fill-opacity: 0.5; stroke: #000000; stroke-width: 0.366703; stroke-linejoin: miter"/>
   </g>
   <g id="patch_26">
    <path d="M 152.888037 244.078125 
L 156.555069 244.078125 
L 156.555069 239.338059 
L 152.888037 239.338059 
z
" clip-path="url(#p61683ea356)" style="fill: #1f77b4; fill-opacity: 0.5; stroke: #000000; stroke-width: 0.366703; stroke-linejoin: miter"/>
   </g>
   <g id="patch_27">
    <path d="M 156.555069 244.078125 
L 160.222101 244.078125 
L 160.222101 239.83877 
L 156.555069 239.83877 
z
" clip-path="url(#p61683ea356)" style="fill: #1f77b4; fill-opacity: 0.5; stroke: #000000; stroke-width: 0.366703; stroke-linejoin: miter"/>
   </g>
   <g id="patch_28">
    <path d="M 160.222101 244.078125 
L 163.889133 244.078125 
L 163.889133 240.105816 
L 160.222101 240.105816 
z
" clip-path="url(#p61683ea356)" style="fill: #1f77b4; fill-opacity: 0.5; stroke: #000000; stroke-width: 0.366703; stroke-linejoin: miter"/>
   </g>
   <g id="patch_29">
    <path d="M 163.889133 244.078125 
L 167.556164 244.078125 
L 167.556164 240.439623 
L 163.889133 240.439623 
z
" clip-path="url(#p61683ea356)" style="fill: #1f77b4; fill-opacity: 0.5; stroke: #000000; stroke-width: 0.366703; stroke-linejoin: miter"/>
   </g>
   <g id="patch_30">
    <path d="M 167.556164 244.078125 
L 171.223196 244.078125 
L 171.223196 241.073858 
L 167.556164 241.073858 
z
" clip-path="url(#p61683ea356)" style="fill: #1f77b4; fill-opacity: 0.5; stroke: #000000; stroke-width: 0.366703; stroke-linejoin: miter"/>
   </g>
   <g id="patch_31">
    <path d="M 171.223196 244.078125 
L 174.890228 244.078125 
L 174.890228 241.975138 
L 171.223196 241.975138 
z
" clip-path="url(#p61683ea356)" style="fill: #1f77b4; fill-opacity: 0.5; stroke: #000000; stroke-width: 0.366703; stroke-linejoin: miter"/>
   </g>
   <g id="patch_32">
    <path d="M 174.890228 244.078125 
L 178.55726 244.078125 
L 178.55726 241.374284 
L 174.890228 241.374284 
z
" clip-path="url(#p61683ea356)" style="fill: #1f77b4; fill-opacity: 0.5; stroke: #000000; stroke-width: 0.366703; stroke-linejoin: miter"/>
   </g>
   <g id="patch_33">
    <path d="M 178.55726 244.078125 
L 182.224291 244.078125 
L 182.224291 241.841615 
L 178.55726 241.841615 
z
" clip-path="url(#p61683ea356)" style="fill: #1f77b4; fill-opacity: 0.5; stroke: #000000; stroke-width: 0.366703; stroke-linejoin: miter"/>
   </g>
   <g id="patch_34">
    <path d="M 182.224291 244.078125 
L 185.891323 244.078125 
L 185.891323 243.276987 
L 182.224291 243.276987 
z
" clip-path="url(#p61683ea356)" style="fill: #1f77b4; fill-opacity: 0.5; stroke: #000000; stroke-width: 0.366703; stroke-linejoin: miter"/>
   </g>
   <g id="patch_35">
    <path d="M 185.891323 244.078125 
L 189.558355 244.078125 
L 189.558355 242.342326 
L 185.891323 242.342326 
z
" clip-path="url(#p61683ea356)" style="fill: #1f77b4; fill-opacity: 0.5; stroke: #000000; stroke-width: 0.366703; stroke-linejoin: miter"/>
   </g>
   <g id="patch_36">
    <path d="M 189.558355 244.078125 
L 193.225387 244.078125 
L 193.225387 242.475849 
L 189.558355 242.475849 
z
" clip-path="url(#p61683ea356)" style="fill: #1f77b4; fill-opacity: 0.5; stroke: #000000; stroke-width: 0.366703; stroke-linejoin: miter"/>
   </g>
   <g id="patch_37">
    <path d="M 193.225387 244.078125 
L 196.892419 244.078125 
L 196.892419 241.841615 
L 193.225387 241.841615 
z
" clip-path="url(#p61683ea356)" style="fill: #1f77b4; fill-opacity: 0.5; stroke: #000000; stroke-width: 0.366703; stroke-linejoin: miter"/>
   </g>
   <g id="patch_38">
    <path d="M 196.892419 244.078125 
L 200.55945 244.078125 
L 200.55945 242.676134 
L 196.892419 242.676134 
z
" clip-path="url(#p61683ea356)" style="fill: #1f77b4; fill-opacity: 0.5; stroke: #000000; stroke-width: 0.366703; stroke-linejoin: miter"/>
   </g>
   <g id="patch_39">
    <path d="M 200.55945 244.078125 
L 204.226482 244.078125 
L 204.226482 242.709514 
L 200.55945 242.709514 
z
" clip-path="url(#p61683ea356)" style="fill: #1f77b4; fill-opacity: 0.5; stroke: #000000; stroke-width: 0.366703; stroke-linejoin: miter"/>
   </g>
   <g id="patch_40">
    <path d="M 204.226482 244.078125 
L 207.893514 244.078125 
L 207.893514 243.110083 
L 204.226482 243.110083 
z
" clip-path="url(#p61683ea356)" style="fill: #1f77b4; fill-opacity: 0.5; stroke: #000000; stroke-width: 0.366703; stroke-linejoin: miter"/>
   </g>
   <g id="patch_41">
    <path d="M 207.893514 244.078125 
L 211.560546 244.078125 
L 211.560546 243.310368 
L 207.893514 243.310368 
z
" clip-path="url(#p61683ea356)" style="fill: #1f77b4; fill-opacity: 0.5; stroke: #000000; stroke-width: 0.366703; stroke-linejoin: miter"/>
   </g>
   <g id="patch_42">
    <path d="M 211.560546 244.078125 
L 215.227577 244.078125 
L 215.227577 242.542611 
L 211.560546 242.542611 
z
" clip-path="url(#p61683ea356)" style="fill: #1f77b4; fill-opacity: 0.5; stroke: #000000; stroke-width: 0.366703; stroke-linejoin: miter"/>
   </g>
   <g id="patch_43">
    <path d="M 215.227577 244.078125 
L 218.894609 244.078125 
L 218.894609 243.076703 
L 215.227577 243.076703 
z
" clip-path="url(#p61683ea356)" style="fill: #1f77b4; fill-opacity: 0.5; stroke: #000000; stroke-width: 0.366703; stroke-linejoin: miter"/>
   </g>
   <g id="patch_44">
    <path d="M 218.894609 244.078125 
L 222.561641 244.078125 
L 222.561641 243.377129 
L 218.894609 243.377129 
z
" clip-path="url(#p61683ea356)" style="fill: #1f77b4; fill-opacity: 0.5; stroke: #000000; stroke-width: 0.366703; stroke-linejoin: miter"/>
   </g>
   <g id="patch_45">
    <path d="M 222.561641 244.078125 
L 226.228673 244.078125 
L 226.228673 243.477272 
L 222.561641 243.477272 
z
" clip-path="url(#p61683ea356)" style="fill: #1f77b4; fill-opacity: 0.5; stroke: #000000; stroke-width: 0.366703; stroke-linejoin: miter"/>
   </g>
   <g id="patch_46">
    <path d="M 226.228673 244.078125 
L 229.895704 244.078125 
L 229.895704 243.577414 
L 226.228673 243.577414 
z
" clip-path="url(#p61683ea356)" style="fill: #1f77b4; fill-opacity: 0.5; stroke: #000000; stroke-width: 0.366703; stroke-linejoin: miter"/>
   </g>
   <g id="patch_47">
    <path d="M 229.895704 244.078125 
L 233.562736 244.078125 
L 233.562736 243.744318 
L 229.895704 243.744318 
z
" clip-path="url(#p61683ea356)" style="fill: #1f77b4; fill-opacity: 0.5; stroke: #000000; stroke-width: 0.366703; stroke-linejoin: miter"/>
   </g>
   <g id="patch_48">
    <path d="M 233.562736 244.078125 
L 237.229768 244.078125 
L 237.229768 243.877841 
L 233.562736 243.877841 
z
" clip-path="url(#p61683ea356)" style="fill: #1f77b4; fill-opacity: 0.5; stroke: #000000; stroke-width: 0.366703; stroke-linejoin: miter"/>
   </g>
   <g id="patch_49">
    <path d="M 237.229768 244.078125 
L 240.8968 244.078125 
L 240.8968 243.41051 
L 237.229768 243.41051 
z
" clip-path="url(#p61683ea356)" style="fill: #1f77b4; fill-opacity: 0.5; stroke: #000000; stroke-width: 0.366703; stroke-linejoin: miter"/>
   </g>
   <g id="patch_50">
    <path d="M 240.8968 244.078125 
L 244.563831 244.078125 
L 244.563831 243.811079 
L 240.8968 243.811079 
z
" clip-path="url(#p61683ea356)" style="fill: #1f77b4; fill-opacity: 0.5; stroke: #000000; stroke-width: 0.366703; stroke-linejoin: miter"/>
   </g>
   <g id="patch_51">
    <path d="M 244.563831 244.078125 
L 248.230863 244.078125 
L 248.230863 243.544033 
L 244.563831 243.544033 
z
" clip-path="url(#p61683ea356)" style="fill: #1f77b4; fill-opacity: 0.5; stroke: #000000; stroke-width: 0.366703; stroke-linejoin: miter"/>
   </g>
   <g id="patch_52">
    <path d="M 248.230863 244.078125 
L 251.897895 244.078125 
L 251.897895 243.210226 
L 248.230863 243.210226 
z
" clip-path="url(#p61683ea356)" style="fill: #1f77b4; fill-opacity: 0.5; stroke: #000000; stroke-width: 0.366703; stroke-linejoin: miter"/>
   </g>
   <g id="patch_53">
    <path d="M 251.897895 244.078125 
L 255.564927 244.078125 
L 255.564927 243.744318 
L 251.897895 243.744318 
z
" clip-path="url(#p61683ea356)" style="fill: #1f77b4; fill-opacity: 0.5; stroke: #000000; stroke-width: 0.366703; stroke-linejoin: miter"/>
   </g>
   <g id="patch_54">
    <path d="M 255.564927 244.078125 
L 259.231959 244.078125 
L 259.231959 243.577414 
L 255.564927 243.577414 
z
" clip-path="url(#p61683ea356)" style="fill: #1f77b4; fill-opacity: 0.5; stroke: #000000; stroke-width: 0.366703; stroke-linejoin: miter"/>
   </g>
   <g id="patch_55">
    <path d="M 259.231959 244.078125 
L 262.89899 244.078125 
L 262.89899 243.644175 
L 259.231959 243.644175 
z
" clip-path="url(#p61683ea356)" style="fill: #1f77b4; fill-opacity: 0.5; stroke: #000000; stroke-width: 0.366703; stroke-linejoin: miter"/>
   </g>
   <g id="patch_56">
    <path d="M 262.89899 244.078125 
L 266.566022 244.078125 
L 266.566022 243.644175 
L 262.89899 243.644175 
z
" clip-path="url(#p61683ea356)" style="fill: #1f77b4; fill-opacity: 0.5; stroke: #000000; stroke-width: 0.366703; stroke-linejoin: miter"/>
   </g>
   <g id="patch_57">
    <path d="M 266.566022 244.078125 
L 270.233054 244.078125 
L 270.233054 243.84446 
L 266.566022 243.84446 
z
" clip-path="url(#p61683ea356)" style="fill: #1f77b4; fill-opacity: 0.5; stroke: #000000; stroke-width: 0.366703; stroke-linejoin: miter"/>
   </g>
   <g id="patch_58">
    <path d="M 270.233054 244.078125 
L 273.900086 244.078125 
L 273.900086 243.877841 
L 270.233054 243.877841 
z
" clip-path="url(#p61683ea356)" style="fill: #1f77b4; fill-opacity: 0.5; stroke: #000000; stroke-width: 0.366703; stroke-linejoin: miter"/>
   </g>
   <g id="patch_59">
    <path d="M 273.900086 244.078125 
L 277.567117 244.078125 
L 277.567117 243.977983 
L 273.900086 243.977983 
z
" clip-path="url(#p61683ea356)" style="fill: #1f77b4; fill-opacity: 0.5; stroke: #000000; stroke-width: 0.366703; stroke-linejoin: miter"/>
   </g>
   <g id="patch_60">
    <path d="M 277.567117 244.078125 
L 281.234149 244.078125 
L 281.234149 243.944602 
L 277.567117 243.944602 
z
" clip-path="url(#p61683ea356)" style="fill: #1f77b4; fill-opacity: 0.5; stroke: #000000; stroke-width: 0.366703; stroke-linejoin: miter"/>
   </g>
   <g id="patch_61">
    <path d="M 281.234149 244.078125 
L 284.901181 244.078125 
L 284.901181 243.877841 
L 281.234149 243.877841 
z
" clip-path="url(#p61683ea356)" style="fill: #1f77b4; fill-opacity: 0.5; stroke: #000000; stroke-width: 0.366703; stroke-linejoin: miter"/>
   </g>
   <g id="patch_62">
    <path d="M 284.901181 244.078125 
L 288.568213 244.078125 
L 288.568213 243.944602 
L 284.901181 243.944602 
z
" clip-path="url(#p61683ea356)" style="fill: #1f77b4; fill-opacity: 0.5; stroke: #000000; stroke-width: 0.366703; stroke-linejoin: miter"/>
   </g>
   <g id="patch_63">
    <path d="M 288.568213 244.078125 
L 292.235244 244.078125 
L 292.235244 243.677556 
L 288.568213 243.677556 
z
" clip-path="url(#p61683ea356)" style="fill: #1f77b4; fill-opacity: 0.5; stroke: #000000; stroke-width: 0.366703; stroke-linejoin: miter"/>
   </g>
   <g id="patch_64">
    <path d="M 292.235244 244.078125 
L 295.902276 244.078125 
L 295.902276 243.744318 
L 292.235244 243.744318 
z
" clip-path="url(#p61683ea356)" style="fill: #1f77b4; fill-opacity: 0.5; stroke: #000000; stroke-width: 0.366703; stroke-linejoin: miter"/>
   </g>
   <g id="patch_65">
    <path d="M 295.902276 244.078125 
L 299.569308 244.078125 
L 299.569308 244.011364 
L 295.902276 244.011364 
z
" clip-path="url(#p61683ea356)" style="fill: #1f77b4; fill-opacity: 0.5; stroke: #000000; stroke-width: 0.366703; stroke-linejoin: miter"/>
   </g>
   <g id="patch_66">
    <path d="M 299.569308 244.078125 
L 303.23634 244.078125 
L 303.23634 243.911221 
L 299.569308 243.911221 
z
" clip-path="url(#p61683ea356)" style="fill: #1f77b4; fill-opacity: 0.5; stroke: #000000; stroke-width: 0.366703; stroke-linejoin: miter"/>
   </g>
   <g id="patch_67">
    <path d="M 303.23634 244.078125 
L 306.903371 244.078125 
L 306.903371 243.977983 
L 303.23634 243.977983 
z
" clip-path="url(#p61683ea356)" style="fill: #1f77b4; fill-opacity: 0.5; stroke: #000000; stroke-width: 0.366703; stroke-linejoin: miter"/>
   </g>
   <g id="patch_68">
    <path d="M 306.903371 244.078125 
L 310.570403 244.078125 
L 310.570403 243.84446 
L 306.903371 243.84446 
z
" clip-path="url(#p61683ea356)" style="fill: #1f77b4; fill-opacity: 0.5; stroke: #000000; stroke-width: 0.366703; stroke-linejoin: miter"/>
   </g>
   <g id="patch_69">
    <path d="M 310.570403 244.078125 
L 314.237435 244.078125 
L 314.237435 243.977983 
L 310.570403 243.977983 
z
" clip-path="url(#p61683ea356)" style="fill: #1f77b4; fill-opacity: 0.5; stroke: #000000; stroke-width: 0.366703; stroke-linejoin: miter"/>
   </g>
   <g id="patch_70">
    <path d="M 314.237435 244.078125 
L 317.904467 244.078125 
L 317.904467 243.944602 
L 314.237435 243.944602 
z
" clip-path="url(#p61683ea356)" style="fill: #1f77b4; fill-opacity: 0.5; stroke: #000000; stroke-width: 0.366703; stroke-linejoin: miter"/>
   </g>
   <g id="patch_71">
    <path d="M 317.904467 244.078125 
L 321.571498 244.078125 
L 321.571498 243.977983 
L 317.904467 243.977983 
z
" clip-path="url(#p61683ea356)" style="fill: #1f77b4; fill-opacity: 0.5; stroke: #000000; stroke-width: 0.366703; stroke-linejoin: miter"/>
   </g>
   <g id="patch_72">
    <path d="M 321.571498 244.078125 
L 325.23853 244.078125 
L 325.23853 244.044744 
L 321.571498 244.044744 
z
" clip-path="url(#p61683ea356)" style="fill: #1f77b4; fill-opacity: 0.5; stroke: #000000; stroke-width: 0.366703; stroke-linejoin: miter"/>
   </g>
   <g id="patch_73">
    <path d="M 325.23853 244.078125 
L 328.905562 244.078125 
L 328.905562 243.877841 
L 325.23853 243.877841 
z
" clip-path="url(#p61683ea356)" style="fill: #1f77b4; fill-opacity: 0.5; stroke: #000000; stroke-width: 0.366703; stroke-linejoin: miter"/>
   </g>
   <g id="patch_74">
    <path d="M 328.905562 244.078125 
L 332.572594 244.078125 
L 332.572594 243.944602 
L 328.905562 243.944602 
z
" clip-path="url(#p61683ea356)" style="fill: #1f77b4; fill-opacity: 0.5; stroke: #000000; stroke-width: 0.366703; stroke-linejoin: miter"/>
   </g>
   <g id="patch_75">
    <path d="M 332.572594 244.078125 
L 336.239626 244.078125 
L 336.239626 243.977983 
L 332.572594 243.977983 
z
" clip-path="url(#p61683ea356)" style="fill: #1f77b4; fill-opacity: 0.5; stroke: #000000; stroke-width: 0.366703; stroke-linejoin: miter"/>
   </g>
   <g id="patch_76">
    <path d="M 336.239626 244.078125 
L 339.906657 244.078125 
L 339.906657 243.877841 
L 336.239626 243.877841 
z
" clip-path="url(#p61683ea356)" style="fill: #1f77b4; fill-opacity: 0.5; stroke: #000000; stroke-width: 0.366703; stroke-linejoin: miter"/>
   </g>
   <g id="patch_77">
    <path d="M 339.906657 244.078125 
L 343.573689 244.078125 
L 343.573689 243.944602 
L 339.906657 243.944602 
z
" clip-path="url(#p61683ea356)" style="fill: #1f77b4; fill-opacity: 0.5; stroke: #000000; stroke-width: 0.366703; stroke-linejoin: miter"/>
   </g>
   <g id="patch_78">
    <path d="M 343.573689 244.078125 
L 347.240721 244.078125 
L 347.240721 243.811079 
L 343.573689 243.811079 
z
" clip-path="url(#p61683ea356)" style="fill: #1f77b4; fill-opacity: 0.5; stroke: #000000; stroke-width: 0.366703; stroke-linejoin: miter"/>
   </g>
   <g id="patch_79">
    <path d="M 347.240721 244.078125 
L 350.907753 244.078125 
L 350.907753 244.078125 
L 347.240721 244.078125 
z
" clip-path="url(#p61683ea356)" style="fill: #1f77b4; fill-opacity: 0.5; stroke: #000000; stroke-width: 0.366703; stroke-linejoin: miter"/>
   </g>
   <g id="patch_80">
    <path d="M 350.907753 244.078125 
L 354.574784 244.078125 
L 354.574784 244.078125 
L 350.907753 244.078125 
z
" clip-path="url(#p61683ea356)" style="fill: #1f77b4; fill-opacity: 0.5; stroke: #000000; stroke-width: 0.366703; stroke-linejoin: miter"/>
   </g>
   <g id="patch_81">
    <path d="M 354.574784 244.078125 
L 358.241816 244.078125 
L 358.241816 244.078125 
L 354.574784 244.078125 
z
" clip-path="url(#p61683ea356)" style="fill: #1f77b4; fill-opacity: 0.5; stroke: #000000; stroke-width: 0.366703; stroke-linejoin: miter"/>
   </g>
   <g id="patch_82">
    <path d="M 358.241816 244.078125 
L 361.908848 244.078125 
L 361.908848 244.044744 
L 358.241816 244.044744 
z
" clip-path="url(#p61683ea356)" style="fill: #1f77b4; fill-opacity: 0.5; stroke: #000000; stroke-width: 0.366703; stroke-linejoin: miter"/>
   </g>
   <g id="patch_83">
    <path d="M 361.908848 244.078125 
L 365.57588 244.078125 
L 365.57588 244.044744 
L 361.908848 244.044744 
z
" clip-path="url(#p61683ea356)" style="fill: #1f77b4; fill-opacity: 0.5; stroke: #000000; stroke-width: 0.366703; stroke-linejoin: miter"/>
   </g>
   <g id="patch_84">
    <path d="M 365.57588 244.078125 
L 369.242911 244.078125 
L 369.242911 244.044744 
L 365.57588 244.044744 
z
" clip-path="url(#p61683ea356)" style="fill: #1f77b4; fill-opacity: 0.5; stroke: #000000; stroke-width: 0.366703; stroke-linejoin: miter"/>
   </g>
   <g id="patch_85">
    <path d="M 369.242911 244.078125 
L 372.909943 244.078125 
L 372.909943 244.044744 
L 369.242911 244.044744 
z
" clip-path="url(#p61683ea356)" style="fill: #1f77b4; fill-opacity: 0.5; stroke: #000000; stroke-width: 0.366703; stroke-linejoin: miter"/>
   </g>
   <g id="matplotlib.axis_1">
    <g id="xtick_1">
     <g id="line2d_1">
      <defs>
       <path id="m29a18e8b47" d="M 0 0 
L 0 3.5 
" style="stroke: #000000; stroke-width: 0.8"/>
      </defs>
      <g>
       <use xlink:href="#m29a18e8b47" x="68.546307" y="244.078125" style="stroke: #000000; stroke-width: 0.8"/>
      </g>
     </g>
     <g id="text_1">
      <!-- 0 -->
      <g transform="translate(65.365057 258.676562) scale(0.1 -0.1)">
       <defs>
        <path id="DejaVuSans-30" d="M 2034 4250 
Q 1547 4250 1301 3770 
Q 1056 3291 1056 2328 
Q 1056 1369 1301 889 
Q 1547 409 2034 409 
Q 2525 409 2770 889 
Q 3016 1369 3016 2328 
Q 3016 3291 2770 3770 
Q 2525 4250 2034 4250 
z
M 2034 4750 
Q 2819 4750 3233 4129 
Q 3647 3509 3647 2328 
Q 3647 1150 3233 529 
Q 2819 -91 2034 -91 
Q 1250 -91 836 529 
Q 422 1150 422 2328 
Q 422 3509 836 4129 
Q 1250 4750 2034 4750 
z
" transform="scale(0.015625)"/>
       </defs>
       <use xlink:href="#DejaVuSans-30"/>
      </g>
     </g>
    </g>
    <g id="xtick_2">
     <g id="line2d_2">
      <g>
       <use xlink:href="#m29a18e8b47" x="123.19172" y="244.078125" style="stroke: #000000; stroke-width: 0.8"/>
      </g>
     </g>
     <g id="text_2">
      <!-- 2 -->
      <g transform="translate(120.01047 258.676562) scale(0.1 -0.1)">
       <defs>
        <path id="DejaVuSans-32" d="M 1228 531 
L 3431 531 
L 3431 0 
L 469 0 
L 469 531 
Q 828 903 1448 1529 
Q 2069 2156 2228 2338 
Q 2531 2678 2651 2914 
Q 2772 3150 2772 3378 
Q 2772 3750 2511 3984 
Q 2250 4219 1831 4219 
Q 1534 4219 1204 4116 
Q 875 4013 500 3803 
L 500 4441 
Q 881 4594 1212 4672 
Q 1544 4750 1819 4750 
Q 2544 4750 2975 4387 
Q 3406 4025 3406 3419 
Q 3406 3131 3298 2873 
Q 3191 2616 2906 2266 
Q 2828 2175 2409 1742 
Q 1991 1309 1228 531 
z
" transform="scale(0.015625)"/>
       </defs>
       <use xlink:href="#DejaVuSans-32"/>
      </g>
     </g>
    </g>
    <g id="xtick_3">
     <g id="line2d_3">
      <g>
       <use xlink:href="#m29a18e8b47" x="177.837134" y="244.078125" style="stroke: #000000; stroke-width: 0.8"/>
      </g>
     </g>
     <g id="text_3">
      <!-- 4 -->
      <g transform="translate(174.655884 258.676562) scale(0.1 -0.1)">
       <defs>
        <path id="DejaVuSans-34" d="M 2419 4116 
L 825 1625 
L 2419 1625 
L 2419 4116 
z
M 2253 4666 
L 3047 4666 
L 3047 1625 
L 3713 1625 
L 3713 1100 
L 3047 1100 
L 3047 0 
L 2419 0 
L 2419 1100 
L 313 1100 
L 313 1709 
L 2253 4666 
z
" transform="scale(0.015625)"/>
       </defs>
       <use xlink:href="#DejaVuSans-34"/>
      </g>
     </g>
    </g>
    <g id="xtick_4">
     <g id="line2d_4">
      <g>
       <use xlink:href="#m29a18e8b47" x="232.482548" y="244.078125" style="stroke: #000000; stroke-width: 0.8"/>
      </g>
     </g>
     <g id="text_4">
      <!-- 6 -->
      <g transform="translate(229.301298 258.676562) scale(0.1 -0.1)">
       <defs>
        <path id="DejaVuSans-36" d="M 2113 2584 
Q 1688 2584 1439 2293 
Q 1191 2003 1191 1497 
Q 1191 994 1439 701 
Q 1688 409 2113 409 
Q 2538 409 2786 701 
Q 3034 994 3034 1497 
Q 3034 2003 2786 2293 
Q 2538 2584 2113 2584 
z
M 3366 4563 
L 3366 3988 
Q 3128 4100 2886 4159 
Q 2644 4219 2406 4219 
Q 1781 4219 1451 3797 
Q 1122 3375 1075 2522 
Q 1259 2794 1537 2939 
Q 1816 3084 2150 3084 
Q 2853 3084 3261 2657 
Q 3669 2231 3669 1497 
Q 3669 778 3244 343 
Q 2819 -91 2113 -91 
Q 1303 -91 875 529 
Q 447 1150 447 2328 
Q 447 3434 972 4092 
Q 1497 4750 2381 4750 
Q 2619 4750 2861 4703 
Q 3103 4656 3366 4563 
z
" transform="scale(0.015625)"/>
       </defs>
       <use xlink:href="#DejaVuSans-36"/>
      </g>
     </g>
    </g>
    <g id="xtick_5">
     <g id="line2d_5">
      <g>
       <use xlink:href="#m29a18e8b47" x="287.127961" y="244.078125" style="stroke: #000000; stroke-width: 0.8"/>
      </g>
     </g>
     <g id="text_5">
      <!-- 8 -->
      <g transform="translate(283.946711 258.676562) scale(0.1 -0.1)">
       <defs>
        <path id="DejaVuSans-38" d="M 2034 2216 
Q 1584 2216 1326 1975 
Q 1069 1734 1069 1313 
Q 1069 891 1326 650 
Q 1584 409 2034 409 
Q 2484 409 2743 651 
Q 3003 894 3003 1313 
Q 3003 1734 2745 1975 
Q 2488 2216 2034 2216 
z
M 1403 2484 
Q 997 2584 770 2862 
Q 544 3141 544 3541 
Q 544 4100 942 4425 
Q 1341 4750 2034 4750 
Q 2731 4750 3128 4425 
Q 3525 4100 3525 3541 
Q 3525 3141 3298 2862 
Q 3072 2584 2669 2484 
Q 3125 2378 3379 2068 
Q 3634 1759 3634 1313 
Q 3634 634 3220 271 
Q 2806 -91 2034 -91 
Q 1263 -91 848 271 
Q 434 634 434 1313 
Q 434 1759 690 2068 
Q 947 2378 1403 2484 
z
M 1172 3481 
Q 1172 3119 1398 2916 
Q 1625 2713 2034 2713 
Q 2441 2713 2670 2916 
Q 2900 3119 2900 3481 
Q 2900 3844 2670 4047 
Q 2441 4250 2034 4250 
Q 1625 4250 1398 4047 
Q 1172 3844 1172 3481 
z
" transform="scale(0.015625)"/>
       </defs>
       <use xlink:href="#DejaVuSans-38"/>
      </g>
     </g>
    </g>
    <g id="xtick_6">
     <g id="line2d_6">
      <g>
       <use xlink:href="#m29a18e8b47" x="341.773375" y="244.078125" style="stroke: #000000; stroke-width: 0.8"/>
      </g>
     </g>
     <g id="text_6">
      <!-- 10 -->
      <g transform="translate(335.410875 258.676562) scale(0.1 -0.1)">
       <defs>
        <path id="DejaVuSans-31" d="M 794 531 
L 1825 531 
L 1825 4091 
L 703 3866 
L 703 4441 
L 1819 4666 
L 2450 4666 
L 2450 531 
L 3481 531 
L 3481 0 
L 794 0 
L 794 531 
z
" transform="scale(0.015625)"/>
       </defs>
       <use xlink:href="#DejaVuSans-31"/>
       <use xlink:href="#DejaVuSans-30" transform="translate(63.623047 0)"/>
      </g>
     </g>
    </g>
    <g id="text_7">
     <!-- entropy -->
     <g transform="translate(201.386719 272.354687) scale(0.1 -0.1)">
      <defs>
       <path id="DejaVuSans-65" d="M 3597 1894 
L 3597 1613 
L 953 1613 
Q 991 1019 1311 708 
Q 1631 397 2203 397 
Q 2534 397 2845 478 
Q 3156 559 3463 722 
L 3463 178 
Q 3153 47 2828 -22 
Q 2503 -91 2169 -91 
Q 1331 -91 842 396 
Q 353 884 353 1716 
Q 353 2575 817 3079 
Q 1281 3584 2069 3584 
Q 2775 3584 3186 3129 
Q 3597 2675 3597 1894 
z
M 3022 2063 
Q 3016 2534 2758 2815 
Q 2500 3097 2075 3097 
Q 1594 3097 1305 2825 
Q 1016 2553 972 2059 
L 3022 2063 
z
" transform="scale(0.015625)"/>
       <path id="DejaVuSans-6e" d="M 3513 2113 
L 3513 0 
L 2938 0 
L 2938 2094 
Q 2938 2591 2744 2837 
Q 2550 3084 2163 3084 
Q 1697 3084 1428 2787 
Q 1159 2491 1159 1978 
L 1159 0 
L 581 0 
L 581 3500 
L 1159 3500 
L 1159 2956 
Q 1366 3272 1645 3428 
Q 1925 3584 2291 3584 
Q 2894 3584 3203 3211 
Q 3513 2838 3513 2113 
z
" transform="scale(0.015625)"/>
       <path id="DejaVuSans-74" d="M 1172 4494 
L 1172 3500 
L 2356 3500 
L 2356 3053 
L 1172 3053 
L 1172 1153 
Q 1172 725 1289 603 
Q 1406 481 1766 481 
L 2356 481 
L 2356 0 
L 1766 0 
Q 1100 0 847 248 
Q 594 497 594 1153 
L 594 3053 
L 172 3053 
L 172 3500 
L 594 3500 
L 594 4494 
L 1172 4494 
z
" transform="scale(0.015625)"/>
       <path id="DejaVuSans-72" d="M 2631 2963 
Q 2534 3019 2420 3045 
Q 2306 3072 2169 3072 
Q 1681 3072 1420 2755 
Q 1159 2438 1159 1844 
L 1159 0 
L 581 0 
L 581 3500 
L 1159 3500 
L 1159 2956 
Q 1341 3275 1631 3429 
Q 1922 3584 2338 3584 
Q 2397 3584 2469 3576 
Q 2541 3569 2628 3553 
L 2631 2963 
z
" transform="scale(0.015625)"/>
       <path id="DejaVuSans-6f" d="M 1959 3097 
Q 1497 3097 1228 2736 
Q 959 2375 959 1747 
Q 959 1119 1226 758 
Q 1494 397 1959 397 
Q 2419 397 2687 759 
Q 2956 1122 2956 1747 
Q 2956 2369 2687 2733 
Q 2419 3097 1959 3097 
z
M 1959 3584 
Q 2709 3584 3137 3096 
Q 3566 2609 3566 1747 
Q 3566 888 3137 398 
Q 2709 -91 1959 -91 
Q 1206 -91 779 398 
Q 353 888 353 1747 
Q 353 2609 779 3096 
Q 1206 3584 1959 3584 
z
" transform="scale(0.015625)"/>
       <path id="DejaVuSans-70" d="M 1159 525 
L 1159 -1331 
L 581 -1331 
L 581 3500 
L 1159 3500 
L 1159 2969 
Q 1341 3281 1617 3432 
Q 1894 3584 2278 3584 
Q 2916 3584 3314 3078 
Q 3713 2572 3713 1747 
Q 3713 922 3314 415 
Q 2916 -91 2278 -91 
Q 1894 -91 1617 61 
Q 1341 213 1159 525 
z
M 3116 1747 
Q 3116 2381 2855 2742 
Q 2594 3103 2138 3103 
Q 1681 3103 1420 2742 
Q 1159 2381 1159 1747 
Q 1159 1113 1420 752 
Q 1681 391 2138 391 
Q 2594 391 2855 752 
Q 3116 1113 3116 1747 
z
" transform="scale(0.015625)"/>
       <path id="DejaVuSans-79" d="M 2059 -325 
Q 1816 -950 1584 -1140 
Q 1353 -1331 966 -1331 
L 506 -1331 
L 506 -850 
L 844 -850 
Q 1081 -850 1212 -737 
Q 1344 -625 1503 -206 
L 1606 56 
L 191 3500 
L 800 3500 
L 1894 763 
L 2988 3500 
L 3597 3500 
L 2059 -325 
z
" transform="scale(0.015625)"/>
      </defs>
      <use xlink:href="#DejaVuSans-65"/>
      <use xlink:href="#DejaVuSans-6e" transform="translate(61.523438 0)"/>
      <use xlink:href="#DejaVuSans-74" transform="translate(124.902344 0)"/>
      <use xlink:href="#DejaVuSans-72" transform="translate(164.111328 0)"/>
      <use xlink:href="#DejaVuSans-6f" transform="translate(202.974609 0)"/>
      <use xlink:href="#DejaVuSans-70" transform="translate(264.15625 0)"/>
      <use xlink:href="#DejaVuSans-79" transform="translate(327.632812 0)"/>
     </g>
    </g>
   </g>
   <g id="matplotlib.axis_2">
    <g id="ytick_1">
     <g id="line2d_7">
      <defs>
       <path id="m1b38ee4ca7" d="M 0 0 
L -3.5 0 
" style="stroke: #000000; stroke-width: 0.8"/>
      </defs>
      <g>
       <use xlink:href="#m1b38ee4ca7" x="53.328125" y="244.078125" style="stroke: #000000; stroke-width: 0.8"/>
      </g>
     </g>
     <g id="text_8">
      <!-- 0 -->
      <g transform="translate(39.965625 247.877344) scale(0.1 -0.1)">
       <use xlink:href="#DejaVuSans-30"/>
      </g>
     </g>
    </g>
    <g id="ytick_2">
     <g id="line2d_8">
      <g>
       <use xlink:href="#m1b38ee4ca7" x="53.328125" y="210.697376" style="stroke: #000000; stroke-width: 0.8"/>
      </g>
     </g>
     <g id="text_9">
      <!-- 1000 -->
      <g transform="translate(20.878125 214.496595) scale(0.1 -0.1)">
       <use xlink:href="#DejaVuSans-31"/>
       <use xlink:href="#DejaVuSans-30" transform="translate(63.623047 0)"/>
       <use xlink:href="#DejaVuSans-30" transform="translate(127.246094 0)"/>
       <use xlink:href="#DejaVuSans-30" transform="translate(190.869141 0)"/>
      </g>
     </g>
    </g>
    <g id="ytick_3">
     <g id="line2d_9">
      <g>
       <use xlink:href="#m1b38ee4ca7" x="53.328125" y="177.316627" style="stroke: #000000; stroke-width: 0.8"/>
      </g>
     </g>
     <g id="text_10">
      <!-- 2000 -->
      <g transform="translate(20.878125 181.115845) scale(0.1 -0.1)">
       <use xlink:href="#DejaVuSans-32"/>
       <use xlink:href="#DejaVuSans-30" transform="translate(63.623047 0)"/>
       <use xlink:href="#DejaVuSans-30" transform="translate(127.246094 0)"/>
       <use xlink:href="#DejaVuSans-30" transform="translate(190.869141 0)"/>
      </g>
     </g>
    </g>
    <g id="ytick_4">
     <g id="line2d_10">
      <g>
       <use xlink:href="#m1b38ee4ca7" x="53.328125" y="143.935877" style="stroke: #000000; stroke-width: 0.8"/>
      </g>
     </g>
     <g id="text_11">
      <!-- 3000 -->
      <g transform="translate(20.878125 147.735096) scale(0.1 -0.1)">
       <defs>
        <path id="DejaVuSans-33" d="M 2597 2516 
Q 3050 2419 3304 2112 
Q 3559 1806 3559 1356 
Q 3559 666 3084 287 
Q 2609 -91 1734 -91 
Q 1441 -91 1130 -33 
Q 819 25 488 141 
L 488 750 
Q 750 597 1062 519 
Q 1375 441 1716 441 
Q 2309 441 2620 675 
Q 2931 909 2931 1356 
Q 2931 1769 2642 2001 
Q 2353 2234 1838 2234 
L 1294 2234 
L 1294 2753 
L 1863 2753 
Q 2328 2753 2575 2939 
Q 2822 3125 2822 3475 
Q 2822 3834 2567 4026 
Q 2313 4219 1838 4219 
Q 1578 4219 1281 4162 
Q 984 4106 628 3988 
L 628 4550 
Q 988 4650 1302 4700 
Q 1616 4750 1894 4750 
Q 2613 4750 3031 4423 
Q 3450 4097 3450 3541 
Q 3450 3153 3228 2886 
Q 3006 2619 2597 2516 
z
" transform="scale(0.015625)"/>
       </defs>
       <use xlink:href="#DejaVuSans-33"/>
       <use xlink:href="#DejaVuSans-30" transform="translate(63.623047 0)"/>
       <use xlink:href="#DejaVuSans-30" transform="translate(127.246094 0)"/>
       <use xlink:href="#DejaVuSans-30" transform="translate(190.869141 0)"/>
      </g>
     </g>
    </g>
    <g id="ytick_5">
     <g id="line2d_11">
      <g>
       <use xlink:href="#m1b38ee4ca7" x="53.328125" y="110.555128" style="stroke: #000000; stroke-width: 0.8"/>
      </g>
     </g>
     <g id="text_12">
      <!-- 4000 -->
      <g transform="translate(20.878125 114.354347) scale(0.1 -0.1)">
       <use xlink:href="#DejaVuSans-34"/>
       <use xlink:href="#DejaVuSans-30" transform="translate(63.623047 0)"/>
       <use xlink:href="#DejaVuSans-30" transform="translate(127.246094 0)"/>
       <use xlink:href="#DejaVuSans-30" transform="translate(190.869141 0)"/>
      </g>
     </g>
    </g>
    <g id="ytick_6">
     <g id="line2d_12">
      <g>
       <use xlink:href="#m1b38ee4ca7" x="53.328125" y="77.174379" style="stroke: #000000; stroke-width: 0.8"/>
      </g>
     </g>
     <g id="text_13">
      <!-- 5000 -->
      <g transform="translate(20.878125 80.973598) scale(0.1 -0.1)">
       <defs>
        <path id="DejaVuSans-35" d="M 691 4666 
L 3169 4666 
L 3169 4134 
L 1269 4134 
L 1269 2991 
Q 1406 3038 1543 3061 
Q 1681 3084 1819 3084 
Q 2600 3084 3056 2656 
Q 3513 2228 3513 1497 
Q 3513 744 3044 326 
Q 2575 -91 1722 -91 
Q 1428 -91 1123 -41 
Q 819 9 494 109 
L 494 744 
Q 775 591 1075 516 
Q 1375 441 1709 441 
Q 2250 441 2565 725 
Q 2881 1009 2881 1497 
Q 2881 1984 2565 2268 
Q 2250 2553 1709 2553 
Q 1456 2553 1204 2497 
Q 953 2441 691 2322 
L 691 4666 
z
" transform="scale(0.015625)"/>
       </defs>
       <use xlink:href="#DejaVuSans-35"/>
       <use xlink:href="#DejaVuSans-30" transform="translate(63.623047 0)"/>
       <use xlink:href="#DejaVuSans-30" transform="translate(127.246094 0)"/>
       <use xlink:href="#DejaVuSans-30" transform="translate(190.869141 0)"/>
      </g>
     </g>
    </g>
    <g id="ytick_7">
     <g id="line2d_13">
      <g>
       <use xlink:href="#m1b38ee4ca7" x="53.328125" y="43.79363" style="stroke: #000000; stroke-width: 0.8"/>
      </g>
     </g>
     <g id="text_14">
      <!-- 6000 -->
      <g transform="translate(20.878125 47.592849) scale(0.1 -0.1)">
       <use xlink:href="#DejaVuSans-36"/>
       <use xlink:href="#DejaVuSans-30" transform="translate(63.623047 0)"/>
       <use xlink:href="#DejaVuSans-30" transform="translate(127.246094 0)"/>
       <use xlink:href="#DejaVuSans-30" transform="translate(190.869141 0)"/>
      </g>
     </g>
    </g>
    <g id="text_15">
     <!-- Count -->
     <g transform="translate(14.798438 148.046562) rotate(-90) scale(0.1 -0.1)">
      <defs>
       <path id="DejaVuSans-43" d="M 4122 4306 
L 4122 3641 
Q 3803 3938 3442 4084 
Q 3081 4231 2675 4231 
Q 1875 4231 1450 3742 
Q 1025 3253 1025 2328 
Q 1025 1406 1450 917 
Q 1875 428 2675 428 
Q 3081 428 3442 575 
Q 3803 722 4122 1019 
L 4122 359 
Q 3791 134 3420 21 
Q 3050 -91 2638 -91 
Q 1578 -91 968 557 
Q 359 1206 359 2328 
Q 359 3453 968 4101 
Q 1578 4750 2638 4750 
Q 3056 4750 3426 4639 
Q 3797 4528 4122 4306 
z
" transform="scale(0.015625)"/>
       <path id="DejaVuSans-75" d="M 544 1381 
L 544 3500 
L 1119 3500 
L 1119 1403 
Q 1119 906 1312 657 
Q 1506 409 1894 409 
Q 2359 409 2629 706 
Q 2900 1003 2900 1516 
L 2900 3500 
L 3475 3500 
L 3475 0 
L 2900 0 
L 2900 538 
Q 2691 219 2414 64 
Q 2138 -91 1772 -91 
Q 1169 -91 856 284 
Q 544 659 544 1381 
z
M 1991 3584 
L 1991 3584 
z
" transform="scale(0.015625)"/>
      </defs>
      <use xlink:href="#DejaVuSans-43"/>
      <use xlink:href="#DejaVuSans-6f" transform="translate(69.824219 0)"/>
      <use xlink:href="#DejaVuSans-75" transform="translate(131.005859 0)"/>
      <use xlink:href="#DejaVuSans-6e" transform="translate(194.384766 0)"/>
      <use xlink:href="#DejaVuSans-74" transform="translate(257.763672 0)"/>
     </g>
    </g>
   </g>
   <g id="line2d_14">
    <path d="M 68.546307 186.502253 
L 70.075772 186.869621 
L 71.605238 190.534283 
L 73.134703 196.564722 
L 76.193634 210.704677 
L 77.7231 216.68623 
L 79.252565 221.181344 
L 80.782031 224.127964 
L 82.311496 225.724836 
L 83.840962 226.282013 
L 85.370427 226.114254 
L 86.899893 225.493202 
L 91.488289 223.012275 
L 93.017755 222.54074 
L 94.54722 222.435277 
L 96.076686 222.71393 
L 97.606151 223.317222 
L 103.724014 226.443566 
L 105.253479 226.929351 
L 108.31241 227.565175 
L 111.371341 228.175043 
L 114.430272 229.074921 
L 117.489203 230.253439 
L 123.607065 232.761068 
L 126.665996 233.787578 
L 129.724927 234.596303 
L 134.313324 235.547381 
L 140.431186 236.582953 
L 151.137444 238.23249 
L 160.314237 239.897133 
L 166.432099 240.723208 
L 174.079427 241.528437 
L 183.25622 242.298649 
L 187.844617 242.401448 
L 195.491944 242.398293 
L 201.609806 242.70762 
L 207.727668 242.976415 
L 221.492858 243.317592 
L 230.669651 243.631658 
L 238.316978 243.651891 
L 253.611633 243.5681 
L 285.730409 243.866648 
L 296.436668 243.878069 
L 308.672392 243.924071 
L 372.909943 244.060707 
L 372.909943 244.060707 
" clip-path="url(#p61683ea356)" style="fill: none; stroke: #1f77b4; stroke-width: 1.5; stroke-linecap: square"/>
   </g>
   <g id="patch_86">
    <path d="M 53.328125 244.078125 
L 53.328125 22.318125 
" style="fill: none; stroke: #000000; stroke-width: 0.8; stroke-linejoin: miter; stroke-linecap: square"/>
   </g>
   <g id="patch_87">
    <path d="M 388.128125 244.078125 
L 388.128125 22.318125 
" style="fill: none; stroke: #000000; stroke-width: 0.8; stroke-linejoin: miter; stroke-linecap: square"/>
   </g>
   <g id="patch_88">
    <path d="M 53.328125 244.078125 
L 388.128125 244.078125 
" style="fill: none; stroke: #000000; stroke-width: 0.8; stroke-linejoin: miter; stroke-linecap: square"/>
   </g>
   <g id="patch_89">
    <path d="M 53.328125 22.318125 
L 388.128125 22.318125 
" style="fill: none; stroke: #000000; stroke-width: 0.8; stroke-linejoin: miter; stroke-linecap: square"/>
   </g>
   <g id="text_16">
    <!-- Distribuzione di entropy -->
    <g transform="translate(148.7375 16.318125) scale(0.12 -0.12)">
     <defs>
      <path id="DejaVuSans-44" d="M 1259 4147 
L 1259 519 
L 2022 519 
Q 2988 519 3436 956 
Q 3884 1394 3884 2338 
Q 3884 3275 3436 3711 
Q 2988 4147 2022 4147 
L 1259 4147 
z
M 628 4666 
L 1925 4666 
Q 3281 4666 3915 4102 
Q 4550 3538 4550 2338 
Q 4550 1131 3912 565 
Q 3275 0 1925 0 
L 628 0 
L 628 4666 
z
" transform="scale(0.015625)"/>
      <path id="DejaVuSans-69" d="M 603 3500 
L 1178 3500 
L 1178 0 
L 603 0 
L 603 3500 
z
M 603 4863 
L 1178 4863 
L 1178 4134 
L 603 4134 
L 603 4863 
z
" transform="scale(0.015625)"/>
      <path id="DejaVuSans-73" d="M 2834 3397 
L 2834 2853 
Q 2591 2978 2328 3040 
Q 2066 3103 1784 3103 
Q 1356 3103 1142 2972 
Q 928 2841 928 2578 
Q 928 2378 1081 2264 
Q 1234 2150 1697 2047 
L 1894 2003 
Q 2506 1872 2764 1633 
Q 3022 1394 3022 966 
Q 3022 478 2636 193 
Q 2250 -91 1575 -91 
Q 1294 -91 989 -36 
Q 684 19 347 128 
L 347 722 
Q 666 556 975 473 
Q 1284 391 1588 391 
Q 1994 391 2212 530 
Q 2431 669 2431 922 
Q 2431 1156 2273 1281 
Q 2116 1406 1581 1522 
L 1381 1569 
Q 847 1681 609 1914 
Q 372 2147 372 2553 
Q 372 3047 722 3315 
Q 1072 3584 1716 3584 
Q 2034 3584 2315 3537 
Q 2597 3491 2834 3397 
z
" transform="scale(0.015625)"/>
      <path id="DejaVuSans-62" d="M 3116 1747 
Q 3116 2381 2855 2742 
Q 2594 3103 2138 3103 
Q 1681 3103 1420 2742 
Q 1159 2381 1159 1747 
Q 1159 1113 1420 752 
Q 1681 391 2138 391 
Q 2594 391 2855 752 
Q 3116 1113 3116 1747 
z
M 1159 2969 
Q 1341 3281 1617 3432 
Q 1894 3584 2278 3584 
Q 2916 3584 3314 3078 
Q 3713 2572 3713 1747 
Q 3713 922 3314 415 
Q 2916 -91 2278 -91 
Q 1894 -91 1617 61 
Q 1341 213 1159 525 
L 1159 0 
L 581 0 
L 581 4863 
L 1159 4863 
L 1159 2969 
z
" transform="scale(0.015625)"/>
      <path id="DejaVuSans-7a" d="M 353 3500 
L 3084 3500 
L 3084 2975 
L 922 459 
L 3084 459 
L 3084 0 
L 275 0 
L 275 525 
L 2438 3041 
L 353 3041 
L 353 3500 
z
" transform="scale(0.015625)"/>
      <path id="DejaVuSans-20" transform="scale(0.015625)"/>
      <path id="DejaVuSans-64" d="M 2906 2969 
L 2906 4863 
L 3481 4863 
L 3481 0 
L 2906 0 
L 2906 525 
Q 2725 213 2448 61 
Q 2172 -91 1784 -91 
Q 1150 -91 751 415 
Q 353 922 353 1747 
Q 353 2572 751 3078 
Q 1150 3584 1784 3584 
Q 2172 3584 2448 3432 
Q 2725 3281 2906 2969 
z
M 947 1747 
Q 947 1113 1208 752 
Q 1469 391 1925 391 
Q 2381 391 2643 752 
Q 2906 1113 2906 1747 
Q 2906 2381 2643 2742 
Q 2381 3103 1925 3103 
Q 1469 3103 1208 2742 
Q 947 2381 947 1747 
z
" transform="scale(0.015625)"/>
     </defs>
     <use xlink:href="#DejaVuSans-44"/>
     <use xlink:href="#DejaVuSans-69" transform="translate(77.001953 0)"/>
     <use xlink:href="#DejaVuSans-73" transform="translate(104.785156 0)"/>
     <use xlink:href="#DejaVuSans-74" transform="translate(156.884766 0)"/>
     <use xlink:href="#DejaVuSans-72" transform="translate(196.09375 0)"/>
     <use xlink:href="#DejaVuSans-69" transform="translate(237.207031 0)"/>
     <use xlink:href="#DejaVuSans-62" transform="translate(264.990234 0)"/>
     <use xlink:href="#DejaVuSans-75" transform="translate(328.466797 0)"/>
     <use xlink:href="#DejaVuSans-7a" transform="translate(391.845703 0)"/>
     <use xlink:href="#DejaVuSans-69" transform="translate(444.335938 0)"/>
     <use xlink:href="#DejaVuSans-6f" transform="translate(472.119141 0)"/>
     <use xlink:href="#DejaVuSans-6e" transform="translate(533.300781 0)"/>
     <use xlink:href="#DejaVuSans-65" transform="translate(596.679688 0)"/>
     <use xlink:href="#DejaVuSans-20" transform="translate(658.203125 0)"/>
     <use xlink:href="#DejaVuSans-64" transform="translate(689.990234 0)"/>
     <use xlink:href="#DejaVuSans-69" transform="translate(753.466797 0)"/>
     <use xlink:href="#DejaVuSans-20" transform="translate(781.25 0)"/>
     <use xlink:href="#DejaVuSans-65" transform="translate(813.037109 0)"/>
     <use xlink:href="#DejaVuSans-6e" transform="translate(874.560547 0)"/>
     <use xlink:href="#DejaVuSans-74" transform="translate(937.939453 0)"/>
     <use xlink:href="#DejaVuSans-72" transform="translate(977.148438 0)"/>
     <use xlink:href="#DejaVuSans-6f" transform="translate(1016.011719 0)"/>
     <use xlink:href="#DejaVuSans-70" transform="translate(1077.193359 0)"/>
     <use xlink:href="#DejaVuSans-79" transform="translate(1140.669922 0)"/>
    </g>
   </g>
  </g>
 </g>
 <defs>
  <clipPath id="p61683ea356">
   <rect x="53.328125" y="22.318125" width="334.8" height="221.76"/>
  </clipPath>
 </defs>
</svg>
