<?xml version="1.0" encoding="utf-8" standalone="no"?>
<!DOCTYPE svg PUBLIC "-//W3C//DTD SVG 1.1//EN"
  "http://www.w3.org/Graphics/SVG/1.1/DTD/svg11.dtd">
<svg xmlns:xlink="http://www.w3.org/1999/xlink" width="404.871875pt" height="281.634375pt" viewBox="0 0 404.871875 281.634375" xmlns="http://www.w3.org/2000/svg" version="1.1">
 <metadata>
  <rdf:RDF xmlns:dc="http://purl.org/dc/elements/1.1/" xmlns:cc="http://creativecommons.org/ns#" xmlns:rdf="http://www.w3.org/1999/02/22-rdf-syntax-ns#">
   <cc:Work>
    <dc:type rdf:resource="http://purl.org/dc/dcmitype/StillImage"/>
    <dc:date>2025-07-05T16:46:54.523797</dc:date>
    <dc:format>image/svg+xml</dc:format>
    <dc:creator>
     <cc:Agent>
      <dc:title>Matplotlib v3.10.3, https://matplotlib.org/</dc:title>
     </cc:Agent>
    </dc:creator>
   </cc:Work>
  </rdf:RDF>
 </metadata>
 <defs>
  <style type="text/css">*{stroke-linejoin: round; stroke-linecap: butt}</style>
 </defs>
 <g id="figure_1">
  <g id="patch_1">
   <path d="M 0 281.634375 
L 404.871875 281.634375 
L 404.871875 0 
L 0 0 
z
" style="fill: #ffffff"/>
  </g>
  <g id="axes_1">
   <g id="patch_2">
    <path d="M 53.328125 244.078125 
L 388.128125 244.078125 
L 388.128125 22.318125 
L 53.328125 22.318125 
z
" style="fill: #ffffff"/>
   </g>
   <g id="patch_3">
    <path d="M 53.328125 244.078125 
L 61.29894 244.078125 
L 61.29894 195.046834 
L 53.328125 195.046834 
z
" clip-path="url(#p66e3e57d37)" style="fill: #1f77b4; fill-opacity: 0.5; stroke: #000000; stroke-width: 0.117063; stroke-linejoin: miter"/>
   </g>
   <g id="patch_4">
    <path d="M 61.29894 244.078125 
L 69.269756 244.078125 
L 69.269756 217.621023 
L 61.29894 217.621023 
z
" clip-path="url(#p66e3e57d37)" style="fill: #1f77b4; fill-opacity: 0.5; stroke: #000000; stroke-width: 0.117063; stroke-linejoin: miter"/>
   </g>
   <g id="patch_5">
    <path d="M 69.269756 244.078125 
L 77.240571 244.078125 
L 77.240571 196.074664 
L 69.269756 196.074664 
z
" clip-path="url(#p66e3e57d37)" style="fill: #1f77b4; fill-opacity: 0.5; stroke: #000000; stroke-width: 0.117063; stroke-linejoin: miter"/>
   </g>
   <g id="patch_6">
    <path d="M 77.240571 244.078125 
L 85.211387 244.078125 
L 85.211387 32.878125 
L 77.240571 32.878125 
z
" clip-path="url(#p66e3e57d37)" style="fill: #1f77b4; fill-opacity: 0.5; stroke: #000000; stroke-width: 0.117063; stroke-linejoin: miter"/>
   </g>
   <g id="patch_7">
    <path d="M 85.211387 244.078125 
L 93.182202 244.078125 
L 93.182202 193.75253 
L 85.211387 193.75253 
z
" clip-path="url(#p66e3e57d37)" style="fill: #1f77b4; fill-opacity: 0.5; stroke: #000000; stroke-width: 0.117063; stroke-linejoin: miter"/>
   </g>
   <g id="patch_8">
    <path d="M 93.182202 244.078125 
L 101.153017 244.078125 
L 101.153017 192.7247 
L 93.182202 192.7247 
z
" clip-path="url(#p66e3e57d37)" style="fill: #1f77b4; fill-opacity: 0.5; stroke: #000000; stroke-width: 0.117063; stroke-linejoin: miter"/>
   </g>
   <g id="patch_9">
    <path d="M 101.153017 244.078125 
L 109.123833 244.078125 
L 109.123833 184.958875 
L 101.153017 184.958875 
z
" clip-path="url(#p66e3e57d37)" style="fill: #1f77b4; fill-opacity: 0.5; stroke: #000000; stroke-width: 0.117063; stroke-linejoin: miter"/>
   </g>
   <g id="patch_10">
    <path d="M 109.123833 244.078125 
L 117.094648 244.078125 
L 117.094648 187.319077 
L 109.123833 187.319077 
z
" clip-path="url(#p66e3e57d37)" style="fill: #1f77b4; fill-opacity: 0.5; stroke: #000000; stroke-width: 0.117063; stroke-linejoin: miter"/>
   </g>
   <g id="patch_11">
    <path d="M 117.094648 244.078125 
L 125.065463 244.078125 
L 125.065463 226.528882 
L 117.094648 226.528882 
z
" clip-path="url(#p66e3e57d37)" style="fill: #1f77b4; fill-opacity: 0.5; stroke: #000000; stroke-width: 0.117063; stroke-linejoin: miter"/>
   </g>
   <g id="patch_12">
    <path d="M 125.065463 244.078125 
L 133.036279 244.078125 
L 133.036279 230.640201 
L 125.065463 230.640201 
z
" clip-path="url(#p66e3e57d37)" style="fill: #1f77b4; fill-opacity: 0.5; stroke: #000000; stroke-width: 0.117063; stroke-linejoin: miter"/>
   </g>
   <g id="patch_13">
    <path d="M 133.036279 244.078125 
L 141.007094 244.078125 
L 141.007094 228.28 
L 133.036279 228.28 
z
" clip-path="url(#p66e3e57d37)" style="fill: #1f77b4; fill-opacity: 0.5; stroke: #000000; stroke-width: 0.117063; stroke-linejoin: miter"/>
   </g>
   <g id="patch_14">
    <path d="M 141.007094 244.078125 
L 148.97791 244.078125 
L 148.97791 237.606604 
L 141.007094 237.606604 
z
" clip-path="url(#p66e3e57d37)" style="fill: #1f77b4; fill-opacity: 0.5; stroke: #000000; stroke-width: 0.117063; stroke-linejoin: miter"/>
   </g>
   <g id="patch_15">
    <path d="M 148.97791 244.078125 
L 156.948725 244.078125 
L 156.948725 239.928738 
L 148.97791 239.928738 
z
" clip-path="url(#p66e3e57d37)" style="fill: #1f77b4; fill-opacity: 0.5; stroke: #000000; stroke-width: 0.117063; stroke-linejoin: miter"/>
   </g>
   <g id="patch_16">
    <path d="M 156.948725 244.078125 
L 164.91954 244.078125 
L 164.91954 240.004873 
L 156.948725 240.004873 
z
" clip-path="url(#p66e3e57d37)" style="fill: #1f77b4; fill-opacity: 0.5; stroke: #000000; stroke-width: 0.117063; stroke-linejoin: miter"/>
   </g>
   <g id="patch_17">
    <path d="M 164.91954 244.078125 
L 172.890356 244.078125 
L 172.890356 241.832126 
L 164.91954 241.832126 
z
" clip-path="url(#p66e3e57d37)" style="fill: #1f77b4; fill-opacity: 0.5; stroke: #000000; stroke-width: 0.117063; stroke-linejoin: miter"/>
   </g>
   <g id="patch_18">
    <path d="M 172.890356 244.078125 
L 180.861171 244.078125 
L 180.861171 241.489516 
L 172.890356 241.489516 
z
" clip-path="url(#p66e3e57d37)" style="fill: #1f77b4; fill-opacity: 0.5; stroke: #000000; stroke-width: 0.117063; stroke-linejoin: miter"/>
   </g>
   <g id="patch_19">
    <path d="M 180.861171 244.078125 
L 188.831987 244.078125 
L 188.831987 242.250872 
L 180.861171 242.250872 
z
" clip-path="url(#p66e3e57d37)" style="fill: #1f77b4; fill-opacity: 0.5; stroke: #000000; stroke-width: 0.117063; stroke-linejoin: miter"/>
   </g>
   <g id="patch_20">
    <path d="M 188.831987 244.078125 
L 196.802802 244.078125 
L 196.802802 242.669617 
L 188.831987 242.669617 
z
" clip-path="url(#p66e3e57d37)" style="fill: #1f77b4; fill-opacity: 0.5; stroke: #000000; stroke-width: 0.117063; stroke-linejoin: miter"/>
   </g>
   <g id="patch_21">
    <path d="M 196.802802 244.078125 
L 204.773617 244.078125 
L 204.773617 242.783821 
L 196.802802 242.783821 
z
" clip-path="url(#p66e3e57d37)" style="fill: #1f77b4; fill-opacity: 0.5; stroke: #000000; stroke-width: 0.117063; stroke-linejoin: miter"/>
   </g>
   <g id="patch_22">
    <path d="M 204.773617 244.078125 
L 212.744433 244.078125 
L 212.744433 243.469041 
L 204.773617 243.469041 
z
" clip-path="url(#p66e3e57d37)" style="fill: #1f77b4; fill-opacity: 0.5; stroke: #000000; stroke-width: 0.117063; stroke-linejoin: miter"/>
   </g>
   <g id="patch_23">
    <path d="M 212.744433 244.078125 
L 220.715248 244.078125 
L 220.715248 243.278702 
L 212.744433 243.278702 
z
" clip-path="url(#p66e3e57d37)" style="fill: #1f77b4; fill-opacity: 0.5; stroke: #000000; stroke-width: 0.117063; stroke-linejoin: miter"/>
   </g>
   <g id="patch_24">
    <path d="M 220.715248 244.078125 
L 228.686063 244.078125 
L 228.686063 243.31677 
L 220.715248 243.31677 
z
" clip-path="url(#p66e3e57d37)" style="fill: #1f77b4; fill-opacity: 0.5; stroke: #000000; stroke-width: 0.117063; stroke-linejoin: miter"/>
   </g>
   <g id="patch_25">
    <path d="M 228.686063 244.078125 
L 236.656879 244.078125 
L 236.656879 243.65938 
L 228.686063 243.65938 
z
" clip-path="url(#p66e3e57d37)" style="fill: #1f77b4; fill-opacity: 0.5; stroke: #000000; stroke-width: 0.117063; stroke-linejoin: miter"/>
   </g>
   <g id="patch_26">
    <path d="M 236.656879 244.078125 
L 244.627694 244.078125 
L 244.627694 243.164498 
L 236.656879 243.164498 
z
" clip-path="url(#p66e3e57d37)" style="fill: #1f77b4; fill-opacity: 0.5; stroke: #000000; stroke-width: 0.117063; stroke-linejoin: miter"/>
   </g>
   <g id="patch_27">
    <path d="M 244.627694 244.078125 
L 252.59851 244.078125 
L 252.59851 243.469041 
L 244.627694 243.469041 
z
" clip-path="url(#p66e3e57d37)" style="fill: #1f77b4; fill-opacity: 0.5; stroke: #000000; stroke-width: 0.117063; stroke-linejoin: miter"/>
   </g>
   <g id="patch_28">
    <path d="M 252.59851 244.078125 
L 260.569325 244.078125 
L 260.569325 243.583244 
L 252.59851 243.583244 
z
" clip-path="url(#p66e3e57d37)" style="fill: #1f77b4; fill-opacity: 0.5; stroke: #000000; stroke-width: 0.117063; stroke-linejoin: miter"/>
   </g>
   <g id="patch_29">
    <path d="M 260.569325 244.078125 
L 268.54014 244.078125 
L 268.54014 243.697447 
L 260.569325 243.697447 
z
" clip-path="url(#p66e3e57d37)" style="fill: #1f77b4; fill-opacity: 0.5; stroke: #000000; stroke-width: 0.117063; stroke-linejoin: miter"/>
   </g>
   <g id="patch_30">
    <path d="M 268.54014 244.078125 
L 276.510956 244.078125 
L 276.510956 243.507108 
L 268.54014 243.507108 
z
" clip-path="url(#p66e3e57d37)" style="fill: #1f77b4; fill-opacity: 0.5; stroke: #000000; stroke-width: 0.117063; stroke-linejoin: miter"/>
   </g>
   <g id="patch_31">
    <path d="M 276.510956 244.078125 
L 284.481771 244.078125 
L 284.481771 243.697447 
L 276.510956 243.697447 
z
" clip-path="url(#p66e3e57d37)" style="fill: #1f77b4; fill-opacity: 0.5; stroke: #000000; stroke-width: 0.117063; stroke-linejoin: miter"/>
   </g>
   <g id="patch_32">
    <path d="M 284.481771 244.078125 
L 292.452587 244.078125 
L 292.452587 243.65938 
L 284.481771 243.65938 
z
" clip-path="url(#p66e3e57d37)" style="fill: #1f77b4; fill-opacity: 0.5; stroke: #000000; stroke-width: 0.117063; stroke-linejoin: miter"/>
   </g>
   <g id="patch_33">
    <path d="M 292.452587 244.078125 
L 300.423402 244.078125 
L 300.423402 243.849718 
L 292.452587 243.849718 
z
" clip-path="url(#p66e3e57d37)" style="fill: #1f77b4; fill-opacity: 0.5; stroke: #000000; stroke-width: 0.117063; stroke-linejoin: miter"/>
   </g>
   <g id="patch_34">
    <path d="M 300.423402 244.078125 
L 308.394217 244.078125 
L 308.394217 243.773583 
L 300.423402 243.773583 
z
" clip-path="url(#p66e3e57d37)" style="fill: #1f77b4; fill-opacity: 0.5; stroke: #000000; stroke-width: 0.117063; stroke-linejoin: miter"/>
   </g>
   <g id="patch_35">
    <path d="M 308.394217 244.078125 
L 316.365033 244.078125 
L 316.365033 244.001989 
L 308.394217 244.001989 
z
" clip-path="url(#p66e3e57d37)" style="fill: #1f77b4; fill-opacity: 0.5; stroke: #000000; stroke-width: 0.117063; stroke-linejoin: miter"/>
   </g>
   <g id="patch_36">
    <path d="M 316.365033 244.078125 
L 324.335848 244.078125 
L 324.335848 243.811651 
L 316.365033 243.811651 
z
" clip-path="url(#p66e3e57d37)" style="fill: #1f77b4; fill-opacity: 0.5; stroke: #000000; stroke-width: 0.117063; stroke-linejoin: miter"/>
   </g>
   <g id="patch_37">
    <path d="M 324.335848 244.078125 
L 332.306663 244.078125 
L 332.306663 243.773583 
L 324.335848 243.773583 
z
" clip-path="url(#p66e3e57d37)" style="fill: #1f77b4; fill-opacity: 0.5; stroke: #000000; stroke-width: 0.117063; stroke-linejoin: miter"/>
   </g>
   <g id="patch_38">
    <path d="M 332.306663 244.078125 
L 340.277479 244.078125 
L 340.277479 243.849718 
L 332.306663 243.849718 
z
" clip-path="url(#p66e3e57d37)" style="fill: #1f77b4; fill-opacity: 0.5; stroke: #000000; stroke-width: 0.117063; stroke-linejoin: miter"/>
   </g>
   <g id="patch_39">
    <path d="M 340.277479 244.078125 
L 348.248294 244.078125 
L 348.248294 243.773583 
L 340.277479 243.773583 
z
" clip-path="url(#p66e3e57d37)" style="fill: #1f77b4; fill-opacity: 0.5; stroke: #000000; stroke-width: 0.117063; stroke-linejoin: miter"/>
   </g>
   <g id="patch_40">
    <path d="M 348.248294 244.078125 
L 356.21911 244.078125 
L 356.21911 243.925854 
L 348.248294 243.925854 
z
" clip-path="url(#p66e3e57d37)" style="fill: #1f77b4; fill-opacity: 0.5; stroke: #000000; stroke-width: 0.117063; stroke-linejoin: miter"/>
   </g>
   <g id="patch_41">
    <path d="M 356.21911 244.078125 
L 364.189925 244.078125 
L 364.189925 243.963922 
L 356.21911 243.963922 
z
" clip-path="url(#p66e3e57d37)" style="fill: #1f77b4; fill-opacity: 0.5; stroke: #000000; stroke-width: 0.117063; stroke-linejoin: miter"/>
   </g>
   <g id="patch_42">
    <path d="M 364.189925 244.078125 
L 372.16074 244.078125 
L 372.16074 243.925854 
L 364.189925 243.925854 
z
" clip-path="url(#p66e3e57d37)" style="fill: #1f77b4; fill-opacity: 0.5; stroke: #000000; stroke-width: 0.117063; stroke-linejoin: miter"/>
   </g>
   <g id="patch_43">
    <path d="M 372.16074 244.078125 
L 380.131556 244.078125 
L 380.131556 243.963922 
L 372.16074 243.963922 
z
" clip-path="url(#p66e3e57d37)" style="fill: #1f77b4; fill-opacity: 0.5; stroke: #000000; stroke-width: 0.117063; stroke-linejoin: miter"/>
   </g>
   <g id="patch_44">
    <path d="M 380.131556 244.078125 
L 388.102371 244.078125 
L 388.102371 243.925854 
L 380.131556 243.925854 
z
" clip-path="url(#p66e3e57d37)" style="fill: #1f77b4; fill-opacity: 0.5; stroke: #000000; stroke-width: 0.117063; stroke-linejoin: miter"/>
   </g>
   <g id="patch_45">
    <path d="M 388.102371 244.078125 
L 396.073187 244.078125 
L 396.073187 243.963922 
L 388.102371 243.963922 
z
" clip-path="url(#p66e3e57d37)" style="fill: #1f77b4; fill-opacity: 0.5; stroke: #000000; stroke-width: 0.117063; stroke-linejoin: miter"/>
   </g>
   <g id="patch_46">
    <path d="M 396.073187 244.078125 
L 404.044002 244.078125 
L 404.044002 243.887786 
L 396.073187 243.887786 
z
" clip-path="url(#p66e3e57d37)" style="fill: #1f77b4; fill-opacity: 0.5; stroke: #000000; stroke-width: 0.117063; stroke-linejoin: miter"/>
   </g>
   <g id="patch_47">
    <path d="M 404.044002 244.078125 
L 412.014817 244.078125 
L 412.014817 243.849718 
L 404.044002 243.849718 
z
" clip-path="url(#p66e3e57d37)" style="fill: #1f77b4; fill-opacity: 0.5; stroke: #000000; stroke-width: 0.117063; stroke-linejoin: miter"/>
   </g>
   <g id="patch_48">
    <path d="M 412.014817 244.078125 
L 419.985633 244.078125 
L 419.985633 243.811651 
L 412.014817 243.811651 
z
" clip-path="url(#p66e3e57d37)" style="fill: #1f77b4; fill-opacity: 0.5; stroke: #000000; stroke-width: 0.117063; stroke-linejoin: miter"/>
   </g>
   <g id="patch_49">
    <path d="M 419.985633 244.078125 
L 427.956448 244.078125 
L 427.956448 243.849718 
L 419.985633 243.849718 
z
" clip-path="url(#p66e3e57d37)" style="fill: #1f77b4; fill-opacity: 0.5; stroke: #000000; stroke-width: 0.117063; stroke-linejoin: miter"/>
   </g>
   <g id="patch_50">
    <path d="M 427.956448 244.078125 
L 435.927263 244.078125 
L 435.927263 243.621312 
L 427.956448 243.621312 
z
" clip-path="url(#p66e3e57d37)" style="fill: #1f77b4; fill-opacity: 0.5; stroke: #000000; stroke-width: 0.117063; stroke-linejoin: miter"/>
   </g>
   <g id="patch_51">
    <path d="M 435.927263 244.078125 
L 443.898079 244.078125 
L 443.898079 243.925854 
L 435.927263 243.925854 
z
" clip-path="url(#p66e3e57d37)" style="fill: #1f77b4; fill-opacity: 0.5; stroke: #000000; stroke-width: 0.117063; stroke-linejoin: miter"/>
   </g>
   <g id="patch_52">
    <path d="M 443.898079 244.078125 
L 451.868894 244.078125 
L 451.868894 243.849718 
L 443.898079 243.849718 
z
" clip-path="url(#p66e3e57d37)" style="fill: #1f77b4; fill-opacity: 0.5; stroke: #000000; stroke-width: 0.117063; stroke-linejoin: miter"/>
   </g>
   <g id="patch_53">
    <path d="M 451.868894 244.078125 
L 459.83971 244.078125 
L 459.83971 243.963922 
L 451.868894 243.963922 
z
" clip-path="url(#p66e3e57d37)" style="fill: #1f77b4; fill-opacity: 0.5; stroke: #000000; stroke-width: 0.117063; stroke-linejoin: miter"/>
   </g>
   <g id="patch_54">
    <path d="M 459.83971 244.078125 
L 467.810525 244.078125 
L 467.810525 243.963922 
L 459.83971 243.963922 
z
" clip-path="url(#p66e3e57d37)" style="fill: #1f77b4; fill-opacity: 0.5; stroke: #000000; stroke-width: 0.117063; stroke-linejoin: miter"/>
   </g>
   <g id="patch_55">
    <path d="M 467.810525 244.078125 
L 475.78134 244.078125 
L 475.78134 244.001989 
L 467.810525 244.001989 
z
" clip-path="url(#p66e3e57d37)" style="fill: #1f77b4; fill-opacity: 0.5; stroke: #000000; stroke-width: 0.117063; stroke-linejoin: miter"/>
   </g>
   <g id="patch_56">
    <path d="M 475.78134 244.078125 
L 483.752156 244.078125 
L 483.752156 244.040057 
L 475.78134 244.040057 
z
" clip-path="url(#p66e3e57d37)" style="fill: #1f77b4; fill-opacity: 0.5; stroke: #000000; stroke-width: 0.117063; stroke-linejoin: miter"/>
   </g>
   <g id="patch_57">
    <path d="M 483.752156 244.078125 
L 491.722971 244.078125 
L 491.722971 243.887786 
L 483.752156 243.887786 
z
" clip-path="url(#p66e3e57d37)" style="fill: #1f77b4; fill-opacity: 0.5; stroke: #000000; stroke-width: 0.117063; stroke-linejoin: miter"/>
   </g>
   <g id="patch_58">
    <path d="M 491.722971 244.078125 
L 499.693787 244.078125 
L 499.693787 243.849718 
L 491.722971 243.849718 
z
" clip-path="url(#p66e3e57d37)" style="fill: #1f77b4; fill-opacity: 0.5; stroke: #000000; stroke-width: 0.117063; stroke-linejoin: miter"/>
   </g>
   <g id="patch_59">
    <path d="M 499.693787 244.078125 
L 507.664602 244.078125 
L 507.664602 243.925854 
L 499.693787 243.925854 
z
" clip-path="url(#p66e3e57d37)" style="fill: #1f77b4; fill-opacity: 0.5; stroke: #000000; stroke-width: 0.117063; stroke-linejoin: miter"/>
   </g>
   <g id="patch_60">
    <path d="M 507.664602 244.078125 
L 515.635417 244.078125 
L 515.635417 243.925854 
L 507.664602 243.925854 
z
" clip-path="url(#p66e3e57d37)" style="fill: #1f77b4; fill-opacity: 0.5; stroke: #000000; stroke-width: 0.117063; stroke-linejoin: miter"/>
   </g>
   <g id="patch_61">
    <path d="M 515.635417 244.078125 
L 523.606233 244.078125 
L 523.606233 244.001989 
L 515.635417 244.001989 
z
" clip-path="url(#p66e3e57d37)" style="fill: #1f77b4; fill-opacity: 0.5; stroke: #000000; stroke-width: 0.117063; stroke-linejoin: miter"/>
   </g>
   <g id="patch_62">
    <path d="M 523.606233 244.078125 
L 531.577048 244.078125 
L 531.577048 244.040057 
L 523.606233 244.040057 
z
" clip-path="url(#p66e3e57d37)" style="fill: #1f77b4; fill-opacity: 0.5; stroke: #000000; stroke-width: 0.117063; stroke-linejoin: miter"/>
   </g>
   <g id="patch_63">
    <path d="M 531.577048 244.078125 
L 539.547863 244.078125 
L 539.547863 243.887786 
L 531.577048 243.887786 
z
" clip-path="url(#p66e3e57d37)" style="fill: #1f77b4; fill-opacity: 0.5; stroke: #000000; stroke-width: 0.117063; stroke-linejoin: miter"/>
   </g>
   <g id="patch_64">
    <path d="M 539.547863 244.078125 
L 547.518679 244.078125 
L 547.518679 243.963922 
L 539.547863 243.963922 
z
" clip-path="url(#p66e3e57d37)" style="fill: #1f77b4; fill-opacity: 0.5; stroke: #000000; stroke-width: 0.117063; stroke-linejoin: miter"/>
   </g>
   <g id="patch_65">
    <path d="M 547.518679 244.078125 
L 555.489494 244.078125 
L 555.489494 244.040057 
L 547.518679 244.040057 
z
" clip-path="url(#p66e3e57d37)" style="fill: #1f77b4; fill-opacity: 0.5; stroke: #000000; stroke-width: 0.117063; stroke-linejoin: miter"/>
   </g>
   <g id="patch_66">
    <path d="M 555.489494 244.078125 
L 563.46031 244.078125 
L 563.46031 243.811651 
L 555.489494 243.811651 
z
" clip-path="url(#p66e3e57d37)" style="fill: #1f77b4; fill-opacity: 0.5; stroke: #000000; stroke-width: 0.117063; stroke-linejoin: miter"/>
   </g>
   <g id="patch_67">
    <path d="M 563.46031 244.078125 
L 571.431125 244.078125 
L 571.431125 244.040057 
L 563.46031 244.040057 
z
" clip-path="url(#p66e3e57d37)" style="fill: #1f77b4; fill-opacity: 0.5; stroke: #000000; stroke-width: 0.117063; stroke-linejoin: miter"/>
   </g>
   <g id="patch_68">
    <path d="M 571.431125 244.078125 
L 579.40194 244.078125 
L 579.40194 243.887786 
L 571.431125 243.887786 
z
" clip-path="url(#p66e3e57d37)" style="fill: #1f77b4; fill-opacity: 0.5; stroke: #000000; stroke-width: 0.117063; stroke-linejoin: miter"/>
   </g>
   <g id="patch_69">
    <path d="M 579.40194 244.078125 
L 587.372756 244.078125 
L 587.372756 244.040057 
L 579.40194 244.040057 
z
" clip-path="url(#p66e3e57d37)" style="fill: #1f77b4; fill-opacity: 0.5; stroke: #000000; stroke-width: 0.117063; stroke-linejoin: miter"/>
   </g>
   <g id="patch_70">
    <path d="M 587.372756 244.078125 
L 595.343571 244.078125 
L 595.343571 244.078125 
L 587.372756 244.078125 
z
" clip-path="url(#p66e3e57d37)" style="fill: #1f77b4; fill-opacity: 0.5; stroke: #000000; stroke-width: 0.117063; stroke-linejoin: miter"/>
   </g>
   <g id="patch_71">
    <path d="M 595.343571 244.078125 
L 603.314387 244.078125 
L 603.314387 244.001989 
L 595.343571 244.001989 
z
" clip-path="url(#p66e3e57d37)" style="fill: #1f77b4; fill-opacity: 0.5; stroke: #000000; stroke-width: 0.117063; stroke-linejoin: miter"/>
   </g>
   <g id="patch_72">
    <path d="M 603.314387 244.078125 
L 611.285202 244.078125 
L 611.285202 244.040057 
L 603.314387 244.040057 
z
" clip-path="url(#p66e3e57d37)" style="fill: #1f77b4; fill-opacity: 0.5; stroke: #000000; stroke-width: 0.117063; stroke-linejoin: miter"/>
   </g>
   <g id="patch_73">
    <path d="M 611.285202 244.078125 
L 619.256017 244.078125 
L 619.256017 244.040057 
L 611.285202 244.040057 
z
" clip-path="url(#p66e3e57d37)" style="fill: #1f77b4; fill-opacity: 0.5; stroke: #000000; stroke-width: 0.117063; stroke-linejoin: miter"/>
   </g>
   <g id="patch_74">
    <path d="M 619.256017 244.078125 
L 627.226833 244.078125 
L 627.226833 244.040057 
L 619.256017 244.040057 
z
" clip-path="url(#p66e3e57d37)" style="fill: #1f77b4; fill-opacity: 0.5; stroke: #000000; stroke-width: 0.117063; stroke-linejoin: miter"/>
   </g>
   <g id="patch_75">
    <path d="M 627.226833 244.078125 
L 635.197648 244.078125 
L 635.197648 244.001989 
L 627.226833 244.001989 
z
" clip-path="url(#p66e3e57d37)" style="fill: #1f77b4; fill-opacity: 0.5; stroke: #000000; stroke-width: 0.117063; stroke-linejoin: miter"/>
   </g>
   <g id="patch_76">
    <path d="M 635.197648 244.078125 
L 643.168463 244.078125 
L 643.168463 243.925854 
L 635.197648 243.925854 
z
" clip-path="url(#p66e3e57d37)" style="fill: #1f77b4; fill-opacity: 0.5; stroke: #000000; stroke-width: 0.117063; stroke-linejoin: miter"/>
   </g>
   <g id="patch_77">
    <path d="M 643.168463 244.078125 
L 651.139279 244.078125 
L 651.139279 244.078125 
L 643.168463 244.078125 
z
" clip-path="url(#p66e3e57d37)" style="fill: #1f77b4; fill-opacity: 0.5; stroke: #000000; stroke-width: 0.117063; stroke-linejoin: miter"/>
   </g>
   <g id="patch_78">
    <path d="M 651.139279 244.078125 
L 659.110094 244.078125 
L 659.110094 243.925854 
L 651.139279 243.925854 
z
" clip-path="url(#p66e3e57d37)" style="fill: #1f77b4; fill-opacity: 0.5; stroke: #000000; stroke-width: 0.117063; stroke-linejoin: miter"/>
   </g>
   <g id="patch_79">
    <path d="M 659.110094 244.078125 
L 667.08091 244.078125 
L 667.08091 244.001989 
L 659.110094 244.001989 
z
" clip-path="url(#p66e3e57d37)" style="fill: #1f77b4; fill-opacity: 0.5; stroke: #000000; stroke-width: 0.117063; stroke-linejoin: miter"/>
   </g>
   <g id="patch_80">
    <path d="M 667.08091 244.078125 
L 675.051725 244.078125 
L 675.051725 244.001989 
L 667.08091 244.001989 
z
" clip-path="url(#p66e3e57d37)" style="fill: #1f77b4; fill-opacity: 0.5; stroke: #000000; stroke-width: 0.117063; stroke-linejoin: miter"/>
   </g>
   <g id="patch_81">
    <path d="M 675.051725 244.078125 
L 683.02254 244.078125 
L 683.02254 243.963922 
L 675.051725 243.963922 
z
" clip-path="url(#p66e3e57d37)" style="fill: #1f77b4; fill-opacity: 0.5; stroke: #000000; stroke-width: 0.117063; stroke-linejoin: miter"/>
   </g>
   <g id="patch_82">
    <path d="M 683.02254 244.078125 
L 690.993356 244.078125 
L 690.993356 243.963922 
L 683.02254 243.963922 
z
" clip-path="url(#p66e3e57d37)" style="fill: #1f77b4; fill-opacity: 0.5; stroke: #000000; stroke-width: 0.117063; stroke-linejoin: miter"/>
   </g>
   <g id="patch_83">
    <path d="M 690.993356 244.078125 
L 698.964171 244.078125 
L 698.964171 244.001989 
L 690.993356 244.001989 
z
" clip-path="url(#p66e3e57d37)" style="fill: #1f77b4; fill-opacity: 0.5; stroke: #000000; stroke-width: 0.117063; stroke-linejoin: miter"/>
   </g>
   <g id="patch_84">
    <path d="M 698.964171 244.078125 
L 706.934987 244.078125 
L 706.934987 243.925854 
L 698.964171 243.925854 
z
" clip-path="url(#p66e3e57d37)" style="fill: #1f77b4; fill-opacity: 0.5; stroke: #000000; stroke-width: 0.117063; stroke-linejoin: miter"/>
   </g>
   <g id="patch_85">
    <path d="M 706.934987 244.078125 
L 714.905802 244.078125 
L 714.905802 244.078125 
L 706.934987 244.078125 
z
" clip-path="url(#p66e3e57d37)" style="fill: #1f77b4; fill-opacity: 0.5; stroke: #000000; stroke-width: 0.117063; stroke-linejoin: miter"/>
   </g>
   <g id="patch_86">
    <path d="M 714.905802 244.078125 
L 722.876617 244.078125 
L 722.876617 244.040057 
L 714.905802 244.040057 
z
" clip-path="url(#p66e3e57d37)" style="fill: #1f77b4; fill-opacity: 0.5; stroke: #000000; stroke-width: 0.117063; stroke-linejoin: miter"/>
   </g>
   <g id="patch_87">
    <path d="M 722.876617 244.078125 
L 730.847433 244.078125 
L 730.847433 243.963922 
L 722.876617 243.963922 
z
" clip-path="url(#p66e3e57d37)" style="fill: #1f77b4; fill-opacity: 0.5; stroke: #000000; stroke-width: 0.117063; stroke-linejoin: miter"/>
   </g>
   <g id="patch_88">
    <path d="M 730.847433 244.078125 
L 738.818248 244.078125 
L 738.818248 244.001989 
L 730.847433 244.001989 
z
" clip-path="url(#p66e3e57d37)" style="fill: #1f77b4; fill-opacity: 0.5; stroke: #000000; stroke-width: 0.117063; stroke-linejoin: miter"/>
   </g>
   <g id="patch_89">
    <path d="M 738.818248 244.078125 
L 746.789063 244.078125 
L 746.789063 243.925854 
L 738.818248 243.925854 
z
" clip-path="url(#p66e3e57d37)" style="fill: #1f77b4; fill-opacity: 0.5; stroke: #000000; stroke-width: 0.117063; stroke-linejoin: miter"/>
   </g>
   <g id="patch_90">
    <path d="M 746.789063 244.078125 
L 754.759879 244.078125 
L 754.759879 244.078125 
L 746.789063 244.078125 
z
" clip-path="url(#p66e3e57d37)" style="fill: #1f77b4; fill-opacity: 0.5; stroke: #000000; stroke-width: 0.117063; stroke-linejoin: miter"/>
   </g>
   <g id="patch_91">
    <path d="M 754.759879 244.078125 
L 762.730694 244.078125 
L 762.730694 244.078125 
L 754.759879 244.078125 
z
" clip-path="url(#p66e3e57d37)" style="fill: #1f77b4; fill-opacity: 0.5; stroke: #000000; stroke-width: 0.117063; stroke-linejoin: miter"/>
   </g>
   <g id="patch_92">
    <path d="M 762.730694 244.078125 
L 770.70151 244.078125 
L 770.70151 243.887786 
L 762.730694 243.887786 
z
" clip-path="url(#p66e3e57d37)" style="fill: #1f77b4; fill-opacity: 0.5; stroke: #000000; stroke-width: 0.117063; stroke-linejoin: miter"/>
   </g>
   <g id="patch_93">
    <path d="M 770.70151 244.078125 
L 778.672325 244.078125 
L 778.672325 243.963922 
L 770.70151 243.963922 
z
" clip-path="url(#p66e3e57d37)" style="fill: #1f77b4; fill-opacity: 0.5; stroke: #000000; stroke-width: 0.117063; stroke-linejoin: miter"/>
   </g>
   <g id="patch_94">
    <path d="M 778.672325 244.078125 
L 786.64314 244.078125 
L 786.64314 243.887786 
L 778.672325 243.887786 
z
" clip-path="url(#p66e3e57d37)" style="fill: #1f77b4; fill-opacity: 0.5; stroke: #000000; stroke-width: 0.117063; stroke-linejoin: miter"/>
   </g>
   <g id="patch_95">
    <path d="M 786.64314 244.078125 
L 794.613956 244.078125 
L 794.613956 244.001989 
L 786.64314 244.001989 
z
" clip-path="url(#p66e3e57d37)" style="fill: #1f77b4; fill-opacity: 0.5; stroke: #000000; stroke-width: 0.117063; stroke-linejoin: miter"/>
   </g>
   <g id="patch_96">
    <path d="M 794.613956 244.078125 
L 802.584771 244.078125 
L 802.584771 244.078125 
L 794.613956 244.078125 
z
" clip-path="url(#p66e3e57d37)" style="fill: #1f77b4; fill-opacity: 0.5; stroke: #000000; stroke-width: 0.117063; stroke-linejoin: miter"/>
   </g>
   <g id="patch_97">
    <path d="M 802.584771 244.078125 
L 810.555587 244.078125 
L 810.555587 243.963922 
L 802.584771 243.963922 
z
" clip-path="url(#p66e3e57d37)" style="fill: #1f77b4; fill-opacity: 0.5; stroke: #000000; stroke-width: 0.117063; stroke-linejoin: miter"/>
   </g>
   <g id="patch_98">
    <path d="M 810.555587 244.078125 
L 818.526402 244.078125 
L 818.526402 244.001989 
L 810.555587 244.001989 
z
" clip-path="url(#p66e3e57d37)" style="fill: #1f77b4; fill-opacity: 0.5; stroke: #000000; stroke-width: 0.117063; stroke-linejoin: miter"/>
   </g>
   <g id="patch_99">
    <path d="M 818.526402 244.078125 
L 826.497217 244.078125 
L 826.497217 244.040057 
L 818.526402 244.040057 
z
" clip-path="url(#p66e3e57d37)" style="fill: #1f77b4; fill-opacity: 0.5; stroke: #000000; stroke-width: 0.117063; stroke-linejoin: miter"/>
   </g>
   <g id="patch_100">
    <path d="M 826.497217 244.078125 
L 834.468033 244.078125 
L 834.468033 244.040057 
L 826.497217 244.040057 
z
" clip-path="url(#p66e3e57d37)" style="fill: #1f77b4; fill-opacity: 0.5; stroke: #000000; stroke-width: 0.117063; stroke-linejoin: miter"/>
   </g>
   <g id="patch_101">
    <path d="M 834.468033 244.078125 
L 842.438848 244.078125 
L 842.438848 244.001989 
L 834.468033 244.001989 
z
" clip-path="url(#p66e3e57d37)" style="fill: #1f77b4; fill-opacity: 0.5; stroke: #000000; stroke-width: 0.117063; stroke-linejoin: miter"/>
   </g>
   <g id="patch_102">
    <path d="M 842.438848 244.078125 
L 850.409663 244.078125 
L 850.409663 244.040057 
L 842.438848 244.040057 
z
" clip-path="url(#p66e3e57d37)" style="fill: #1f77b4; fill-opacity: 0.5; stroke: #000000; stroke-width: 0.117063; stroke-linejoin: miter"/>
   </g>
   <g id="patch_103">
    <path d="M 850.409663 244.078125 
L 858.380479 244.078125 
L 858.380479 244.040057 
L 850.409663 244.040057 
z
" clip-path="url(#p66e3e57d37)" style="fill: #1f77b4; fill-opacity: 0.5; stroke: #000000; stroke-width: 0.117063; stroke-linejoin: miter"/>
   </g>
   <g id="patch_104">
    <path d="M 858.380479 244.078125 
L 866.351294 244.078125 
L 866.351294 244.040057 
L 858.380479 244.040057 
z
" clip-path="url(#p66e3e57d37)" style="fill: #1f77b4; fill-opacity: 0.5; stroke: #000000; stroke-width: 0.117063; stroke-linejoin: miter"/>
   </g>
   <g id="patch_105">
    <path d="M 866.351294 244.078125 
L 874.32211 244.078125 
L 874.32211 244.040057 
L 866.351294 244.040057 
z
" clip-path="url(#p66e3e57d37)" style="fill: #1f77b4; fill-opacity: 0.5; stroke: #000000; stroke-width: 0.117063; stroke-linejoin: miter"/>
   </g>
   <g id="patch_106">
    <path d="M 874.32211 244.078125 
L 882.292925 244.078125 
L 882.292925 244.040057 
L 874.32211 244.040057 
z
" clip-path="url(#p66e3e57d37)" style="fill: #1f77b4; fill-opacity: 0.5; stroke: #000000; stroke-width: 0.117063; stroke-linejoin: miter"/>
   </g>
   <g id="patch_107">
    <path d="M 882.292925 244.078125 
L 890.26374 244.078125 
L 890.26374 244.040057 
L 882.292925 244.040057 
z
" clip-path="url(#p66e3e57d37)" style="fill: #1f77b4; fill-opacity: 0.5; stroke: #000000; stroke-width: 0.117063; stroke-linejoin: miter"/>
   </g>
   <g id="patch_108">
    <path d="M 890.26374 244.078125 
L 898.234556 244.078125 
L 898.234556 244.040057 
L 890.26374 244.040057 
z
" clip-path="url(#p66e3e57d37)" style="fill: #1f77b4; fill-opacity: 0.5; stroke: #000000; stroke-width: 0.117063; stroke-linejoin: miter"/>
   </g>
   <g id="patch_109">
    <path d="M 898.234556 244.078125 
L 906.205371 244.078125 
L 906.205371 244.040057 
L 898.234556 244.040057 
z
" clip-path="url(#p66e3e57d37)" style="fill: #1f77b4; fill-opacity: 0.5; stroke: #000000; stroke-width: 0.117063; stroke-linejoin: miter"/>
   </g>
   <g id="patch_110">
    <path d="M 906.205371 244.078125 
L 914.176187 244.078125 
L 914.176187 244.001989 
L 906.205371 244.001989 
z
" clip-path="url(#p66e3e57d37)" style="fill: #1f77b4; fill-opacity: 0.5; stroke: #000000; stroke-width: 0.117063; stroke-linejoin: miter"/>
   </g>
   <g id="patch_111">
    <path d="M 914.176187 244.078125 
L 922.147002 244.078125 
L 922.147002 244.078125 
L 914.176187 244.078125 
z
" clip-path="url(#p66e3e57d37)" style="fill: #1f77b4; fill-opacity: 0.5; stroke: #000000; stroke-width: 0.117063; stroke-linejoin: miter"/>
   </g>
   <g id="patch_112">
    <path d="M 922.147002 244.078125 
L 930.117817 244.078125 
L 930.117817 244.078125 
L 922.147002 244.078125 
z
" clip-path="url(#p66e3e57d37)" style="fill: #1f77b4; fill-opacity: 0.5; stroke: #000000; stroke-width: 0.117063; stroke-linejoin: miter"/>
   </g>
   <g id="patch_113">
    <path d="M 930.117817 244.078125 
L 938.088633 244.078125 
L 938.088633 244.078125 
L 930.117817 244.078125 
z
" clip-path="url(#p66e3e57d37)" style="fill: #1f77b4; fill-opacity: 0.5; stroke: #000000; stroke-width: 0.117063; stroke-linejoin: miter"/>
   </g>
   <g id="patch_114">
    <path d="M 938.088633 244.078125 
L 946.059448 244.078125 
L 946.059448 244.078125 
L 938.088633 244.078125 
z
" clip-path="url(#p66e3e57d37)" style="fill: #1f77b4; fill-opacity: 0.5; stroke: #000000; stroke-width: 0.117063; stroke-linejoin: miter"/>
   </g>
   <g id="patch_115">
    <path d="M 946.059448 244.078125 
L 954.030263 244.078125 
L 954.030263 244.078125 
L 946.059448 244.078125 
z
" clip-path="url(#p66e3e57d37)" style="fill: #1f77b4; fill-opacity: 0.5; stroke: #000000; stroke-width: 0.117063; stroke-linejoin: miter"/>
   </g>
   <g id="patch_116">
    <path d="M 954.030263 244.078125 
L 962.001079 244.078125 
L 962.001079 244.078125 
L 954.030263 244.078125 
z
" clip-path="url(#p66e3e57d37)" style="fill: #1f77b4; fill-opacity: 0.5; stroke: #000000; stroke-width: 0.117063; stroke-linejoin: miter"/>
   </g>
   <g id="patch_117">
    <path d="M 962.001079 244.078125 
L 969.971894 244.078125 
L 969.971894 244.001989 
L 962.001079 244.001989 
z
" clip-path="url(#p66e3e57d37)" style="fill: #1f77b4; fill-opacity: 0.5; stroke: #000000; stroke-width: 0.117063; stroke-linejoin: miter"/>
   </g>
   <g id="patch_118">
    <path d="M 969.971894 244.078125 
L 977.94271 244.078125 
L 977.94271 244.078125 
L 969.971894 244.078125 
z
" clip-path="url(#p66e3e57d37)" style="fill: #1f77b4; fill-opacity: 0.5; stroke: #000000; stroke-width: 0.117063; stroke-linejoin: miter"/>
   </g>
   <g id="patch_119">
    <path d="M 977.94271 244.078125 
L 985.913525 244.078125 
L 985.913525 244.040057 
L 977.94271 244.040057 
z
" clip-path="url(#p66e3e57d37)" style="fill: #1f77b4; fill-opacity: 0.5; stroke: #000000; stroke-width: 0.117063; stroke-linejoin: miter"/>
   </g>
   <g id="patch_120">
    <path d="M 985.913525 244.078125 
L 993.88434 244.078125 
L 993.88434 244.078125 
L 985.913525 244.078125 
z
" clip-path="url(#p66e3e57d37)" style="fill: #1f77b4; fill-opacity: 0.5; stroke: #000000; stroke-width: 0.117063; stroke-linejoin: miter"/>
   </g>
   <g id="patch_121">
    <path d="M 993.88434 244.078125 
L 1001.855156 244.078125 
L 1001.855156 244.078125 
L 993.88434 244.078125 
z
" clip-path="url(#p66e3e57d37)" style="fill: #1f77b4; fill-opacity: 0.5; stroke: #000000; stroke-width: 0.117063; stroke-linejoin: miter"/>
   </g>
   <g id="patch_122">
    <path d="M 1001.855156 244.078125 
L 1009.825971 244.078125 
L 1009.825971 244.040057 
L 1001.855156 244.040057 
z
" clip-path="url(#p66e3e57d37)" style="fill: #1f77b4; fill-opacity: 0.5; stroke: #000000; stroke-width: 0.117063; stroke-linejoin: miter"/>
   </g>
   <g id="patch_123">
    <path d="M 1009.825971 244.078125 
L 1017.796787 244.078125 
L 1017.796787 244.040057 
L 1009.825971 244.040057 
z
" clip-path="url(#p66e3e57d37)" style="fill: #1f77b4; fill-opacity: 0.5; stroke: #000000; stroke-width: 0.117063; stroke-linejoin: miter"/>
   </g>
   <g id="patch_124">
    <path d="M 1017.796787 244.078125 
L 1025.767602 244.078125 
L 1025.767602 244.078125 
L 1017.796787 244.078125 
z
" clip-path="url(#p66e3e57d37)" style="fill: #1f77b4; fill-opacity: 0.5; stroke: #000000; stroke-width: 0.117063; stroke-linejoin: miter"/>
   </g>
   <g id="patch_125">
    <path d="M 1025.767602 244.078125 
L 1033.738417 244.078125 
L 1033.738417 244.078125 
L 1025.767602 244.078125 
z
" clip-path="url(#p66e3e57d37)" style="fill: #1f77b4; fill-opacity: 0.5; stroke: #000000; stroke-width: 0.117063; stroke-linejoin: miter"/>
   </g>
   <g id="patch_126">
    <path d="M 1033.738417 244.078125 
L 1041.709233 244.078125 
L 1041.709233 244.078125 
L 1033.738417 244.078125 
z
" clip-path="url(#p66e3e57d37)" style="fill: #1f77b4; fill-opacity: 0.5; stroke: #000000; stroke-width: 0.117063; stroke-linejoin: miter"/>
   </g>
   <g id="patch_127">
    <path d="M 1041.709233 244.078125 
L 1049.680048 244.078125 
L 1049.680048 244.078125 
L 1041.709233 244.078125 
z
" clip-path="url(#p66e3e57d37)" style="fill: #1f77b4; fill-opacity: 0.5; stroke: #000000; stroke-width: 0.117063; stroke-linejoin: miter"/>
   </g>
   <g id="patch_128">
    <path d="M 1049.680048 244.078125 
L 1057.650863 244.078125 
L 1057.650863 244.078125 
L 1049.680048 244.078125 
z
" clip-path="url(#p66e3e57d37)" style="fill: #1f77b4; fill-opacity: 0.5; stroke: #000000; stroke-width: 0.117063; stroke-linejoin: miter"/>
   </g>
   <g id="patch_129">
    <path d="M 1057.650863 244.078125 
L 1065.621679 244.078125 
L 1065.621679 244.078125 
L 1057.650863 244.078125 
z
" clip-path="url(#p66e3e57d37)" style="fill: #1f77b4; fill-opacity: 0.5; stroke: #000000; stroke-width: 0.117063; stroke-linejoin: miter"/>
   </g>
   <g id="patch_130">
    <path d="M 1065.621679 244.078125 
L 1073.592494 244.078125 
L 1073.592494 244.078125 
L 1065.621679 244.078125 
z
" clip-path="url(#p66e3e57d37)" style="fill: #1f77b4; fill-opacity: 0.5; stroke: #000000; stroke-width: 0.117063; stroke-linejoin: miter"/>
   </g>
   <g id="patch_131">
    <path d="M 1073.592494 244.078125 
L 1081.56331 244.078125 
L 1081.56331 244.078125 
L 1073.592494 244.078125 
z
" clip-path="url(#p66e3e57d37)" style="fill: #1f77b4; fill-opacity: 0.5; stroke: #000000; stroke-width: 0.117063; stroke-linejoin: miter"/>
   </g>
   <g id="patch_132">
    <path d="M 1081.56331 244.078125 
L 1089.534125 244.078125 
L 1089.534125 244.078125 
L 1081.56331 244.078125 
z
" clip-path="url(#p66e3e57d37)" style="fill: #1f77b4; fill-opacity: 0.5; stroke: #000000; stroke-width: 0.117063; stroke-linejoin: miter"/>
   </g>
   <g id="patch_133">
    <path d="M 1089.534125 244.078125 
L 1097.50494 244.078125 
L 1097.50494 244.040057 
L 1089.534125 244.040057 
z
" clip-path="url(#p66e3e57d37)" style="fill: #1f77b4; fill-opacity: 0.5; stroke: #000000; stroke-width: 0.117063; stroke-linejoin: miter"/>
   </g>
   <g id="patch_134">
    <path d="M 1097.50494 244.078125 
L 1105.475756 244.078125 
L 1105.475756 244.040057 
L 1097.50494 244.040057 
z
" clip-path="url(#p66e3e57d37)" style="fill: #1f77b4; fill-opacity: 0.5; stroke: #000000; stroke-width: 0.117063; stroke-linejoin: miter"/>
   </g>
   <g id="patch_135">
    <path d="M 1105.475756 244.078125 
L 1113.446571 244.078125 
L 1113.446571 244.078125 
L 1105.475756 244.078125 
z
" clip-path="url(#p66e3e57d37)" style="fill: #1f77b4; fill-opacity: 0.5; stroke: #000000; stroke-width: 0.117063; stroke-linejoin: miter"/>
   </g>
   <g id="patch_136">
    <path d="M 1113.446571 244.078125 
L 1121.417387 244.078125 
L 1121.417387 244.040057 
L 1113.446571 244.040057 
z
" clip-path="url(#p66e3e57d37)" style="fill: #1f77b4; fill-opacity: 0.5; stroke: #000000; stroke-width: 0.117063; stroke-linejoin: miter"/>
   </g>
   <g id="patch_137">
    <path d="M 1121.417387 244.078125 
L 1129.388202 244.078125 
L 1129.388202 244.078125 
L 1121.417387 244.078125 
z
" clip-path="url(#p66e3e57d37)" style="fill: #1f77b4; fill-opacity: 0.5; stroke: #000000; stroke-width: 0.117063; stroke-linejoin: miter"/>
   </g>
   <g id="patch_138">
    <path d="M 1129.388202 244.078125 
L 1137.359017 244.078125 
L 1137.359017 244.078125 
L 1129.388202 244.078125 
z
" clip-path="url(#p66e3e57d37)" style="fill: #1f77b4; fill-opacity: 0.5; stroke: #000000; stroke-width: 0.117063; stroke-linejoin: miter"/>
   </g>
   <g id="patch_139">
    <path d="M 1137.359017 244.078125 
L 1145.329833 244.078125 
L 1145.329833 244.078125 
L 1137.359017 244.078125 
z
" clip-path="url(#p66e3e57d37)" style="fill: #1f77b4; fill-opacity: 0.5; stroke: #000000; stroke-width: 0.117063; stroke-linejoin: miter"/>
   </g>
   <g id="patch_140">
    <path d="M 1145.329833 244.078125 
L 1153.300648 244.078125 
L 1153.300648 244.078125 
L 1145.329833 244.078125 
z
" clip-path="url(#p66e3e57d37)" style="fill: #1f77b4; fill-opacity: 0.5; stroke: #000000; stroke-width: 0.117063; stroke-linejoin: miter"/>
   </g>
   <g id="patch_141">
    <path d="M 1153.300648 244.078125 
L 1161.271463 244.078125 
L 1161.271463 244.078125 
L 1153.300648 244.078125 
z
" clip-path="url(#p66e3e57d37)" style="fill: #1f77b4; fill-opacity: 0.5; stroke: #000000; stroke-width: 0.117063; stroke-linejoin: miter"/>
   </g>
   <g id="patch_142">
    <path d="M 1161.271463 244.078125 
L 1169.242279 244.078125 
L 1169.242279 244.078125 
L 1161.271463 244.078125 
z
" clip-path="url(#p66e3e57d37)" style="fill: #1f77b4; fill-opacity: 0.5; stroke: #000000; stroke-width: 0.117063; stroke-linejoin: miter"/>
   </g>
   <g id="patch_143">
    <path d="M 1169.242279 244.078125 
L 1177.213094 244.078125 
L 1177.213094 244.078125 
L 1169.242279 244.078125 
z
" clip-path="url(#p66e3e57d37)" style="fill: #1f77b4; fill-opacity: 0.5; stroke: #000000; stroke-width: 0.117063; stroke-linejoin: miter"/>
   </g>
   <g id="patch_144">
    <path d="M 1177.213094 244.078125 
L 1185.18391 244.078125 
L 1185.18391 244.078125 
L 1177.213094 244.078125 
z
" clip-path="url(#p66e3e57d37)" style="fill: #1f77b4; fill-opacity: 0.5; stroke: #000000; stroke-width: 0.117063; stroke-linejoin: miter"/>
   </g>
   <g id="patch_145">
    <path d="M 1185.18391 244.078125 
L 1193.154725 244.078125 
L 1193.154725 244.078125 
L 1185.18391 244.078125 
z
" clip-path="url(#p66e3e57d37)" style="fill: #1f77b4; fill-opacity: 0.5; stroke: #000000; stroke-width: 0.117063; stroke-linejoin: miter"/>
   </g>
   <g id="patch_146">
    <path d="M 1193.154725 244.078125 
L 1201.12554 244.078125 
L 1201.12554 244.078125 
L 1193.154725 244.078125 
z
" clip-path="url(#p66e3e57d37)" style="fill: #1f77b4; fill-opacity: 0.5; stroke: #000000; stroke-width: 0.117063; stroke-linejoin: miter"/>
   </g>
   <g id="patch_147">
    <path d="M 1201.12554 244.078125 
L 1209.096356 244.078125 
L 1209.096356 244.078125 
L 1201.12554 244.078125 
z
" clip-path="url(#p66e3e57d37)" style="fill: #1f77b4; fill-opacity: 0.5; stroke: #000000; stroke-width: 0.117063; stroke-linejoin: miter"/>
   </g>
   <g id="patch_148">
    <path d="M 1209.096356 244.078125 
L 1217.067171 244.078125 
L 1217.067171 244.078125 
L 1209.096356 244.078125 
z
" clip-path="url(#p66e3e57d37)" style="fill: #1f77b4; fill-opacity: 0.5; stroke: #000000; stroke-width: 0.117063; stroke-linejoin: miter"/>
   </g>
   <g id="patch_149">
    <path d="M 1217.067171 244.078125 
L 1225.037987 244.078125 
L 1225.037987 244.078125 
L 1217.067171 244.078125 
z
" clip-path="url(#p66e3e57d37)" style="fill: #1f77b4; fill-opacity: 0.5; stroke: #000000; stroke-width: 0.117063; stroke-linejoin: miter"/>
   </g>
   <g id="patch_150">
    <path d="M 1225.037987 244.078125 
L 1233.008802 244.078125 
L 1233.008802 244.078125 
L 1225.037987 244.078125 
z
" clip-path="url(#p66e3e57d37)" style="fill: #1f77b4; fill-opacity: 0.5; stroke: #000000; stroke-width: 0.117063; stroke-linejoin: miter"/>
   </g>
   <g id="patch_151">
    <path d="M 1233.008802 244.078125 
L 1240.979617 244.078125 
L 1240.979617 244.078125 
L 1233.008802 244.078125 
z
" clip-path="url(#p66e3e57d37)" style="fill: #1f77b4; fill-opacity: 0.5; stroke: #000000; stroke-width: 0.117063; stroke-linejoin: miter"/>
   </g>
   <g id="patch_152">
    <path d="M 1240.979617 244.078125 
L 1248.950433 244.078125 
L 1248.950433 244.078125 
L 1240.979617 244.078125 
z
" clip-path="url(#p66e3e57d37)" style="fill: #1f77b4; fill-opacity: 0.5; stroke: #000000; stroke-width: 0.117063; stroke-linejoin: miter"/>
   </g>
   <g id="patch_153">
    <path d="M 1248.950433 244.078125 
L 1256.921248 244.078125 
L 1256.921248 244.078125 
L 1248.950433 244.078125 
z
" clip-path="url(#p66e3e57d37)" style="fill: #1f77b4; fill-opacity: 0.5; stroke: #000000; stroke-width: 0.117063; stroke-linejoin: miter"/>
   </g>
   <g id="patch_154">
    <path d="M 1256.921248 244.078125 
L 1264.892063 244.078125 
L 1264.892063 244.078125 
L 1256.921248 244.078125 
z
" clip-path="url(#p66e3e57d37)" style="fill: #1f77b4; fill-opacity: 0.5; stroke: #000000; stroke-width: 0.117063; stroke-linejoin: miter"/>
   </g>
   <g id="patch_155">
    <path d="M 1264.892063 244.078125 
L 1272.862879 244.078125 
L 1272.862879 244.078125 
L 1264.892063 244.078125 
z
" clip-path="url(#p66e3e57d37)" style="fill: #1f77b4; fill-opacity: 0.5; stroke: #000000; stroke-width: 0.117063; stroke-linejoin: miter"/>
   </g>
   <g id="patch_156">
    <path d="M 1272.862879 244.078125 
L 1280.833694 244.078125 
L 1280.833694 244.078125 
L 1272.862879 244.078125 
z
" clip-path="url(#p66e3e57d37)" style="fill: #1f77b4; fill-opacity: 0.5; stroke: #000000; stroke-width: 0.117063; stroke-linejoin: miter"/>
   </g>
   <g id="patch_157">
    <path d="M 1280.833694 244.078125 
L 1288.80451 244.078125 
L 1288.80451 244.078125 
L 1280.833694 244.078125 
z
" clip-path="url(#p66e3e57d37)" style="fill: #1f77b4; fill-opacity: 0.5; stroke: #000000; stroke-width: 0.117063; stroke-linejoin: miter"/>
   </g>
   <g id="patch_158">
    <path d="M 1288.80451 244.078125 
L 1296.775325 244.078125 
L 1296.775325 244.078125 
L 1288.80451 244.078125 
z
" clip-path="url(#p66e3e57d37)" style="fill: #1f77b4; fill-opacity: 0.5; stroke: #000000; stroke-width: 0.117063; stroke-linejoin: miter"/>
   </g>
   <g id="patch_159">
    <path d="M 1296.775325 244.078125 
L 1304.74614 244.078125 
L 1304.74614 244.078125 
L 1296.775325 244.078125 
z
" clip-path="url(#p66e3e57d37)" style="fill: #1f77b4; fill-opacity: 0.5; stroke: #000000; stroke-width: 0.117063; stroke-linejoin: miter"/>
   </g>
   <g id="patch_160">
    <path d="M 1304.74614 244.078125 
L 1312.716956 244.078125 
L 1312.716956 244.078125 
L 1304.74614 244.078125 
z
" clip-path="url(#p66e3e57d37)" style="fill: #1f77b4; fill-opacity: 0.5; stroke: #000000; stroke-width: 0.117063; stroke-linejoin: miter"/>
   </g>
   <g id="patch_161">
    <path d="M 1312.716956 244.078125 
L 1320.687771 244.078125 
L 1320.687771 244.078125 
L 1312.716956 244.078125 
z
" clip-path="url(#p66e3e57d37)" style="fill: #1f77b4; fill-opacity: 0.5; stroke: #000000; stroke-width: 0.117063; stroke-linejoin: miter"/>
   </g>
   <g id="patch_162">
    <path d="M 1320.687771 244.078125 
L 1328.658587 244.078125 
L 1328.658587 244.078125 
L 1320.687771 244.078125 
z
" clip-path="url(#p66e3e57d37)" style="fill: #1f77b4; fill-opacity: 0.5; stroke: #000000; stroke-width: 0.117063; stroke-linejoin: miter"/>
   </g>
   <g id="patch_163">
    <path d="M 1328.658587 244.078125 
L 1336.629402 244.078125 
L 1336.629402 244.078125 
L 1328.658587 244.078125 
z
" clip-path="url(#p66e3e57d37)" style="fill: #1f77b4; fill-opacity: 0.5; stroke: #000000; stroke-width: 0.117063; stroke-linejoin: miter"/>
   </g>
   <g id="patch_164">
    <path d="M 1336.629402 244.078125 
L 1344.600217 244.078125 
L 1344.600217 244.078125 
L 1336.629402 244.078125 
z
" clip-path="url(#p66e3e57d37)" style="fill: #1f77b4; fill-opacity: 0.5; stroke: #000000; stroke-width: 0.117063; stroke-linejoin: miter"/>
   </g>
   <g id="patch_165">
    <path d="M 1344.600217 244.078125 
L 1352.571033 244.078125 
L 1352.571033 244.078125 
L 1344.600217 244.078125 
z
" clip-path="url(#p66e3e57d37)" style="fill: #1f77b4; fill-opacity: 0.5; stroke: #000000; stroke-width: 0.117063; stroke-linejoin: miter"/>
   </g>
   <g id="patch_166">
    <path d="M 1352.571033 244.078125 
L 1360.541848 244.078125 
L 1360.541848 244.040057 
L 1352.571033 244.040057 
z
" clip-path="url(#p66e3e57d37)" style="fill: #1f77b4; fill-opacity: 0.5; stroke: #000000; stroke-width: 0.117063; stroke-linejoin: miter"/>
   </g>
   <g id="patch_167">
    <path d="M 1360.541848 244.078125 
L 1368.512663 244.078125 
L 1368.512663 244.078125 
L 1360.541848 244.078125 
z
" clip-path="url(#p66e3e57d37)" style="fill: #1f77b4; fill-opacity: 0.5; stroke: #000000; stroke-width: 0.117063; stroke-linejoin: miter"/>
   </g>
   <g id="patch_168">
    <path d="M 1368.512663 244.078125 
L 1376.483479 244.078125 
L 1376.483479 244.078125 
L 1368.512663 244.078125 
z
" clip-path="url(#p66e3e57d37)" style="fill: #1f77b4; fill-opacity: 0.5; stroke: #000000; stroke-width: 0.117063; stroke-linejoin: miter"/>
   </g>
   <g id="patch_169">
    <path d="M 1376.483479 244.078125 
L 1384.454294 244.078125 
L 1384.454294 244.078125 
L 1376.483479 244.078125 
z
" clip-path="url(#p66e3e57d37)" style="fill: #1f77b4; fill-opacity: 0.5; stroke: #000000; stroke-width: 0.117063; stroke-linejoin: miter"/>
   </g>
   <g id="patch_170">
    <path d="M 1384.454294 244.078125 
L 1392.42511 244.078125 
L 1392.42511 244.040057 
L 1384.454294 244.040057 
z
" clip-path="url(#p66e3e57d37)" style="fill: #1f77b4; fill-opacity: 0.5; stroke: #000000; stroke-width: 0.117063; stroke-linejoin: miter"/>
   </g>
   <g id="patch_171">
    <path d="M 1392.42511 244.078125 
L 1400.395925 244.078125 
L 1400.395925 244.078125 
L 1392.42511 244.078125 
z
" clip-path="url(#p66e3e57d37)" style="fill: #1f77b4; fill-opacity: 0.5; stroke: #000000; stroke-width: 0.117063; stroke-linejoin: miter"/>
   </g>
   <g id="patch_172">
    <path d="M 1400.395925 244.078125 
L 1408.36674 244.078125 
L 1408.36674 244.078125 
L 1400.395925 244.078125 
z
" clip-path="url(#p66e3e57d37)" style="fill: #1f77b4; fill-opacity: 0.5; stroke: #000000; stroke-width: 0.117063; stroke-linejoin: miter"/>
   </g>
   <g id="patch_173">
    <path d="M 1408.36674 244.078125 
L 1416.337556 244.078125 
L 1416.337556 244.078125 
L 1408.36674 244.078125 
z
" clip-path="url(#p66e3e57d37)" style="fill: #1f77b4; fill-opacity: 0.5; stroke: #000000; stroke-width: 0.117063; stroke-linejoin: miter"/>
   </g>
   <g id="patch_174">
    <path d="M 1416.337556 244.078125 
L 1424.308371 244.078125 
L 1424.308371 244.078125 
L 1416.337556 244.078125 
z
" clip-path="url(#p66e3e57d37)" style="fill: #1f77b4; fill-opacity: 0.5; stroke: #000000; stroke-width: 0.117063; stroke-linejoin: miter"/>
   </g>
   <g id="patch_175">
    <path d="M 1424.308371 244.078125 
L 1432.279187 244.078125 
L 1432.279187 244.078125 
L 1424.308371 244.078125 
z
" clip-path="url(#p66e3e57d37)" style="fill: #1f77b4; fill-opacity: 0.5; stroke: #000000; stroke-width: 0.117063; stroke-linejoin: miter"/>
   </g>
   <g id="patch_176">
    <path d="M 1432.279187 244.078125 
L 1440.250002 244.078125 
L 1440.250002 244.040057 
L 1432.279187 244.040057 
z
" clip-path="url(#p66e3e57d37)" style="fill: #1f77b4; fill-opacity: 0.5; stroke: #000000; stroke-width: 0.117063; stroke-linejoin: miter"/>
   </g>
   <g id="patch_177">
    <path d="M 1440.250002 244.078125 
L 1448.220817 244.078125 
L 1448.220817 244.078125 
L 1440.250002 244.078125 
z
" clip-path="url(#p66e3e57d37)" style="fill: #1f77b4; fill-opacity: 0.5; stroke: #000000; stroke-width: 0.117063; stroke-linejoin: miter"/>
   </g>
   <g id="patch_178">
    <path d="M 1448.220817 244.078125 
L 1456.191633 244.078125 
L 1456.191633 244.078125 
L 1448.220817 244.078125 
z
" clip-path="url(#p66e3e57d37)" style="fill: #1f77b4; fill-opacity: 0.5; stroke: #000000; stroke-width: 0.117063; stroke-linejoin: miter"/>
   </g>
   <g id="patch_179">
    <path d="M 1456.191633 244.078125 
L 1464.162448 244.078125 
L 1464.162448 244.040057 
L 1456.191633 244.040057 
z
" clip-path="url(#p66e3e57d37)" style="fill: #1f77b4; fill-opacity: 0.5; stroke: #000000; stroke-width: 0.117063; stroke-linejoin: miter"/>
   </g>
   <g id="patch_180">
    <path d="M 1464.162448 244.078125 
L 1472.133263 244.078125 
L 1472.133263 244.078125 
L 1464.162448 244.078125 
z
" clip-path="url(#p66e3e57d37)" style="fill: #1f77b4; fill-opacity: 0.5; stroke: #000000; stroke-width: 0.117063; stroke-linejoin: miter"/>
   </g>
   <g id="patch_181">
    <path d="M 1472.133263 244.078125 
L 1480.104079 244.078125 
L 1480.104079 244.078125 
L 1472.133263 244.078125 
z
" clip-path="url(#p66e3e57d37)" style="fill: #1f77b4; fill-opacity: 0.5; stroke: #000000; stroke-width: 0.117063; stroke-linejoin: miter"/>
   </g>
   <g id="patch_182">
    <path d="M 1480.104079 244.078125 
L 1488.074894 244.078125 
L 1488.074894 244.078125 
L 1480.104079 244.078125 
z
" clip-path="url(#p66e3e57d37)" style="fill: #1f77b4; fill-opacity: 0.5; stroke: #000000; stroke-width: 0.117063; stroke-linejoin: miter"/>
   </g>
   <g id="patch_183">
    <path d="M 1488.074894 244.078125 
L 1496.04571 244.078125 
L 1496.04571 244.078125 
L 1488.074894 244.078125 
z
" clip-path="url(#p66e3e57d37)" style="fill: #1f77b4; fill-opacity: 0.5; stroke: #000000; stroke-width: 0.117063; stroke-linejoin: miter"/>
   </g>
   <g id="patch_184">
    <path d="M 1496.04571 244.078125 
L 1504.016525 244.078125 
L 1504.016525 244.078125 
L 1496.04571 244.078125 
z
" clip-path="url(#p66e3e57d37)" style="fill: #1f77b4; fill-opacity: 0.5; stroke: #000000; stroke-width: 0.117063; stroke-linejoin: miter"/>
   </g>
   <g id="patch_185">
    <path d="M 1504.016525 244.078125 
L 1511.98734 244.078125 
L 1511.98734 244.078125 
L 1504.016525 244.078125 
z
" clip-path="url(#p66e3e57d37)" style="fill: #1f77b4; fill-opacity: 0.5; stroke: #000000; stroke-width: 0.117063; stroke-linejoin: miter"/>
   </g>
   <g id="patch_186">
    <path d="M 1511.98734 244.078125 
L 1519.958156 244.078125 
L 1519.958156 244.078125 
L 1511.98734 244.078125 
z
" clip-path="url(#p66e3e57d37)" style="fill: #1f77b4; fill-opacity: 0.5; stroke: #000000; stroke-width: 0.117063; stroke-linejoin: miter"/>
   </g>
   <g id="patch_187">
    <path d="M 1519.958156 244.078125 
L 1527.928971 244.078125 
L 1527.928971 244.078125 
L 1519.958156 244.078125 
z
" clip-path="url(#p66e3e57d37)" style="fill: #1f77b4; fill-opacity: 0.5; stroke: #000000; stroke-width: 0.117063; stroke-linejoin: miter"/>
   </g>
   <g id="patch_188">
    <path d="M 1527.928971 244.078125 
L 1535.899787 244.078125 
L 1535.899787 244.078125 
L 1527.928971 244.078125 
z
" clip-path="url(#p66e3e57d37)" style="fill: #1f77b4; fill-opacity: 0.5; stroke: #000000; stroke-width: 0.117063; stroke-linejoin: miter"/>
   </g>
   <g id="patch_189">
    <path d="M 1535.899787 244.078125 
L 1543.870602 244.078125 
L 1543.870602 244.078125 
L 1535.899787 244.078125 
z
" clip-path="url(#p66e3e57d37)" style="fill: #1f77b4; fill-opacity: 0.5; stroke: #000000; stroke-width: 0.117063; stroke-linejoin: miter"/>
   </g>
   <g id="patch_190">
    <path d="M 1543.870602 244.078125 
L 1551.841417 244.078125 
L 1551.841417 244.078125 
L 1543.870602 244.078125 
z
" clip-path="url(#p66e3e57d37)" style="fill: #1f77b4; fill-opacity: 0.5; stroke: #000000; stroke-width: 0.117063; stroke-linejoin: miter"/>
   </g>
   <g id="patch_191">
    <path d="M 1551.841417 244.078125 
L 1559.812233 244.078125 
L 1559.812233 244.078125 
L 1551.841417 244.078125 
z
" clip-path="url(#p66e3e57d37)" style="fill: #1f77b4; fill-opacity: 0.5; stroke: #000000; stroke-width: 0.117063; stroke-linejoin: miter"/>
   </g>
   <g id="patch_192">
    <path d="M 1559.812233 244.078125 
L 1567.783048 244.078125 
L 1567.783048 244.078125 
L 1559.812233 244.078125 
z
" clip-path="url(#p66e3e57d37)" style="fill: #1f77b4; fill-opacity: 0.5; stroke: #000000; stroke-width: 0.117063; stroke-linejoin: miter"/>
   </g>
   <g id="patch_193">
    <path d="M 1567.783048 244.078125 
L 1575.753863 244.078125 
L 1575.753863 244.078125 
L 1567.783048 244.078125 
z
" clip-path="url(#p66e3e57d37)" style="fill: #1f77b4; fill-opacity: 0.5; stroke: #000000; stroke-width: 0.117063; stroke-linejoin: miter"/>
   </g>
   <g id="patch_194">
    <path d="M 1575.753863 244.078125 
L 1583.724679 244.078125 
L 1583.724679 244.078125 
L 1575.753863 244.078125 
z
" clip-path="url(#p66e3e57d37)" style="fill: #1f77b4; fill-opacity: 0.5; stroke: #000000; stroke-width: 0.117063; stroke-linejoin: miter"/>
   </g>
   <g id="patch_195">
    <path d="M 1583.724679 244.078125 
L 1591.695494 244.078125 
L 1591.695494 244.078125 
L 1583.724679 244.078125 
z
" clip-path="url(#p66e3e57d37)" style="fill: #1f77b4; fill-opacity: 0.5; stroke: #000000; stroke-width: 0.117063; stroke-linejoin: miter"/>
   </g>
   <g id="patch_196">
    <path d="M 1591.695494 244.078125 
L 1599.66631 244.078125 
L 1599.66631 244.078125 
L 1591.695494 244.078125 
z
" clip-path="url(#p66e3e57d37)" style="fill: #1f77b4; fill-opacity: 0.5; stroke: #000000; stroke-width: 0.117063; stroke-linejoin: miter"/>
   </g>
   <g id="patch_197">
    <path d="M 1599.66631 244.078125 
L 1607.637125 244.078125 
L 1607.637125 244.078125 
L 1599.66631 244.078125 
z
" clip-path="url(#p66e3e57d37)" style="fill: #1f77b4; fill-opacity: 0.5; stroke: #000000; stroke-width: 0.117063; stroke-linejoin: miter"/>
   </g>
   <g id="patch_198">
    <path d="M 1607.637125 244.078125 
L 1615.60794 244.078125 
L 1615.60794 244.078125 
L 1607.637125 244.078125 
z
" clip-path="url(#p66e3e57d37)" style="fill: #1f77b4; fill-opacity: 0.5; stroke: #000000; stroke-width: 0.117063; stroke-linejoin: miter"/>
   </g>
   <g id="patch_199">
    <path d="M 1615.60794 244.078125 
L 1623.578756 244.078125 
L 1623.578756 244.078125 
L 1615.60794 244.078125 
z
" clip-path="url(#p66e3e57d37)" style="fill: #1f77b4; fill-opacity: 0.5; stroke: #000000; stroke-width: 0.117063; stroke-linejoin: miter"/>
   </g>
   <g id="patch_200">
    <path d="M 1623.578756 244.078125 
L 1631.549571 244.078125 
L 1631.549571 244.078125 
L 1623.578756 244.078125 
z
" clip-path="url(#p66e3e57d37)" style="fill: #1f77b4; fill-opacity: 0.5; stroke: #000000; stroke-width: 0.117063; stroke-linejoin: miter"/>
   </g>
   <g id="patch_201">
    <path d="M 1631.549571 244.078125 
L 1639.520387 244.078125 
L 1639.520387 244.078125 
L 1631.549571 244.078125 
z
" clip-path="url(#p66e3e57d37)" style="fill: #1f77b4; fill-opacity: 0.5; stroke: #000000; stroke-width: 0.117063; stroke-linejoin: miter"/>
   </g>
   <g id="patch_202">
    <path d="M 1639.520387 244.078125 
L 1647.491202 244.078125 
L 1647.491202 244.078125 
L 1639.520387 244.078125 
z
" clip-path="url(#p66e3e57d37)" style="fill: #1f77b4; fill-opacity: 0.5; stroke: #000000; stroke-width: 0.117063; stroke-linejoin: miter"/>
   </g>
   <g id="patch_203">
    <path d="M 1647.491202 244.078125 
L 1655.462017 244.078125 
L 1655.462017 244.078125 
L 1647.491202 244.078125 
z
" clip-path="url(#p66e3e57d37)" style="fill: #1f77b4; fill-opacity: 0.5; stroke: #000000; stroke-width: 0.117063; stroke-linejoin: miter"/>
   </g>
   <g id="patch_204">
    <path d="M 1655.462017 244.078125 
L 1663.432833 244.078125 
L 1663.432833 244.078125 
L 1655.462017 244.078125 
z
" clip-path="url(#p66e3e57d37)" style="fill: #1f77b4; fill-opacity: 0.5; stroke: #000000; stroke-width: 0.117063; stroke-linejoin: miter"/>
   </g>
   <g id="patch_205">
    <path d="M 1663.432833 244.078125 
L 1671.403648 244.078125 
L 1671.403648 244.078125 
L 1663.432833 244.078125 
z
" clip-path="url(#p66e3e57d37)" style="fill: #1f77b4; fill-opacity: 0.5; stroke: #000000; stroke-width: 0.117063; stroke-linejoin: miter"/>
   </g>
   <g id="patch_206">
    <path d="M 1671.403648 244.078125 
L 1679.374463 244.078125 
L 1679.374463 244.078125 
L 1671.403648 244.078125 
z
" clip-path="url(#p66e3e57d37)" style="fill: #1f77b4; fill-opacity: 0.5; stroke: #000000; stroke-width: 0.117063; stroke-linejoin: miter"/>
   </g>
   <g id="patch_207">
    <path d="M 1679.374463 244.078125 
L 1687.345279 244.078125 
L 1687.345279 244.078125 
L 1679.374463 244.078125 
z
" clip-path="url(#p66e3e57d37)" style="fill: #1f77b4; fill-opacity: 0.5; stroke: #000000; stroke-width: 0.117063; stroke-linejoin: miter"/>
   </g>
   <g id="patch_208">
    <path d="M 1687.345279 244.078125 
L 1695.316094 244.078125 
L 1695.316094 244.078125 
L 1687.345279 244.078125 
z
" clip-path="url(#p66e3e57d37)" style="fill: #1f77b4; fill-opacity: 0.5; stroke: #000000; stroke-width: 0.117063; stroke-linejoin: miter"/>
   </g>
   <g id="patch_209">
    <path d="M 1695.316094 244.078125 
L 1703.28691 244.078125 
L 1703.28691 244.078125 
L 1695.316094 244.078125 
z
" clip-path="url(#p66e3e57d37)" style="fill: #1f77b4; fill-opacity: 0.5; stroke: #000000; stroke-width: 0.117063; stroke-linejoin: miter"/>
   </g>
   <g id="patch_210">
    <path d="M 1703.28691 244.078125 
L 1711.257725 244.078125 
L 1711.257725 244.078125 
L 1703.28691 244.078125 
z
" clip-path="url(#p66e3e57d37)" style="fill: #1f77b4; fill-opacity: 0.5; stroke: #000000; stroke-width: 0.117063; stroke-linejoin: miter"/>
   </g>
   <g id="patch_211">
    <path d="M 1711.257725 244.078125 
L 1719.22854 244.078125 
L 1719.22854 244.078125 
L 1711.257725 244.078125 
z
" clip-path="url(#p66e3e57d37)" style="fill: #1f77b4; fill-opacity: 0.5; stroke: #000000; stroke-width: 0.117063; stroke-linejoin: miter"/>
   </g>
   <g id="patch_212">
    <path d="M 1719.22854 244.078125 
L 1727.199356 244.078125 
L 1727.199356 244.078125 
L 1719.22854 244.078125 
z
" clip-path="url(#p66e3e57d37)" style="fill: #1f77b4; fill-opacity: 0.5; stroke: #000000; stroke-width: 0.117063; stroke-linejoin: miter"/>
   </g>
   <g id="patch_213">
    <path d="M 1727.199356 244.078125 
L 1735.170171 244.078125 
L 1735.170171 244.078125 
L 1727.199356 244.078125 
z
" clip-path="url(#p66e3e57d37)" style="fill: #1f77b4; fill-opacity: 0.5; stroke: #000000; stroke-width: 0.117063; stroke-linejoin: miter"/>
   </g>
   <g id="patch_214">
    <path d="M 1735.170171 244.078125 
L 1743.140987 244.078125 
L 1743.140987 244.078125 
L 1735.170171 244.078125 
z
" clip-path="url(#p66e3e57d37)" style="fill: #1f77b4; fill-opacity: 0.5; stroke: #000000; stroke-width: 0.117063; stroke-linejoin: miter"/>
   </g>
   <g id="patch_215">
    <path d="M 1743.140987 244.078125 
L 1751.111802 244.078125 
L 1751.111802 244.078125 
L 1743.140987 244.078125 
z
" clip-path="url(#p66e3e57d37)" style="fill: #1f77b4; fill-opacity: 0.5; stroke: #000000; stroke-width: 0.117063; stroke-linejoin: miter"/>
   </g>
   <g id="patch_216">
    <path d="M 1751.111802 244.078125 
L 1759.082617 244.078125 
L 1759.082617 244.078125 
L 1751.111802 244.078125 
z
" clip-path="url(#p66e3e57d37)" style="fill: #1f77b4; fill-opacity: 0.5; stroke: #000000; stroke-width: 0.117063; stroke-linejoin: miter"/>
   </g>
   <g id="patch_217">
    <path d="M 1759.082617 244.078125 
L 1767.053433 244.078125 
L 1767.053433 244.078125 
L 1759.082617 244.078125 
z
" clip-path="url(#p66e3e57d37)" style="fill: #1f77b4; fill-opacity: 0.5; stroke: #000000; stroke-width: 0.117063; stroke-linejoin: miter"/>
   </g>
   <g id="patch_218">
    <path d="M 1767.053433 244.078125 
L 1775.024248 244.078125 
L 1775.024248 244.078125 
L 1767.053433 244.078125 
z
" clip-path="url(#p66e3e57d37)" style="fill: #1f77b4; fill-opacity: 0.5; stroke: #000000; stroke-width: 0.117063; stroke-linejoin: miter"/>
   </g>
   <g id="patch_219">
    <path d="M 1775.024248 244.078125 
L 1782.995063 244.078125 
L 1782.995063 244.078125 
L 1775.024248 244.078125 
z
" clip-path="url(#p66e3e57d37)" style="fill: #1f77b4; fill-opacity: 0.5; stroke: #000000; stroke-width: 0.117063; stroke-linejoin: miter"/>
   </g>
   <g id="patch_220">
    <path d="M 1782.995063 244.078125 
L 1790.965879 244.078125 
L 1790.965879 244.078125 
L 1782.995063 244.078125 
z
" clip-path="url(#p66e3e57d37)" style="fill: #1f77b4; fill-opacity: 0.5; stroke: #000000; stroke-width: 0.117063; stroke-linejoin: miter"/>
   </g>
   <g id="patch_221">
    <path d="M 1790.965879 244.078125 
L 1798.936694 244.078125 
L 1798.936694 244.078125 
L 1790.965879 244.078125 
z
" clip-path="url(#p66e3e57d37)" style="fill: #1f77b4; fill-opacity: 0.5; stroke: #000000; stroke-width: 0.117063; stroke-linejoin: miter"/>
   </g>
   <g id="patch_222">
    <path d="M 1798.936694 244.078125 
L 1806.90751 244.078125 
L 1806.90751 244.078125 
L 1798.936694 244.078125 
z
" clip-path="url(#p66e3e57d37)" style="fill: #1f77b4; fill-opacity: 0.5; stroke: #000000; stroke-width: 0.117063; stroke-linejoin: miter"/>
   </g>
   <g id="patch_223">
    <path d="M 1806.90751 244.078125 
L 1814.878325 244.078125 
L 1814.878325 244.040057 
L 1806.90751 244.040057 
z
" clip-path="url(#p66e3e57d37)" style="fill: #1f77b4; fill-opacity: 0.5; stroke: #000000; stroke-width: 0.117063; stroke-linejoin: miter"/>
   </g>
   <g id="patch_224">
    <path d="M 1814.878325 244.078125 
L 1822.84914 244.078125 
L 1822.84914 244.078125 
L 1814.878325 244.078125 
z
" clip-path="url(#p66e3e57d37)" style="fill: #1f77b4; fill-opacity: 0.5; stroke: #000000; stroke-width: 0.117063; stroke-linejoin: miter"/>
   </g>
   <g id="patch_225">
    <path d="M 1822.84914 244.078125 
L 1830.819956 244.078125 
L 1830.819956 244.078125 
L 1822.84914 244.078125 
z
" clip-path="url(#p66e3e57d37)" style="fill: #1f77b4; fill-opacity: 0.5; stroke: #000000; stroke-width: 0.117063; stroke-linejoin: miter"/>
   </g>
   <g id="patch_226">
    <path d="M 1830.819956 244.078125 
L 1838.790771 244.078125 
L 1838.790771 244.078125 
L 1830.819956 244.078125 
z
" clip-path="url(#p66e3e57d37)" style="fill: #1f77b4; fill-opacity: 0.5; stroke: #000000; stroke-width: 0.117063; stroke-linejoin: miter"/>
   </g>
   <g id="patch_227">
    <path d="M 1838.790771 244.078125 
L 1846.761587 244.078125 
L 1846.761587 244.078125 
L 1838.790771 244.078125 
z
" clip-path="url(#p66e3e57d37)" style="fill: #1f77b4; fill-opacity: 0.5; stroke: #000000; stroke-width: 0.117063; stroke-linejoin: miter"/>
   </g>
   <g id="patch_228">
    <path d="M 1846.761587 244.078125 
L 1854.732402 244.078125 
L 1854.732402 244.078125 
L 1846.761587 244.078125 
z
" clip-path="url(#p66e3e57d37)" style="fill: #1f77b4; fill-opacity: 0.5; stroke: #000000; stroke-width: 0.117063; stroke-linejoin: miter"/>
   </g>
   <g id="patch_229">
    <path d="M 1854.732402 244.078125 
L 1862.703217 244.078125 
L 1862.703217 244.078125 
L 1854.732402 244.078125 
z
" clip-path="url(#p66e3e57d37)" style="fill: #1f77b4; fill-opacity: 0.5; stroke: #000000; stroke-width: 0.117063; stroke-linejoin: miter"/>
   </g>
   <g id="patch_230">
    <path d="M 1862.703217 244.078125 
L 1870.674033 244.078125 
L 1870.674033 244.078125 
L 1862.703217 244.078125 
z
" clip-path="url(#p66e3e57d37)" style="fill: #1f77b4; fill-opacity: 0.5; stroke: #000000; stroke-width: 0.117063; stroke-linejoin: miter"/>
   </g>
   <g id="patch_231">
    <path d="M 1870.674033 244.078125 
L 1878.644848 244.078125 
L 1878.644848 244.078125 
L 1870.674033 244.078125 
z
" clip-path="url(#p66e3e57d37)" style="fill: #1f77b4; fill-opacity: 0.5; stroke: #000000; stroke-width: 0.117063; stroke-linejoin: miter"/>
   </g>
   <g id="patch_232">
    <path d="M 1878.644848 244.078125 
L 1886.615663 244.078125 
L 1886.615663 244.078125 
L 1878.644848 244.078125 
z
" clip-path="url(#p66e3e57d37)" style="fill: #1f77b4; fill-opacity: 0.5; stroke: #000000; stroke-width: 0.117063; stroke-linejoin: miter"/>
   </g>
   <g id="patch_233">
    <path d="M 1886.615663 244.078125 
L 1894.586479 244.078125 
L 1894.586479 244.078125 
L 1886.615663 244.078125 
z
" clip-path="url(#p66e3e57d37)" style="fill: #1f77b4; fill-opacity: 0.5; stroke: #000000; stroke-width: 0.117063; stroke-linejoin: miter"/>
   </g>
   <g id="patch_234">
    <path d="M 1894.586479 244.078125 
L 1902.557294 244.078125 
L 1902.557294 244.078125 
L 1894.586479 244.078125 
z
" clip-path="url(#p66e3e57d37)" style="fill: #1f77b4; fill-opacity: 0.5; stroke: #000000; stroke-width: 0.117063; stroke-linejoin: miter"/>
   </g>
   <g id="patch_235">
    <path d="M 1902.557294 244.078125 
L 1910.52811 244.078125 
L 1910.52811 244.078125 
L 1902.557294 244.078125 
z
" clip-path="url(#p66e3e57d37)" style="fill: #1f77b4; fill-opacity: 0.5; stroke: #000000; stroke-width: 0.117063; stroke-linejoin: miter"/>
   </g>
   <g id="patch_236">
    <path d="M 1910.52811 244.078125 
L 1918.498925 244.078125 
L 1918.498925 244.078125 
L 1910.52811 244.078125 
z
" clip-path="url(#p66e3e57d37)" style="fill: #1f77b4; fill-opacity: 0.5; stroke: #000000; stroke-width: 0.117063; stroke-linejoin: miter"/>
   </g>
   <g id="patch_237">
    <path d="M 1918.498925 244.078125 
L 1926.46974 244.078125 
L 1926.46974 244.078125 
L 1918.498925 244.078125 
z
" clip-path="url(#p66e3e57d37)" style="fill: #1f77b4; fill-opacity: 0.5; stroke: #000000; stroke-width: 0.117063; stroke-linejoin: miter"/>
   </g>
   <g id="patch_238">
    <path d="M 1926.46974 244.078125 
L 1934.440556 244.078125 
L 1934.440556 244.078125 
L 1926.46974 244.078125 
z
" clip-path="url(#p66e3e57d37)" style="fill: #1f77b4; fill-opacity: 0.5; stroke: #000000; stroke-width: 0.117063; stroke-linejoin: miter"/>
   </g>
   <g id="patch_239">
    <path d="M 1934.440556 244.078125 
L 1942.411371 244.078125 
L 1942.411371 244.078125 
L 1934.440556 244.078125 
z
" clip-path="url(#p66e3e57d37)" style="fill: #1f77b4; fill-opacity: 0.5; stroke: #000000; stroke-width: 0.117063; stroke-linejoin: miter"/>
   </g>
   <g id="patch_240">
    <path d="M 1942.411371 244.078125 
L 1950.382187 244.078125 
L 1950.382187 244.078125 
L 1942.411371 244.078125 
z
" clip-path="url(#p66e3e57d37)" style="fill: #1f77b4; fill-opacity: 0.5; stroke: #000000; stroke-width: 0.117063; stroke-linejoin: miter"/>
   </g>
   <g id="patch_241">
    <path d="M 1950.382187 244.078125 
L 1958.353002 244.078125 
L 1958.353002 244.078125 
L 1950.382187 244.078125 
z
" clip-path="url(#p66e3e57d37)" style="fill: #1f77b4; fill-opacity: 0.5; stroke: #000000; stroke-width: 0.117063; stroke-linejoin: miter"/>
   </g>
   <g id="patch_242">
    <path d="M 1958.353002 244.078125 
L 1966.323817 244.078125 
L 1966.323817 244.078125 
L 1958.353002 244.078125 
z
" clip-path="url(#p66e3e57d37)" style="fill: #1f77b4; fill-opacity: 0.5; stroke: #000000; stroke-width: 0.117063; stroke-linejoin: miter"/>
   </g>
   <g id="patch_243">
    <path d="M 1966.323817 244.078125 
L 1974.294633 244.078125 
L 1974.294633 244.078125 
L 1966.323817 244.078125 
z
" clip-path="url(#p66e3e57d37)" style="fill: #1f77b4; fill-opacity: 0.5; stroke: #000000; stroke-width: 0.117063; stroke-linejoin: miter"/>
   </g>
   <g id="patch_244">
    <path d="M 1974.294633 244.078125 
L 1982.265448 244.078125 
L 1982.265448 244.040057 
L 1974.294633 244.040057 
z
" clip-path="url(#p66e3e57d37)" style="fill: #1f77b4; fill-opacity: 0.5; stroke: #000000; stroke-width: 0.117063; stroke-linejoin: miter"/>
   </g>
   <g id="patch_245">
    <path d="M 1982.265448 244.078125 
L 1990.236263 244.078125 
L 1990.236263 244.078125 
L 1982.265448 244.078125 
z
" clip-path="url(#p66e3e57d37)" style="fill: #1f77b4; fill-opacity: 0.5; stroke: #000000; stroke-width: 0.117063; stroke-linejoin: miter"/>
   </g>
   <g id="patch_246">
    <path d="M 1990.236263 244.078125 
L 1998.207079 244.078125 
L 1998.207079 244.078125 
L 1990.236263 244.078125 
z
" clip-path="url(#p66e3e57d37)" style="fill: #1f77b4; fill-opacity: 0.5; stroke: #000000; stroke-width: 0.117063; stroke-linejoin: miter"/>
   </g>
   <g id="patch_247">
    <path d="M 1998.207079 244.078125 
L 2006.177894 244.078125 
L 2006.177894 244.078125 
L 1998.207079 244.078125 
z
" clip-path="url(#p66e3e57d37)" style="fill: #1f77b4; fill-opacity: 0.5; stroke: #000000; stroke-width: 0.117063; stroke-linejoin: miter"/>
   </g>
   <g id="patch_248">
    <path d="M 2006.177894 244.078125 
L 2014.14871 244.078125 
L 2014.14871 244.078125 
L 2006.177894 244.078125 
z
" clip-path="url(#p66e3e57d37)" style="fill: #1f77b4; fill-opacity: 0.5; stroke: #000000; stroke-width: 0.117063; stroke-linejoin: miter"/>
   </g>
   <g id="patch_249">
    <path d="M 2014.14871 244.078125 
L 2022.119525 244.078125 
L 2022.119525 244.078125 
L 2014.14871 244.078125 
z
" clip-path="url(#p66e3e57d37)" style="fill: #1f77b4; fill-opacity: 0.5; stroke: #000000; stroke-width: 0.117063; stroke-linejoin: miter"/>
   </g>
   <g id="patch_250">
    <path d="M 2022.119525 244.078125 
L 2030.09034 244.078125 
L 2030.09034 244.078125 
L 2022.119525 244.078125 
z
" clip-path="url(#p66e3e57d37)" style="fill: #1f77b4; fill-opacity: 0.5; stroke: #000000; stroke-width: 0.117063; stroke-linejoin: miter"/>
   </g>
   <g id="patch_251">
    <path d="M 2030.09034 244.078125 
L 2038.061156 244.078125 
L 2038.061156 244.078125 
L 2030.09034 244.078125 
z
" clip-path="url(#p66e3e57d37)" style="fill: #1f77b4; fill-opacity: 0.5; stroke: #000000; stroke-width: 0.117063; stroke-linejoin: miter"/>
   </g>
   <g id="patch_252">
    <path d="M 2038.061156 244.078125 
L 2046.031971 244.078125 
L 2046.031971 244.078125 
L 2038.061156 244.078125 
z
" clip-path="url(#p66e3e57d37)" style="fill: #1f77b4; fill-opacity: 0.5; stroke: #000000; stroke-width: 0.117063; stroke-linejoin: miter"/>
   </g>
   <g id="patch_253">
    <path d="M 2046.031971 244.078125 
L 2054.002787 244.078125 
L 2054.002787 244.078125 
L 2046.031971 244.078125 
z
" clip-path="url(#p66e3e57d37)" style="fill: #1f77b4; fill-opacity: 0.5; stroke: #000000; stroke-width: 0.117063; stroke-linejoin: miter"/>
   </g>
   <g id="patch_254">
    <path d="M 2054.002787 244.078125 
L 2061.973602 244.078125 
L 2061.973602 244.078125 
L 2054.002787 244.078125 
z
" clip-path="url(#p66e3e57d37)" style="fill: #1f77b4; fill-opacity: 0.5; stroke: #000000; stroke-width: 0.117063; stroke-linejoin: miter"/>
   </g>
   <g id="patch_255">
    <path d="M 2061.973602 244.078125 
L 2069.944417 244.078125 
L 2069.944417 244.078125 
L 2061.973602 244.078125 
z
" clip-path="url(#p66e3e57d37)" style="fill: #1f77b4; fill-opacity: 0.5; stroke: #000000; stroke-width: 0.117063; stroke-linejoin: miter"/>
   </g>
   <g id="patch_256">
    <path d="M 2069.944417 244.078125 
L 2077.915233 244.078125 
L 2077.915233 244.078125 
L 2069.944417 244.078125 
z
" clip-path="url(#p66e3e57d37)" style="fill: #1f77b4; fill-opacity: 0.5; stroke: #000000; stroke-width: 0.117063; stroke-linejoin: miter"/>
   </g>
   <g id="patch_257">
    <path d="M 2077.915233 244.078125 
L 2085.886048 244.078125 
L 2085.886048 244.078125 
L 2077.915233 244.078125 
z
" clip-path="url(#p66e3e57d37)" style="fill: #1f77b4; fill-opacity: 0.5; stroke: #000000; stroke-width: 0.117063; stroke-linejoin: miter"/>
   </g>
   <g id="patch_258">
    <path d="M 2085.886048 244.078125 
L 2093.856863 244.078125 
L 2093.856863 244.078125 
L 2085.886048 244.078125 
z
" clip-path="url(#p66e3e57d37)" style="fill: #1f77b4; fill-opacity: 0.5; stroke: #000000; stroke-width: 0.117063; stroke-linejoin: miter"/>
   </g>
   <g id="patch_259">
    <path d="M 2093.856863 244.078125 
L 2101.827679 244.078125 
L 2101.827679 244.078125 
L 2093.856863 244.078125 
z
" clip-path="url(#p66e3e57d37)" style="fill: #1f77b4; fill-opacity: 0.5; stroke: #000000; stroke-width: 0.117063; stroke-linejoin: miter"/>
   </g>
   <g id="patch_260">
    <path d="M 2101.827679 244.078125 
L 2109.798494 244.078125 
L 2109.798494 244.078125 
L 2101.827679 244.078125 
z
" clip-path="url(#p66e3e57d37)" style="fill: #1f77b4; fill-opacity: 0.5; stroke: #000000; stroke-width: 0.117063; stroke-linejoin: miter"/>
   </g>
   <g id="patch_261">
    <path d="M 2109.798494 244.078125 
L 2117.76931 244.078125 
L 2117.76931 244.040057 
L 2109.798494 244.040057 
z
" clip-path="url(#p66e3e57d37)" style="fill: #1f77b4; fill-opacity: 0.5; stroke: #000000; stroke-width: 0.117063; stroke-linejoin: miter"/>
   </g>
   <g id="patch_262">
    <path d="M 2117.76931 244.078125 
L 2125.740125 244.078125 
L 2125.740125 244.040057 
L 2117.76931 244.040057 
z
" clip-path="url(#p66e3e57d37)" style="fill: #1f77b4; fill-opacity: 0.5; stroke: #000000; stroke-width: 0.117063; stroke-linejoin: miter"/>
   </g>
   <g id="matplotlib.axis_1">
    <g id="xtick_1">
     <g id="line2d_1">
      <defs>
       <path id="m7d2bb0aef7" d="M 0 0 
L 0 3.5 
" style="stroke: #000000; stroke-width: 0.8"/>
      </defs>
      <g>
       <use xlink:href="#m7d2bb0aef7" x="53.328125" y="244.078125" style="stroke: #000000; stroke-width: 0.8"/>
      </g>
     </g>
     <g id="text_1">
      <!-- 0 -->
      <g transform="translate(50.146875 258.676562) scale(0.1 -0.1)">
       <defs>
        <path id="DejaVuSans-30" d="M 2034 4250 
Q 1547 4250 1301 3770 
Q 1056 3291 1056 2328 
Q 1056 1369 1301 889 
Q 1547 409 2034 409 
Q 2525 409 2770 889 
Q 3016 1369 3016 2328 
Q 3016 3291 2770 3770 
Q 2525 4250 2034 4250 
z
M 2034 4750 
Q 2819 4750 3233 4129 
Q 3647 3509 3647 2328 
Q 3647 1150 3233 529 
Q 2819 -91 2034 -91 
Q 1250 -91 836 529 
Q 422 1150 422 2328 
Q 422 3509 836 4129 
Q 1250 4750 2034 4750 
z
" transform="scale(0.015625)"/>
       </defs>
       <use xlink:href="#DejaVuSans-30"/>
      </g>
     </g>
    </g>
    <g id="xtick_2">
     <g id="line2d_2">
      <g>
       <use xlink:href="#m7d2bb0aef7" x="120.288125" y="244.078125" style="stroke: #000000; stroke-width: 0.8"/>
      </g>
     </g>
     <g id="text_2">
      <!-- 20 -->
      <g transform="translate(113.925625 258.676562) scale(0.1 -0.1)">
       <defs>
        <path id="DejaVuSans-32" d="M 1228 531 
L 3431 531 
L 3431 0 
L 469 0 
L 469 531 
Q 828 903 1448 1529 
Q 2069 2156 2228 2338 
Q 2531 2678 2651 2914 
Q 2772 3150 2772 3378 
Q 2772 3750 2511 3984 
Q 2250 4219 1831 4219 
Q 1534 4219 1204 4116 
Q 875 4013 500 3803 
L 500 4441 
Q 881 4594 1212 4672 
Q 1544 4750 1819 4750 
Q 2544 4750 2975 4387 
Q 3406 4025 3406 3419 
Q 3406 3131 3298 2873 
Q 3191 2616 2906 2266 
Q 2828 2175 2409 1742 
Q 1991 1309 1228 531 
z
" transform="scale(0.015625)"/>
       </defs>
       <use xlink:href="#DejaVuSans-32"/>
       <use xlink:href="#DejaVuSans-30" transform="translate(63.623047 0)"/>
      </g>
     </g>
    </g>
    <g id="xtick_3">
     <g id="line2d_3">
      <g>
       <use xlink:href="#m7d2bb0aef7" x="187.248125" y="244.078125" style="stroke: #000000; stroke-width: 0.8"/>
      </g>
     </g>
     <g id="text_3">
      <!-- 40 -->
      <g transform="translate(180.885625 258.676562) scale(0.1 -0.1)">
       <defs>
        <path id="DejaVuSans-34" d="M 2419 4116 
L 825 1625 
L 2419 1625 
L 2419 4116 
z
M 2253 4666 
L 3047 4666 
L 3047 1625 
L 3713 1625 
L 3713 1100 
L 3047 1100 
L 3047 0 
L 2419 0 
L 2419 1100 
L 313 1100 
L 313 1709 
L 2253 4666 
z
" transform="scale(0.015625)"/>
       </defs>
       <use xlink:href="#DejaVuSans-34"/>
       <use xlink:href="#DejaVuSans-30" transform="translate(63.623047 0)"/>
      </g>
     </g>
    </g>
    <g id="xtick_4">
     <g id="line2d_4">
      <g>
       <use xlink:href="#m7d2bb0aef7" x="254.208125" y="244.078125" style="stroke: #000000; stroke-width: 0.8"/>
      </g>
     </g>
     <g id="text_4">
      <!-- 60 -->
      <g transform="translate(247.845625 258.676562) scale(0.1 -0.1)">
       <defs>
        <path id="DejaVuSans-36" d="M 2113 2584 
Q 1688 2584 1439 2293 
Q 1191 2003 1191 1497 
Q 1191 994 1439 701 
Q 1688 409 2113 409 
Q 2538 409 2786 701 
Q 3034 994 3034 1497 
Q 3034 2003 2786 2293 
Q 2538 2584 2113 2584 
z
M 3366 4563 
L 3366 3988 
Q 3128 4100 2886 4159 
Q 2644 4219 2406 4219 
Q 1781 4219 1451 3797 
Q 1122 3375 1075 2522 
Q 1259 2794 1537 2939 
Q 1816 3084 2150 3084 
Q 2853 3084 3261 2657 
Q 3669 2231 3669 1497 
Q 3669 778 3244 343 
Q 2819 -91 2113 -91 
Q 1303 -91 875 529 
Q 447 1150 447 2328 
Q 447 3434 972 4092 
Q 1497 4750 2381 4750 
Q 2619 4750 2861 4703 
Q 3103 4656 3366 4563 
z
" transform="scale(0.015625)"/>
       </defs>
       <use xlink:href="#DejaVuSans-36"/>
       <use xlink:href="#DejaVuSans-30" transform="translate(63.623047 0)"/>
      </g>
     </g>
    </g>
    <g id="xtick_5">
     <g id="line2d_5">
      <g>
       <use xlink:href="#m7d2bb0aef7" x="321.168125" y="244.078125" style="stroke: #000000; stroke-width: 0.8"/>
      </g>
     </g>
     <g id="text_5">
      <!-- 80 -->
      <g transform="translate(314.805625 258.676562) scale(0.1 -0.1)">
       <defs>
        <path id="DejaVuSans-38" d="M 2034 2216 
Q 1584 2216 1326 1975 
Q 1069 1734 1069 1313 
Q 1069 891 1326 650 
Q 1584 409 2034 409 
Q 2484 409 2743 651 
Q 3003 894 3003 1313 
Q 3003 1734 2745 1975 
Q 2488 2216 2034 2216 
z
M 1403 2484 
Q 997 2584 770 2862 
Q 544 3141 544 3541 
Q 544 4100 942 4425 
Q 1341 4750 2034 4750 
Q 2731 4750 3128 4425 
Q 3525 4100 3525 3541 
Q 3525 3141 3298 2862 
Q 3072 2584 2669 2484 
Q 3125 2378 3379 2068 
Q 3634 1759 3634 1313 
Q 3634 634 3220 271 
Q 2806 -91 2034 -91 
Q 1263 -91 848 271 
Q 434 634 434 1313 
Q 434 1759 690 2068 
Q 947 2378 1403 2484 
z
M 1172 3481 
Q 1172 3119 1398 2916 
Q 1625 2713 2034 2713 
Q 2441 2713 2670 2916 
Q 2900 3119 2900 3481 
Q 2900 3844 2670 4047 
Q 2441 4250 2034 4250 
Q 1625 4250 1398 4047 
Q 1172 3844 1172 3481 
z
" transform="scale(0.015625)"/>
       </defs>
       <use xlink:href="#DejaVuSans-38"/>
       <use xlink:href="#DejaVuSans-30" transform="translate(63.623047 0)"/>
      </g>
     </g>
    </g>
    <g id="xtick_6">
     <g id="line2d_6">
      <g>
       <use xlink:href="#m7d2bb0aef7" x="388.128125" y="244.078125" style="stroke: #000000; stroke-width: 0.8"/>
      </g>
     </g>
     <g id="text_6">
      <!-- 100 -->
      <g transform="translate(378.584375 258.676562) scale(0.1 -0.1)">
       <defs>
        <path id="DejaVuSans-31" d="M 794 531 
L 1825 531 
L 1825 4091 
L 703 3866 
L 703 4441 
L 1819 4666 
L 2450 4666 
L 2450 531 
L 3481 531 
L 3481 0 
L 794 0 
L 794 531 
z
" transform="scale(0.015625)"/>
       </defs>
       <use xlink:href="#DejaVuSans-31"/>
       <use xlink:href="#DejaVuSans-30" transform="translate(63.623047 0)"/>
       <use xlink:href="#DejaVuSans-30" transform="translate(127.246094 0)"/>
      </g>
     </g>
    </g>
    <g id="text_7">
     <!-- exp -->
     <g transform="translate(211.605469 272.354687) scale(0.1 -0.1)">
      <defs>
       <path id="DejaVuSans-65" d="M 3597 1894 
L 3597 1613 
L 953 1613 
Q 991 1019 1311 708 
Q 1631 397 2203 397 
Q 2534 397 2845 478 
Q 3156 559 3463 722 
L 3463 178 
Q 3153 47 2828 -22 
Q 2503 -91 2169 -91 
Q 1331 -91 842 396 
Q 353 884 353 1716 
Q 353 2575 817 3079 
Q 1281 3584 2069 3584 
Q 2775 3584 3186 3129 
Q 3597 2675 3597 1894 
z
M 3022 2063 
Q 3016 2534 2758 2815 
Q 2500 3097 2075 3097 
Q 1594 3097 1305 2825 
Q 1016 2553 972 2059 
L 3022 2063 
z
" transform="scale(0.015625)"/>
       <path id="DejaVuSans-78" d="M 3513 3500 
L 2247 1797 
L 3578 0 
L 2900 0 
L 1881 1375 
L 863 0 
L 184 0 
L 1544 1831 
L 300 3500 
L 978 3500 
L 1906 2253 
L 2834 3500 
L 3513 3500 
z
" transform="scale(0.015625)"/>
       <path id="DejaVuSans-70" d="M 1159 525 
L 1159 -1331 
L 581 -1331 
L 581 3500 
L 1159 3500 
L 1159 2969 
Q 1341 3281 1617 3432 
Q 1894 3584 2278 3584 
Q 2916 3584 3314 3078 
Q 3713 2572 3713 1747 
Q 3713 922 3314 415 
Q 2916 -91 2278 -91 
Q 1894 -91 1617 61 
Q 1341 213 1159 525 
z
M 3116 1747 
Q 3116 2381 2855 2742 
Q 2594 3103 2138 3103 
Q 1681 3103 1420 2742 
Q 1159 2381 1159 1747 
Q 1159 1113 1420 752 
Q 1681 391 2138 391 
Q 2594 391 2855 752 
Q 3116 1113 3116 1747 
z
" transform="scale(0.015625)"/>
      </defs>
      <use xlink:href="#DejaVuSans-65"/>
      <use xlink:href="#DejaVuSans-78" transform="translate(59.773438 0)"/>
      <use xlink:href="#DejaVuSans-70" transform="translate(118.953125 0)"/>
     </g>
    </g>
   </g>
   <g id="matplotlib.axis_2">
    <g id="ytick_1">
     <g id="line2d_7">
      <defs>
       <path id="mb742908750" d="M 0 0 
L -3.5 0 
" style="stroke: #000000; stroke-width: 0.8"/>
      </defs>
      <g>
       <use xlink:href="#mb742908750" x="53.328125" y="244.078125" style="stroke: #000000; stroke-width: 0.8"/>
      </g>
     </g>
     <g id="text_8">
      <!-- 0 -->
      <g transform="translate(39.965625 247.877344) scale(0.1 -0.1)">
       <use xlink:href="#DejaVuSans-30"/>
      </g>
     </g>
    </g>
    <g id="ytick_2">
     <g id="line2d_8">
      <g>
       <use xlink:href="#mb742908750" x="53.328125" y="206.010353" style="stroke: #000000; stroke-width: 0.8"/>
      </g>
     </g>
     <g id="text_9">
      <!-- 1000 -->
      <g transform="translate(20.878125 209.809572) scale(0.1 -0.1)">
       <use xlink:href="#DejaVuSans-31"/>
       <use xlink:href="#DejaVuSans-30" transform="translate(63.623047 0)"/>
       <use xlink:href="#DejaVuSans-30" transform="translate(127.246094 0)"/>
       <use xlink:href="#DejaVuSans-30" transform="translate(190.869141 0)"/>
      </g>
     </g>
    </g>
    <g id="ytick_3">
     <g id="line2d_9">
      <g>
       <use xlink:href="#mb742908750" x="53.328125" y="167.942581" style="stroke: #000000; stroke-width: 0.8"/>
      </g>
     </g>
     <g id="text_10">
      <!-- 2000 -->
      <g transform="translate(20.878125 171.741799) scale(0.1 -0.1)">
       <use xlink:href="#DejaVuSans-32"/>
       <use xlink:href="#DejaVuSans-30" transform="translate(63.623047 0)"/>
       <use xlink:href="#DejaVuSans-30" transform="translate(127.246094 0)"/>
       <use xlink:href="#DejaVuSans-30" transform="translate(190.869141 0)"/>
      </g>
     </g>
    </g>
    <g id="ytick_4">
     <g id="line2d_10">
      <g>
       <use xlink:href="#mb742908750" x="53.328125" y="129.874808" style="stroke: #000000; stroke-width: 0.8"/>
      </g>
     </g>
     <g id="text_11">
      <!-- 3000 -->
      <g transform="translate(20.878125 133.674027) scale(0.1 -0.1)">
       <defs>
        <path id="DejaVuSans-33" d="M 2597 2516 
Q 3050 2419 3304 2112 
Q 3559 1806 3559 1356 
Q 3559 666 3084 287 
Q 2609 -91 1734 -91 
Q 1441 -91 1130 -33 
Q 819 25 488 141 
L 488 750 
Q 750 597 1062 519 
Q 1375 441 1716 441 
Q 2309 441 2620 675 
Q 2931 909 2931 1356 
Q 2931 1769 2642 2001 
Q 2353 2234 1838 2234 
L 1294 2234 
L 1294 2753 
L 1863 2753 
Q 2328 2753 2575 2939 
Q 2822 3125 2822 3475 
Q 2822 3834 2567 4026 
Q 2313 4219 1838 4219 
Q 1578 4219 1281 4162 
Q 984 4106 628 3988 
L 628 4550 
Q 988 4650 1302 4700 
Q 1616 4750 1894 4750 
Q 2613 4750 3031 4423 
Q 3450 4097 3450 3541 
Q 3450 3153 3228 2886 
Q 3006 2619 2597 2516 
z
" transform="scale(0.015625)"/>
       </defs>
       <use xlink:href="#DejaVuSans-33"/>
       <use xlink:href="#DejaVuSans-30" transform="translate(63.623047 0)"/>
       <use xlink:href="#DejaVuSans-30" transform="translate(127.246094 0)"/>
       <use xlink:href="#DejaVuSans-30" transform="translate(190.869141 0)"/>
      </g>
     </g>
    </g>
    <g id="ytick_5">
     <g id="line2d_11">
      <g>
       <use xlink:href="#mb742908750" x="53.328125" y="91.807036" style="stroke: #000000; stroke-width: 0.8"/>
      </g>
     </g>
     <g id="text_12">
      <!-- 4000 -->
      <g transform="translate(20.878125 95.606255) scale(0.1 -0.1)">
       <use xlink:href="#DejaVuSans-34"/>
       <use xlink:href="#DejaVuSans-30" transform="translate(63.623047 0)"/>
       <use xlink:href="#DejaVuSans-30" transform="translate(127.246094 0)"/>
       <use xlink:href="#DejaVuSans-30" transform="translate(190.869141 0)"/>
      </g>
     </g>
    </g>
    <g id="ytick_6">
     <g id="line2d_12">
      <g>
       <use xlink:href="#mb742908750" x="53.328125" y="53.739264" style="stroke: #000000; stroke-width: 0.8"/>
      </g>
     </g>
     <g id="text_13">
      <!-- 5000 -->
      <g transform="translate(20.878125 57.538483) scale(0.1 -0.1)">
       <defs>
        <path id="DejaVuSans-35" d="M 691 4666 
L 3169 4666 
L 3169 4134 
L 1269 4134 
L 1269 2991 
Q 1406 3038 1543 3061 
Q 1681 3084 1819 3084 
Q 2600 3084 3056 2656 
Q 3513 2228 3513 1497 
Q 3513 744 3044 326 
Q 2575 -91 1722 -91 
Q 1428 -91 1123 -41 
Q 819 9 494 109 
L 494 744 
Q 775 591 1075 516 
Q 1375 441 1709 441 
Q 2250 441 2565 725 
Q 2881 1009 2881 1497 
Q 2881 1984 2565 2268 
Q 2250 2553 1709 2553 
Q 1456 2553 1204 2497 
Q 953 2441 691 2322 
L 691 4666 
z
" transform="scale(0.015625)"/>
       </defs>
       <use xlink:href="#DejaVuSans-35"/>
       <use xlink:href="#DejaVuSans-30" transform="translate(63.623047 0)"/>
       <use xlink:href="#DejaVuSans-30" transform="translate(127.246094 0)"/>
       <use xlink:href="#DejaVuSans-30" transform="translate(190.869141 0)"/>
      </g>
     </g>
    </g>
    <g id="text_14">
     <!-- Count -->
     <g transform="translate(14.798438 148.046562) rotate(-90) scale(0.1 -0.1)">
      <defs>
       <path id="DejaVuSans-43" d="M 4122 4306 
L 4122 3641 
Q 3803 3938 3442 4084 
Q 3081 4231 2675 4231 
Q 1875 4231 1450 3742 
Q 1025 3253 1025 2328 
Q 1025 1406 1450 917 
Q 1875 428 2675 428 
Q 3081 428 3442 575 
Q 3803 722 4122 1019 
L 4122 359 
Q 3791 134 3420 21 
Q 3050 -91 2638 -91 
Q 1578 -91 968 557 
Q 359 1206 359 2328 
Q 359 3453 968 4101 
Q 1578 4750 2638 4750 
Q 3056 4750 3426 4639 
Q 3797 4528 4122 4306 
z
" transform="scale(0.015625)"/>
       <path id="DejaVuSans-6f" d="M 1959 3097 
Q 1497 3097 1228 2736 
Q 959 2375 959 1747 
Q 959 1119 1226 758 
Q 1494 397 1959 397 
Q 2419 397 2687 759 
Q 2956 1122 2956 1747 
Q 2956 2369 2687 2733 
Q 2419 3097 1959 3097 
z
M 1959 3584 
Q 2709 3584 3137 3096 
Q 3566 2609 3566 1747 
Q 3566 888 3137 398 
Q 2709 -91 1959 -91 
Q 1206 -91 779 398 
Q 353 888 353 1747 
Q 353 2609 779 3096 
Q 1206 3584 1959 3584 
z
" transform="scale(0.015625)"/>
       <path id="DejaVuSans-75" d="M 544 1381 
L 544 3500 
L 1119 3500 
L 1119 1403 
Q 1119 906 1312 657 
Q 1506 409 1894 409 
Q 2359 409 2629 706 
Q 2900 1003 2900 1516 
L 2900 3500 
L 3475 3500 
L 3475 0 
L 2900 0 
L 2900 538 
Q 2691 219 2414 64 
Q 2138 -91 1772 -91 
Q 1169 -91 856 284 
Q 544 659 544 1381 
z
M 1991 3584 
L 1991 3584 
z
" transform="scale(0.015625)"/>
       <path id="DejaVuSans-6e" d="M 3513 2113 
L 3513 0 
L 2938 0 
L 2938 2094 
Q 2938 2591 2744 2837 
Q 2550 3084 2163 3084 
Q 1697 3084 1428 2787 
Q 1159 2491 1159 1978 
L 1159 0 
L 581 0 
L 581 3500 
L 1159 3500 
L 1159 2956 
Q 1366 3272 1645 3428 
Q 1925 3584 2291 3584 
Q 2894 3584 3203 3211 
Q 3513 2838 3513 2113 
z
" transform="scale(0.015625)"/>
       <path id="DejaVuSans-74" d="M 1172 4494 
L 1172 3500 
L 2356 3500 
L 2356 3053 
L 1172 3053 
L 1172 1153 
Q 1172 725 1289 603 
Q 1406 481 1766 481 
L 2356 481 
L 2356 0 
L 1766 0 
Q 1100 0 847 248 
Q 594 497 594 1153 
L 594 3053 
L 172 3053 
L 172 3500 
L 594 3500 
L 594 4494 
L 1172 4494 
z
" transform="scale(0.015625)"/>
      </defs>
      <use xlink:href="#DejaVuSans-43"/>
      <use xlink:href="#DejaVuSans-6f" transform="translate(69.824219 0)"/>
      <use xlink:href="#DejaVuSans-75" transform="translate(131.005859 0)"/>
      <use xlink:href="#DejaVuSans-6e" transform="translate(194.384766 0)"/>
      <use xlink:href="#DejaVuSans-74" transform="translate(257.763672 0)"/>
     </g>
    </g>
   </g>
   <g id="line2d_13">
    <path d="M 53.328125 221.919669 
L 63.742256 200.425056 
L 74.156386 163.782423 
L 84.570517 147.266351 
L 94.984648 170.410035 
L 105.398778 190.455203 
L 115.812909 205.373024 
L 126.22704 221.019744 
L 136.64117 230.681234 
L 147.055301 236.003595 
L 157.469432 239.3282 
L 167.883562 241.052986 
L 178.297693 241.845236 
L 199.125954 242.806882 
L 209.540085 243.14924 
L 230.368346 243.41431 
L 251.196607 243.485255 
L 292.85313 243.74449 
L 313.681391 243.85783 
L 344.923783 243.846957 
L 376.166175 243.941689 
L 405.871875 243.876367 
L 405.871875 243.876367 
" clip-path="url(#p66e3e57d37)" style="fill: none; stroke: #1f77b4; stroke-width: 1.5; stroke-linecap: square"/>
   </g>
   <g id="patch_263">
    <path d="M 53.328125 244.078125 
L 53.328125 22.318125 
" style="fill: none; stroke: #000000; stroke-width: 0.8; stroke-linejoin: miter; stroke-linecap: square"/>
   </g>
   <g id="patch_264">
    <path d="M 388.128125 244.078125 
L 388.128125 22.318125 
" style="fill: none; stroke: #000000; stroke-width: 0.8; stroke-linejoin: miter; stroke-linecap: square"/>
   </g>
   <g id="patch_265">
    <path d="M 53.328125 244.078125 
L 388.128125 244.078125 
" style="fill: none; stroke: #000000; stroke-width: 0.8; stroke-linejoin: miter; stroke-linecap: square"/>
   </g>
   <g id="patch_266">
    <path d="M 53.328125 22.318125 
L 388.128125 22.318125 
" style="fill: none; stroke: #000000; stroke-width: 0.8; stroke-linejoin: miter; stroke-linecap: square"/>
   </g>
   <g id="text_15">
    <!-- Distribuzione di exp -->
    <g transform="translate(161 16.318125) scale(0.12 -0.12)">
     <defs>
      <path id="DejaVuSans-44" d="M 1259 4147 
L 1259 519 
L 2022 519 
Q 2988 519 3436 956 
Q 3884 1394 3884 2338 
Q 3884 3275 3436 3711 
Q 2988 4147 2022 4147 
L 1259 4147 
z
M 628 4666 
L 1925 4666 
Q 3281 4666 3915 4102 
Q 4550 3538 4550 2338 
Q 4550 1131 3912 565 
Q 3275 0 1925 0 
L 628 0 
L 628 4666 
z
" transform="scale(0.015625)"/>
      <path id="DejaVuSans-69" d="M 603 3500 
L 1178 3500 
L 1178 0 
L 603 0 
L 603 3500 
z
M 603 4863 
L 1178 4863 
L 1178 4134 
L 603 4134 
L 603 4863 
z
" transform="scale(0.015625)"/>
      <path id="DejaVuSans-73" d="M 2834 3397 
L 2834 2853 
Q 2591 2978 2328 3040 
Q 2066 3103 1784 3103 
Q 1356 3103 1142 2972 
Q 928 2841 928 2578 
Q 928 2378 1081 2264 
Q 1234 2150 1697 2047 
L 1894 2003 
Q 2506 1872 2764 1633 
Q 3022 1394 3022 966 
Q 3022 478 2636 193 
Q 2250 -91 1575 -91 
Q 1294 -91 989 -36 
Q 684 19 347 128 
L 347 722 
Q 666 556 975 473 
Q 1284 391 1588 391 
Q 1994 391 2212 530 
Q 2431 669 2431 922 
Q 2431 1156 2273 1281 
Q 2116 1406 1581 1522 
L 1381 1569 
Q 847 1681 609 1914 
Q 372 2147 372 2553 
Q 372 3047 722 3315 
Q 1072 3584 1716 3584 
Q 2034 3584 2315 3537 
Q 2597 3491 2834 3397 
z
" transform="scale(0.015625)"/>
      <path id="DejaVuSans-72" d="M 2631 2963 
Q 2534 3019 2420 3045 
Q 2306 3072 2169 3072 
Q 1681 3072 1420 2755 
Q 1159 2438 1159 1844 
L 1159 0 
L 581 0 
L 581 3500 
L 1159 3500 
L 1159 2956 
Q 1341 3275 1631 3429 
Q 1922 3584 2338 3584 
Q 2397 3584 2469 3576 
Q 2541 3569 2628 3553 
L 2631 2963 
z
" transform="scale(0.015625)"/>
      <path id="DejaVuSans-62" d="M 3116 1747 
Q 3116 2381 2855 2742 
Q 2594 3103 2138 3103 
Q 1681 3103 1420 2742 
Q 1159 2381 1159 1747 
Q 1159 1113 1420 752 
Q 1681 391 2138 391 
Q 2594 391 2855 752 
Q 3116 1113 3116 1747 
z
M 1159 2969 
Q 1341 3281 1617 3432 
Q 1894 3584 2278 3584 
Q 2916 3584 3314 3078 
Q 3713 2572 3713 1747 
Q 3713 922 3314 415 
Q 2916 -91 2278 -91 
Q 1894 -91 1617 61 
Q 1341 213 1159 525 
L 1159 0 
L 581 0 
L 581 4863 
L 1159 4863 
L 1159 2969 
z
" transform="scale(0.015625)"/>
      <path id="DejaVuSans-7a" d="M 353 3500 
L 3084 3500 
L 3084 2975 
L 922 459 
L 3084 459 
L 3084 0 
L 275 0 
L 275 525 
L 2438 3041 
L 353 3041 
L 353 3500 
z
" transform="scale(0.015625)"/>
      <path id="DejaVuSans-20" transform="scale(0.015625)"/>
      <path id="DejaVuSans-64" d="M 2906 2969 
L 2906 4863 
L 3481 4863 
L 3481 0 
L 2906 0 
L 2906 525 
Q 2725 213 2448 61 
Q 2172 -91 1784 -91 
Q 1150 -91 751 415 
Q 353 922 353 1747 
Q 353 2572 751 3078 
Q 1150 3584 1784 3584 
Q 2172 3584 2448 3432 
Q 2725 3281 2906 2969 
z
M 947 1747 
Q 947 1113 1208 752 
Q 1469 391 1925 391 
Q 2381 391 2643 752 
Q 2906 1113 2906 1747 
Q 2906 2381 2643 2742 
Q 2381 3103 1925 3103 
Q 1469 3103 1208 2742 
Q 947 2381 947 1747 
z
" transform="scale(0.015625)"/>
     </defs>
     <use xlink:href="#DejaVuSans-44"/>
     <use xlink:href="#DejaVuSans-69" transform="translate(77.001953 0)"/>
     <use xlink:href="#DejaVuSans-73" transform="translate(104.785156 0)"/>
     <use xlink:href="#DejaVuSans-74" transform="translate(156.884766 0)"/>
     <use xlink:href="#DejaVuSans-72" transform="translate(196.09375 0)"/>
     <use xlink:href="#DejaVuSans-69" transform="translate(237.207031 0)"/>
     <use xlink:href="#DejaVuSans-62" transform="translate(264.990234 0)"/>
     <use xlink:href="#DejaVuSans-75" transform="translate(328.466797 0)"/>
     <use xlink:href="#DejaVuSans-7a" transform="translate(391.845703 0)"/>
     <use xlink:href="#DejaVuSans-69" transform="translate(444.335938 0)"/>
     <use xlink:href="#DejaVuSans-6f" transform="translate(472.119141 0)"/>
     <use xlink:href="#DejaVuSans-6e" transform="translate(533.300781 0)"/>
     <use xlink:href="#DejaVuSans-65" transform="translate(596.679688 0)"/>
     <use xlink:href="#DejaVuSans-20" transform="translate(658.203125 0)"/>
     <use xlink:href="#DejaVuSans-64" transform="translate(689.990234 0)"/>
     <use xlink:href="#DejaVuSans-69" transform="translate(753.466797 0)"/>
     <use xlink:href="#DejaVuSans-20" transform="translate(781.25 0)"/>
     <use xlink:href="#DejaVuSans-65" transform="translate(813.037109 0)"/>
     <use xlink:href="#DejaVuSans-78" transform="translate(872.810547 0)"/>
     <use xlink:href="#DejaVuSans-70" transform="translate(931.990234 0)"/>
    </g>
   </g>
  </g>
 </g>
 <defs>
  <clipPath id="p66e3e57d37">
   <rect x="53.328125" y="22.318125" width="334.8" height="221.76"/>
  </clipPath>
 </defs>
</svg>
