<?xml version="1.0" encoding="utf-8" standalone="no"?>
<!DOCTYPE svg PUBLIC "-//W3C//DTD SVG 1.1//EN"
  "http://www.w3.org/Graphics/SVG/1.1/DTD/svg11.dtd">
<svg xmlns:xlink="http://www.w3.org/1999/xlink" width="395.328125pt" height="281.634375pt" viewBox="0 0 395.328125 281.634375" xmlns="http://www.w3.org/2000/svg" version="1.1">
 <metadata>
  <rdf:RDF xmlns:dc="http://purl.org/dc/elements/1.1/" xmlns:cc="http://creativecommons.org/ns#" xmlns:rdf="http://www.w3.org/1999/02/22-rdf-syntax-ns#">
   <cc:Work>
    <dc:type rdf:resource="http://purl.org/dc/dcmitype/StillImage"/>
    <dc:date>2025-07-05T19:53:15.714103</dc:date>
    <dc:format>image/svg+xml</dc:format>
    <dc:creator>
     <cc:Agent>
      <dc:title>Matplotlib v3.10.3, https://matplotlib.org/</dc:title>
     </cc:Agent>
    </dc:creator>
   </cc:Work>
  </rdf:RDF>
 </metadata>
 <defs>
  <style type="text/css">*{stroke-linejoin: round; stroke-linecap: butt}</style>
 </defs>
 <g id="figure_1">
  <g id="patch_1">
   <path d="M 0 281.634375 
L 395.328125 281.634375 
L 395.328125 0 
L 0 0 
z
" style="fill: #ffffff"/>
  </g>
  <g id="axes_1">
   <g id="patch_2">
    <path d="M 53.328125 244.078125 
L 388.128125 244.078125 
L 388.128125 22.318125 
L 53.328125 22.318125 
z
" style="fill: #ffffff"/>
   </g>
   <g id="patch_3">
    <path d="M 68.546307 244.078125 
L 76.350503 244.078125 
L 76.350503 32.878125 
L 68.546307 32.878125 
z
" clip-path="url(#p10dde1f6a5)" style="fill: #1f77b4; fill-opacity: 0.5; stroke: #000000; stroke-width: 0.78042; stroke-linejoin: miter"/>
   </g>
   <g id="patch_4">
    <path d="M 76.350503 244.078125 
L 84.154698 244.078125 
L 84.154698 132.007373 
L 76.350503 132.007373 
z
" clip-path="url(#p10dde1f6a5)" style="fill: #1f77b4; fill-opacity: 0.5; stroke: #000000; stroke-width: 0.78042; stroke-linejoin: miter"/>
   </g>
   <g id="patch_5">
    <path d="M 84.154698 244.078125 
L 91.958894 244.078125 
L 91.958894 144.415206 
L 84.154698 144.415206 
z
" clip-path="url(#p10dde1f6a5)" style="fill: #1f77b4; fill-opacity: 0.5; stroke: #000000; stroke-width: 0.78042; stroke-linejoin: miter"/>
   </g>
   <g id="patch_6">
    <path d="M 91.958894 244.078125 
L 99.76309 244.078125 
L 99.76309 155.488864 
L 91.958894 155.488864 
z
" clip-path="url(#p10dde1f6a5)" style="fill: #1f77b4; fill-opacity: 0.5; stroke: #000000; stroke-width: 0.78042; stroke-linejoin: miter"/>
   </g>
   <g id="patch_7">
    <path d="M 99.76309 244.078125 
L 107.567286 244.078125 
L 107.567286 172.966565 
L 99.76309 172.966565 
z
" clip-path="url(#p10dde1f6a5)" style="fill: #1f77b4; fill-opacity: 0.5; stroke: #000000; stroke-width: 0.78042; stroke-linejoin: miter"/>
   </g>
   <g id="patch_8">
    <path d="M 107.567286 244.078125 
L 115.371482 244.078125 
L 115.371482 173.76707 
L 107.567286 173.76707 
z
" clip-path="url(#p10dde1f6a5)" style="fill: #1f77b4; fill-opacity: 0.5; stroke: #000000; stroke-width: 0.78042; stroke-linejoin: miter"/>
   </g>
   <g id="patch_9">
    <path d="M 115.371482 244.078125 
L 123.175677 244.078125 
L 123.175677 191.378188 
L 115.371482 191.378188 
z
" clip-path="url(#p10dde1f6a5)" style="fill: #1f77b4; fill-opacity: 0.5; stroke: #000000; stroke-width: 0.78042; stroke-linejoin: miter"/>
   </g>
   <g id="patch_10">
    <path d="M 123.175677 244.078125 
L 130.979873 244.078125 
L 130.979873 189.510342 
L 123.175677 189.510342 
z
" clip-path="url(#p10dde1f6a5)" style="fill: #1f77b4; fill-opacity: 0.5; stroke: #000000; stroke-width: 0.78042; stroke-linejoin: miter"/>
   </g>
   <g id="patch_11">
    <path d="M 130.979873 244.078125 
L 138.784069 244.078125 
L 138.784069 199.383242 
L 130.979873 199.383242 
z
" clip-path="url(#p10dde1f6a5)" style="fill: #1f77b4; fill-opacity: 0.5; stroke: #000000; stroke-width: 0.78042; stroke-linejoin: miter"/>
   </g>
   <g id="patch_12">
    <path d="M 138.784069 244.078125 
L 146.588265 244.078125 
L 146.588265 206.05412 
L 138.784069 206.05412 
z
" clip-path="url(#p10dde1f6a5)" style="fill: #1f77b4; fill-opacity: 0.5; stroke: #000000; stroke-width: 0.78042; stroke-linejoin: miter"/>
   </g>
   <g id="patch_13">
    <path d="M 146.588265 244.078125 
L 154.392461 244.078125 
L 154.392461 207.655131 
L 146.588265 207.655131 
z
" clip-path="url(#p10dde1f6a5)" style="fill: #1f77b4; fill-opacity: 0.5; stroke: #000000; stroke-width: 0.78042; stroke-linejoin: miter"/>
   </g>
   <g id="patch_14">
    <path d="M 154.392461 244.078125 
L 162.196656 244.078125 
L 162.196656 210.456899 
L 154.392461 210.456899 
z
" clip-path="url(#p10dde1f6a5)" style="fill: #1f77b4; fill-opacity: 0.5; stroke: #000000; stroke-width: 0.78042; stroke-linejoin: miter"/>
   </g>
   <g id="patch_15">
    <path d="M 162.196656 244.078125 
L 170.000852 244.078125 
L 170.000852 213.525503 
L 162.196656 213.525503 
z
" clip-path="url(#p10dde1f6a5)" style="fill: #1f77b4; fill-opacity: 0.5; stroke: #000000; stroke-width: 0.78042; stroke-linejoin: miter"/>
   </g>
   <g id="patch_16">
    <path d="M 170.000852 244.078125 
L 177.805048 244.078125 
L 177.805048 218.862206 
L 170.000852 218.862206 
z
" clip-path="url(#p10dde1f6a5)" style="fill: #1f77b4; fill-opacity: 0.5; stroke: #000000; stroke-width: 0.78042; stroke-linejoin: miter"/>
   </g>
   <g id="patch_17">
    <path d="M 177.805048 244.078125 
L 185.609244 244.078125 
L 185.609244 224.465743 
L 177.805048 224.465743 
z
" clip-path="url(#p10dde1f6a5)" style="fill: #1f77b4; fill-opacity: 0.5; stroke: #000000; stroke-width: 0.78042; stroke-linejoin: miter"/>
   </g>
   <g id="patch_18">
    <path d="M 185.609244 244.078125 
L 193.41344 244.078125 
L 193.41344 223.131568 
L 185.609244 223.131568 
z
" clip-path="url(#p10dde1f6a5)" style="fill: #1f77b4; fill-opacity: 0.5; stroke: #000000; stroke-width: 0.78042; stroke-linejoin: miter"/>
   </g>
   <g id="patch_19">
    <path d="M 193.41344 244.078125 
L 201.217635 244.078125 
L 201.217635 222.597898 
L 193.41344 222.597898 
z
" clip-path="url(#p10dde1f6a5)" style="fill: #1f77b4; fill-opacity: 0.5; stroke: #000000; stroke-width: 0.78042; stroke-linejoin: miter"/>
   </g>
   <g id="patch_20">
    <path d="M 201.217635 244.078125 
L 209.021831 244.078125 
L 209.021831 225.799919 
L 201.217635 225.799919 
z
" clip-path="url(#p10dde1f6a5)" style="fill: #1f77b4; fill-opacity: 0.5; stroke: #000000; stroke-width: 0.78042; stroke-linejoin: miter"/>
   </g>
   <g id="patch_21">
    <path d="M 209.021831 244.078125 
L 216.826027 244.078125 
L 216.826027 225.533084 
L 209.021831 225.533084 
z
" clip-path="url(#p10dde1f6a5)" style="fill: #1f77b4; fill-opacity: 0.5; stroke: #000000; stroke-width: 0.78042; stroke-linejoin: miter"/>
   </g>
   <g id="patch_22">
    <path d="M 216.826027 244.078125 
L 224.630223 244.078125 
L 224.630223 232.203962 
L 216.826027 232.203962 
z
" clip-path="url(#p10dde1f6a5)" style="fill: #1f77b4; fill-opacity: 0.5; stroke: #000000; stroke-width: 0.78042; stroke-linejoin: miter"/>
   </g>
   <g id="patch_23">
    <path d="M 224.630223 244.078125 
L 232.434419 244.078125 
L 232.434419 231.136622 
L 224.630223 231.136622 
z
" clip-path="url(#p10dde1f6a5)" style="fill: #1f77b4; fill-opacity: 0.5; stroke: #000000; stroke-width: 0.78042; stroke-linejoin: miter"/>
   </g>
   <g id="patch_24">
    <path d="M 232.434419 244.078125 
L 240.238615 244.078125 
L 240.238615 232.737632 
L 232.434419 232.737632 
z
" clip-path="url(#p10dde1f6a5)" style="fill: #1f77b4; fill-opacity: 0.5; stroke: #000000; stroke-width: 0.78042; stroke-linejoin: miter"/>
   </g>
   <g id="patch_25">
    <path d="M 240.238615 244.078125 
L 248.04281 244.078125 
L 248.04281 230.602951 
L 240.238615 230.602951 
z
" clip-path="url(#p10dde1f6a5)" style="fill: #1f77b4; fill-opacity: 0.5; stroke: #000000; stroke-width: 0.78042; stroke-linejoin: miter"/>
   </g>
   <g id="patch_26">
    <path d="M 248.04281 244.078125 
L 255.847006 244.078125 
L 255.847006 232.070544 
L 248.04281 232.070544 
z
" clip-path="url(#p10dde1f6a5)" style="fill: #1f77b4; fill-opacity: 0.5; stroke: #000000; stroke-width: 0.78042; stroke-linejoin: miter"/>
   </g>
   <g id="patch_27">
    <path d="M 255.847006 244.078125 
L 263.651202 244.078125 
L 263.651202 233.137885 
L 255.847006 233.137885 
z
" clip-path="url(#p10dde1f6a5)" style="fill: #1f77b4; fill-opacity: 0.5; stroke: #000000; stroke-width: 0.78042; stroke-linejoin: miter"/>
   </g>
   <g id="patch_28">
    <path d="M 263.651202 244.078125 
L 271.455398 244.078125 
L 271.455398 233.804973 
L 263.651202 233.804973 
z
" clip-path="url(#p10dde1f6a5)" style="fill: #1f77b4; fill-opacity: 0.5; stroke: #000000; stroke-width: 0.78042; stroke-linejoin: miter"/>
   </g>
   <g id="patch_29">
    <path d="M 271.455398 244.078125 
L 279.259594 244.078125 
L 279.259594 235.272566 
L 271.455398 235.272566 
z
" clip-path="url(#p10dde1f6a5)" style="fill: #1f77b4; fill-opacity: 0.5; stroke: #000000; stroke-width: 0.78042; stroke-linejoin: miter"/>
   </g>
   <g id="patch_30">
    <path d="M 279.259594 244.078125 
L 287.063789 244.078125 
L 287.063789 234.472061 
L 279.259594 234.472061 
z
" clip-path="url(#p10dde1f6a5)" style="fill: #1f77b4; fill-opacity: 0.5; stroke: #000000; stroke-width: 0.78042; stroke-linejoin: miter"/>
   </g>
   <g id="patch_31">
    <path d="M 287.063789 244.078125 
L 294.867985 244.078125 
L 294.867985 236.873577 
L 287.063789 236.873577 
z
" clip-path="url(#p10dde1f6a5)" style="fill: #1f77b4; fill-opacity: 0.5; stroke: #000000; stroke-width: 0.78042; stroke-linejoin: miter"/>
   </g>
   <g id="patch_32">
    <path d="M 294.867985 244.078125 
L 302.672181 244.078125 
L 302.672181 235.005731 
L 294.867985 235.005731 
z
" clip-path="url(#p10dde1f6a5)" style="fill: #1f77b4; fill-opacity: 0.5; stroke: #000000; stroke-width: 0.78042; stroke-linejoin: miter"/>
   </g>
   <g id="patch_33">
    <path d="M 302.672181 244.078125 
L 310.476377 244.078125 
L 310.476377 238.207752 
L 302.672181 238.207752 
z
" clip-path="url(#p10dde1f6a5)" style="fill: #1f77b4; fill-opacity: 0.5; stroke: #000000; stroke-width: 0.78042; stroke-linejoin: miter"/>
   </g>
   <g id="patch_34">
    <path d="M 310.476377 244.078125 
L 318.280573 244.078125 
L 318.280573 237.273829 
L 310.476377 237.273829 
z
" clip-path="url(#p10dde1f6a5)" style="fill: #1f77b4; fill-opacity: 0.5; stroke: #000000; stroke-width: 0.78042; stroke-linejoin: miter"/>
   </g>
   <g id="patch_35">
    <path d="M 318.280573 244.078125 
L 326.084768 244.078125 
L 326.084768 237.140412 
L 318.280573 237.140412 
z
" clip-path="url(#p10dde1f6a5)" style="fill: #1f77b4; fill-opacity: 0.5; stroke: #000000; stroke-width: 0.78042; stroke-linejoin: miter"/>
   </g>
   <g id="patch_36">
    <path d="M 326.084768 244.078125 
L 333.888964 244.078125 
L 333.888964 237.940917 
L 326.084768 237.940917 
z
" clip-path="url(#p10dde1f6a5)" style="fill: #1f77b4; fill-opacity: 0.5; stroke: #000000; stroke-width: 0.78042; stroke-linejoin: miter"/>
   </g>
   <g id="patch_37">
    <path d="M 333.888964 244.078125 
L 341.69316 244.078125 
L 341.69316 238.87484 
L 333.888964 238.87484 
z
" clip-path="url(#p10dde1f6a5)" style="fill: #1f77b4; fill-opacity: 0.5; stroke: #000000; stroke-width: 0.78042; stroke-linejoin: miter"/>
   </g>
   <g id="patch_38">
    <path d="M 341.69316 244.078125 
L 349.497356 244.078125 
L 349.497356 239.141675 
L 341.69316 239.141675 
z
" clip-path="url(#p10dde1f6a5)" style="fill: #1f77b4; fill-opacity: 0.5; stroke: #000000; stroke-width: 0.78042; stroke-linejoin: miter"/>
   </g>
   <g id="patch_39">
    <path d="M 349.497356 244.078125 
L 357.301552 244.078125 
L 357.301552 240.876104 
L 349.497356 240.876104 
z
" clip-path="url(#p10dde1f6a5)" style="fill: #1f77b4; fill-opacity: 0.5; stroke: #000000; stroke-width: 0.78042; stroke-linejoin: miter"/>
   </g>
   <g id="patch_40">
    <path d="M 357.301552 244.078125 
L 365.105747 244.078125 
L 365.105747 241.543191 
L 357.301552 241.543191 
z
" clip-path="url(#p10dde1f6a5)" style="fill: #1f77b4; fill-opacity: 0.5; stroke: #000000; stroke-width: 0.78042; stroke-linejoin: miter"/>
   </g>
   <g id="patch_41">
    <path d="M 365.105747 244.078125 
L 372.909943 244.078125 
L 372.909943 241.676609 
L 365.105747 241.676609 
z
" clip-path="url(#p10dde1f6a5)" style="fill: #1f77b4; fill-opacity: 0.5; stroke: #000000; stroke-width: 0.78042; stroke-linejoin: miter"/>
   </g>
   <g id="matplotlib.axis_1">
    <g id="xtick_1">
     <g id="line2d_1">
      <defs>
       <path id="m6fd352d392" d="M 0 0 
L 0 3.5 
" style="stroke: #000000; stroke-width: 0.8"/>
      </defs>
      <g>
       <use xlink:href="#m6fd352d392" x="68.546307" y="244.078125" style="stroke: #000000; stroke-width: 0.8"/>
      </g>
     </g>
     <g id="text_1">
      <!-- 0.00 -->
      <g transform="translate(57.413494 258.676562) scale(0.1 -0.1)">
       <defs>
        <path id="DejaVuSans-30" d="M 2034 4250 
Q 1547 4250 1301 3770 
Q 1056 3291 1056 2328 
Q 1056 1369 1301 889 
Q 1547 409 2034 409 
Q 2525 409 2770 889 
Q 3016 1369 3016 2328 
Q 3016 3291 2770 3770 
Q 2525 4250 2034 4250 
z
M 2034 4750 
Q 2819 4750 3233 4129 
Q 3647 3509 3647 2328 
Q 3647 1150 3233 529 
Q 2819 -91 2034 -91 
Q 1250 -91 836 529 
Q 422 1150 422 2328 
Q 422 3509 836 4129 
Q 1250 4750 2034 4750 
z
" transform="scale(0.015625)"/>
        <path id="DejaVuSans-2e" d="M 684 794 
L 1344 794 
L 1344 0 
L 684 0 
L 684 794 
z
" transform="scale(0.015625)"/>
       </defs>
       <use xlink:href="#DejaVuSans-30"/>
       <use xlink:href="#DejaVuSans-2e" transform="translate(63.623047 0)"/>
       <use xlink:href="#DejaVuSans-30" transform="translate(95.410156 0)"/>
       <use xlink:href="#DejaVuSans-30" transform="translate(159.033203 0)"/>
      </g>
     </g>
    </g>
    <g id="xtick_2">
     <g id="line2d_2">
      <g>
       <use xlink:href="#m6fd352d392" x="137.028125" y="244.078125" style="stroke: #000000; stroke-width: 0.8"/>
      </g>
     </g>
     <g id="text_2">
      <!-- 0.01 -->
      <g transform="translate(125.895313 258.676562) scale(0.1 -0.1)">
       <defs>
        <path id="DejaVuSans-31" d="M 794 531 
L 1825 531 
L 1825 4091 
L 703 3866 
L 703 4441 
L 1819 4666 
L 2450 4666 
L 2450 531 
L 3481 531 
L 3481 0 
L 794 0 
L 794 531 
z
" transform="scale(0.015625)"/>
       </defs>
       <use xlink:href="#DejaVuSans-30"/>
       <use xlink:href="#DejaVuSans-2e" transform="translate(63.623047 0)"/>
       <use xlink:href="#DejaVuSans-30" transform="translate(95.410156 0)"/>
       <use xlink:href="#DejaVuSans-31" transform="translate(159.033203 0)"/>
      </g>
     </g>
    </g>
    <g id="xtick_3">
     <g id="line2d_3">
      <g>
       <use xlink:href="#m6fd352d392" x="205.509943" y="244.078125" style="stroke: #000000; stroke-width: 0.8"/>
      </g>
     </g>
     <g id="text_3">
      <!-- 0.02 -->
      <g transform="translate(194.377131 258.676562) scale(0.1 -0.1)">
       <defs>
        <path id="DejaVuSans-32" d="M 1228 531 
L 3431 531 
L 3431 0 
L 469 0 
L 469 531 
Q 828 903 1448 1529 
Q 2069 2156 2228 2338 
Q 2531 2678 2651 2914 
Q 2772 3150 2772 3378 
Q 2772 3750 2511 3984 
Q 2250 4219 1831 4219 
Q 1534 4219 1204 4116 
Q 875 4013 500 3803 
L 500 4441 
Q 881 4594 1212 4672 
Q 1544 4750 1819 4750 
Q 2544 4750 2975 4387 
Q 3406 4025 3406 3419 
Q 3406 3131 3298 2873 
Q 3191 2616 2906 2266 
Q 2828 2175 2409 1742 
Q 1991 1309 1228 531 
z
" transform="scale(0.015625)"/>
       </defs>
       <use xlink:href="#DejaVuSans-30"/>
       <use xlink:href="#DejaVuSans-2e" transform="translate(63.623047 0)"/>
       <use xlink:href="#DejaVuSans-30" transform="translate(95.410156 0)"/>
       <use xlink:href="#DejaVuSans-32" transform="translate(159.033203 0)"/>
      </g>
     </g>
    </g>
    <g id="xtick_4">
     <g id="line2d_4">
      <g>
       <use xlink:href="#m6fd352d392" x="273.991761" y="244.078125" style="stroke: #000000; stroke-width: 0.8"/>
      </g>
     </g>
     <g id="text_4">
      <!-- 0.03 -->
      <g transform="translate(262.858949 258.676562) scale(0.1 -0.1)">
       <defs>
        <path id="DejaVuSans-33" d="M 2597 2516 
Q 3050 2419 3304 2112 
Q 3559 1806 3559 1356 
Q 3559 666 3084 287 
Q 2609 -91 1734 -91 
Q 1441 -91 1130 -33 
Q 819 25 488 141 
L 488 750 
Q 750 597 1062 519 
Q 1375 441 1716 441 
Q 2309 441 2620 675 
Q 2931 909 2931 1356 
Q 2931 1769 2642 2001 
Q 2353 2234 1838 2234 
L 1294 2234 
L 1294 2753 
L 1863 2753 
Q 2328 2753 2575 2939 
Q 2822 3125 2822 3475 
Q 2822 3834 2567 4026 
Q 2313 4219 1838 4219 
Q 1578 4219 1281 4162 
Q 984 4106 628 3988 
L 628 4550 
Q 988 4650 1302 4700 
Q 1616 4750 1894 4750 
Q 2613 4750 3031 4423 
Q 3450 4097 3450 3541 
Q 3450 3153 3228 2886 
Q 3006 2619 2597 2516 
z
" transform="scale(0.015625)"/>
       </defs>
       <use xlink:href="#DejaVuSans-30"/>
       <use xlink:href="#DejaVuSans-2e" transform="translate(63.623047 0)"/>
       <use xlink:href="#DejaVuSans-30" transform="translate(95.410156 0)"/>
       <use xlink:href="#DejaVuSans-33" transform="translate(159.033203 0)"/>
      </g>
     </g>
    </g>
    <g id="xtick_5">
     <g id="line2d_5">
      <g>
       <use xlink:href="#m6fd352d392" x="342.47358" y="244.078125" style="stroke: #000000; stroke-width: 0.8"/>
      </g>
     </g>
     <g id="text_5">
      <!-- 0.04 -->
      <g transform="translate(331.340767 258.676562) scale(0.1 -0.1)">
       <defs>
        <path id="DejaVuSans-34" d="M 2419 4116 
L 825 1625 
L 2419 1625 
L 2419 4116 
z
M 2253 4666 
L 3047 4666 
L 3047 1625 
L 3713 1625 
L 3713 1100 
L 3047 1100 
L 3047 0 
L 2419 0 
L 2419 1100 
L 313 1100 
L 313 1709 
L 2253 4666 
z
" transform="scale(0.015625)"/>
       </defs>
       <use xlink:href="#DejaVuSans-30"/>
       <use xlink:href="#DejaVuSans-2e" transform="translate(63.623047 0)"/>
       <use xlink:href="#DejaVuSans-30" transform="translate(95.410156 0)"/>
       <use xlink:href="#DejaVuSans-34" transform="translate(159.033203 0)"/>
      </g>
     </g>
    </g>
    <g id="text_6">
     <!-- ld -->
     <g transform="translate(216.164844 272.354687) scale(0.1 -0.1)">
      <defs>
       <path id="DejaVuSans-6c" d="M 603 4863 
L 1178 4863 
L 1178 0 
L 603 0 
L 603 4863 
z
" transform="scale(0.015625)"/>
       <path id="DejaVuSans-64" d="M 2906 2969 
L 2906 4863 
L 3481 4863 
L 3481 0 
L 2906 0 
L 2906 525 
Q 2725 213 2448 61 
Q 2172 -91 1784 -91 
Q 1150 -91 751 415 
Q 353 922 353 1747 
Q 353 2572 751 3078 
Q 1150 3584 1784 3584 
Q 2172 3584 2448 3432 
Q 2725 3281 2906 2969 
z
M 947 1747 
Q 947 1113 1208 752 
Q 1469 391 1925 391 
Q 2381 391 2643 752 
Q 2906 1113 2906 1747 
Q 2906 2381 2643 2742 
Q 2381 3103 1925 3103 
Q 1469 3103 1208 2742 
Q 947 2381 947 1747 
z
" transform="scale(0.015625)"/>
      </defs>
      <use xlink:href="#DejaVuSans-6c"/>
      <use xlink:href="#DejaVuSans-64" transform="translate(27.783203 0)"/>
     </g>
    </g>
   </g>
   <g id="matplotlib.axis_2">
    <g id="ytick_1">
     <g id="line2d_6">
      <defs>
       <path id="mce56a1cd1b" d="M 0 0 
L -3.5 0 
" style="stroke: #000000; stroke-width: 0.8"/>
      </defs>
      <g>
       <use xlink:href="#mce56a1cd1b" x="53.328125" y="244.078125" style="stroke: #000000; stroke-width: 0.8"/>
      </g>
     </g>
     <g id="text_7">
      <!-- 0 -->
      <g transform="translate(39.965625 247.877344) scale(0.1 -0.1)">
       <use xlink:href="#DejaVuSans-30"/>
      </g>
     </g>
    </g>
    <g id="ytick_2">
     <g id="line2d_7">
      <g>
       <use xlink:href="#mce56a1cd1b" x="53.328125" y="217.394613" style="stroke: #000000; stroke-width: 0.8"/>
      </g>
     </g>
     <g id="text_8">
      <!-- 200 -->
      <g transform="translate(27.240625 221.193831) scale(0.1 -0.1)">
       <use xlink:href="#DejaVuSans-32"/>
       <use xlink:href="#DejaVuSans-30" transform="translate(63.623047 0)"/>
       <use xlink:href="#DejaVuSans-30" transform="translate(127.246094 0)"/>
      </g>
     </g>
    </g>
    <g id="ytick_3">
     <g id="line2d_8">
      <g>
       <use xlink:href="#mce56a1cd1b" x="53.328125" y="190.7111" style="stroke: #000000; stroke-width: 0.8"/>
      </g>
     </g>
     <g id="text_9">
      <!-- 400 -->
      <g transform="translate(27.240625 194.510319) scale(0.1 -0.1)">
       <use xlink:href="#DejaVuSans-34"/>
       <use xlink:href="#DejaVuSans-30" transform="translate(63.623047 0)"/>
       <use xlink:href="#DejaVuSans-30" transform="translate(127.246094 0)"/>
      </g>
     </g>
    </g>
    <g id="ytick_4">
     <g id="line2d_9">
      <g>
       <use xlink:href="#mce56a1cd1b" x="53.328125" y="164.027588" style="stroke: #000000; stroke-width: 0.8"/>
      </g>
     </g>
     <g id="text_10">
      <!-- 600 -->
      <g transform="translate(27.240625 167.826807) scale(0.1 -0.1)">
       <defs>
        <path id="DejaVuSans-36" d="M 2113 2584 
Q 1688 2584 1439 2293 
Q 1191 2003 1191 1497 
Q 1191 994 1439 701 
Q 1688 409 2113 409 
Q 2538 409 2786 701 
Q 3034 994 3034 1497 
Q 3034 2003 2786 2293 
Q 2538 2584 2113 2584 
z
M 3366 4563 
L 3366 3988 
Q 3128 4100 2886 4159 
Q 2644 4219 2406 4219 
Q 1781 4219 1451 3797 
Q 1122 3375 1075 2522 
Q 1259 2794 1537 2939 
Q 1816 3084 2150 3084 
Q 2853 3084 3261 2657 
Q 3669 2231 3669 1497 
Q 3669 778 3244 343 
Q 2819 -91 2113 -91 
Q 1303 -91 875 529 
Q 447 1150 447 2328 
Q 447 3434 972 4092 
Q 1497 4750 2381 4750 
Q 2619 4750 2861 4703 
Q 3103 4656 3366 4563 
z
" transform="scale(0.015625)"/>
       </defs>
       <use xlink:href="#DejaVuSans-36"/>
       <use xlink:href="#DejaVuSans-30" transform="translate(63.623047 0)"/>
       <use xlink:href="#DejaVuSans-30" transform="translate(127.246094 0)"/>
      </g>
     </g>
    </g>
    <g id="ytick_5">
     <g id="line2d_10">
      <g>
       <use xlink:href="#mce56a1cd1b" x="53.328125" y="137.344076" style="stroke: #000000; stroke-width: 0.8"/>
      </g>
     </g>
     <g id="text_11">
      <!-- 800 -->
      <g transform="translate(27.240625 141.143294) scale(0.1 -0.1)">
       <defs>
        <path id="DejaVuSans-38" d="M 2034 2216 
Q 1584 2216 1326 1975 
Q 1069 1734 1069 1313 
Q 1069 891 1326 650 
Q 1584 409 2034 409 
Q 2484 409 2743 651 
Q 3003 894 3003 1313 
Q 3003 1734 2745 1975 
Q 2488 2216 2034 2216 
z
M 1403 2484 
Q 997 2584 770 2862 
Q 544 3141 544 3541 
Q 544 4100 942 4425 
Q 1341 4750 2034 4750 
Q 2731 4750 3128 4425 
Q 3525 4100 3525 3541 
Q 3525 3141 3298 2862 
Q 3072 2584 2669 2484 
Q 3125 2378 3379 2068 
Q 3634 1759 3634 1313 
Q 3634 634 3220 271 
Q 2806 -91 2034 -91 
Q 1263 -91 848 271 
Q 434 634 434 1313 
Q 434 1759 690 2068 
Q 947 2378 1403 2484 
z
M 1172 3481 
Q 1172 3119 1398 2916 
Q 1625 2713 2034 2713 
Q 2441 2713 2670 2916 
Q 2900 3119 2900 3481 
Q 2900 3844 2670 4047 
Q 2441 4250 2034 4250 
Q 1625 4250 1398 4047 
Q 1172 3844 1172 3481 
z
" transform="scale(0.015625)"/>
       </defs>
       <use xlink:href="#DejaVuSans-38"/>
       <use xlink:href="#DejaVuSans-30" transform="translate(63.623047 0)"/>
       <use xlink:href="#DejaVuSans-30" transform="translate(127.246094 0)"/>
      </g>
     </g>
    </g>
    <g id="ytick_6">
     <g id="line2d_11">
      <g>
       <use xlink:href="#mce56a1cd1b" x="53.328125" y="110.660563" style="stroke: #000000; stroke-width: 0.8"/>
      </g>
     </g>
     <g id="text_12">
      <!-- 1000 -->
      <g transform="translate(20.878125 114.459782) scale(0.1 -0.1)">
       <use xlink:href="#DejaVuSans-31"/>
       <use xlink:href="#DejaVuSans-30" transform="translate(63.623047 0)"/>
       <use xlink:href="#DejaVuSans-30" transform="translate(127.246094 0)"/>
       <use xlink:href="#DejaVuSans-30" transform="translate(190.869141 0)"/>
      </g>
     </g>
    </g>
    <g id="ytick_7">
     <g id="line2d_12">
      <g>
       <use xlink:href="#mce56a1cd1b" x="53.328125" y="83.977051" style="stroke: #000000; stroke-width: 0.8"/>
      </g>
     </g>
     <g id="text_13">
      <!-- 1200 -->
      <g transform="translate(20.878125 87.77627) scale(0.1 -0.1)">
       <use xlink:href="#DejaVuSans-31"/>
       <use xlink:href="#DejaVuSans-32" transform="translate(63.623047 0)"/>
       <use xlink:href="#DejaVuSans-30" transform="translate(127.246094 0)"/>
       <use xlink:href="#DejaVuSans-30" transform="translate(190.869141 0)"/>
      </g>
     </g>
    </g>
    <g id="ytick_8">
     <g id="line2d_13">
      <g>
       <use xlink:href="#mce56a1cd1b" x="53.328125" y="57.293539" style="stroke: #000000; stroke-width: 0.8"/>
      </g>
     </g>
     <g id="text_14">
      <!-- 1400 -->
      <g transform="translate(20.878125 61.092758) scale(0.1 -0.1)">
       <use xlink:href="#DejaVuSans-31"/>
       <use xlink:href="#DejaVuSans-34" transform="translate(63.623047 0)"/>
       <use xlink:href="#DejaVuSans-30" transform="translate(127.246094 0)"/>
       <use xlink:href="#DejaVuSans-30" transform="translate(190.869141 0)"/>
      </g>
     </g>
    </g>
    <g id="ytick_9">
     <g id="line2d_14">
      <g>
       <use xlink:href="#mce56a1cd1b" x="53.328125" y="30.610026" style="stroke: #000000; stroke-width: 0.8"/>
      </g>
     </g>
     <g id="text_15">
      <!-- 1600 -->
      <g transform="translate(20.878125 34.409245) scale(0.1 -0.1)">
       <use xlink:href="#DejaVuSans-31"/>
       <use xlink:href="#DejaVuSans-36" transform="translate(63.623047 0)"/>
       <use xlink:href="#DejaVuSans-30" transform="translate(127.246094 0)"/>
       <use xlink:href="#DejaVuSans-30" transform="translate(190.869141 0)"/>
      </g>
     </g>
    </g>
    <g id="text_16">
     <!-- Count -->
     <g transform="translate(14.798438 148.046562) rotate(-90) scale(0.1 -0.1)">
      <defs>
       <path id="DejaVuSans-43" d="M 4122 4306 
L 4122 3641 
Q 3803 3938 3442 4084 
Q 3081 4231 2675 4231 
Q 1875 4231 1450 3742 
Q 1025 3253 1025 2328 
Q 1025 1406 1450 917 
Q 1875 428 2675 428 
Q 3081 428 3442 575 
Q 3803 722 4122 1019 
L 4122 359 
Q 3791 134 3420 21 
Q 3050 -91 2638 -91 
Q 1578 -91 968 557 
Q 359 1206 359 2328 
Q 359 3453 968 4101 
Q 1578 4750 2638 4750 
Q 3056 4750 3426 4639 
Q 3797 4528 4122 4306 
z
" transform="scale(0.015625)"/>
       <path id="DejaVuSans-6f" d="M 1959 3097 
Q 1497 3097 1228 2736 
Q 959 2375 959 1747 
Q 959 1119 1226 758 
Q 1494 397 1959 397 
Q 2419 397 2687 759 
Q 2956 1122 2956 1747 
Q 2956 2369 2687 2733 
Q 2419 3097 1959 3097 
z
M 1959 3584 
Q 2709 3584 3137 3096 
Q 3566 2609 3566 1747 
Q 3566 888 3137 398 
Q 2709 -91 1959 -91 
Q 1206 -91 779 398 
Q 353 888 353 1747 
Q 353 2609 779 3096 
Q 1206 3584 1959 3584 
z
" transform="scale(0.015625)"/>
       <path id="DejaVuSans-75" d="M 544 1381 
L 544 3500 
L 1119 3500 
L 1119 1403 
Q 1119 906 1312 657 
Q 1506 409 1894 409 
Q 2359 409 2629 706 
Q 2900 1003 2900 1516 
L 2900 3500 
L 3475 3500 
L 3475 0 
L 2900 0 
L 2900 538 
Q 2691 219 2414 64 
Q 2138 -91 1772 -91 
Q 1169 -91 856 284 
Q 544 659 544 1381 
z
M 1991 3584 
L 1991 3584 
z
" transform="scale(0.015625)"/>
       <path id="DejaVuSans-6e" d="M 3513 2113 
L 3513 0 
L 2938 0 
L 2938 2094 
Q 2938 2591 2744 2837 
Q 2550 3084 2163 3084 
Q 1697 3084 1428 2787 
Q 1159 2491 1159 1978 
L 1159 0 
L 581 0 
L 581 3500 
L 1159 3500 
L 1159 2956 
Q 1366 3272 1645 3428 
Q 1925 3584 2291 3584 
Q 2894 3584 3203 3211 
Q 3513 2838 3513 2113 
z
" transform="scale(0.015625)"/>
       <path id="DejaVuSans-74" d="M 1172 4494 
L 1172 3500 
L 2356 3500 
L 2356 3053 
L 1172 3053 
L 1172 1153 
Q 1172 725 1289 603 
Q 1406 481 1766 481 
L 2356 481 
L 2356 0 
L 1766 0 
Q 1100 0 847 248 
Q 594 497 594 1153 
L 594 3053 
L 172 3053 
L 172 3500 
L 594 3500 
L 594 4494 
L 1172 4494 
z
" transform="scale(0.015625)"/>
      </defs>
      <use xlink:href="#DejaVuSans-43"/>
      <use xlink:href="#DejaVuSans-6f" transform="translate(69.824219 0)"/>
      <use xlink:href="#DejaVuSans-75" transform="translate(131.005859 0)"/>
      <use xlink:href="#DejaVuSans-6e" transform="translate(194.384766 0)"/>
      <use xlink:href="#DejaVuSans-74" transform="translate(257.763672 0)"/>
     </g>
    </g>
   </g>
   <g id="line2d_15">
    <path d="M 68.546307 160.155493 
L 70.075772 154.900894 
L 71.605238 150.400845 
L 73.134703 146.716712 
L 74.664169 143.870883 
L 76.193634 141.8492 
L 77.7231 140.606154 
L 79.252565 140.072012 
L 80.782031 140.160873 
L 82.311496 140.778706 
L 83.840962 141.830541 
L 85.370427 143.226245 
L 86.899893 144.884587 
L 89.958824 148.721236 
L 94.54722 155.073008 
L 100.665083 163.595682 
L 105.253479 169.651519 
L 109.841876 175.2963 
L 114.430272 180.490355 
L 119.018669 185.221068 
L 123.607065 189.496867 
L 128.195462 193.352079 
L 132.783858 196.830428 
L 137.372255 199.956372 
L 141.960651 202.742898 
L 146.549048 205.238877 
L 154.196375 209.047573 
L 169.49103 216.38584 
L 174.079427 218.378094 
L 178.667823 220.118516 
L 181.726755 221.091279 
L 184.785686 221.898161 
L 189.374082 222.826424 
L 197.02141 223.978019 
L 203.139272 225.019277 
L 207.727668 226.041735 
L 215.374996 228.081097 
L 221.492858 229.621991 
L 226.081254 230.516031 
L 230.669651 231.140658 
L 235.258047 231.531958 
L 242.905375 231.883851 
L 250.552702 232.254709 
L 256.670564 232.755013 
L 281.142013 235.06552 
L 304.083995 236.810035 
L 313.260788 237.288688 
L 328.555443 237.979705 
L 336.202771 238.634278 
L 348.438495 239.985315 
L 372.909943 242.761927 
L 372.909943 242.761927 
" clip-path="url(#p10dde1f6a5)" style="fill: none; stroke: #1f77b4; stroke-width: 1.5; stroke-linecap: square"/>
   </g>
   <g id="patch_42">
    <path d="M 53.328125 244.078125 
L 53.328125 22.318125 
" style="fill: none; stroke: #000000; stroke-width: 0.8; stroke-linejoin: miter; stroke-linecap: square"/>
   </g>
   <g id="patch_43">
    <path d="M 388.128125 244.078125 
L 388.128125 22.318125 
" style="fill: none; stroke: #000000; stroke-width: 0.8; stroke-linejoin: miter; stroke-linecap: square"/>
   </g>
   <g id="patch_44">
    <path d="M 53.328125 244.078125 
L 388.128125 244.078125 
" style="fill: none; stroke: #000000; stroke-width: 0.8; stroke-linejoin: miter; stroke-linecap: square"/>
   </g>
   <g id="patch_45">
    <path d="M 53.328125 22.318125 
L 388.128125 22.318125 
" style="fill: none; stroke: #000000; stroke-width: 0.8; stroke-linejoin: miter; stroke-linecap: square"/>
   </g>
   <g id="text_17">
    <!-- Distribuzione di ld -->
    <g transform="translate(166.47125 16.318125) scale(0.12 -0.12)">
     <defs>
      <path id="DejaVuSans-44" d="M 1259 4147 
L 1259 519 
L 2022 519 
Q 2988 519 3436 956 
Q 3884 1394 3884 2338 
Q 3884 3275 3436 3711 
Q 2988 4147 2022 4147 
L 1259 4147 
z
M 628 4666 
L 1925 4666 
Q 3281 4666 3915 4102 
Q 4550 3538 4550 2338 
Q 4550 1131 3912 565 
Q 3275 0 1925 0 
L 628 0 
L 628 4666 
z
" transform="scale(0.015625)"/>
      <path id="DejaVuSans-69" d="M 603 3500 
L 1178 3500 
L 1178 0 
L 603 0 
L 603 3500 
z
M 603 4863 
L 1178 4863 
L 1178 4134 
L 603 4134 
L 603 4863 
z
" transform="scale(0.015625)"/>
      <path id="DejaVuSans-73" d="M 2834 3397 
L 2834 2853 
Q 2591 2978 2328 3040 
Q 2066 3103 1784 3103 
Q 1356 3103 1142 2972 
Q 928 2841 928 2578 
Q 928 2378 1081 2264 
Q 1234 2150 1697 2047 
L 1894 2003 
Q 2506 1872 2764 1633 
Q 3022 1394 3022 966 
Q 3022 478 2636 193 
Q 2250 -91 1575 -91 
Q 1294 -91 989 -36 
Q 684 19 347 128 
L 347 722 
Q 666 556 975 473 
Q 1284 391 1588 391 
Q 1994 391 2212 530 
Q 2431 669 2431 922 
Q 2431 1156 2273 1281 
Q 2116 1406 1581 1522 
L 1381 1569 
Q 847 1681 609 1914 
Q 372 2147 372 2553 
Q 372 3047 722 3315 
Q 1072 3584 1716 3584 
Q 2034 3584 2315 3537 
Q 2597 3491 2834 3397 
z
" transform="scale(0.015625)"/>
      <path id="DejaVuSans-72" d="M 2631 2963 
Q 2534 3019 2420 3045 
Q 2306 3072 2169 3072 
Q 1681 3072 1420 2755 
Q 1159 2438 1159 1844 
L 1159 0 
L 581 0 
L 581 3500 
L 1159 3500 
L 1159 2956 
Q 1341 3275 1631 3429 
Q 1922 3584 2338 3584 
Q 2397 3584 2469 3576 
Q 2541 3569 2628 3553 
L 2631 2963 
z
" transform="scale(0.015625)"/>
      <path id="DejaVuSans-62" d="M 3116 1747 
Q 3116 2381 2855 2742 
Q 2594 3103 2138 3103 
Q 1681 3103 1420 2742 
Q 1159 2381 1159 1747 
Q 1159 1113 1420 752 
Q 1681 391 2138 391 
Q 2594 391 2855 752 
Q 3116 1113 3116 1747 
z
M 1159 2969 
Q 1341 3281 1617 3432 
Q 1894 3584 2278 3584 
Q 2916 3584 3314 3078 
Q 3713 2572 3713 1747 
Q 3713 922 3314 415 
Q 2916 -91 2278 -91 
Q 1894 -91 1617 61 
Q 1341 213 1159 525 
L 1159 0 
L 581 0 
L 581 4863 
L 1159 4863 
L 1159 2969 
z
" transform="scale(0.015625)"/>
      <path id="DejaVuSans-7a" d="M 353 3500 
L 3084 3500 
L 3084 2975 
L 922 459 
L 3084 459 
L 3084 0 
L 275 0 
L 275 525 
L 2438 3041 
L 353 3041 
L 353 3500 
z
" transform="scale(0.015625)"/>
      <path id="DejaVuSans-65" d="M 3597 1894 
L 3597 1613 
L 953 1613 
Q 991 1019 1311 708 
Q 1631 397 2203 397 
Q 2534 397 2845 478 
Q 3156 559 3463 722 
L 3463 178 
Q 3153 47 2828 -22 
Q 2503 -91 2169 -91 
Q 1331 -91 842 396 
Q 353 884 353 1716 
Q 353 2575 817 3079 
Q 1281 3584 2069 3584 
Q 2775 3584 3186 3129 
Q 3597 2675 3597 1894 
z
M 3022 2063 
Q 3016 2534 2758 2815 
Q 2500 3097 2075 3097 
Q 1594 3097 1305 2825 
Q 1016 2553 972 2059 
L 3022 2063 
z
" transform="scale(0.015625)"/>
      <path id="DejaVuSans-20" transform="scale(0.015625)"/>
     </defs>
     <use xlink:href="#DejaVuSans-44"/>
     <use xlink:href="#DejaVuSans-69" transform="translate(77.001953 0)"/>
     <use xlink:href="#DejaVuSans-73" transform="translate(104.785156 0)"/>
     <use xlink:href="#DejaVuSans-74" transform="translate(156.884766 0)"/>
     <use xlink:href="#DejaVuSans-72" transform="translate(196.09375 0)"/>
     <use xlink:href="#DejaVuSans-69" transform="translate(237.207031 0)"/>
     <use xlink:href="#DejaVuSans-62" transform="translate(264.990234 0)"/>
     <use xlink:href="#DejaVuSans-75" transform="translate(328.466797 0)"/>
     <use xlink:href="#DejaVuSans-7a" transform="translate(391.845703 0)"/>
     <use xlink:href="#DejaVuSans-69" transform="translate(444.335938 0)"/>
     <use xlink:href="#DejaVuSans-6f" transform="translate(472.119141 0)"/>
     <use xlink:href="#DejaVuSans-6e" transform="translate(533.300781 0)"/>
     <use xlink:href="#DejaVuSans-65" transform="translate(596.679688 0)"/>
     <use xlink:href="#DejaVuSans-20" transform="translate(658.203125 0)"/>
     <use xlink:href="#DejaVuSans-64" transform="translate(689.990234 0)"/>
     <use xlink:href="#DejaVuSans-69" transform="translate(753.466797 0)"/>
     <use xlink:href="#DejaVuSans-20" transform="translate(781.25 0)"/>
     <use xlink:href="#DejaVuSans-6c" transform="translate(813.037109 0)"/>
     <use xlink:href="#DejaVuSans-64" transform="translate(840.820312 0)"/>
    </g>
   </g>
  </g>
 </g>
 <defs>
  <clipPath id="p10dde1f6a5">
   <rect x="53.328125" y="22.318125" width="334.8" height="221.76"/>
  </clipPath>
 </defs>
</svg>
