<?xml version="1.0" encoding="utf-8" standalone="no"?>
<!DOCTYPE svg PUBLIC "-//W3C//DTD SVG 1.1//EN"
  "http://www.w3.org/Graphics/SVG/1.1/DTD/svg11.dtd">
<svg xmlns:xlink="http://www.w3.org/1999/xlink" width="395.328125pt" height="281.634375pt" viewBox="0 0 395.328125 281.634375" xmlns="http://www.w3.org/2000/svg" version="1.1">
 <metadata>
  <rdf:RDF xmlns:dc="http://purl.org/dc/elements/1.1/" xmlns:cc="http://creativecommons.org/ns#" xmlns:rdf="http://www.w3.org/1999/02/22-rdf-syntax-ns#">
   <cc:Work>
    <dc:type rdf:resource="http://purl.org/dc/dcmitype/StillImage"/>
    <dc:date>2025-06-30T19:47:02.214660</dc:date>
    <dc:format>image/svg+xml</dc:format>
    <dc:creator>
     <cc:Agent>
      <dc:title>Matplotlib v3.10.3, https://matplotlib.org/</dc:title>
     </cc:Agent>
    </dc:creator>
   </cc:Work>
  </rdf:RDF>
 </metadata>
 <defs>
  <style type="text/css">*{stroke-linejoin: round; stroke-linecap: butt}</style>
 </defs>
 <g id="figure_1">
  <g id="patch_1">
   <path d="M 0 281.634375 
L 395.328125 281.634375 
L 395.328125 0 
L 0 0 
z
" style="fill: #ffffff"/>
  </g>
  <g id="axes_1">
   <g id="patch_2">
    <path d="M 53.328125 244.078125 
L 388.128125 244.078125 
L 388.128125 22.318125 
L 53.328125 22.318125 
z
" style="fill: #ffffff"/>
   </g>
   <g id="patch_3">
    <path d="M 68.546307 244.078125 
L 70.045635 244.078125 
L 70.045635 226.321553 
L 68.546307 226.321553 
z
" clip-path="url(#p1d5402c1bf)" style="fill: #1f77b4; fill-opacity: 0.5; stroke: #000000; stroke-width: 0.149933; stroke-linejoin: miter"/>
   </g>
   <g id="patch_4">
    <path d="M 70.045635 244.078125 
L 71.544963 244.078125 
L 71.544963 244.078125 
L 70.045635 244.078125 
z
" clip-path="url(#p1d5402c1bf)" style="fill: #1f77b4; fill-opacity: 0.5; stroke: #000000; stroke-width: 0.149933; stroke-linejoin: miter"/>
   </g>
   <g id="patch_5">
    <path d="M 71.544963 244.078125 
L 73.044292 244.078125 
L 73.044292 244.078125 
L 71.544963 244.078125 
z
" clip-path="url(#p1d5402c1bf)" style="fill: #1f77b4; fill-opacity: 0.5; stroke: #000000; stroke-width: 0.149933; stroke-linejoin: miter"/>
   </g>
   <g id="patch_6">
    <path d="M 73.044292 244.078125 
L 74.54362 244.078125 
L 74.54362 244.078125 
L 73.044292 244.078125 
z
" clip-path="url(#p1d5402c1bf)" style="fill: #1f77b4; fill-opacity: 0.5; stroke: #000000; stroke-width: 0.149933; stroke-linejoin: miter"/>
   </g>
   <g id="patch_7">
    <path d="M 74.54362 244.078125 
L 76.042948 244.078125 
L 76.042948 244.078125 
L 74.54362 244.078125 
z
" clip-path="url(#p1d5402c1bf)" style="fill: #1f77b4; fill-opacity: 0.5; stroke: #000000; stroke-width: 0.149933; stroke-linejoin: miter"/>
   </g>
   <g id="patch_8">
    <path d="M 76.042948 244.078125 
L 77.542276 244.078125 
L 77.542276 32.878125 
L 76.042948 32.878125 
z
" clip-path="url(#p1d5402c1bf)" style="fill: #1f77b4; fill-opacity: 0.5; stroke: #000000; stroke-width: 0.149933; stroke-linejoin: miter"/>
   </g>
   <g id="patch_9">
    <path d="M 77.542276 244.078125 
L 79.041605 244.078125 
L 79.041605 244.078125 
L 77.542276 244.078125 
z
" clip-path="url(#p1d5402c1bf)" style="fill: #1f77b4; fill-opacity: 0.5; stroke: #000000; stroke-width: 0.149933; stroke-linejoin: miter"/>
   </g>
   <g id="patch_10">
    <path d="M 79.041605 244.078125 
L 80.540933 244.078125 
L 80.540933 244.078125 
L 79.041605 244.078125 
z
" clip-path="url(#p1d5402c1bf)" style="fill: #1f77b4; fill-opacity: 0.5; stroke: #000000; stroke-width: 0.149933; stroke-linejoin: miter"/>
   </g>
   <g id="patch_11">
    <path d="M 80.540933 244.078125 
L 82.040261 244.078125 
L 82.040261 244.078125 
L 80.540933 244.078125 
z
" clip-path="url(#p1d5402c1bf)" style="fill: #1f77b4; fill-opacity: 0.5; stroke: #000000; stroke-width: 0.149933; stroke-linejoin: miter"/>
   </g>
   <g id="patch_12">
    <path d="M 82.040261 244.078125 
L 83.539589 244.078125 
L 83.539589 244.078125 
L 82.040261 244.078125 
z
" clip-path="url(#p1d5402c1bf)" style="fill: #1f77b4; fill-opacity: 0.5; stroke: #000000; stroke-width: 0.149933; stroke-linejoin: miter"/>
   </g>
   <g id="patch_13">
    <path d="M 83.539589 244.078125 
L 85.038918 244.078125 
L 85.038918 216.530299 
L 83.539589 216.530299 
z
" clip-path="url(#p1d5402c1bf)" style="fill: #1f77b4; fill-opacity: 0.5; stroke: #000000; stroke-width: 0.149933; stroke-linejoin: miter"/>
   </g>
   <g id="patch_14">
    <path d="M 85.038918 244.078125 
L 86.538246 244.078125 
L 86.538246 244.078125 
L 85.038918 244.078125 
z
" clip-path="url(#p1d5402c1bf)" style="fill: #1f77b4; fill-opacity: 0.5; stroke: #000000; stroke-width: 0.149933; stroke-linejoin: miter"/>
   </g>
   <g id="patch_15">
    <path d="M 86.538246 244.078125 
L 88.037574 244.078125 
L 88.037574 244.078125 
L 86.538246 244.078125 
z
" clip-path="url(#p1d5402c1bf)" style="fill: #1f77b4; fill-opacity: 0.5; stroke: #000000; stroke-width: 0.149933; stroke-linejoin: miter"/>
   </g>
   <g id="patch_16">
    <path d="M 88.037574 244.078125 
L 89.536902 244.078125 
L 89.536902 244.078125 
L 88.037574 244.078125 
z
" clip-path="url(#p1d5402c1bf)" style="fill: #1f77b4; fill-opacity: 0.5; stroke: #000000; stroke-width: 0.149933; stroke-linejoin: miter"/>
   </g>
   <g id="patch_17">
    <path d="M 89.536902 244.078125 
L 91.036231 244.078125 
L 91.036231 244.078125 
L 89.536902 244.078125 
z
" clip-path="url(#p1d5402c1bf)" style="fill: #1f77b4; fill-opacity: 0.5; stroke: #000000; stroke-width: 0.149933; stroke-linejoin: miter"/>
   </g>
   <g id="patch_18">
    <path d="M 91.036231 244.078125 
L 92.535559 244.078125 
L 92.535559 244.078125 
L 91.036231 244.078125 
z
" clip-path="url(#p1d5402c1bf)" style="fill: #1f77b4; fill-opacity: 0.5; stroke: #000000; stroke-width: 0.149933; stroke-linejoin: miter"/>
   </g>
   <g id="patch_19">
    <path d="M 92.535559 244.078125 
L 94.034887 244.078125 
L 94.034887 238.494464 
L 92.535559 238.494464 
z
" clip-path="url(#p1d5402c1bf)" style="fill: #1f77b4; fill-opacity: 0.5; stroke: #000000; stroke-width: 0.149933; stroke-linejoin: miter"/>
   </g>
   <g id="patch_20">
    <path d="M 94.034887 244.078125 
L 95.534215 244.078125 
L 95.534215 244.078125 
L 94.034887 244.078125 
z
" clip-path="url(#p1d5402c1bf)" style="fill: #1f77b4; fill-opacity: 0.5; stroke: #000000; stroke-width: 0.149933; stroke-linejoin: miter"/>
   </g>
   <g id="patch_21">
    <path d="M 95.534215 244.078125 
L 97.033544 244.078125 
L 97.033544 244.078125 
L 95.534215 244.078125 
z
" clip-path="url(#p1d5402c1bf)" style="fill: #1f77b4; fill-opacity: 0.5; stroke: #000000; stroke-width: 0.149933; stroke-linejoin: miter"/>
   </g>
   <g id="patch_22">
    <path d="M 97.033544 244.078125 
L 98.532872 244.078125 
L 98.532872 244.078125 
L 97.033544 244.078125 
z
" clip-path="url(#p1d5402c1bf)" style="fill: #1f77b4; fill-opacity: 0.5; stroke: #000000; stroke-width: 0.149933; stroke-linejoin: miter"/>
   </g>
   <g id="patch_23">
    <path d="M 98.532872 244.078125 
L 100.0322 244.078125 
L 100.0322 244.078125 
L 98.532872 244.078125 
z
" clip-path="url(#p1d5402c1bf)" style="fill: #1f77b4; fill-opacity: 0.5; stroke: #000000; stroke-width: 0.149933; stroke-linejoin: miter"/>
   </g>
   <g id="patch_24">
    <path d="M 100.0322 244.078125 
L 101.531528 244.078125 
L 101.531528 242.066948 
L 100.0322 242.066948 
z
" clip-path="url(#p1d5402c1bf)" style="fill: #1f77b4; fill-opacity: 0.5; stroke: #000000; stroke-width: 0.149933; stroke-linejoin: miter"/>
   </g>
   <g id="patch_25">
    <path d="M 101.531528 244.078125 
L 103.030857 244.078125 
L 103.030857 244.078125 
L 101.531528 244.078125 
z
" clip-path="url(#p1d5402c1bf)" style="fill: #1f77b4; fill-opacity: 0.5; stroke: #000000; stroke-width: 0.149933; stroke-linejoin: miter"/>
   </g>
   <g id="patch_26">
    <path d="M 103.030857 244.078125 
L 104.530185 244.078125 
L 104.530185 244.078125 
L 103.030857 244.078125 
z
" clip-path="url(#p1d5402c1bf)" style="fill: #1f77b4; fill-opacity: 0.5; stroke: #000000; stroke-width: 0.149933; stroke-linejoin: miter"/>
   </g>
   <g id="patch_27">
    <path d="M 104.530185 244.078125 
L 106.029513 244.078125 
L 106.029513 244.078125 
L 104.530185 244.078125 
z
" clip-path="url(#p1d5402c1bf)" style="fill: #1f77b4; fill-opacity: 0.5; stroke: #000000; stroke-width: 0.149933; stroke-linejoin: miter"/>
   </g>
   <g id="patch_28">
    <path d="M 106.029513 244.078125 
L 107.528842 244.078125 
L 107.528842 244.078125 
L 106.029513 244.078125 
z
" clip-path="url(#p1d5402c1bf)" style="fill: #1f77b4; fill-opacity: 0.5; stroke: #000000; stroke-width: 0.149933; stroke-linejoin: miter"/>
   </g>
   <g id="patch_29">
    <path d="M 107.528842 244.078125 
L 109.02817 244.078125 
L 109.02817 242.91376 
L 107.528842 242.91376 
z
" clip-path="url(#p1d5402c1bf)" style="fill: #1f77b4; fill-opacity: 0.5; stroke: #000000; stroke-width: 0.149933; stroke-linejoin: miter"/>
   </g>
   <g id="patch_30">
    <path d="M 109.02817 244.078125 
L 110.527498 244.078125 
L 110.527498 244.078125 
L 109.02817 244.078125 
z
" clip-path="url(#p1d5402c1bf)" style="fill: #1f77b4; fill-opacity: 0.5; stroke: #000000; stroke-width: 0.149933; stroke-linejoin: miter"/>
   </g>
   <g id="patch_31">
    <path d="M 110.527498 244.078125 
L 112.026826 244.078125 
L 112.026826 244.078125 
L 110.527498 244.078125 
z
" clip-path="url(#p1d5402c1bf)" style="fill: #1f77b4; fill-opacity: 0.5; stroke: #000000; stroke-width: 0.149933; stroke-linejoin: miter"/>
   </g>
   <g id="patch_32">
    <path d="M 112.026826 244.078125 
L 113.526155 244.078125 
L 113.526155 244.078125 
L 112.026826 244.078125 
z
" clip-path="url(#p1d5402c1bf)" style="fill: #1f77b4; fill-opacity: 0.5; stroke: #000000; stroke-width: 0.149933; stroke-linejoin: miter"/>
   </g>
   <g id="patch_33">
    <path d="M 113.526155 244.078125 
L 115.025483 244.078125 
L 115.025483 244.078125 
L 113.526155 244.078125 
z
" clip-path="url(#p1d5402c1bf)" style="fill: #1f77b4; fill-opacity: 0.5; stroke: #000000; stroke-width: 0.149933; stroke-linejoin: miter"/>
   </g>
   <g id="patch_34">
    <path d="M 115.025483 244.078125 
L 116.524811 244.078125 
L 116.524811 244.078125 
L 115.025483 244.078125 
z
" clip-path="url(#p1d5402c1bf)" style="fill: #1f77b4; fill-opacity: 0.5; stroke: #000000; stroke-width: 0.149933; stroke-linejoin: miter"/>
   </g>
   <g id="patch_35">
    <path d="M 116.524811 244.078125 
L 118.024139 244.078125 
L 118.024139 243.469479 
L 116.524811 243.469479 
z
" clip-path="url(#p1d5402c1bf)" style="fill: #1f77b4; fill-opacity: 0.5; stroke: #000000; stroke-width: 0.149933; stroke-linejoin: miter"/>
   </g>
   <g id="patch_36">
    <path d="M 118.024139 244.078125 
L 119.523468 244.078125 
L 119.523468 244.078125 
L 118.024139 244.078125 
z
" clip-path="url(#p1d5402c1bf)" style="fill: #1f77b4; fill-opacity: 0.5; stroke: #000000; stroke-width: 0.149933; stroke-linejoin: miter"/>
   </g>
   <g id="patch_37">
    <path d="M 119.523468 244.078125 
L 121.022796 244.078125 
L 121.022796 244.078125 
L 119.523468 244.078125 
z
" clip-path="url(#p1d5402c1bf)" style="fill: #1f77b4; fill-opacity: 0.5; stroke: #000000; stroke-width: 0.149933; stroke-linejoin: miter"/>
   </g>
   <g id="patch_38">
    <path d="M 121.022796 244.078125 
L 122.522124 244.078125 
L 122.522124 244.078125 
L 121.022796 244.078125 
z
" clip-path="url(#p1d5402c1bf)" style="fill: #1f77b4; fill-opacity: 0.5; stroke: #000000; stroke-width: 0.149933; stroke-linejoin: miter"/>
   </g>
   <g id="patch_39">
    <path d="M 122.522124 244.078125 
L 124.021452 244.078125 
L 124.021452 244.078125 
L 122.522124 244.078125 
z
" clip-path="url(#p1d5402c1bf)" style="fill: #1f77b4; fill-opacity: 0.5; stroke: #000000; stroke-width: 0.149933; stroke-linejoin: miter"/>
   </g>
   <g id="patch_40">
    <path d="M 124.021452 244.078125 
L 125.520781 244.078125 
L 125.520781 243.787034 
L 124.021452 243.787034 
z
" clip-path="url(#p1d5402c1bf)" style="fill: #1f77b4; fill-opacity: 0.5; stroke: #000000; stroke-width: 0.149933; stroke-linejoin: miter"/>
   </g>
   <g id="patch_41">
    <path d="M 125.520781 244.078125 
L 127.020109 244.078125 
L 127.020109 244.078125 
L 125.520781 244.078125 
z
" clip-path="url(#p1d5402c1bf)" style="fill: #1f77b4; fill-opacity: 0.5; stroke: #000000; stroke-width: 0.149933; stroke-linejoin: miter"/>
   </g>
   <g id="patch_42">
    <path d="M 127.020109 244.078125 
L 128.519437 244.078125 
L 128.519437 244.078125 
L 127.020109 244.078125 
z
" clip-path="url(#p1d5402c1bf)" style="fill: #1f77b4; fill-opacity: 0.5; stroke: #000000; stroke-width: 0.149933; stroke-linejoin: miter"/>
   </g>
   <g id="patch_43">
    <path d="M 128.519437 244.078125 
L 130.018765 244.078125 
L 130.018765 244.078125 
L 128.519437 244.078125 
z
" clip-path="url(#p1d5402c1bf)" style="fill: #1f77b4; fill-opacity: 0.5; stroke: #000000; stroke-width: 0.149933; stroke-linejoin: miter"/>
   </g>
   <g id="patch_44">
    <path d="M 130.018765 244.078125 
L 131.518094 244.078125 
L 131.518094 244.078125 
L 130.018765 244.078125 
z
" clip-path="url(#p1d5402c1bf)" style="fill: #1f77b4; fill-opacity: 0.5; stroke: #000000; stroke-width: 0.149933; stroke-linejoin: miter"/>
   </g>
   <g id="patch_45">
    <path d="M 131.518094 244.078125 
L 133.017422 244.078125 
L 133.017422 243.839959 
L 131.518094 243.839959 
z
" clip-path="url(#p1d5402c1bf)" style="fill: #1f77b4; fill-opacity: 0.5; stroke: #000000; stroke-width: 0.149933; stroke-linejoin: miter"/>
   </g>
   <g id="patch_46">
    <path d="M 133.017422 244.078125 
L 134.51675 244.078125 
L 134.51675 244.078125 
L 133.017422 244.078125 
z
" clip-path="url(#p1d5402c1bf)" style="fill: #1f77b4; fill-opacity: 0.5; stroke: #000000; stroke-width: 0.149933; stroke-linejoin: miter"/>
   </g>
   <g id="patch_47">
    <path d="M 134.51675 244.078125 
L 136.016078 244.078125 
L 136.016078 244.078125 
L 134.51675 244.078125 
z
" clip-path="url(#p1d5402c1bf)" style="fill: #1f77b4; fill-opacity: 0.5; stroke: #000000; stroke-width: 0.149933; stroke-linejoin: miter"/>
   </g>
   <g id="patch_48">
    <path d="M 136.016078 244.078125 
L 137.515407 244.078125 
L 137.515407 244.078125 
L 136.016078 244.078125 
z
" clip-path="url(#p1d5402c1bf)" style="fill: #1f77b4; fill-opacity: 0.5; stroke: #000000; stroke-width: 0.149933; stroke-linejoin: miter"/>
   </g>
   <g id="patch_49">
    <path d="M 137.515407 244.078125 
L 139.014735 244.078125 
L 139.014735 244.078125 
L 137.515407 244.078125 
z
" clip-path="url(#p1d5402c1bf)" style="fill: #1f77b4; fill-opacity: 0.5; stroke: #000000; stroke-width: 0.149933; stroke-linejoin: miter"/>
   </g>
   <g id="patch_50">
    <path d="M 139.014735 244.078125 
L 140.514063 244.078125 
L 140.514063 244.078125 
L 139.014735 244.078125 
z
" clip-path="url(#p1d5402c1bf)" style="fill: #1f77b4; fill-opacity: 0.5; stroke: #000000; stroke-width: 0.149933; stroke-linejoin: miter"/>
   </g>
   <g id="patch_51">
    <path d="M 140.514063 244.078125 
L 142.013391 244.078125 
L 142.013391 243.760571 
L 140.514063 243.760571 
z
" clip-path="url(#p1d5402c1bf)" style="fill: #1f77b4; fill-opacity: 0.5; stroke: #000000; stroke-width: 0.149933; stroke-linejoin: miter"/>
   </g>
   <g id="patch_52">
    <path d="M 142.013391 244.078125 
L 143.51272 244.078125 
L 143.51272 244.078125 
L 142.013391 244.078125 
z
" clip-path="url(#p1d5402c1bf)" style="fill: #1f77b4; fill-opacity: 0.5; stroke: #000000; stroke-width: 0.149933; stroke-linejoin: miter"/>
   </g>
   <g id="patch_53">
    <path d="M 143.51272 244.078125 
L 145.012048 244.078125 
L 145.012048 244.078125 
L 143.51272 244.078125 
z
" clip-path="url(#p1d5402c1bf)" style="fill: #1f77b4; fill-opacity: 0.5; stroke: #000000; stroke-width: 0.149933; stroke-linejoin: miter"/>
   </g>
   <g id="patch_54">
    <path d="M 145.012048 244.078125 
L 146.511376 244.078125 
L 146.511376 244.078125 
L 145.012048 244.078125 
z
" clip-path="url(#p1d5402c1bf)" style="fill: #1f77b4; fill-opacity: 0.5; stroke: #000000; stroke-width: 0.149933; stroke-linejoin: miter"/>
   </g>
   <g id="patch_55">
    <path d="M 146.511376 244.078125 
L 148.010704 244.078125 
L 148.010704 244.078125 
L 146.511376 244.078125 
z
" clip-path="url(#p1d5402c1bf)" style="fill: #1f77b4; fill-opacity: 0.5; stroke: #000000; stroke-width: 0.149933; stroke-linejoin: miter"/>
   </g>
   <g id="patch_56">
    <path d="M 148.010704 244.078125 
L 149.510033 244.078125 
L 149.510033 243.839959 
L 148.010704 243.839959 
z
" clip-path="url(#p1d5402c1bf)" style="fill: #1f77b4; fill-opacity: 0.5; stroke: #000000; stroke-width: 0.149933; stroke-linejoin: miter"/>
   </g>
   <g id="patch_57">
    <path d="M 149.510033 244.078125 
L 151.009361 244.078125 
L 151.009361 244.078125 
L 149.510033 244.078125 
z
" clip-path="url(#p1d5402c1bf)" style="fill: #1f77b4; fill-opacity: 0.5; stroke: #000000; stroke-width: 0.149933; stroke-linejoin: miter"/>
   </g>
   <g id="patch_58">
    <path d="M 151.009361 244.078125 
L 152.508689 244.078125 
L 152.508689 244.078125 
L 151.009361 244.078125 
z
" clip-path="url(#p1d5402c1bf)" style="fill: #1f77b4; fill-opacity: 0.5; stroke: #000000; stroke-width: 0.149933; stroke-linejoin: miter"/>
   </g>
   <g id="patch_59">
    <path d="M 152.508689 244.078125 
L 154.008018 244.078125 
L 154.008018 244.078125 
L 152.508689 244.078125 
z
" clip-path="url(#p1d5402c1bf)" style="fill: #1f77b4; fill-opacity: 0.5; stroke: #000000; stroke-width: 0.149933; stroke-linejoin: miter"/>
   </g>
   <g id="patch_60">
    <path d="M 154.008018 244.078125 
L 155.507346 244.078125 
L 155.507346 244.078125 
L 154.008018 244.078125 
z
" clip-path="url(#p1d5402c1bf)" style="fill: #1f77b4; fill-opacity: 0.5; stroke: #000000; stroke-width: 0.149933; stroke-linejoin: miter"/>
   </g>
   <g id="patch_61">
    <path d="M 155.507346 244.078125 
L 157.006674 244.078125 
L 157.006674 243.892885 
L 155.507346 243.892885 
z
" clip-path="url(#p1d5402c1bf)" style="fill: #1f77b4; fill-opacity: 0.5; stroke: #000000; stroke-width: 0.149933; stroke-linejoin: miter"/>
   </g>
   <g id="patch_62">
    <path d="M 157.006674 244.078125 
L 158.506002 244.078125 
L 158.506002 244.078125 
L 157.006674 244.078125 
z
" clip-path="url(#p1d5402c1bf)" style="fill: #1f77b4; fill-opacity: 0.5; stroke: #000000; stroke-width: 0.149933; stroke-linejoin: miter"/>
   </g>
   <g id="patch_63">
    <path d="M 158.506002 244.078125 
L 160.005331 244.078125 
L 160.005331 244.078125 
L 158.506002 244.078125 
z
" clip-path="url(#p1d5402c1bf)" style="fill: #1f77b4; fill-opacity: 0.5; stroke: #000000; stroke-width: 0.149933; stroke-linejoin: miter"/>
   </g>
   <g id="patch_64">
    <path d="M 160.005331 244.078125 
L 161.504659 244.078125 
L 161.504659 244.078125 
L 160.005331 244.078125 
z
" clip-path="url(#p1d5402c1bf)" style="fill: #1f77b4; fill-opacity: 0.5; stroke: #000000; stroke-width: 0.149933; stroke-linejoin: miter"/>
   </g>
   <g id="patch_65">
    <path d="M 161.504659 244.078125 
L 163.003987 244.078125 
L 163.003987 244.078125 
L 161.504659 244.078125 
z
" clip-path="url(#p1d5402c1bf)" style="fill: #1f77b4; fill-opacity: 0.5; stroke: #000000; stroke-width: 0.149933; stroke-linejoin: miter"/>
   </g>
   <g id="patch_66">
    <path d="M 163.003987 244.078125 
L 164.503315 244.078125 
L 164.503315 244.078125 
L 163.003987 244.078125 
z
" clip-path="url(#p1d5402c1bf)" style="fill: #1f77b4; fill-opacity: 0.5; stroke: #000000; stroke-width: 0.149933; stroke-linejoin: miter"/>
   </g>
   <g id="patch_67">
    <path d="M 164.503315 244.078125 
L 166.002644 244.078125 
L 166.002644 243.945811 
L 164.503315 243.945811 
z
" clip-path="url(#p1d5402c1bf)" style="fill: #1f77b4; fill-opacity: 0.5; stroke: #000000; stroke-width: 0.149933; stroke-linejoin: miter"/>
   </g>
   <g id="patch_68">
    <path d="M 166.002644 244.078125 
L 167.501972 244.078125 
L 167.501972 244.078125 
L 166.002644 244.078125 
z
" clip-path="url(#p1d5402c1bf)" style="fill: #1f77b4; fill-opacity: 0.5; stroke: #000000; stroke-width: 0.149933; stroke-linejoin: miter"/>
   </g>
   <g id="patch_69">
    <path d="M 167.501972 244.078125 
L 169.0013 244.078125 
L 169.0013 244.078125 
L 167.501972 244.078125 
z
" clip-path="url(#p1d5402c1bf)" style="fill: #1f77b4; fill-opacity: 0.5; stroke: #000000; stroke-width: 0.149933; stroke-linejoin: miter"/>
   </g>
   <g id="patch_70">
    <path d="M 169.0013 244.078125 
L 170.500628 244.078125 
L 170.500628 244.078125 
L 169.0013 244.078125 
z
" clip-path="url(#p1d5402c1bf)" style="fill: #1f77b4; fill-opacity: 0.5; stroke: #000000; stroke-width: 0.149933; stroke-linejoin: miter"/>
   </g>
   <g id="patch_71">
    <path d="M 170.500628 244.078125 
L 171.999957 244.078125 
L 171.999957 244.078125 
L 170.500628 244.078125 
z
" clip-path="url(#p1d5402c1bf)" style="fill: #1f77b4; fill-opacity: 0.5; stroke: #000000; stroke-width: 0.149933; stroke-linejoin: miter"/>
   </g>
   <g id="patch_72">
    <path d="M 171.999957 244.078125 
L 173.499285 244.078125 
L 173.499285 243.892885 
L 171.999957 243.892885 
z
" clip-path="url(#p1d5402c1bf)" style="fill: #1f77b4; fill-opacity: 0.5; stroke: #000000; stroke-width: 0.149933; stroke-linejoin: miter"/>
   </g>
   <g id="patch_73">
    <path d="M 173.499285 244.078125 
L 174.998613 244.078125 
L 174.998613 244.078125 
L 173.499285 244.078125 
z
" clip-path="url(#p1d5402c1bf)" style="fill: #1f77b4; fill-opacity: 0.5; stroke: #000000; stroke-width: 0.149933; stroke-linejoin: miter"/>
   </g>
   <g id="patch_74">
    <path d="M 174.998613 244.078125 
L 176.497941 244.078125 
L 176.497941 244.078125 
L 174.998613 244.078125 
z
" clip-path="url(#p1d5402c1bf)" style="fill: #1f77b4; fill-opacity: 0.5; stroke: #000000; stroke-width: 0.149933; stroke-linejoin: miter"/>
   </g>
   <g id="patch_75">
    <path d="M 176.497941 244.078125 
L 177.99727 244.078125 
L 177.99727 244.078125 
L 176.497941 244.078125 
z
" clip-path="url(#p1d5402c1bf)" style="fill: #1f77b4; fill-opacity: 0.5; stroke: #000000; stroke-width: 0.149933; stroke-linejoin: miter"/>
   </g>
   <g id="patch_76">
    <path d="M 177.99727 244.078125 
L 179.496598 244.078125 
L 179.496598 244.078125 
L 177.99727 244.078125 
z
" clip-path="url(#p1d5402c1bf)" style="fill: #1f77b4; fill-opacity: 0.5; stroke: #000000; stroke-width: 0.149933; stroke-linejoin: miter"/>
   </g>
   <g id="patch_77">
    <path d="M 179.496598 244.078125 
L 180.995926 244.078125 
L 180.995926 243.919348 
L 179.496598 243.919348 
z
" clip-path="url(#p1d5402c1bf)" style="fill: #1f77b4; fill-opacity: 0.5; stroke: #000000; stroke-width: 0.149933; stroke-linejoin: miter"/>
   </g>
   <g id="patch_78">
    <path d="M 180.995926 244.078125 
L 182.495254 244.078125 
L 182.495254 244.078125 
L 180.995926 244.078125 
z
" clip-path="url(#p1d5402c1bf)" style="fill: #1f77b4; fill-opacity: 0.5; stroke: #000000; stroke-width: 0.149933; stroke-linejoin: miter"/>
   </g>
   <g id="patch_79">
    <path d="M 182.495254 244.078125 
L 183.994583 244.078125 
L 183.994583 244.078125 
L 182.495254 244.078125 
z
" clip-path="url(#p1d5402c1bf)" style="fill: #1f77b4; fill-opacity: 0.5; stroke: #000000; stroke-width: 0.149933; stroke-linejoin: miter"/>
   </g>
   <g id="patch_80">
    <path d="M 183.994583 244.078125 
L 185.493911 244.078125 
L 185.493911 244.078125 
L 183.994583 244.078125 
z
" clip-path="url(#p1d5402c1bf)" style="fill: #1f77b4; fill-opacity: 0.5; stroke: #000000; stroke-width: 0.149933; stroke-linejoin: miter"/>
   </g>
   <g id="patch_81">
    <path d="M 185.493911 244.078125 
L 186.993239 244.078125 
L 186.993239 244.078125 
L 185.493911 244.078125 
z
" clip-path="url(#p1d5402c1bf)" style="fill: #1f77b4; fill-opacity: 0.5; stroke: #000000; stroke-width: 0.149933; stroke-linejoin: miter"/>
   </g>
   <g id="patch_82">
    <path d="M 186.993239 244.078125 
L 188.492567 244.078125 
L 188.492567 244.078125 
L 186.993239 244.078125 
z
" clip-path="url(#p1d5402c1bf)" style="fill: #1f77b4; fill-opacity: 0.5; stroke: #000000; stroke-width: 0.149933; stroke-linejoin: miter"/>
   </g>
   <g id="patch_83">
    <path d="M 188.492567 244.078125 
L 189.991896 244.078125 
L 189.991896 244.051662 
L 188.492567 244.051662 
z
" clip-path="url(#p1d5402c1bf)" style="fill: #1f77b4; fill-opacity: 0.5; stroke: #000000; stroke-width: 0.149933; stroke-linejoin: miter"/>
   </g>
   <g id="patch_84">
    <path d="M 189.991896 244.078125 
L 191.491224 244.078125 
L 191.491224 244.078125 
L 189.991896 244.078125 
z
" clip-path="url(#p1d5402c1bf)" style="fill: #1f77b4; fill-opacity: 0.5; stroke: #000000; stroke-width: 0.149933; stroke-linejoin: miter"/>
   </g>
   <g id="patch_85">
    <path d="M 191.491224 244.078125 
L 192.990552 244.078125 
L 192.990552 244.078125 
L 191.491224 244.078125 
z
" clip-path="url(#p1d5402c1bf)" style="fill: #1f77b4; fill-opacity: 0.5; stroke: #000000; stroke-width: 0.149933; stroke-linejoin: miter"/>
   </g>
   <g id="patch_86">
    <path d="M 192.990552 244.078125 
L 194.48988 244.078125 
L 194.48988 244.078125 
L 192.990552 244.078125 
z
" clip-path="url(#p1d5402c1bf)" style="fill: #1f77b4; fill-opacity: 0.5; stroke: #000000; stroke-width: 0.149933; stroke-linejoin: miter"/>
   </g>
   <g id="patch_87">
    <path d="M 194.48988 244.078125 
L 195.989209 244.078125 
L 195.989209 244.078125 
L 194.48988 244.078125 
z
" clip-path="url(#p1d5402c1bf)" style="fill: #1f77b4; fill-opacity: 0.5; stroke: #000000; stroke-width: 0.149933; stroke-linejoin: miter"/>
   </g>
   <g id="patch_88">
    <path d="M 195.989209 244.078125 
L 197.488537 244.078125 
L 197.488537 243.919348 
L 195.989209 243.919348 
z
" clip-path="url(#p1d5402c1bf)" style="fill: #1f77b4; fill-opacity: 0.5; stroke: #000000; stroke-width: 0.149933; stroke-linejoin: miter"/>
   </g>
   <g id="patch_89">
    <path d="M 197.488537 244.078125 
L 198.987865 244.078125 
L 198.987865 244.078125 
L 197.488537 244.078125 
z
" clip-path="url(#p1d5402c1bf)" style="fill: #1f77b4; fill-opacity: 0.5; stroke: #000000; stroke-width: 0.149933; stroke-linejoin: miter"/>
   </g>
   <g id="patch_90">
    <path d="M 198.987865 244.078125 
L 200.487194 244.078125 
L 200.487194 244.078125 
L 198.987865 244.078125 
z
" clip-path="url(#p1d5402c1bf)" style="fill: #1f77b4; fill-opacity: 0.5; stroke: #000000; stroke-width: 0.149933; stroke-linejoin: miter"/>
   </g>
   <g id="patch_91">
    <path d="M 200.487194 244.078125 
L 201.986522 244.078125 
L 201.986522 244.078125 
L 200.487194 244.078125 
z
" clip-path="url(#p1d5402c1bf)" style="fill: #1f77b4; fill-opacity: 0.5; stroke: #000000; stroke-width: 0.149933; stroke-linejoin: miter"/>
   </g>
   <g id="patch_92">
    <path d="M 201.986522 244.078125 
L 203.48585 244.078125 
L 203.48585 244.078125 
L 201.986522 244.078125 
z
" clip-path="url(#p1d5402c1bf)" style="fill: #1f77b4; fill-opacity: 0.5; stroke: #000000; stroke-width: 0.149933; stroke-linejoin: miter"/>
   </g>
   <g id="patch_93">
    <path d="M 203.48585 244.078125 
L 204.985178 244.078125 
L 204.985178 243.972274 
L 203.48585 243.972274 
z
" clip-path="url(#p1d5402c1bf)" style="fill: #1f77b4; fill-opacity: 0.5; stroke: #000000; stroke-width: 0.149933; stroke-linejoin: miter"/>
   </g>
   <g id="patch_94">
    <path d="M 204.985178 244.078125 
L 206.484507 244.078125 
L 206.484507 244.078125 
L 204.985178 244.078125 
z
" clip-path="url(#p1d5402c1bf)" style="fill: #1f77b4; fill-opacity: 0.5; stroke: #000000; stroke-width: 0.149933; stroke-linejoin: miter"/>
   </g>
   <g id="patch_95">
    <path d="M 206.484507 244.078125 
L 207.983835 244.078125 
L 207.983835 244.078125 
L 206.484507 244.078125 
z
" clip-path="url(#p1d5402c1bf)" style="fill: #1f77b4; fill-opacity: 0.5; stroke: #000000; stroke-width: 0.149933; stroke-linejoin: miter"/>
   </g>
   <g id="patch_96">
    <path d="M 207.983835 244.078125 
L 209.483163 244.078125 
L 209.483163 244.078125 
L 207.983835 244.078125 
z
" clip-path="url(#p1d5402c1bf)" style="fill: #1f77b4; fill-opacity: 0.5; stroke: #000000; stroke-width: 0.149933; stroke-linejoin: miter"/>
   </g>
   <g id="patch_97">
    <path d="M 209.483163 244.078125 
L 210.982491 244.078125 
L 210.982491 244.078125 
L 209.483163 244.078125 
z
" clip-path="url(#p1d5402c1bf)" style="fill: #1f77b4; fill-opacity: 0.5; stroke: #000000; stroke-width: 0.149933; stroke-linejoin: miter"/>
   </g>
   <g id="patch_98">
    <path d="M 210.982491 244.078125 
L 212.48182 244.078125 
L 212.48182 244.078125 
L 210.982491 244.078125 
z
" clip-path="url(#p1d5402c1bf)" style="fill: #1f77b4; fill-opacity: 0.5; stroke: #000000; stroke-width: 0.149933; stroke-linejoin: miter"/>
   </g>
   <g id="patch_99">
    <path d="M 212.48182 244.078125 
L 213.981148 244.078125 
L 213.981148 243.945811 
L 212.48182 243.945811 
z
" clip-path="url(#p1d5402c1bf)" style="fill: #1f77b4; fill-opacity: 0.5; stroke: #000000; stroke-width: 0.149933; stroke-linejoin: miter"/>
   </g>
   <g id="patch_100">
    <path d="M 213.981148 244.078125 
L 215.480476 244.078125 
L 215.480476 244.078125 
L 213.981148 244.078125 
z
" clip-path="url(#p1d5402c1bf)" style="fill: #1f77b4; fill-opacity: 0.5; stroke: #000000; stroke-width: 0.149933; stroke-linejoin: miter"/>
   </g>
   <g id="patch_101">
    <path d="M 215.480476 244.078125 
L 216.979804 244.078125 
L 216.979804 244.078125 
L 215.480476 244.078125 
z
" clip-path="url(#p1d5402c1bf)" style="fill: #1f77b4; fill-opacity: 0.5; stroke: #000000; stroke-width: 0.149933; stroke-linejoin: miter"/>
   </g>
   <g id="patch_102">
    <path d="M 216.979804 244.078125 
L 218.479133 244.078125 
L 218.479133 244.078125 
L 216.979804 244.078125 
z
" clip-path="url(#p1d5402c1bf)" style="fill: #1f77b4; fill-opacity: 0.5; stroke: #000000; stroke-width: 0.149933; stroke-linejoin: miter"/>
   </g>
   <g id="patch_103">
    <path d="M 218.479133 244.078125 
L 219.978461 244.078125 
L 219.978461 244.078125 
L 218.479133 244.078125 
z
" clip-path="url(#p1d5402c1bf)" style="fill: #1f77b4; fill-opacity: 0.5; stroke: #000000; stroke-width: 0.149933; stroke-linejoin: miter"/>
   </g>
   <g id="patch_104">
    <path d="M 219.978461 244.078125 
L 221.477789 244.078125 
L 221.477789 243.972274 
L 219.978461 243.972274 
z
" clip-path="url(#p1d5402c1bf)" style="fill: #1f77b4; fill-opacity: 0.5; stroke: #000000; stroke-width: 0.149933; stroke-linejoin: miter"/>
   </g>
   <g id="patch_105">
    <path d="M 221.477789 244.078125 
L 222.977117 244.078125 
L 222.977117 244.078125 
L 221.477789 244.078125 
z
" clip-path="url(#p1d5402c1bf)" style="fill: #1f77b4; fill-opacity: 0.5; stroke: #000000; stroke-width: 0.149933; stroke-linejoin: miter"/>
   </g>
   <g id="patch_106">
    <path d="M 222.977117 244.078125 
L 224.476446 244.078125 
L 224.476446 244.078125 
L 222.977117 244.078125 
z
" clip-path="url(#p1d5402c1bf)" style="fill: #1f77b4; fill-opacity: 0.5; stroke: #000000; stroke-width: 0.149933; stroke-linejoin: miter"/>
   </g>
   <g id="patch_107">
    <path d="M 224.476446 244.078125 
L 225.975774 244.078125 
L 225.975774 244.078125 
L 224.476446 244.078125 
z
" clip-path="url(#p1d5402c1bf)" style="fill: #1f77b4; fill-opacity: 0.5; stroke: #000000; stroke-width: 0.149933; stroke-linejoin: miter"/>
   </g>
   <g id="patch_108">
    <path d="M 225.975774 244.078125 
L 227.475102 244.078125 
L 227.475102 244.078125 
L 225.975774 244.078125 
z
" clip-path="url(#p1d5402c1bf)" style="fill: #1f77b4; fill-opacity: 0.5; stroke: #000000; stroke-width: 0.149933; stroke-linejoin: miter"/>
   </g>
   <g id="patch_109">
    <path d="M 227.475102 244.078125 
L 228.97443 244.078125 
L 228.97443 243.628257 
L 227.475102 243.628257 
z
" clip-path="url(#p1d5402c1bf)" style="fill: #1f77b4; fill-opacity: 0.5; stroke: #000000; stroke-width: 0.149933; stroke-linejoin: miter"/>
   </g>
   <g id="patch_110">
    <path d="M 228.97443 244.078125 
L 230.473759 244.078125 
L 230.473759 244.078125 
L 228.97443 244.078125 
z
" clip-path="url(#p1d5402c1bf)" style="fill: #1f77b4; fill-opacity: 0.5; stroke: #000000; stroke-width: 0.149933; stroke-linejoin: miter"/>
   </g>
   <g id="patch_111">
    <path d="M 230.473759 244.078125 
L 231.973087 244.078125 
L 231.973087 244.078125 
L 230.473759 244.078125 
z
" clip-path="url(#p1d5402c1bf)" style="fill: #1f77b4; fill-opacity: 0.5; stroke: #000000; stroke-width: 0.149933; stroke-linejoin: miter"/>
   </g>
   <g id="patch_112">
    <path d="M 231.973087 244.078125 
L 233.472415 244.078125 
L 233.472415 244.078125 
L 231.973087 244.078125 
z
" clip-path="url(#p1d5402c1bf)" style="fill: #1f77b4; fill-opacity: 0.5; stroke: #000000; stroke-width: 0.149933; stroke-linejoin: miter"/>
   </g>
   <g id="patch_113">
    <path d="M 233.472415 244.078125 
L 234.971743 244.078125 
L 234.971743 244.078125 
L 233.472415 244.078125 
z
" clip-path="url(#p1d5402c1bf)" style="fill: #1f77b4; fill-opacity: 0.5; stroke: #000000; stroke-width: 0.149933; stroke-linejoin: miter"/>
   </g>
   <g id="patch_114">
    <path d="M 234.971743 244.078125 
L 236.471072 244.078125 
L 236.471072 244.078125 
L 234.971743 244.078125 
z
" clip-path="url(#p1d5402c1bf)" style="fill: #1f77b4; fill-opacity: 0.5; stroke: #000000; stroke-width: 0.149933; stroke-linejoin: miter"/>
   </g>
   <g id="patch_115">
    <path d="M 236.471072 244.078125 
L 237.9704 244.078125 
L 237.9704 243.998736 
L 236.471072 243.998736 
z
" clip-path="url(#p1d5402c1bf)" style="fill: #1f77b4; fill-opacity: 0.5; stroke: #000000; stroke-width: 0.149933; stroke-linejoin: miter"/>
   </g>
   <g id="patch_116">
    <path d="M 237.9704 244.078125 
L 239.469728 244.078125 
L 239.469728 244.078125 
L 237.9704 244.078125 
z
" clip-path="url(#p1d5402c1bf)" style="fill: #1f77b4; fill-opacity: 0.5; stroke: #000000; stroke-width: 0.149933; stroke-linejoin: miter"/>
   </g>
   <g id="patch_117">
    <path d="M 239.469728 244.078125 
L 240.969056 244.078125 
L 240.969056 244.078125 
L 239.469728 244.078125 
z
" clip-path="url(#p1d5402c1bf)" style="fill: #1f77b4; fill-opacity: 0.5; stroke: #000000; stroke-width: 0.149933; stroke-linejoin: miter"/>
   </g>
   <g id="patch_118">
    <path d="M 240.969056 244.078125 
L 242.468385 244.078125 
L 242.468385 244.078125 
L 240.969056 244.078125 
z
" clip-path="url(#p1d5402c1bf)" style="fill: #1f77b4; fill-opacity: 0.5; stroke: #000000; stroke-width: 0.149933; stroke-linejoin: miter"/>
   </g>
   <g id="patch_119">
    <path d="M 242.468385 244.078125 
L 243.967713 244.078125 
L 243.967713 244.078125 
L 242.468385 244.078125 
z
" clip-path="url(#p1d5402c1bf)" style="fill: #1f77b4; fill-opacity: 0.5; stroke: #000000; stroke-width: 0.149933; stroke-linejoin: miter"/>
   </g>
   <g id="patch_120">
    <path d="M 243.967713 244.078125 
L 245.467041 244.078125 
L 245.467041 243.760571 
L 243.967713 243.760571 
z
" clip-path="url(#p1d5402c1bf)" style="fill: #1f77b4; fill-opacity: 0.5; stroke: #000000; stroke-width: 0.149933; stroke-linejoin: miter"/>
   </g>
   <g id="patch_121">
    <path d="M 245.467041 244.078125 
L 246.96637 244.078125 
L 246.96637 244.078125 
L 245.467041 244.078125 
z
" clip-path="url(#p1d5402c1bf)" style="fill: #1f77b4; fill-opacity: 0.5; stroke: #000000; stroke-width: 0.149933; stroke-linejoin: miter"/>
   </g>
   <g id="patch_122">
    <path d="M 246.96637 244.078125 
L 248.465698 244.078125 
L 248.465698 244.078125 
L 246.96637 244.078125 
z
" clip-path="url(#p1d5402c1bf)" style="fill: #1f77b4; fill-opacity: 0.5; stroke: #000000; stroke-width: 0.149933; stroke-linejoin: miter"/>
   </g>
   <g id="patch_123">
    <path d="M 248.465698 244.078125 
L 249.965026 244.078125 
L 249.965026 244.078125 
L 248.465698 244.078125 
z
" clip-path="url(#p1d5402c1bf)" style="fill: #1f77b4; fill-opacity: 0.5; stroke: #000000; stroke-width: 0.149933; stroke-linejoin: miter"/>
   </g>
   <g id="patch_124">
    <path d="M 249.965026 244.078125 
L 251.464354 244.078125 
L 251.464354 244.078125 
L 249.965026 244.078125 
z
" clip-path="url(#p1d5402c1bf)" style="fill: #1f77b4; fill-opacity: 0.5; stroke: #000000; stroke-width: 0.149933; stroke-linejoin: miter"/>
   </g>
   <g id="patch_125">
    <path d="M 251.464354 244.078125 
L 252.963683 244.078125 
L 252.963683 243.337165 
L 251.464354 243.337165 
z
" clip-path="url(#p1d5402c1bf)" style="fill: #1f77b4; fill-opacity: 0.5; stroke: #000000; stroke-width: 0.149933; stroke-linejoin: miter"/>
   </g>
   <g id="patch_126">
    <path d="M 252.963683 244.078125 
L 254.463011 244.078125 
L 254.463011 244.078125 
L 252.963683 244.078125 
z
" clip-path="url(#p1d5402c1bf)" style="fill: #1f77b4; fill-opacity: 0.5; stroke: #000000; stroke-width: 0.149933; stroke-linejoin: miter"/>
   </g>
   <g id="patch_127">
    <path d="M 254.463011 244.078125 
L 255.962339 244.078125 
L 255.962339 244.078125 
L 254.463011 244.078125 
z
" clip-path="url(#p1d5402c1bf)" style="fill: #1f77b4; fill-opacity: 0.5; stroke: #000000; stroke-width: 0.149933; stroke-linejoin: miter"/>
   </g>
   <g id="patch_128">
    <path d="M 255.962339 244.078125 
L 257.461667 244.078125 
L 257.461667 244.078125 
L 255.962339 244.078125 
z
" clip-path="url(#p1d5402c1bf)" style="fill: #1f77b4; fill-opacity: 0.5; stroke: #000000; stroke-width: 0.149933; stroke-linejoin: miter"/>
   </g>
   <g id="patch_129">
    <path d="M 257.461667 244.078125 
L 258.960996 244.078125 
L 258.960996 244.078125 
L 257.461667 244.078125 
z
" clip-path="url(#p1d5402c1bf)" style="fill: #1f77b4; fill-opacity: 0.5; stroke: #000000; stroke-width: 0.149933; stroke-linejoin: miter"/>
   </g>
   <g id="patch_130">
    <path d="M 258.960996 244.078125 
L 260.460324 244.078125 
L 260.460324 244.078125 
L 258.960996 244.078125 
z
" clip-path="url(#p1d5402c1bf)" style="fill: #1f77b4; fill-opacity: 0.5; stroke: #000000; stroke-width: 0.149933; stroke-linejoin: miter"/>
   </g>
   <g id="patch_131">
    <path d="M 260.460324 244.078125 
L 261.959652 244.078125 
L 261.959652 243.787034 
L 260.460324 243.787034 
z
" clip-path="url(#p1d5402c1bf)" style="fill: #1f77b4; fill-opacity: 0.5; stroke: #000000; stroke-width: 0.149933; stroke-linejoin: miter"/>
   </g>
   <g id="patch_132">
    <path d="M 261.959652 244.078125 
L 263.45898 244.078125 
L 263.45898 244.078125 
L 261.959652 244.078125 
z
" clip-path="url(#p1d5402c1bf)" style="fill: #1f77b4; fill-opacity: 0.5; stroke: #000000; stroke-width: 0.149933; stroke-linejoin: miter"/>
   </g>
   <g id="patch_133">
    <path d="M 263.45898 244.078125 
L 264.958309 244.078125 
L 264.958309 244.078125 
L 263.45898 244.078125 
z
" clip-path="url(#p1d5402c1bf)" style="fill: #1f77b4; fill-opacity: 0.5; stroke: #000000; stroke-width: 0.149933; stroke-linejoin: miter"/>
   </g>
   <g id="patch_134">
    <path d="M 264.958309 244.078125 
L 266.457637 244.078125 
L 266.457637 244.078125 
L 264.958309 244.078125 
z
" clip-path="url(#p1d5402c1bf)" style="fill: #1f77b4; fill-opacity: 0.5; stroke: #000000; stroke-width: 0.149933; stroke-linejoin: miter"/>
   </g>
   <g id="patch_135">
    <path d="M 266.457637 244.078125 
L 267.956965 244.078125 
L 267.956965 244.078125 
L 266.457637 244.078125 
z
" clip-path="url(#p1d5402c1bf)" style="fill: #1f77b4; fill-opacity: 0.5; stroke: #000000; stroke-width: 0.149933; stroke-linejoin: miter"/>
   </g>
   <g id="patch_136">
    <path d="M 267.956965 244.078125 
L 269.456293 244.078125 
L 269.456293 244.078125 
L 267.956965 244.078125 
z
" clip-path="url(#p1d5402c1bf)" style="fill: #1f77b4; fill-opacity: 0.5; stroke: #000000; stroke-width: 0.149933; stroke-linejoin: miter"/>
   </g>
   <g id="patch_137">
    <path d="M 269.456293 244.078125 
L 270.955622 244.078125 
L 270.955622 244.078125 
L 269.456293 244.078125 
z
" clip-path="url(#p1d5402c1bf)" style="fill: #1f77b4; fill-opacity: 0.5; stroke: #000000; stroke-width: 0.149933; stroke-linejoin: miter"/>
   </g>
   <g id="patch_138">
    <path d="M 270.955622 244.078125 
L 272.45495 244.078125 
L 272.45495 244.078125 
L 270.955622 244.078125 
z
" clip-path="url(#p1d5402c1bf)" style="fill: #1f77b4; fill-opacity: 0.5; stroke: #000000; stroke-width: 0.149933; stroke-linejoin: miter"/>
   </g>
   <g id="patch_139">
    <path d="M 272.45495 244.078125 
L 273.954278 244.078125 
L 273.954278 244.078125 
L 272.45495 244.078125 
z
" clip-path="url(#p1d5402c1bf)" style="fill: #1f77b4; fill-opacity: 0.5; stroke: #000000; stroke-width: 0.149933; stroke-linejoin: miter"/>
   </g>
   <g id="patch_140">
    <path d="M 273.954278 244.078125 
L 275.453606 244.078125 
L 275.453606 244.078125 
L 273.954278 244.078125 
z
" clip-path="url(#p1d5402c1bf)" style="fill: #1f77b4; fill-opacity: 0.5; stroke: #000000; stroke-width: 0.149933; stroke-linejoin: miter"/>
   </g>
   <g id="patch_141">
    <path d="M 275.453606 244.078125 
L 276.952935 244.078125 
L 276.952935 244.078125 
L 275.453606 244.078125 
z
" clip-path="url(#p1d5402c1bf)" style="fill: #1f77b4; fill-opacity: 0.5; stroke: #000000; stroke-width: 0.149933; stroke-linejoin: miter"/>
   </g>
   <g id="patch_142">
    <path d="M 276.952935 244.078125 
L 278.452263 244.078125 
L 278.452263 244.078125 
L 276.952935 244.078125 
z
" clip-path="url(#p1d5402c1bf)" style="fill: #1f77b4; fill-opacity: 0.5; stroke: #000000; stroke-width: 0.149933; stroke-linejoin: miter"/>
   </g>
   <g id="patch_143">
    <path d="M 278.452263 244.078125 
L 279.951591 244.078125 
L 279.951591 244.078125 
L 278.452263 244.078125 
z
" clip-path="url(#p1d5402c1bf)" style="fill: #1f77b4; fill-opacity: 0.5; stroke: #000000; stroke-width: 0.149933; stroke-linejoin: miter"/>
   </g>
   <g id="patch_144">
    <path d="M 279.951591 244.078125 
L 281.450919 244.078125 
L 281.450919 244.078125 
L 279.951591 244.078125 
z
" clip-path="url(#p1d5402c1bf)" style="fill: #1f77b4; fill-opacity: 0.5; stroke: #000000; stroke-width: 0.149933; stroke-linejoin: miter"/>
   </g>
   <g id="patch_145">
    <path d="M 281.450919 244.078125 
L 282.950248 244.078125 
L 282.950248 244.078125 
L 281.450919 244.078125 
z
" clip-path="url(#p1d5402c1bf)" style="fill: #1f77b4; fill-opacity: 0.5; stroke: #000000; stroke-width: 0.149933; stroke-linejoin: miter"/>
   </g>
   <g id="patch_146">
    <path d="M 282.950248 244.078125 
L 284.449576 244.078125 
L 284.449576 244.078125 
L 282.950248 244.078125 
z
" clip-path="url(#p1d5402c1bf)" style="fill: #1f77b4; fill-opacity: 0.5; stroke: #000000; stroke-width: 0.149933; stroke-linejoin: miter"/>
   </g>
   <g id="patch_147">
    <path d="M 284.449576 244.078125 
L 285.948904 244.078125 
L 285.948904 244.078125 
L 284.449576 244.078125 
z
" clip-path="url(#p1d5402c1bf)" style="fill: #1f77b4; fill-opacity: 0.5; stroke: #000000; stroke-width: 0.149933; stroke-linejoin: miter"/>
   </g>
   <g id="patch_148">
    <path d="M 285.948904 244.078125 
L 287.448232 244.078125 
L 287.448232 244.078125 
L 285.948904 244.078125 
z
" clip-path="url(#p1d5402c1bf)" style="fill: #1f77b4; fill-opacity: 0.5; stroke: #000000; stroke-width: 0.149933; stroke-linejoin: miter"/>
   </g>
   <g id="patch_149">
    <path d="M 287.448232 244.078125 
L 288.947561 244.078125 
L 288.947561 244.078125 
L 287.448232 244.078125 
z
" clip-path="url(#p1d5402c1bf)" style="fill: #1f77b4; fill-opacity: 0.5; stroke: #000000; stroke-width: 0.149933; stroke-linejoin: miter"/>
   </g>
   <g id="patch_150">
    <path d="M 288.947561 244.078125 
L 290.446889 244.078125 
L 290.446889 244.078125 
L 288.947561 244.078125 
z
" clip-path="url(#p1d5402c1bf)" style="fill: #1f77b4; fill-opacity: 0.5; stroke: #000000; stroke-width: 0.149933; stroke-linejoin: miter"/>
   </g>
   <g id="patch_151">
    <path d="M 290.446889 244.078125 
L 291.946217 244.078125 
L 291.946217 244.078125 
L 290.446889 244.078125 
z
" clip-path="url(#p1d5402c1bf)" style="fill: #1f77b4; fill-opacity: 0.5; stroke: #000000; stroke-width: 0.149933; stroke-linejoin: miter"/>
   </g>
   <g id="patch_152">
    <path d="M 291.946217 244.078125 
L 293.445546 244.078125 
L 293.445546 244.078125 
L 291.946217 244.078125 
z
" clip-path="url(#p1d5402c1bf)" style="fill: #1f77b4; fill-opacity: 0.5; stroke: #000000; stroke-width: 0.149933; stroke-linejoin: miter"/>
   </g>
   <g id="patch_153">
    <path d="M 293.445546 244.078125 
L 294.944874 244.078125 
L 294.944874 244.078125 
L 293.445546 244.078125 
z
" clip-path="url(#p1d5402c1bf)" style="fill: #1f77b4; fill-opacity: 0.5; stroke: #000000; stroke-width: 0.149933; stroke-linejoin: miter"/>
   </g>
   <g id="patch_154">
    <path d="M 294.944874 244.078125 
L 296.444202 244.078125 
L 296.444202 244.078125 
L 294.944874 244.078125 
z
" clip-path="url(#p1d5402c1bf)" style="fill: #1f77b4; fill-opacity: 0.5; stroke: #000000; stroke-width: 0.149933; stroke-linejoin: miter"/>
   </g>
   <g id="patch_155">
    <path d="M 296.444202 244.078125 
L 297.94353 244.078125 
L 297.94353 244.078125 
L 296.444202 244.078125 
z
" clip-path="url(#p1d5402c1bf)" style="fill: #1f77b4; fill-opacity: 0.5; stroke: #000000; stroke-width: 0.149933; stroke-linejoin: miter"/>
   </g>
   <g id="patch_156">
    <path d="M 297.94353 244.078125 
L 299.442859 244.078125 
L 299.442859 244.078125 
L 297.94353 244.078125 
z
" clip-path="url(#p1d5402c1bf)" style="fill: #1f77b4; fill-opacity: 0.5; stroke: #000000; stroke-width: 0.149933; stroke-linejoin: miter"/>
   </g>
   <g id="patch_157">
    <path d="M 299.442859 244.078125 
L 300.942187 244.078125 
L 300.942187 244.078125 
L 299.442859 244.078125 
z
" clip-path="url(#p1d5402c1bf)" style="fill: #1f77b4; fill-opacity: 0.5; stroke: #000000; stroke-width: 0.149933; stroke-linejoin: miter"/>
   </g>
   <g id="patch_158">
    <path d="M 300.942187 244.078125 
L 302.441515 244.078125 
L 302.441515 244.078125 
L 300.942187 244.078125 
z
" clip-path="url(#p1d5402c1bf)" style="fill: #1f77b4; fill-opacity: 0.5; stroke: #000000; stroke-width: 0.149933; stroke-linejoin: miter"/>
   </g>
   <g id="patch_159">
    <path d="M 302.441515 244.078125 
L 303.940843 244.078125 
L 303.940843 244.078125 
L 302.441515 244.078125 
z
" clip-path="url(#p1d5402c1bf)" style="fill: #1f77b4; fill-opacity: 0.5; stroke: #000000; stroke-width: 0.149933; stroke-linejoin: miter"/>
   </g>
   <g id="patch_160">
    <path d="M 303.940843 244.078125 
L 305.440172 244.078125 
L 305.440172 244.078125 
L 303.940843 244.078125 
z
" clip-path="url(#p1d5402c1bf)" style="fill: #1f77b4; fill-opacity: 0.5; stroke: #000000; stroke-width: 0.149933; stroke-linejoin: miter"/>
   </g>
   <g id="patch_161">
    <path d="M 305.440172 244.078125 
L 306.9395 244.078125 
L 306.9395 244.078125 
L 305.440172 244.078125 
z
" clip-path="url(#p1d5402c1bf)" style="fill: #1f77b4; fill-opacity: 0.5; stroke: #000000; stroke-width: 0.149933; stroke-linejoin: miter"/>
   </g>
   <g id="patch_162">
    <path d="M 306.9395 244.078125 
L 308.438828 244.078125 
L 308.438828 244.078125 
L 306.9395 244.078125 
z
" clip-path="url(#p1d5402c1bf)" style="fill: #1f77b4; fill-opacity: 0.5; stroke: #000000; stroke-width: 0.149933; stroke-linejoin: miter"/>
   </g>
   <g id="patch_163">
    <path d="M 308.438828 244.078125 
L 309.938156 244.078125 
L 309.938156 244.078125 
L 308.438828 244.078125 
z
" clip-path="url(#p1d5402c1bf)" style="fill: #1f77b4; fill-opacity: 0.5; stroke: #000000; stroke-width: 0.149933; stroke-linejoin: miter"/>
   </g>
   <g id="patch_164">
    <path d="M 309.938156 244.078125 
L 311.437485 244.078125 
L 311.437485 244.078125 
L 309.938156 244.078125 
z
" clip-path="url(#p1d5402c1bf)" style="fill: #1f77b4; fill-opacity: 0.5; stroke: #000000; stroke-width: 0.149933; stroke-linejoin: miter"/>
   </g>
   <g id="patch_165">
    <path d="M 311.437485 244.078125 
L 312.936813 244.078125 
L 312.936813 244.078125 
L 311.437485 244.078125 
z
" clip-path="url(#p1d5402c1bf)" style="fill: #1f77b4; fill-opacity: 0.5; stroke: #000000; stroke-width: 0.149933; stroke-linejoin: miter"/>
   </g>
   <g id="patch_166">
    <path d="M 312.936813 244.078125 
L 314.436141 244.078125 
L 314.436141 244.078125 
L 312.936813 244.078125 
z
" clip-path="url(#p1d5402c1bf)" style="fill: #1f77b4; fill-opacity: 0.5; stroke: #000000; stroke-width: 0.149933; stroke-linejoin: miter"/>
   </g>
   <g id="patch_167">
    <path d="M 314.436141 244.078125 
L 315.935469 244.078125 
L 315.935469 244.078125 
L 314.436141 244.078125 
z
" clip-path="url(#p1d5402c1bf)" style="fill: #1f77b4; fill-opacity: 0.5; stroke: #000000; stroke-width: 0.149933; stroke-linejoin: miter"/>
   </g>
   <g id="patch_168">
    <path d="M 315.935469 244.078125 
L 317.434798 244.078125 
L 317.434798 244.078125 
L 315.935469 244.078125 
z
" clip-path="url(#p1d5402c1bf)" style="fill: #1f77b4; fill-opacity: 0.5; stroke: #000000; stroke-width: 0.149933; stroke-linejoin: miter"/>
   </g>
   <g id="patch_169">
    <path d="M 317.434798 244.078125 
L 318.934126 244.078125 
L 318.934126 244.078125 
L 317.434798 244.078125 
z
" clip-path="url(#p1d5402c1bf)" style="fill: #1f77b4; fill-opacity: 0.5; stroke: #000000; stroke-width: 0.149933; stroke-linejoin: miter"/>
   </g>
   <g id="patch_170">
    <path d="M 318.934126 244.078125 
L 320.433454 244.078125 
L 320.433454 244.078125 
L 318.934126 244.078125 
z
" clip-path="url(#p1d5402c1bf)" style="fill: #1f77b4; fill-opacity: 0.5; stroke: #000000; stroke-width: 0.149933; stroke-linejoin: miter"/>
   </g>
   <g id="patch_171">
    <path d="M 320.433454 244.078125 
L 321.932782 244.078125 
L 321.932782 244.078125 
L 320.433454 244.078125 
z
" clip-path="url(#p1d5402c1bf)" style="fill: #1f77b4; fill-opacity: 0.5; stroke: #000000; stroke-width: 0.149933; stroke-linejoin: miter"/>
   </g>
   <g id="patch_172">
    <path d="M 321.932782 244.078125 
L 323.432111 244.078125 
L 323.432111 244.078125 
L 321.932782 244.078125 
z
" clip-path="url(#p1d5402c1bf)" style="fill: #1f77b4; fill-opacity: 0.5; stroke: #000000; stroke-width: 0.149933; stroke-linejoin: miter"/>
   </g>
   <g id="patch_173">
    <path d="M 323.432111 244.078125 
L 324.931439 244.078125 
L 324.931439 244.078125 
L 323.432111 244.078125 
z
" clip-path="url(#p1d5402c1bf)" style="fill: #1f77b4; fill-opacity: 0.5; stroke: #000000; stroke-width: 0.149933; stroke-linejoin: miter"/>
   </g>
   <g id="patch_174">
    <path d="M 324.931439 244.078125 
L 326.430767 244.078125 
L 326.430767 244.078125 
L 324.931439 244.078125 
z
" clip-path="url(#p1d5402c1bf)" style="fill: #1f77b4; fill-opacity: 0.5; stroke: #000000; stroke-width: 0.149933; stroke-linejoin: miter"/>
   </g>
   <g id="patch_175">
    <path d="M 326.430767 244.078125 
L 327.930095 244.078125 
L 327.930095 244.078125 
L 326.430767 244.078125 
z
" clip-path="url(#p1d5402c1bf)" style="fill: #1f77b4; fill-opacity: 0.5; stroke: #000000; stroke-width: 0.149933; stroke-linejoin: miter"/>
   </g>
   <g id="patch_176">
    <path d="M 327.930095 244.078125 
L 329.429424 244.078125 
L 329.429424 244.078125 
L 327.930095 244.078125 
z
" clip-path="url(#p1d5402c1bf)" style="fill: #1f77b4; fill-opacity: 0.5; stroke: #000000; stroke-width: 0.149933; stroke-linejoin: miter"/>
   </g>
   <g id="patch_177">
    <path d="M 329.429424 244.078125 
L 330.928752 244.078125 
L 330.928752 244.078125 
L 329.429424 244.078125 
z
" clip-path="url(#p1d5402c1bf)" style="fill: #1f77b4; fill-opacity: 0.5; stroke: #000000; stroke-width: 0.149933; stroke-linejoin: miter"/>
   </g>
   <g id="patch_178">
    <path d="M 330.928752 244.078125 
L 332.42808 244.078125 
L 332.42808 244.078125 
L 330.928752 244.078125 
z
" clip-path="url(#p1d5402c1bf)" style="fill: #1f77b4; fill-opacity: 0.5; stroke: #000000; stroke-width: 0.149933; stroke-linejoin: miter"/>
   </g>
   <g id="patch_179">
    <path d="M 332.42808 244.078125 
L 333.927408 244.078125 
L 333.927408 244.051662 
L 332.42808 244.051662 
z
" clip-path="url(#p1d5402c1bf)" style="fill: #1f77b4; fill-opacity: 0.5; stroke: #000000; stroke-width: 0.149933; stroke-linejoin: miter"/>
   </g>
   <g id="patch_180">
    <path d="M 333.927408 244.078125 
L 335.426737 244.078125 
L 335.426737 244.078125 
L 333.927408 244.078125 
z
" clip-path="url(#p1d5402c1bf)" style="fill: #1f77b4; fill-opacity: 0.5; stroke: #000000; stroke-width: 0.149933; stroke-linejoin: miter"/>
   </g>
   <g id="patch_181">
    <path d="M 335.426737 244.078125 
L 336.926065 244.078125 
L 336.926065 244.078125 
L 335.426737 244.078125 
z
" clip-path="url(#p1d5402c1bf)" style="fill: #1f77b4; fill-opacity: 0.5; stroke: #000000; stroke-width: 0.149933; stroke-linejoin: miter"/>
   </g>
   <g id="patch_182">
    <path d="M 336.926065 244.078125 
L 338.425393 244.078125 
L 338.425393 244.078125 
L 336.926065 244.078125 
z
" clip-path="url(#p1d5402c1bf)" style="fill: #1f77b4; fill-opacity: 0.5; stroke: #000000; stroke-width: 0.149933; stroke-linejoin: miter"/>
   </g>
   <g id="patch_183">
    <path d="M 338.425393 244.078125 
L 339.924722 244.078125 
L 339.924722 244.078125 
L 338.425393 244.078125 
z
" clip-path="url(#p1d5402c1bf)" style="fill: #1f77b4; fill-opacity: 0.5; stroke: #000000; stroke-width: 0.149933; stroke-linejoin: miter"/>
   </g>
   <g id="patch_184">
    <path d="M 339.924722 244.078125 
L 341.42405 244.078125 
L 341.42405 244.078125 
L 339.924722 244.078125 
z
" clip-path="url(#p1d5402c1bf)" style="fill: #1f77b4; fill-opacity: 0.5; stroke: #000000; stroke-width: 0.149933; stroke-linejoin: miter"/>
   </g>
   <g id="patch_185">
    <path d="M 341.42405 244.078125 
L 342.923378 244.078125 
L 342.923378 244.078125 
L 341.42405 244.078125 
z
" clip-path="url(#p1d5402c1bf)" style="fill: #1f77b4; fill-opacity: 0.5; stroke: #000000; stroke-width: 0.149933; stroke-linejoin: miter"/>
   </g>
   <g id="patch_186">
    <path d="M 342.923378 244.078125 
L 344.422706 244.078125 
L 344.422706 244.078125 
L 342.923378 244.078125 
z
" clip-path="url(#p1d5402c1bf)" style="fill: #1f77b4; fill-opacity: 0.5; stroke: #000000; stroke-width: 0.149933; stroke-linejoin: miter"/>
   </g>
   <g id="patch_187">
    <path d="M 344.422706 244.078125 
L 345.922035 244.078125 
L 345.922035 244.078125 
L 344.422706 244.078125 
z
" clip-path="url(#p1d5402c1bf)" style="fill: #1f77b4; fill-opacity: 0.5; stroke: #000000; stroke-width: 0.149933; stroke-linejoin: miter"/>
   </g>
   <g id="patch_188">
    <path d="M 345.922035 244.078125 
L 347.421363 244.078125 
L 347.421363 244.078125 
L 345.922035 244.078125 
z
" clip-path="url(#p1d5402c1bf)" style="fill: #1f77b4; fill-opacity: 0.5; stroke: #000000; stroke-width: 0.149933; stroke-linejoin: miter"/>
   </g>
   <g id="patch_189">
    <path d="M 347.421363 244.078125 
L 348.920691 244.078125 
L 348.920691 244.025199 
L 347.421363 244.025199 
z
" clip-path="url(#p1d5402c1bf)" style="fill: #1f77b4; fill-opacity: 0.5; stroke: #000000; stroke-width: 0.149933; stroke-linejoin: miter"/>
   </g>
   <g id="patch_190">
    <path d="M 348.920691 244.078125 
L 350.420019 244.078125 
L 350.420019 244.078125 
L 348.920691 244.078125 
z
" clip-path="url(#p1d5402c1bf)" style="fill: #1f77b4; fill-opacity: 0.5; stroke: #000000; stroke-width: 0.149933; stroke-linejoin: miter"/>
   </g>
   <g id="patch_191">
    <path d="M 350.420019 244.078125 
L 351.919348 244.078125 
L 351.919348 244.078125 
L 350.420019 244.078125 
z
" clip-path="url(#p1d5402c1bf)" style="fill: #1f77b4; fill-opacity: 0.5; stroke: #000000; stroke-width: 0.149933; stroke-linejoin: miter"/>
   </g>
   <g id="patch_192">
    <path d="M 351.919348 244.078125 
L 353.418676 244.078125 
L 353.418676 244.078125 
L 351.919348 244.078125 
z
" clip-path="url(#p1d5402c1bf)" style="fill: #1f77b4; fill-opacity: 0.5; stroke: #000000; stroke-width: 0.149933; stroke-linejoin: miter"/>
   </g>
   <g id="patch_193">
    <path d="M 353.418676 244.078125 
L 354.918004 244.078125 
L 354.918004 244.078125 
L 353.418676 244.078125 
z
" clip-path="url(#p1d5402c1bf)" style="fill: #1f77b4; fill-opacity: 0.5; stroke: #000000; stroke-width: 0.149933; stroke-linejoin: miter"/>
   </g>
   <g id="patch_194">
    <path d="M 354.918004 244.078125 
L 356.417332 244.078125 
L 356.417332 244.078125 
L 354.918004 244.078125 
z
" clip-path="url(#p1d5402c1bf)" style="fill: #1f77b4; fill-opacity: 0.5; stroke: #000000; stroke-width: 0.149933; stroke-linejoin: miter"/>
   </g>
   <g id="patch_195">
    <path d="M 356.417332 244.078125 
L 357.916661 244.078125 
L 357.916661 243.972274 
L 356.417332 243.972274 
z
" clip-path="url(#p1d5402c1bf)" style="fill: #1f77b4; fill-opacity: 0.5; stroke: #000000; stroke-width: 0.149933; stroke-linejoin: miter"/>
   </g>
   <g id="patch_196">
    <path d="M 357.916661 244.078125 
L 359.415989 244.078125 
L 359.415989 244.078125 
L 357.916661 244.078125 
z
" clip-path="url(#p1d5402c1bf)" style="fill: #1f77b4; fill-opacity: 0.5; stroke: #000000; stroke-width: 0.149933; stroke-linejoin: miter"/>
   </g>
   <g id="patch_197">
    <path d="M 359.415989 244.078125 
L 360.915317 244.078125 
L 360.915317 244.078125 
L 359.415989 244.078125 
z
" clip-path="url(#p1d5402c1bf)" style="fill: #1f77b4; fill-opacity: 0.5; stroke: #000000; stroke-width: 0.149933; stroke-linejoin: miter"/>
   </g>
   <g id="patch_198">
    <path d="M 360.915317 244.078125 
L 362.414645 244.078125 
L 362.414645 244.078125 
L 360.915317 244.078125 
z
" clip-path="url(#p1d5402c1bf)" style="fill: #1f77b4; fill-opacity: 0.5; stroke: #000000; stroke-width: 0.149933; stroke-linejoin: miter"/>
   </g>
   <g id="patch_199">
    <path d="M 362.414645 244.078125 
L 363.913974 244.078125 
L 363.913974 244.078125 
L 362.414645 244.078125 
z
" clip-path="url(#p1d5402c1bf)" style="fill: #1f77b4; fill-opacity: 0.5; stroke: #000000; stroke-width: 0.149933; stroke-linejoin: miter"/>
   </g>
   <g id="patch_200">
    <path d="M 363.913974 244.078125 
L 365.413302 244.078125 
L 365.413302 243.469479 
L 363.913974 243.469479 
z
" clip-path="url(#p1d5402c1bf)" style="fill: #1f77b4; fill-opacity: 0.5; stroke: #000000; stroke-width: 0.149933; stroke-linejoin: miter"/>
   </g>
   <g id="patch_201">
    <path d="M 365.413302 244.078125 
L 366.91263 244.078125 
L 366.91263 244.078125 
L 365.413302 244.078125 
z
" clip-path="url(#p1d5402c1bf)" style="fill: #1f77b4; fill-opacity: 0.5; stroke: #000000; stroke-width: 0.149933; stroke-linejoin: miter"/>
   </g>
   <g id="patch_202">
    <path d="M 366.91263 244.078125 
L 368.411958 244.078125 
L 368.411958 244.078125 
L 366.91263 244.078125 
z
" clip-path="url(#p1d5402c1bf)" style="fill: #1f77b4; fill-opacity: 0.5; stroke: #000000; stroke-width: 0.149933; stroke-linejoin: miter"/>
   </g>
   <g id="patch_203">
    <path d="M 368.411958 244.078125 
L 369.911287 244.078125 
L 369.911287 244.078125 
L 368.411958 244.078125 
z
" clip-path="url(#p1d5402c1bf)" style="fill: #1f77b4; fill-opacity: 0.5; stroke: #000000; stroke-width: 0.149933; stroke-linejoin: miter"/>
   </g>
   <g id="patch_204">
    <path d="M 369.911287 244.078125 
L 371.410615 244.078125 
L 371.410615 244.078125 
L 369.911287 244.078125 
z
" clip-path="url(#p1d5402c1bf)" style="fill: #1f77b4; fill-opacity: 0.5; stroke: #000000; stroke-width: 0.149933; stroke-linejoin: miter"/>
   </g>
   <g id="patch_205">
    <path d="M 371.410615 244.078125 
L 372.909943 244.078125 
L 372.909943 244.025199 
L 371.410615 244.025199 
z
" clip-path="url(#p1d5402c1bf)" style="fill: #1f77b4; fill-opacity: 0.5; stroke: #000000; stroke-width: 0.149933; stroke-linejoin: miter"/>
   </g>
   <g id="matplotlib.axis_1">
    <g id="xtick_1">
     <g id="line2d_1">
      <defs>
       <path id="m02684065c3" d="M 0 0 
L 0 3.5 
" style="stroke: #000000; stroke-width: 0.8"/>
      </defs>
      <g>
       <use xlink:href="#m02684065c3" x="68.546307" y="244.078125" style="stroke: #000000; stroke-width: 0.8"/>
      </g>
     </g>
     <g id="text_1">
      <!-- 0 -->
      <g transform="translate(65.365057 258.676562) scale(0.1 -0.1)">
       <defs>
        <path id="DejaVuSans-30" d="M 2034 4250 
Q 1547 4250 1301 3770 
Q 1056 3291 1056 2328 
Q 1056 1369 1301 889 
Q 1547 409 2034 409 
Q 2525 409 2770 889 
Q 3016 1369 3016 2328 
Q 3016 3291 2770 3770 
Q 2525 4250 2034 4250 
z
M 2034 4750 
Q 2819 4750 3233 4129 
Q 3647 3509 3647 2328 
Q 3647 1150 3233 529 
Q 2819 -91 2034 -91 
Q 1250 -91 836 529 
Q 422 1150 422 2328 
Q 422 3509 836 4129 
Q 1250 4750 2034 4750 
z
" transform="scale(0.015625)"/>
       </defs>
       <use xlink:href="#DejaVuSans-30"/>
      </g>
     </g>
    </g>
    <g id="xtick_2">
     <g id="line2d_2">
      <g>
       <use xlink:href="#m02684065c3" x="108.594154" y="244.078125" style="stroke: #000000; stroke-width: 0.8"/>
      </g>
     </g>
     <g id="text_2">
      <!-- 5 -->
      <g transform="translate(105.412904 258.676562) scale(0.1 -0.1)">
       <defs>
        <path id="DejaVuSans-35" d="M 691 4666 
L 3169 4666 
L 3169 4134 
L 1269 4134 
L 1269 2991 
Q 1406 3038 1543 3061 
Q 1681 3084 1819 3084 
Q 2600 3084 3056 2656 
Q 3513 2228 3513 1497 
Q 3513 744 3044 326 
Q 2575 -91 1722 -91 
Q 1428 -91 1123 -41 
Q 819 9 494 109 
L 494 744 
Q 775 591 1075 516 
Q 1375 441 1709 441 
Q 2250 441 2565 725 
Q 2881 1009 2881 1497 
Q 2881 1984 2565 2268 
Q 2250 2553 1709 2553 
Q 1456 2553 1204 2497 
Q 953 2441 691 2322 
L 691 4666 
z
" transform="scale(0.015625)"/>
       </defs>
       <use xlink:href="#DejaVuSans-35"/>
      </g>
     </g>
    </g>
    <g id="xtick_3">
     <g id="line2d_3">
      <g>
       <use xlink:href="#m02684065c3" x="148.642001" y="244.078125" style="stroke: #000000; stroke-width: 0.8"/>
      </g>
     </g>
     <g id="text_3">
      <!-- 10 -->
      <g transform="translate(142.279501 258.676562) scale(0.1 -0.1)">
       <defs>
        <path id="DejaVuSans-31" d="M 794 531 
L 1825 531 
L 1825 4091 
L 703 3866 
L 703 4441 
L 1819 4666 
L 2450 4666 
L 2450 531 
L 3481 531 
L 3481 0 
L 794 0 
L 794 531 
z
" transform="scale(0.015625)"/>
       </defs>
       <use xlink:href="#DejaVuSans-31"/>
       <use xlink:href="#DejaVuSans-30" transform="translate(63.623047 0)"/>
      </g>
     </g>
    </g>
    <g id="xtick_4">
     <g id="line2d_4">
      <g>
       <use xlink:href="#m02684065c3" x="188.689847" y="244.078125" style="stroke: #000000; stroke-width: 0.8"/>
      </g>
     </g>
     <g id="text_4">
      <!-- 15 -->
      <g transform="translate(182.327347 258.676562) scale(0.1 -0.1)">
       <use xlink:href="#DejaVuSans-31"/>
       <use xlink:href="#DejaVuSans-35" transform="translate(63.623047 0)"/>
      </g>
     </g>
    </g>
    <g id="xtick_5">
     <g id="line2d_5">
      <g>
       <use xlink:href="#m02684065c3" x="228.737694" y="244.078125" style="stroke: #000000; stroke-width: 0.8"/>
      </g>
     </g>
     <g id="text_5">
      <!-- 20 -->
      <g transform="translate(222.375194 258.676562) scale(0.1 -0.1)">
       <defs>
        <path id="DejaVuSans-32" d="M 1228 531 
L 3431 531 
L 3431 0 
L 469 0 
L 469 531 
Q 828 903 1448 1529 
Q 2069 2156 2228 2338 
Q 2531 2678 2651 2914 
Q 2772 3150 2772 3378 
Q 2772 3750 2511 3984 
Q 2250 4219 1831 4219 
Q 1534 4219 1204 4116 
Q 875 4013 500 3803 
L 500 4441 
Q 881 4594 1212 4672 
Q 1544 4750 1819 4750 
Q 2544 4750 2975 4387 
Q 3406 4025 3406 3419 
Q 3406 3131 3298 2873 
Q 3191 2616 2906 2266 
Q 2828 2175 2409 1742 
Q 1991 1309 1228 531 
z
" transform="scale(0.015625)"/>
       </defs>
       <use xlink:href="#DejaVuSans-32"/>
       <use xlink:href="#DejaVuSans-30" transform="translate(63.623047 0)"/>
      </g>
     </g>
    </g>
    <g id="xtick_6">
     <g id="line2d_6">
      <g>
       <use xlink:href="#m02684065c3" x="268.785541" y="244.078125" style="stroke: #000000; stroke-width: 0.8"/>
      </g>
     </g>
     <g id="text_6">
      <!-- 25 -->
      <g transform="translate(262.423041 258.676562) scale(0.1 -0.1)">
       <use xlink:href="#DejaVuSans-32"/>
       <use xlink:href="#DejaVuSans-35" transform="translate(63.623047 0)"/>
      </g>
     </g>
    </g>
    <g id="xtick_7">
     <g id="line2d_7">
      <g>
       <use xlink:href="#m02684065c3" x="308.833388" y="244.078125" style="stroke: #000000; stroke-width: 0.8"/>
      </g>
     </g>
     <g id="text_7">
      <!-- 30 -->
      <g transform="translate(302.470888 258.676562) scale(0.1 -0.1)">
       <defs>
        <path id="DejaVuSans-33" d="M 2597 2516 
Q 3050 2419 3304 2112 
Q 3559 1806 3559 1356 
Q 3559 666 3084 287 
Q 2609 -91 1734 -91 
Q 1441 -91 1130 -33 
Q 819 25 488 141 
L 488 750 
Q 750 597 1062 519 
Q 1375 441 1716 441 
Q 2309 441 2620 675 
Q 2931 909 2931 1356 
Q 2931 1769 2642 2001 
Q 2353 2234 1838 2234 
L 1294 2234 
L 1294 2753 
L 1863 2753 
Q 2328 2753 2575 2939 
Q 2822 3125 2822 3475 
Q 2822 3834 2567 4026 
Q 2313 4219 1838 4219 
Q 1578 4219 1281 4162 
Q 984 4106 628 3988 
L 628 4550 
Q 988 4650 1302 4700 
Q 1616 4750 1894 4750 
Q 2613 4750 3031 4423 
Q 3450 4097 3450 3541 
Q 3450 3153 3228 2886 
Q 3006 2619 2597 2516 
z
" transform="scale(0.015625)"/>
       </defs>
       <use xlink:href="#DejaVuSans-33"/>
       <use xlink:href="#DejaVuSans-30" transform="translate(63.623047 0)"/>
      </g>
     </g>
    </g>
    <g id="xtick_8">
     <g id="line2d_8">
      <g>
       <use xlink:href="#m02684065c3" x="348.881235" y="244.078125" style="stroke: #000000; stroke-width: 0.8"/>
      </g>
     </g>
     <g id="text_8">
      <!-- 35 -->
      <g transform="translate(342.518735 258.676562) scale(0.1 -0.1)">
       <use xlink:href="#DejaVuSans-33"/>
       <use xlink:href="#DejaVuSans-35" transform="translate(63.623047 0)"/>
      </g>
     </g>
    </g>
    <g id="text_9">
     <!-- nm -->
     <g transform="translate(212.689063 272.354687) scale(0.1 -0.1)">
      <defs>
       <path id="DejaVuSans-6e" d="M 3513 2113 
L 3513 0 
L 2938 0 
L 2938 2094 
Q 2938 2591 2744 2837 
Q 2550 3084 2163 3084 
Q 1697 3084 1428 2787 
Q 1159 2491 1159 1978 
L 1159 0 
L 581 0 
L 581 3500 
L 1159 3500 
L 1159 2956 
Q 1366 3272 1645 3428 
Q 1925 3584 2291 3584 
Q 2894 3584 3203 3211 
Q 3513 2838 3513 2113 
z
" transform="scale(0.015625)"/>
       <path id="DejaVuSans-6d" d="M 3328 2828 
Q 3544 3216 3844 3400 
Q 4144 3584 4550 3584 
Q 5097 3584 5394 3201 
Q 5691 2819 5691 2113 
L 5691 0 
L 5113 0 
L 5113 2094 
Q 5113 2597 4934 2840 
Q 4756 3084 4391 3084 
Q 3944 3084 3684 2787 
Q 3425 2491 3425 1978 
L 3425 0 
L 2847 0 
L 2847 2094 
Q 2847 2600 2669 2842 
Q 2491 3084 2119 3084 
Q 1678 3084 1418 2786 
Q 1159 2488 1159 1978 
L 1159 0 
L 581 0 
L 581 3500 
L 1159 3500 
L 1159 2956 
Q 1356 3278 1631 3431 
Q 1906 3584 2284 3584 
Q 2666 3584 2933 3390 
Q 3200 3197 3328 2828 
z
" transform="scale(0.015625)"/>
      </defs>
      <use xlink:href="#DejaVuSans-6e"/>
      <use xlink:href="#DejaVuSans-6d" transform="translate(63.378906 0)"/>
     </g>
    </g>
   </g>
   <g id="matplotlib.axis_2">
    <g id="ytick_1">
     <g id="line2d_9">
      <defs>
       <path id="m689672278a" d="M 0 0 
L -3.5 0 
" style="stroke: #000000; stroke-width: 0.8"/>
      </defs>
      <g>
       <use xlink:href="#m689672278a" x="53.328125" y="244.078125" style="stroke: #000000; stroke-width: 0.8"/>
      </g>
     </g>
     <g id="text_10">
      <!-- 0 -->
      <g transform="translate(39.965625 247.877344) scale(0.1 -0.1)">
       <use xlink:href="#DejaVuSans-30"/>
      </g>
     </g>
    </g>
    <g id="ytick_2">
     <g id="line2d_10">
      <g>
       <use xlink:href="#m689672278a" x="53.328125" y="217.615276" style="stroke: #000000; stroke-width: 0.8"/>
      </g>
     </g>
     <g id="text_11">
      <!-- 1000 -->
      <g transform="translate(20.878125 221.414494) scale(0.1 -0.1)">
       <use xlink:href="#DejaVuSans-31"/>
       <use xlink:href="#DejaVuSans-30" transform="translate(63.623047 0)"/>
       <use xlink:href="#DejaVuSans-30" transform="translate(127.246094 0)"/>
       <use xlink:href="#DejaVuSans-30" transform="translate(190.869141 0)"/>
      </g>
     </g>
    </g>
    <g id="ytick_3">
     <g id="line2d_11">
      <g>
       <use xlink:href="#m689672278a" x="53.328125" y="191.152426" style="stroke: #000000; stroke-width: 0.8"/>
      </g>
     </g>
     <g id="text_12">
      <!-- 2000 -->
      <g transform="translate(20.878125 194.951645) scale(0.1 -0.1)">
       <use xlink:href="#DejaVuSans-32"/>
       <use xlink:href="#DejaVuSans-30" transform="translate(63.623047 0)"/>
       <use xlink:href="#DejaVuSans-30" transform="translate(127.246094 0)"/>
       <use xlink:href="#DejaVuSans-30" transform="translate(190.869141 0)"/>
      </g>
     </g>
    </g>
    <g id="ytick_4">
     <g id="line2d_12">
      <g>
       <use xlink:href="#m689672278a" x="53.328125" y="164.689577" style="stroke: #000000; stroke-width: 0.8"/>
      </g>
     </g>
     <g id="text_13">
      <!-- 3000 -->
      <g transform="translate(20.878125 168.488796) scale(0.1 -0.1)">
       <use xlink:href="#DejaVuSans-33"/>
       <use xlink:href="#DejaVuSans-30" transform="translate(63.623047 0)"/>
       <use xlink:href="#DejaVuSans-30" transform="translate(127.246094 0)"/>
       <use xlink:href="#DejaVuSans-30" transform="translate(190.869141 0)"/>
      </g>
     </g>
    </g>
    <g id="ytick_5">
     <g id="line2d_13">
      <g>
       <use xlink:href="#m689672278a" x="53.328125" y="138.226728" style="stroke: #000000; stroke-width: 0.8"/>
      </g>
     </g>
     <g id="text_14">
      <!-- 4000 -->
      <g transform="translate(20.878125 142.025947) scale(0.1 -0.1)">
       <defs>
        <path id="DejaVuSans-34" d="M 2419 4116 
L 825 1625 
L 2419 1625 
L 2419 4116 
z
M 2253 4666 
L 3047 4666 
L 3047 1625 
L 3713 1625 
L 3713 1100 
L 3047 1100 
L 3047 0 
L 2419 0 
L 2419 1100 
L 313 1100 
L 313 1709 
L 2253 4666 
z
" transform="scale(0.015625)"/>
       </defs>
       <use xlink:href="#DejaVuSans-34"/>
       <use xlink:href="#DejaVuSans-30" transform="translate(63.623047 0)"/>
       <use xlink:href="#DejaVuSans-30" transform="translate(127.246094 0)"/>
       <use xlink:href="#DejaVuSans-30" transform="translate(190.869141 0)"/>
      </g>
     </g>
    </g>
    <g id="ytick_6">
     <g id="line2d_14">
      <g>
       <use xlink:href="#m689672278a" x="53.328125" y="111.763879" style="stroke: #000000; stroke-width: 0.8"/>
      </g>
     </g>
     <g id="text_15">
      <!-- 5000 -->
      <g transform="translate(20.878125 115.563097) scale(0.1 -0.1)">
       <use xlink:href="#DejaVuSans-35"/>
       <use xlink:href="#DejaVuSans-30" transform="translate(63.623047 0)"/>
       <use xlink:href="#DejaVuSans-30" transform="translate(127.246094 0)"/>
       <use xlink:href="#DejaVuSans-30" transform="translate(190.869141 0)"/>
      </g>
     </g>
    </g>
    <g id="ytick_7">
     <g id="line2d_15">
      <g>
       <use xlink:href="#m689672278a" x="53.328125" y="85.301029" style="stroke: #000000; stroke-width: 0.8"/>
      </g>
     </g>
     <g id="text_16">
      <!-- 6000 -->
      <g transform="translate(20.878125 89.100248) scale(0.1 -0.1)">
       <defs>
        <path id="DejaVuSans-36" d="M 2113 2584 
Q 1688 2584 1439 2293 
Q 1191 2003 1191 1497 
Q 1191 994 1439 701 
Q 1688 409 2113 409 
Q 2538 409 2786 701 
Q 3034 994 3034 1497 
Q 3034 2003 2786 2293 
Q 2538 2584 2113 2584 
z
M 3366 4563 
L 3366 3988 
Q 3128 4100 2886 4159 
Q 2644 4219 2406 4219 
Q 1781 4219 1451 3797 
Q 1122 3375 1075 2522 
Q 1259 2794 1537 2939 
Q 1816 3084 2150 3084 
Q 2853 3084 3261 2657 
Q 3669 2231 3669 1497 
Q 3669 778 3244 343 
Q 2819 -91 2113 -91 
Q 1303 -91 875 529 
Q 447 1150 447 2328 
Q 447 3434 972 4092 
Q 1497 4750 2381 4750 
Q 2619 4750 2861 4703 
Q 3103 4656 3366 4563 
z
" transform="scale(0.015625)"/>
       </defs>
       <use xlink:href="#DejaVuSans-36"/>
       <use xlink:href="#DejaVuSans-30" transform="translate(63.623047 0)"/>
       <use xlink:href="#DejaVuSans-30" transform="translate(127.246094 0)"/>
       <use xlink:href="#DejaVuSans-30" transform="translate(190.869141 0)"/>
      </g>
     </g>
    </g>
    <g id="ytick_8">
     <g id="line2d_16">
      <g>
       <use xlink:href="#m689672278a" x="53.328125" y="58.83818" style="stroke: #000000; stroke-width: 0.8"/>
      </g>
     </g>
     <g id="text_17">
      <!-- 7000 -->
      <g transform="translate(20.878125 62.637399) scale(0.1 -0.1)">
       <defs>
        <path id="DejaVuSans-37" d="M 525 4666 
L 3525 4666 
L 3525 4397 
L 1831 0 
L 1172 0 
L 2766 4134 
L 525 4134 
L 525 4666 
z
" transform="scale(0.015625)"/>
       </defs>
       <use xlink:href="#DejaVuSans-37"/>
       <use xlink:href="#DejaVuSans-30" transform="translate(63.623047 0)"/>
       <use xlink:href="#DejaVuSans-30" transform="translate(127.246094 0)"/>
       <use xlink:href="#DejaVuSans-30" transform="translate(190.869141 0)"/>
      </g>
     </g>
    </g>
    <g id="ytick_9">
     <g id="line2d_17">
      <g>
       <use xlink:href="#m689672278a" x="53.328125" y="32.375331" style="stroke: #000000; stroke-width: 0.8"/>
      </g>
     </g>
     <g id="text_18">
      <!-- 8000 -->
      <g transform="translate(20.878125 36.17455) scale(0.1 -0.1)">
       <defs>
        <path id="DejaVuSans-38" d="M 2034 2216 
Q 1584 2216 1326 1975 
Q 1069 1734 1069 1313 
Q 1069 891 1326 650 
Q 1584 409 2034 409 
Q 2484 409 2743 651 
Q 3003 894 3003 1313 
Q 3003 1734 2745 1975 
Q 2488 2216 2034 2216 
z
M 1403 2484 
Q 997 2584 770 2862 
Q 544 3141 544 3541 
Q 544 4100 942 4425 
Q 1341 4750 2034 4750 
Q 2731 4750 3128 4425 
Q 3525 4100 3525 3541 
Q 3525 3141 3298 2862 
Q 3072 2584 2669 2484 
Q 3125 2378 3379 2068 
Q 3634 1759 3634 1313 
Q 3634 634 3220 271 
Q 2806 -91 2034 -91 
Q 1263 -91 848 271 
Q 434 634 434 1313 
Q 434 1759 690 2068 
Q 947 2378 1403 2484 
z
M 1172 3481 
Q 1172 3119 1398 2916 
Q 1625 2713 2034 2713 
Q 2441 2713 2670 2916 
Q 2900 3119 2900 3481 
Q 2900 3844 2670 4047 
Q 2441 4250 2034 4250 
Q 1625 4250 1398 4047 
Q 1172 3844 1172 3481 
z
" transform="scale(0.015625)"/>
       </defs>
       <use xlink:href="#DejaVuSans-38"/>
       <use xlink:href="#DejaVuSans-30" transform="translate(63.623047 0)"/>
       <use xlink:href="#DejaVuSans-30" transform="translate(127.246094 0)"/>
       <use xlink:href="#DejaVuSans-30" transform="translate(190.869141 0)"/>
      </g>
     </g>
    </g>
    <g id="text_19">
     <!-- Count -->
     <g transform="translate(14.798438 148.046562) rotate(-90) scale(0.1 -0.1)">
      <defs>
       <path id="DejaVuSans-43" d="M 4122 4306 
L 4122 3641 
Q 3803 3938 3442 4084 
Q 3081 4231 2675 4231 
Q 1875 4231 1450 3742 
Q 1025 3253 1025 2328 
Q 1025 1406 1450 917 
Q 1875 428 2675 428 
Q 3081 428 3442 575 
Q 3803 722 4122 1019 
L 4122 359 
Q 3791 134 3420 21 
Q 3050 -91 2638 -91 
Q 1578 -91 968 557 
Q 359 1206 359 2328 
Q 359 3453 968 4101 
Q 1578 4750 2638 4750 
Q 3056 4750 3426 4639 
Q 3797 4528 4122 4306 
z
" transform="scale(0.015625)"/>
       <path id="DejaVuSans-6f" d="M 1959 3097 
Q 1497 3097 1228 2736 
Q 959 2375 959 1747 
Q 959 1119 1226 758 
Q 1494 397 1959 397 
Q 2419 397 2687 759 
Q 2956 1122 2956 1747 
Q 2956 2369 2687 2733 
Q 2419 3097 1959 3097 
z
M 1959 3584 
Q 2709 3584 3137 3096 
Q 3566 2609 3566 1747 
Q 3566 888 3137 398 
Q 2709 -91 1959 -91 
Q 1206 -91 779 398 
Q 353 888 353 1747 
Q 353 2609 779 3096 
Q 1206 3584 1959 3584 
z
" transform="scale(0.015625)"/>
       <path id="DejaVuSans-75" d="M 544 1381 
L 544 3500 
L 1119 3500 
L 1119 1403 
Q 1119 906 1312 657 
Q 1506 409 1894 409 
Q 2359 409 2629 706 
Q 2900 1003 2900 1516 
L 2900 3500 
L 3475 3500 
L 3475 0 
L 2900 0 
L 2900 538 
Q 2691 219 2414 64 
Q 2138 -91 1772 -91 
Q 1169 -91 856 284 
Q 544 659 544 1381 
z
M 1991 3584 
L 1991 3584 
z
" transform="scale(0.015625)"/>
       <path id="DejaVuSans-74" d="M 1172 4494 
L 1172 3500 
L 2356 3500 
L 2356 3053 
L 1172 3053 
L 1172 1153 
Q 1172 725 1289 603 
Q 1406 481 1766 481 
L 2356 481 
L 2356 0 
L 1766 0 
Q 1100 0 847 248 
Q 594 497 594 1153 
L 594 3053 
L 172 3053 
L 172 3500 
L 594 3500 
L 594 4494 
L 1172 4494 
z
" transform="scale(0.015625)"/>
      </defs>
      <use xlink:href="#DejaVuSans-43"/>
      <use xlink:href="#DejaVuSans-6f" transform="translate(69.824219 0)"/>
      <use xlink:href="#DejaVuSans-75" transform="translate(131.005859 0)"/>
      <use xlink:href="#DejaVuSans-6e" transform="translate(194.384766 0)"/>
      <use xlink:href="#DejaVuSans-74" transform="translate(257.763672 0)"/>
     </g>
    </g>
   </g>
   <g id="line2d_18">
    <path d="M 68.546307 238.023778 
L 70.075772 234.211689 
L 71.605238 228.191648 
L 74.664169 213.052768 
L 76.193634 209.087994 
L 77.7231 210.375199 
L 79.252565 216.160184 
L 80.782031 223.69959 
L 82.311496 230.304552 
L 83.840962 234.844713 
L 85.370427 237.650724 
L 86.899893 239.492878 
L 88.429358 240.837838 
L 89.958824 241.803235 
L 91.488289 242.428487 
L 94.54722 243.094942 
L 97.606151 243.47721 
L 102.194548 243.709548 
L 109.841876 243.867102 
L 123.607065 244.014451 
L 166.432099 244.050941 
L 336.202771 244.075252 
L 362.203685 243.996149 
L 368.321547 244.009791 
L 372.909943 244.06039 
L 372.909943 244.06039 
" clip-path="url(#p1d5402c1bf)" style="fill: none; stroke: #1f77b4; stroke-width: 1.5; stroke-linecap: square"/>
   </g>
   <g id="patch_206">
    <path d="M 53.328125 244.078125 
L 53.328125 22.318125 
" style="fill: none; stroke: #000000; stroke-width: 0.8; stroke-linejoin: miter; stroke-linecap: square"/>
   </g>
   <g id="patch_207">
    <path d="M 388.128125 244.078125 
L 388.128125 22.318125 
" style="fill: none; stroke: #000000; stroke-width: 0.8; stroke-linejoin: miter; stroke-linecap: square"/>
   </g>
   <g id="patch_208">
    <path d="M 53.328125 244.078125 
L 388.128125 244.078125 
" style="fill: none; stroke: #000000; stroke-width: 0.8; stroke-linejoin: miter; stroke-linecap: square"/>
   </g>
   <g id="patch_209">
    <path d="M 53.328125 22.318125 
L 388.128125 22.318125 
" style="fill: none; stroke: #000000; stroke-width: 0.8; stroke-linejoin: miter; stroke-linecap: square"/>
   </g>
   <g id="text_20">
    <!-- Distribuzione di nm -->
    <g transform="translate(162.300313 16.318125) scale(0.12 -0.12)">
     <defs>
      <path id="DejaVuSans-44" d="M 1259 4147 
L 1259 519 
L 2022 519 
Q 2988 519 3436 956 
Q 3884 1394 3884 2338 
Q 3884 3275 3436 3711 
Q 2988 4147 2022 4147 
L 1259 4147 
z
M 628 4666 
L 1925 4666 
Q 3281 4666 3915 4102 
Q 4550 3538 4550 2338 
Q 4550 1131 3912 565 
Q 3275 0 1925 0 
L 628 0 
L 628 4666 
z
" transform="scale(0.015625)"/>
      <path id="DejaVuSans-69" d="M 603 3500 
L 1178 3500 
L 1178 0 
L 603 0 
L 603 3500 
z
M 603 4863 
L 1178 4863 
L 1178 4134 
L 603 4134 
L 603 4863 
z
" transform="scale(0.015625)"/>
      <path id="DejaVuSans-73" d="M 2834 3397 
L 2834 2853 
Q 2591 2978 2328 3040 
Q 2066 3103 1784 3103 
Q 1356 3103 1142 2972 
Q 928 2841 928 2578 
Q 928 2378 1081 2264 
Q 1234 2150 1697 2047 
L 1894 2003 
Q 2506 1872 2764 1633 
Q 3022 1394 3022 966 
Q 3022 478 2636 193 
Q 2250 -91 1575 -91 
Q 1294 -91 989 -36 
Q 684 19 347 128 
L 347 722 
Q 666 556 975 473 
Q 1284 391 1588 391 
Q 1994 391 2212 530 
Q 2431 669 2431 922 
Q 2431 1156 2273 1281 
Q 2116 1406 1581 1522 
L 1381 1569 
Q 847 1681 609 1914 
Q 372 2147 372 2553 
Q 372 3047 722 3315 
Q 1072 3584 1716 3584 
Q 2034 3584 2315 3537 
Q 2597 3491 2834 3397 
z
" transform="scale(0.015625)"/>
      <path id="DejaVuSans-72" d="M 2631 2963 
Q 2534 3019 2420 3045 
Q 2306 3072 2169 3072 
Q 1681 3072 1420 2755 
Q 1159 2438 1159 1844 
L 1159 0 
L 581 0 
L 581 3500 
L 1159 3500 
L 1159 2956 
Q 1341 3275 1631 3429 
Q 1922 3584 2338 3584 
Q 2397 3584 2469 3576 
Q 2541 3569 2628 3553 
L 2631 2963 
z
" transform="scale(0.015625)"/>
      <path id="DejaVuSans-62" d="M 3116 1747 
Q 3116 2381 2855 2742 
Q 2594 3103 2138 3103 
Q 1681 3103 1420 2742 
Q 1159 2381 1159 1747 
Q 1159 1113 1420 752 
Q 1681 391 2138 391 
Q 2594 391 2855 752 
Q 3116 1113 3116 1747 
z
M 1159 2969 
Q 1341 3281 1617 3432 
Q 1894 3584 2278 3584 
Q 2916 3584 3314 3078 
Q 3713 2572 3713 1747 
Q 3713 922 3314 415 
Q 2916 -91 2278 -91 
Q 1894 -91 1617 61 
Q 1341 213 1159 525 
L 1159 0 
L 581 0 
L 581 4863 
L 1159 4863 
L 1159 2969 
z
" transform="scale(0.015625)"/>
      <path id="DejaVuSans-7a" d="M 353 3500 
L 3084 3500 
L 3084 2975 
L 922 459 
L 3084 459 
L 3084 0 
L 275 0 
L 275 525 
L 2438 3041 
L 353 3041 
L 353 3500 
z
" transform="scale(0.015625)"/>
      <path id="DejaVuSans-65" d="M 3597 1894 
L 3597 1613 
L 953 1613 
Q 991 1019 1311 708 
Q 1631 397 2203 397 
Q 2534 397 2845 478 
Q 3156 559 3463 722 
L 3463 178 
Q 3153 47 2828 -22 
Q 2503 -91 2169 -91 
Q 1331 -91 842 396 
Q 353 884 353 1716 
Q 353 2575 817 3079 
Q 1281 3584 2069 3584 
Q 2775 3584 3186 3129 
Q 3597 2675 3597 1894 
z
M 3022 2063 
Q 3016 2534 2758 2815 
Q 2500 3097 2075 3097 
Q 1594 3097 1305 2825 
Q 1016 2553 972 2059 
L 3022 2063 
z
" transform="scale(0.015625)"/>
      <path id="DejaVuSans-20" transform="scale(0.015625)"/>
      <path id="DejaVuSans-64" d="M 2906 2969 
L 2906 4863 
L 3481 4863 
L 3481 0 
L 2906 0 
L 2906 525 
Q 2725 213 2448 61 
Q 2172 -91 1784 -91 
Q 1150 -91 751 415 
Q 353 922 353 1747 
Q 353 2572 751 3078 
Q 1150 3584 1784 3584 
Q 2172 3584 2448 3432 
Q 2725 3281 2906 2969 
z
M 947 1747 
Q 947 1113 1208 752 
Q 1469 391 1925 391 
Q 2381 391 2643 752 
Q 2906 1113 2906 1747 
Q 2906 2381 2643 2742 
Q 2381 3103 1925 3103 
Q 1469 3103 1208 2742 
Q 947 2381 947 1747 
z
" transform="scale(0.015625)"/>
     </defs>
     <use xlink:href="#DejaVuSans-44"/>
     <use xlink:href="#DejaVuSans-69" transform="translate(77.001953 0)"/>
     <use xlink:href="#DejaVuSans-73" transform="translate(104.785156 0)"/>
     <use xlink:href="#DejaVuSans-74" transform="translate(156.884766 0)"/>
     <use xlink:href="#DejaVuSans-72" transform="translate(196.09375 0)"/>
     <use xlink:href="#DejaVuSans-69" transform="translate(237.207031 0)"/>
     <use xlink:href="#DejaVuSans-62" transform="translate(264.990234 0)"/>
     <use xlink:href="#DejaVuSans-75" transform="translate(328.466797 0)"/>
     <use xlink:href="#DejaVuSans-7a" transform="translate(391.845703 0)"/>
     <use xlink:href="#DejaVuSans-69" transform="translate(444.335938 0)"/>
     <use xlink:href="#DejaVuSans-6f" transform="translate(472.119141 0)"/>
     <use xlink:href="#DejaVuSans-6e" transform="translate(533.300781 0)"/>
     <use xlink:href="#DejaVuSans-65" transform="translate(596.679688 0)"/>
     <use xlink:href="#DejaVuSans-20" transform="translate(658.203125 0)"/>
     <use xlink:href="#DejaVuSans-64" transform="translate(689.990234 0)"/>
     <use xlink:href="#DejaVuSans-69" transform="translate(753.466797 0)"/>
     <use xlink:href="#DejaVuSans-20" transform="translate(781.25 0)"/>
     <use xlink:href="#DejaVuSans-6e" transform="translate(813.037109 0)"/>
     <use xlink:href="#DejaVuSans-6d" transform="translate(876.416016 0)"/>
    </g>
   </g>
  </g>
 </g>
 <defs>
  <clipPath id="p1d5402c1bf">
   <rect x="53.328125" y="22.318125" width="334.8" height="221.76"/>
  </clipPath>
 </defs>
</svg>
